<?xml version="1.0" encoding="utf-8"?>
<!-- Generator: Adobe Illustrator 22.1.0, SVG Export Plug-In . SVG Version: 6.00 Build 0)  -->
<svg version="1.1" id="Layer_1" xmlns="http://www.w3.org/2000/svg" xmlns:xlink="http://www.w3.org/1999/xlink" x="0px" y="0px"
	 viewBox="0 0 1280 1485" style="enable-background:new 0 0 1280 1485;" xml:space="preserve">
<style type="text/css">
	.st0{fill:#FFFFFF;}
</style>
<g>
	<g>
		<path class="st0" d="M1126,230.6c15.1,0,27.7,12.5,27.7,27.7c0,15.1-12.5,27.7-27.7,27.7s-27.1-12.5-27.7-27.7
			C1098.3,243.2,1110.8,230.6,1126,230.6z"/>
	</g>
	<g>
		<path class="st0" d="M1153.6,53.2c0,15.1-12.5,27.7-27.7,27.7s-27.1-12.5-27.7-27.7c0-15.1,12.5-27.7,27.7-27.7
			S1153.6,38.1,1153.6,53.2z"/>
	</g>
	<g>
		
			<ellipse transform="matrix(0.7071 -0.7071 0.7071 0.7071 249.9473 914.4194)" class="st0" cx="1228.8" cy="155.5" rx="27.7" ry="27.7"/>
	</g>
	<g>
		<path class="st0" d="M0,0l0,1485h1280V196.4c-11.9,15.1-30.4,24.9-51.2,24.9c-17.7,0-34.4-7.3-47-19.8l-4.2-4.2
			c-13.6-14.1-31.8-21.9-51.1-21.9c-19.3,0-37.6,7.8-51.1,21.9l-4.2,4.2c-12.5,13-29.2,19.8-47,19.8c-36,0-65.2-29.2-65.2-65.2
			c-0.5-36,28.7-65.7,64.7-65.7c17.7,0,34.4,7.3,47,19.8l4.2,4.7c13.6,14.1,31.8,21.9,51.1,21.9c19.3,0,37.6-7.8,51.1-21.9l4.2-4.2
			c12.5-13,29.2-19.8,47-19.8c21.1-0.3,39.7,9.5,51.7,24.8V0l-116.4,0c16.7,11.8,27.6,31.3,27.6,53.2c0,36-29.2,65.2-65.2,65.2
			c-36,0-65.2-29.2-65.2-65.2c0-22,10.9-41.4,27.6-53.2L0,0z M1060.8,257.8c0-35.5,29.2-65.2,65.2-65.2s65.2,29.2,65.2,65.2
			c0,36-29.2,65.2-65.2,65.2C1090,323,1060.8,293.8,1060.8,257.8z"/>
	</g>
	<g>
		
			<ellipse transform="matrix(0.9239 -0.3827 0.3827 0.9239 18.4193 403.593)" class="st0" cx="1023.7" cy="155.5" rx="27.7" ry="27.7"/>
	</g>
</g>
</svg>
