<?xml version="1.0" encoding="utf-8"?>
<!-- Generator: Adobe Illustrator 22.1.0, SVG Export Plug-In . SVG Version: 6.00 Build 0)  -->
<svg version="1.1" id="Layer_1" xmlns="http://www.w3.org/2000/svg" xmlns:xlink="http://www.w3.org/1999/xlink" x="0px" y="0px"
	 viewBox="0 0 1280 1485" style="enable-background:new 0 0 1280 1485;" xml:space="preserve">
<style type="text/css">
	.st0{fill:#FFFFFF;}
</style>
<g>
	<g>
		<path class="st0" d="M154,230.6c-15.1,0-27.7,12.5-27.7,27.7c0,15.1,12.5,27.7,27.7,27.7s27.1-12.5,27.7-27.7
			C181.7,243.2,169.2,230.6,154,230.6z"/>
	</g>
	<g>
		<path class="st0" d="M126.4,53.2c0,15.1,12.5,27.7,27.7,27.7s27.1-12.5,27.7-27.7c0-15.1-12.5-27.7-27.7-27.7
			S126.4,38.1,126.4,53.2z"/>
	</g>
	<g>
		
			<ellipse transform="matrix(0.7071 -0.7071 0.7071 0.7071 -94.9494 81.7651)" class="st0" cx="51.2" cy="155.5" rx="27.7" ry="27.7"/>
	</g>
	<g>
		<path class="st0" d="M191.7,0c16.7,11.8,27.6,31.3,27.6,53.2c0,36-29.2,65.2-65.2,65.2S88.8,89.2,88.8,53.2
			c0-22,10.9-41.4,27.6-53.2H0v115.6c12-15.3,30.6-25.1,51.7-24.8c17.7,0,34.4,6.8,47,19.8l4.2,4.2c13.6,14.1,31.8,21.9,51.1,21.9
			s37.6-7.8,51.1-21.9l4.2-4.7c12.5-12.5,29.2-19.8,47-19.8c36,0,65.2,29.7,64.7,65.7c0,36-29.2,65.2-65.2,65.2
			c-17.7,0-34.4-6.8-47-19.8l-4.2-4.2c-13.6-14.1-31.8-21.9-51.1-21.9s-37.6,7.8-51.1,21.9l-4.2,4.2c-12.5,12.5-29.2,19.8-47,19.8
			c-20.8,0-39.3-9.7-51.2-24.9V1485h1280V0H191.7z M154,323c-36,0-65.2-29.2-65.2-65.2c0-36,29.2-65.2,65.2-65.2
			c36,0,65.2,29.7,65.2,65.2C219.2,293.8,190,323,154,323z"/>
	</g>
	<g>
		
			<ellipse transform="matrix(0.3827 -0.9239 0.9239 0.3827 14.5522 332.7721)" class="st0" cx="256.3" cy="155.5" rx="27.7" ry="27.7"/>
	</g>
</g>
</svg>
