<?xml version="1.0" encoding="utf-8"?>
<!-- Generator: Adobe Illustrator 22.1.0, SVG Export Plug-In . SVG Version: 6.00 Build 0)  -->
<svg version="1.1" id="Layer_1" xmlns="http://www.w3.org/2000/svg" xmlns:xlink="http://www.w3.org/1999/xlink" x="0px" y="0px"
	 viewBox="0 0 1280 6000" style="enable-background:new 0 0 1280 6000;" xml:space="preserve">
<style type="text/css">
	.st0{fill:#FFFFFF;}
</style>
<g>
	<g>
		<path class="st0" d="M154,229.6c-15.1,0-27.7,12.5-27.7,27.7c0,15.1,12.5,27.7,27.7,27.7s27.1-12.5,27.7-27.7
			C181.7,242.2,169.2,229.6,154,229.6z"/>
	</g>
	<g>
		<path class="st0" d="M126.4,52.2c0,15.1,12.5,27.7,27.7,27.7s27.1-12.5,27.7-27.7c0-15.1-12.5-27.7-27.7-27.7
			S126.4,37.1,126.4,52.2z"/>
	</g>
	<g>
		<ellipse class="st0" cx="51.2" cy="154.5" rx="27.7" ry="27.7"/>
	</g>
	<g>
		<path class="st0" d="M191.7-1c16.7,11.8,27.6,31.3,27.6,53.2c0,36-29.2,65.2-65.2,65.2S88.8,88.2,88.8,52.2
			c0-22,10.9-41.4,27.6-53.2H0v115.6c12-15.3,30.6-25.1,51.7-24.8c17.7,0,34.4,6.8,47,19.8l4.2,4.2c13.6,14.1,31.8,21.9,51.1,21.9
			s37.6-7.8,51.1-21.9l4.2-4.7c12.5-12.5,29.2-19.8,47-19.8c36,0,65.2,29.7,64.7,65.7c0,36-29.2,65.2-65.2,65.2
			c-17.7,0-34.4-6.8-47-19.8l-4.2-4.2c-13.6-14.1-31.8-21.9-51.1-21.9s-37.6,7.8-51.1,21.9l-4.2,4.2c-12.5,12.5-29.2,19.8-47,19.8
			c-20.8,0-39.3-9.7-51.2-24.9V6000h1280V-1H191.7z M154,322c-36,0-65.2-29.2-65.2-65.2s29.2-65.2,65.2-65.2s65.2,29.7,65.2,65.2
			C219.2,292.8,190,322,154,322z"/>
	</g>
	<g>
		
			<ellipse transform="matrix(0.5257 -0.8506 0.8506 0.5257 -9.8577 291.2919)" class="st0" cx="256.3" cy="154.5" rx="27.7" ry="27.7"/>
	</g>
</g>
</svg>
