<?xml version="1.0" encoding="utf-8"?>
<!-- Generator: Adobe Illustrator 22.1.0, SVG Export Plug-In . SVG Version: 6.00 Build 0)  -->
<svg version="1.1" id="Layer_1" xmlns="http://www.w3.org/2000/svg" xmlns:xlink="http://www.w3.org/1999/xlink" x="0px" y="0px"
	 viewBox="0 0 1280 6000" style="enable-background:new 0 0 1280 6000;" xml:space="preserve">
<style type="text/css">
	.st0{fill:#FFFFFF;}
</style>
<g>
	<g>
		<path class="st0" d="M1098.3,257.3c0.6,15.2,12.5,27.7,27.7,27.7s27.7-12.6,27.7-27.7c0-15.2-12.6-27.7-27.7-27.7
			C1110.8,229.6,1098.3,242.2,1098.3,257.3z"/>
	</g>
	<g>
		<path class="st0" d="M1125.9,24.5c-15.2,0-27.7,12.6-27.7,27.7c0.6,15.2,12.5,27.7,27.7,27.7c15.2,0,27.7-12.6,27.7-27.7
			S1141.1,24.5,1125.9,24.5z"/>
	</g>
	<g>
		<ellipse class="st0" cx="1228.8" cy="154.5" rx="27.7" ry="27.7"/>
	</g>
	<g>
		<path class="st0" d="M0-1l0,6001h1280V195.3c-11.9,15.2-30.4,24.9-51.2,24.9c-17.8,0-34.5-7.3-47-19.8l-4.2-4.2
			c-13.5-14.1-31.8-21.9-51.1-21.9s-37.5,7.8-51.1,21.9l-4.2,4.2c-12.6,13-29.3,19.8-47,19.8c-36,0-65.2-29.2-65.2-65.2
			c-0.5-36,28.7-65.7,64.7-65.7c17.8,0,34.5,7.3,47,19.8l4.2,4.7c13.5,14.1,31.8,21.9,51.1,21.9s37.5-7.8,51.1-21.9l4.2-4.2
			c12.6-13,29.3-19.8,47-19.8c21.1-0.3,39.7,9.5,51.7,24.8V-1h-116.4c16.7,11.8,27.6,31.2,27.6,53.2c0,36-29.3,65.2-65.3,65.2
			s-65.2-29.2-65.2-65.2c0-21.9,10.9-41.4,27.6-53.2H0z M1060.8,256.8c0-35.5,29.2-65.2,65.2-65.2s65.2,29.2,65.2,65.2
			S1162,322,1126,322S1060.8,292.8,1060.8,256.8z"/>
	</g>
	<g>
		
			<ellipse transform="matrix(0.9239 -0.3827 0.3827 0.9239 18.8067 403.5184)" class="st0" cx="1023.7" cy="154.5" rx="27.7" ry="27.7"/>
	</g>
</g>
</svg>
