<?xml version="1.0" encoding="utf-8"?>
<!-- Generator: Adobe Illustrator 22.1.0, SVG Export Plug-In . SVG Version: 6.00 Build 0)  -->
<svg version="1.1" id="Layer_1" xmlns="http://www.w3.org/2000/svg" xmlns:xlink="http://www.w3.org/1999/xlink" x="0px" y="0px"
	 viewBox="0 0 230 206" style="enable-background:new 0 0 230 206;" xml:space="preserve">
<style type="text/css">
	.st0{opacity:0.2;}
	.st1{fill:#FFFFFF;}
	}
</style>
<image style="display:none;overflow:visible;" width="1240" height="208" id="dna_patter_xA0_Image_2_" xlink:href="3630EAE1EC92808.png"  transform="matrix(1 0 0 1 -175.3565 0.4063)">
</image>
<g class="st0">
	<g>
		<path class="st1" d="M34,17c0-9.4-7.6-17-17-17S0,7.6,0,17c0,8.7,6.6,15.9,15,16.9v138.3c-8.4,1-15,8.2-15,16.9
			c0,9.4,7.6,17,17,17s17-7.6,17-17c0-8.4-6-15.3-14-16.7V33.7C28,32.3,34,25.4,34,17z"/>
	</g>
	<g>
		<path class="st1" d="M139,118.1V77.8c5.1-0.9,9-5.4,9-10.8c0-6.1-4.9-11-11-11s-11,4.9-11,11c0,5,3.4,9.3,8,10.6v40.7
			c-8,1.4-14,8.4-14,16.7c0,9.4,7.6,17,17,17s17-7.6,17-17C154,126.3,147.4,119.1,139,118.1z"/>
	</g>
	<g>
		<circle class="st1" cx="112" cy="100" r="17"/>
	</g>
	<g>
		<path class="st1" d="M58,152.1V55.9c8.4-1,15-8.2,15-16.9c0-9.4-7.6-17-17-17s-17,7.6-17,17c0,8.4,6,15.3,14,16.7v96.6
			c-8,1.4-14,8.4-14,16.7c0,9.4,7.6,17,17,17s17-7.6,17-17C73,160.3,66.4,153.1,58,152.1z"/>
	</g>
	<g>
		<path class="st1" d="M186,39c0-9.4-7.6-17-17-17s-17,7.6-17,17c0,8.4,6,15.3,14,16.7v96.6c-8,1.4-14,8.4-14,16.7
			c0,9.4,7.6,17,17,17s17-7.6,17-17c0-8.7-6.6-15.9-15-16.9V55.9C179.4,54.9,186,47.7,186,39z"/>
	</g>
	<g>
		<path class="st1" d="M208,172.1V33.9c8.4-1,15-8.2,15-16.9c0-9.4-7.6-17-17-17s-17,7.6-17,17c0,8.4,6,15.3,14,16.7v138.6
			c-8,1.4-14,8.4-14,16.7c0,9.4,7.6,17,17,17s17-7.6,17-17C223,180.3,216.4,173.1,208,172.1z"/>
	</g>
	<g>
		<path class="st1" d="M89,131.4V80.9c8.4-1,15-8.2,15-16.9c0-9.4-7.6-17-17-17s-17,7.6-17,17c0,8.4,6,15.3,14,16.7v50.5
			c-5.1,0.9-9,5.4-9,10.8c0,6.1,4.9,11,11,11s11-4.9,11-11C97,137,93.6,132.7,89,131.4z"/>
	</g>
</g>
</svg>
