<?xml version="1.0" encoding="utf-8"?>
<!-- Generator: Adobe Illustrator 22.1.0, SVG Export Plug-In . SVG Version: 6.00 Build 0)  -->
<svg version="1.1" id="Layer_1" xmlns="http://www.w3.org/2000/svg" xmlns:xlink="http://www.w3.org/1999/xlink" x="0px" y="0px"
	 viewBox="0 0 156.9 161.1" style="enable-background:new 0 0 156.9 161.1;" xml:space="preserve">
<style type="text/css">
	.st0{fill:#58595B;}
	.st1{fill:#FF6600;}
	.st2{fill:#FFFFFF;}
</style>
<g>
	<g id="Infinitive_9_">
		<g>
			<path class="st0" d="M62,145.9h1.7v10.8H62V145.9z"/>
			<path class="st0" d="M66.5,145.9h1.7v1.6c1.1-1,2.6-1.9,4.5-1.9c1.3,0,4.5,0.3,4.5,4v7.1h-1.7v-6.8c0-2.6-1.8-2.9-3-2.9
				c-1.8,0-3.4,1.1-4.3,2.2v7.5h-1.7V145.9z"/>
			<polygon class="st0" points="89.7,147.3 89.7,145.9 79.9,145.9 79.8,156.7 81.5,156.7 81.5,151.6 89.7,151.6 89.7,150.2 
				81.5,150.2 81.5,147.3 			"/>
			<path class="st0" d="M125,145.9v1.4h-4.3v9.3h-1.7v-9.3h-3.9v-1.4H125z"/>
			<path class="st0" d="M92.8,145.9h1.7v10.8h-1.7V145.9z"/>
			<path class="st0" d="M97.5,145.9h1.7v1.6c1.1-1,2.6-1.9,4.5-1.9c1.3,0,4.4,0.3,4.4,4v7.1h-1.7v-6.8c0-2.6-1.8-2.9-3-2.9
				c-1.8,0-3.4,1.1-4.3,2.2v7.5h-1.7V145.9z"/>
			<path class="st0" d="M111,145.9h1.7v10.8H111V145.9z"/>
			<path class="st0" d="M127.5,145.9h1.7v10.8h-1.7V145.9z"/>
			<path class="st0" d="M131.9,145.9h1.8l3.6,9l3.7-9h1.8l-4.6,10.8h-1.7L131.9,145.9z"/>
			<path class="st0" d="M154.7,154.4c-1,1.2-2,2.6-5.3,2.6c-3.3,0-5.5-2.5-5.5-5.8c0-3.4,2.3-5.7,5.3-5.7c3.1,0,5.8,1.8,5.7,6.1
				h-9.5c0.1,2,1.6,4,4.1,4c2.5,0,3.3-1.3,4-2.1L154.7,154.4z M153.3,150.2c-0.3-1.8-1.7-3.2-4-3.2c-2.2,0-3.4,1.2-3.9,3.2H153.3z"
				/>
		</g>
		<g>
			<path class="st1" d="M43.9,140.4c-2.2,0-4,1.8-4,4c0,2.2,1.8,4,4,4c2.2,0,4-1.8,4-4C47.9,142.2,46.1,140.4,43.9,140.4z
				 M43.9,146.1c-0.9,0-1.7-0.8-1.7-1.7c0-0.9,0.8-1.7,1.7-1.7c0.9,0,1.7,0.8,1.7,1.7C45.6,145.4,44.8,146.1,43.9,146.1z"/>
			<path class="st1" d="M43.9,153c-2.2,0-4,1.8-4,4c0,2.2,1.8,4,4,4c2.2,0,4-1.8,4-4C47.9,154.8,46.1,153,43.9,153z M43.9,158.7
				c-0.9,0-1.7-0.8-1.7-1.7c0-0.9,0.8-1.7,1.7-1.7c0.9,0,1.7,0.8,1.7,1.7C45.6,158,44.8,158.7,43.9,158.7z"/>
			<path class="st1" d="M50.2,146.7c-1.1,0-2.1,0.4-2.9,1.2l-0.3,0.3c-0.8,0.9-2,1.3-3.1,1.3c-1.2,0-2.3-0.5-3.1-1.3l-0.3-0.3
				c-0.8-0.8-1.8-1.2-2.9-1.2c-2.2,0-4,1.8-4,4c0,2.2,1.8,4,4,4c1.1,0,2.1-0.4,2.9-1.2l0.3-0.3c0.8-0.9,2-1.3,3.1-1.3
				c1.2,0,2.3,0.5,3.1,1.3l0.3,0.3c0.8,0.8,1.8,1.2,2.9,1.2c2.2,0,4-1.8,4-4C54.2,148.5,52.4,146.7,50.2,146.7z M37.6,152.4
				c-0.9,0-1.7-0.8-1.7-1.7c0-0.9,0.8-1.7,1.7-1.7c0.9,0,1.7,0.8,1.7,1.7C39.3,151.7,38.5,152.4,37.6,152.4z M50.2,152.4
				c-0.9,0-1.7-0.8-1.7-1.7c0-0.9,0.8-1.7,1.7-1.7c0.9,0,1.7,0.8,1.7,1.7C51.9,151.7,51.1,152.4,50.2,152.4z"/>
		</g>
	</g>
	<rect x="43.9" y="0.3" class="st0" width="110" height="130.1"/>
	<g id="XMLID_10_">
		<g id="XMLID_11_">
			<path class="st1" d="M38.9,0.3c-0.8,5.1-2.3,9.3-4.7,12.7c-2.4,3.4-5.3,6.2-8.8,8.3c-3.5,2.1-7.4,3.5-11.8,4.4
				c-4.4,0.8-8.9,1.2-13.6,1V47h33.4v83.4h31.9V0.3H38.9z"/>
		</g>
	</g>
	<g>
		<path class="st2" d="M142.2,122.4c-5.7,5.7-13.6,10.6-28.3,10.6c-14.7,0-23.1-5.1-28.8-10.8c-9.4-9.4-13.3-20-14.1-29.6h27.9
			c0.9,8.6,4.6,13.8,12.3,13.8c3.7,0,6.1-0.9,8.5-3.3c2.8-2.8,3.9-7.5,3.9-15.3c0-14.5-5-18.6-12.3-18.6c-8.8,0-11,5.9-12.3,9.4
			H71.2V0h84.3v25.4H96V49c5.1-2,12.1-5.1,20.2-5.1c11.4,0,20,3.9,25.4,9.2c10.7,10.7,15.3,22.4,15.3,34.7
			C156.9,103.6,151.9,112.6,142.2,122.4z"/>
	</g>
	<g>
		<path class="st1" d="M102,19.6h-2.8v-6.8l-3.4-9.6h2.9l2,6.2h0l1.9-6.2h2.9l-3.4,9.6V19.6z"/>
		<path class="st1" d="M108.9,19.6V3.2h7.5v2.5h-4.7v4.2h3.6v2.5h-3.6v4.8h5v2.5H108.9z"/>
		<path class="st1" d="M122.6,19.6h-2.7l3-16.4h3.5l3,16.4h-2.7l-0.5-3.6h-3.1L122.6,19.6z M123.5,13.5h2.3l-1.1-7h0L123.5,13.5z"/>
		<path class="st1" d="M135.8,19.6H133V3.2h3.9c1.6,0,2.8,0.4,3.6,1.1c0.8,0.7,1.2,2,1.2,3.7c0,0.7-0.1,1.2-0.2,1.7
			c-0.1,0.5-0.3,0.9-0.5,1.2c-0.2,0.3-0.4,0.6-0.6,0.8c-0.2,0.2-0.5,0.3-0.7,0.5l2.4,7.4h-2.9l-2-6.8c-0.2,0-0.4,0-0.7,0.1
			c-0.3,0-0.5,0-0.8,0V19.6z M135.8,10.6h1c0.4,0,0.7,0,1-0.1c0.3-0.1,0.5-0.2,0.6-0.4c0.2-0.2,0.3-0.5,0.4-0.8
			c0.1-0.3,0.1-0.7,0.1-1.2c0-1-0.2-1.6-0.5-2c-0.3-0.4-0.9-0.5-1.6-0.5h-1V10.6z"/>
		<path class="st1" d="M151.4,7.3c0-0.3-0.1-0.6-0.2-0.9c-0.1-0.2-0.2-0.4-0.4-0.6s-0.3-0.2-0.5-0.3c-0.2-0.1-0.3-0.1-0.5-0.1
			c-0.5,0-0.8,0.1-1,0.4s-0.4,0.7-0.4,1.2c0,0.5,0.1,0.9,0.4,1.3c0.3,0.4,0.6,0.8,1.1,1.2c0.4,0.4,0.9,0.8,1.4,1.2
			c0.5,0.4,1,0.8,1.4,1.3c0.4,0.5,0.8,1,1.1,1.6c0.3,0.6,0.4,1.2,0.4,2c0,0.7-0.1,1.3-0.3,1.8c-0.2,0.5-0.5,1-0.9,1.3
			c-0.4,0.4-0.9,0.6-1.4,0.8c-0.6,0.2-1.2,0.3-1.8,0.3c-0.7,0-1.2-0.1-1.7-0.4c-0.5-0.2-0.9-0.6-1.3-1c-0.4-0.4-0.6-0.9-0.8-1.4
			c-0.2-0.5-0.3-1.1-0.3-1.7l2.7-0.4c0.1,0.8,0.2,1.5,0.5,1.9c0.3,0.4,0.7,0.6,1.1,0.6c0.5,0,0.9-0.1,1.2-0.4
			c0.3-0.3,0.5-0.6,0.5-1.1c0-0.5-0.1-1-0.4-1.5c-0.3-0.4-0.6-0.8-1.1-1.2c-0.4-0.4-0.9-0.8-1.4-1.2c-0.5-0.4-1-0.8-1.4-1.3
			c-0.4-0.5-0.8-1-1.1-1.6c-0.3-0.6-0.4-1.3-0.4-2.1c0-1.3,0.4-2.3,1.1-3c0.8-0.7,1.8-1.1,3.2-1.1c0.6,0,1.1,0.1,1.5,0.3
			c0.5,0.2,0.8,0.5,1.2,0.8c0.3,0.4,0.6,0.8,0.8,1.3c0.2,0.5,0.3,1,0.4,1.6L151.4,7.3z"/>
	</g>
	<circle class="st0" cx="113.1" cy="86.6" r="21.6"/>
	<rect x="71.2" y="78.6" class="st0" width="27.8" height="14"/>
	<g id="Infinitive_7_">
		<g>
			<path class="st1" d="M113.6,71c-3.3,0-5.9,2.7-5.9,5.9c0,3.3,2.7,5.9,5.9,5.9c3.3,0,5.9-2.7,5.9-5.9
				C119.6,73.6,116.9,71,113.6,71z M113.6,79.4c-1.4,0-2.5-1.1-2.5-2.5c0-1.4,1.1-2.5,2.5-2.5c1.4,0,2.5,1.1,2.5,2.5
				C116.1,78.3,115,79.4,113.6,79.4z"/>
			<path class="st1" d="M113.6,89.6c-3.3,0-5.9,2.7-5.9,5.9c0,3.3,2.7,5.9,5.9,5.9c3.3,0,5.9-2.7,5.9-5.9
				C119.6,92.2,116.9,89.6,113.6,89.6z M113.6,98c-1.4,0-2.5-1.1-2.5-2.5c0-1.4,1.1-2.5,2.5-2.5c1.4,0,2.5,1.1,2.5,2.5
				C116.1,96.9,115,98,113.6,98z"/>
			<path class="st1" d="M122.9,80.3c-1.6,0-3.1,0.6-4.3,1.8l-0.4,0.4c-1.2,1.3-2.9,2-4.6,2c-1.8,0-3.4-0.7-4.6-2l-0.4-0.4
				c-1.1-1.2-2.6-1.8-4.3-1.8c-3.3,0-5.9,2.7-5.9,5.9c0,3.3,2.7,5.9,5.9,5.9c1.6,0,3.1-0.6,4.3-1.8l0.4-0.4c1.2-1.3,2.9-2,4.6-2
				c1.8,0,3.4,0.7,4.6,2l0.4,0.4c1.1,1.2,2.6,1.8,4.3,1.8c3.3,0,5.9-2.7,5.9-5.9C128.9,82.9,126.2,80.3,122.9,80.3z M104.3,88.7
				c-1.4,0-2.5-1.1-2.5-2.5c0-1.4,1.1-2.5,2.5-2.5c1.4,0,2.5,1.1,2.5,2.5C106.8,87.6,105.7,88.7,104.3,88.7z M122.9,88.7
				c-1.4,0-2.5-1.1-2.5-2.5c0-1.4,1.1-2.5,2.5-2.5c1.4,0,2.5,1.1,2.5,2.5C125.4,87.6,124.3,88.7,122.9,88.7z"/>
		</g>
	</g>
</g>
</svg>
