<?xml version="1.0" encoding="utf-8"?>
<!-- Generator: Adobe Illustrator 22.1.0, SVG Export Plug-In . SVG Version: 6.00 Build 0)  -->
<svg version="1.1" id="Layer_1" xmlns="http://www.w3.org/2000/svg" xmlns:xlink="http://www.w3.org/1999/xlink" x="0px" y="0px"
	 viewBox="0 0 200 200" style="enable-background:new 0 0 200 200;" xml:space="preserve">
<style type="text/css">
	.st0{fill:#504C4E;}
	.st1{opacity:5.000000e-02;}
	.st2{fill:#FFFFFF;}
</style>
<rect x="0" y="-0.1" class="st0" width="200" height="200.1"/>
<g class="st1">
	<g>
		<path class="st2" d="M180.3,200h6c3.4-3,7.1-5.5,13.6-5.5v-4c-9.1,0-13.8,4.2-18,8C181.4,199,180.9,199.5,180.3,200z"/>
		<path class="st2" d="M166.7,9.4C166.7,9.4,166.7,9.4,166.7,9.4c9.1,0,13.8-4.2,18-8c0.6-0.5,1.1-1,1.7-1.5h-6
			c-3.4,3-7.1,5.5-13.6,5.5c-6.5,0-10.2-2.5-13.6-5.5h-6c0.6,0.5,1.1,1,1.7,1.5C152.9,5.2,157.6,9.4,166.7,9.4z"/>
		<path class="st2" d="M166.7,162.6c-7.6,0-11.3-3.4-15.3-7c-4.2-3.7-8.9-8-18-8c-9.1,0-13.8,4.2-18,8c-4,3.6-7.8,7-15.3,7
			c-7.6,0-11.3-3.4-15.3-7c-4.2-3.7-8.9-8-18-8c-9.1,0-13.8,4.2-18,8c-4,3.6-7.8,7-15.3,7c-7.6,0-11.3-3.4-15.3-7
			c-4.2-3.7-8.9-8-18-8v4c7.6,0,11.3,3.4,15.3,7c4.2,3.7,8.9,8,18,8c0,0,0,0,0,0c9.1,0,13.8-4.2,18-8c4-3.6,7.8-7,15.3-7
			c7.6,0,11.3,3.4,15.3,7c4.2,3.7,8.9,8,18,8c0,0,0,0,0,0c9.1,0,13.8-4.2,18-8c4-3.6,7.8-7,15.3-7c7.6,0,11.3,3.4,15.3,7
			c4.2,3.7,8.9,8,18,8c0,0,0,0,0,0c9.1,0,13.8-4.2,18-8c4-3.6,7.8-7,15.3-7v-4c-9.1,0-13.8,4.2-18,8
			C178,159.2,174.2,162.6,166.7,162.6z"/>
		<path class="st2" d="M166.7,176.9c-7.6,0-11.3-3.4-15.3-7c-4.2-3.7-8.9-8-18-8c-9.1,0-13.8,4.2-18,8c-4,3.6-7.8,7-15.3,7
			c-7.6,0-11.3-3.4-15.3-7c-4.2-3.7-8.9-8-18-8c-9.1,0-13.8,4.2-18,8c-4,3.6-7.8,7-15.3,7c-7.6,0-11.3-3.4-15.3-7
			c-4.2-3.7-8.9-8-18-8v4c7.6,0,11.3,3.4,15.3,7c4.2,3.7,8.9,8,18,8c0,0,0,0,0,0c9.1,0,13.8-4.2,18-8c4-3.6,7.8-7,15.3-7
			c7.6,0,11.3,3.4,15.3,7c4.2,3.7,8.9,8,18,8c0,0,0,0,0,0c9.1,0,13.8-4.2,18-8c4-3.6,7.8-7,15.3-7c7.6,0,11.3,3.4,15.3,7
			c4.2,3.7,8.9,8,18,8c0,0,0,0,0,0c9.1,0,13.8-4.2,18-8c4-3.6,7.8-7,15.3-7v-4c-9.1,0-13.8,4.2-18,8
			C178,173.5,174.2,176.9,166.7,176.9z"/>
		<path class="st2" d="M166.7,191.2c-7.6,0-11.3-3.4-15.3-7c-4.2-3.7-8.9-8-18-8c-9.1,0-13.8,4.2-18,8c-4,3.6-7.8,7-15.3,7
			c-7.6,0-11.3-3.4-15.3-7c-4.2-3.7-8.9-8-18-8c-9.1,0-13.8,4.2-18,8c-4,3.6-7.8,7-15.3,7c-7.6,0-11.3-3.4-15.3-7
			c-4.2-3.7-8.9-8-18-8v4c7.6,0,11.3,3.4,15.3,7c4.2,3.7,8.9,8,18,8c0,0,0,0,0,0c9.1,0,13.8-4.2,18-8c4-3.6,7.8-7,15.3-7
			c7.6,0,11.3,3.4,15.3,7c4.2,3.7,8.9,8,18,8c0,0,0,0,0,0c9.1,0,13.8-4.2,18-8c4-3.6,7.8-7,15.3-7c7.6,0,11.3,3.4,15.3,7
			c4.2,3.7,8.9,8,18,8c0,0,0,0,0,0c9.1,0,13.8-4.2,18-8c4-3.6,7.8-7,15.3-7v-4c-9.1,0-13.8,4.2-18,8
			C178,187.8,174.2,191.2,166.7,191.2z"/>
		<path class="st2" d="M133.3,190.5c-9.1,0-13.8,4.2-18,8c-0.6,0.5-1.1,1-1.7,1.5h6c3.4-3,7.1-5.5,13.6-5.5c6.5,0,10.2,2.5,13.6,5.5
			h6c-0.6-0.5-1.1-1-1.7-1.5C147.2,194.7,142.4,190.5,133.3,190.5z"/>
		<path class="st2" d="M66.7,190.5c-9.1,0-13.8,4.2-18,8c-0.6,0.5-1.1,1-1.7,1.5h6c3.4-3,7.1-5.5,13.6-5.5c6.5,0,10.2,2.5,13.6,5.5
			h6c-0.6-0.5-1.1-1-1.7-1.5C80.5,194.7,75.8,190.5,66.7,190.5z"/>
		<path class="st2" d="M0,190.5v4c6.5,0,10.2,2.5,13.6,5.5h6c-0.6-0.5-1.1-1-1.7-1.5C13.8,194.7,9.1,190.5,0,190.5z"/>
		<path class="st2" d="M15.3,1.5c4.2,3.7,8.9,8,18,8c0,0,0,0,0,0c9.1,0,13.8-4.2,18-8C51.9,1,52.5,0.5,53,0h-6
			c-3.4,3-7.1,5.5-13.6,5.5c-6.5,0-10.2-2.5-13.6-5.5h-6C14.2,0.5,14.8,1,15.3,1.5z"/>
		<path class="st2" d="M100,9.4C100,9.4,100,9.4,100,9.4c9.1,0,13.8-4.2,18-8c0.6-0.5,1.1-1,1.7-1.5h-6c-3.4,3-7.1,5.5-13.6,5.5
			c-6.5,0-10.2-2.5-13.6-5.5h-6c0.6,0.5,1.1,1,1.7,1.5C86.2,5.2,90.9,9.4,100,9.4z"/>
		<path class="st2" d="M166.7,148.3c-7.6,0-11.3-3.4-15.3-7c-4.2-3.7-8.9-8-18-8c-9.1,0-13.8,4.2-18,8c-4,3.6-7.8,7-15.3,7
			c-7.6,0-11.3-3.4-15.3-7c-4.2-3.7-8.9-8-18-8c-9.1,0-13.8,4.2-18,8c-4,3.6-7.8,7-15.3,7c-7.6,0-11.3-3.4-15.3-7
			c-4.2-3.7-8.9-8-18-8v4c7.6,0,11.3,3.4,15.3,7c4.2,3.7,8.9,8,18,8c0,0,0,0,0,0c9.1,0,13.8-4.2,18-8c4-3.6,7.8-7,15.3-7
			c7.6,0,11.3,3.4,15.3,7c4.2,3.7,8.9,8,18,8c0,0,0,0,0,0c9.1,0,13.8-4.2,18-8c4-3.6,7.8-7,15.3-7c7.6,0,11.3,3.4,15.3,7
			c4.2,3.7,8.9,8,18,8c0,0,0,0,0,0c9.1,0,13.8-4.2,18-8c4-3.6,7.8-7,15.3-7v-4c-9.1,0-13.8,4.2-18,8
			C178,144.9,174.2,148.3,166.7,148.3z"/>
		<path class="st2" d="M166.7,34c-7.6,0-11.3-3.4-15.3-7c-4.2-3.7-8.9-8-18-8c-9.1,0-13.8,4.2-18,8c-4,3.6-7.8,7-15.3,7
			c-7.6,0-11.3-3.4-15.3-7c-4.2-3.7-8.9-8-18-8c-9.1,0-13.8,4.2-18,8c-4,3.6-7.8,7-15.3,7c-7.6,0-11.3-3.4-15.3-7
			c-4.2-3.7-8.9-8-18-8v4c7.6,0,11.3,3.4,15.3,7c4.2,3.7,8.9,8,18,8c0,0,0,0,0,0c9.1,0,13.8-4.2,18-8c4-3.6,7.8-7,15.3-7
			c7.6,0,11.3,3.4,15.3,7c4.2,3.7,8.9,8,18,8c0,0,0,0,0,0c9.1,0,13.8-4.2,18-8c4-3.6,7.8-7,15.3-7c7.6,0,11.3,3.4,15.3,7
			c4.2,3.7,8.9,8,18,8c0,0,0,0,0,0c9.1,0,13.8-4.2,18-8c4-3.6,7.8-7,15.3-7v-4c-9.1,0-13.8,4.2-18,8C178,30.6,174.2,34,166.7,34z"/>
		<path class="st2" d="M166.7,62.6c-7.6,0-11.3-3.4-15.3-7c-4.2-3.7-8.9-8-18-8c-9.1,0-13.8,4.2-18,8c-4,3.6-7.8,7-15.3,7
			c-7.6,0-11.3-3.4-15.3-7c-4.2-3.7-8.9-8-18-8c-9.1,0-13.8,4.2-18,8c-4,3.6-7.8,7-15.3,7c-7.6,0-11.3-3.4-15.3-7
			c-4.2-3.7-8.9-8-18-8v4c7.6,0,11.3,3.4,15.3,7c4.2,3.7,8.9,8,18,8c0,0,0,0,0,0c9.1,0,13.8-4.2,18-8c4-3.6,7.8-7,15.3-7
			c7.6,0,11.3,3.4,15.3,7c4.2,3.7,8.9,8,18,8c0,0,0,0,0,0c9.1,0,13.8-4.2,18-8c4-3.6,7.8-7,15.3-7c7.6,0,11.3,3.4,15.3,7
			c4.2,3.7,8.9,8,18,8c0,0,0,0,0,0c9.1,0,13.8-4.2,18-8c4-3.6,7.8-7,15.3-7v-4c-9.1,0-13.8,4.2-18,8C178,59.2,174.2,62.6,166.7,62.6
			z"/>
		<path class="st2" d="M166.7,48.3c-7.6,0-11.3-3.4-15.3-7c-4.2-3.7-8.9-8-18-8c-9.1,0-13.8,4.2-18,8c-4,3.6-7.8,7-15.3,7
			c-7.6,0-11.3-3.4-15.3-7c-4.2-3.7-8.9-8-18-8c-9.1,0-13.8,4.2-18,8c-4,3.6-7.8,7-15.3,7c-7.6,0-11.3-3.4-15.3-7
			c-4.2-3.7-8.9-8-18-8v4c7.6,0,11.3,3.4,15.3,7c4.2,3.7,8.9,8,18,8c0,0,0,0,0,0c9.1,0,13.8-4.2,18-8c4-3.6,7.8-7,15.3-7
			c7.6,0,11.3,3.4,15.3,7c4.2,3.7,8.9,8,18,8c0,0,0,0,0,0c9.1,0,13.8-4.2,18-8c4-3.6,7.8-7,15.3-7c7.6,0,11.3,3.4,15.3,7
			c4.2,3.7,8.9,8,18,8c0,0,0,0,0,0c9.1,0,13.8-4.2,18-8c4-3.6,7.8-7,15.3-7v-4c-9.1,0-13.8,4.2-18,8C178,44.9,174.2,48.3,166.7,48.3
			z"/>
		<path class="st2" d="M166.7,19.7c-7.6,0-11.3-3.4-15.3-7c-4.2-3.7-8.9-8-18-8c-9.1,0-13.8,4.2-18,8c-4,3.6-7.8,7-15.3,7
			c-7.6,0-11.3-3.4-15.3-7c-4.2-3.7-8.9-8-18-8c-9.1,0-13.8,4.2-18,8c-4,3.6-7.8,7-15.3,7c-7.6,0-11.3-3.4-15.3-7
			c-4.2-3.7-8.9-8-18-8v4c7.6,0,11.3,3.4,15.3,7c4.2,3.7,8.9,8,18,8c0,0,0,0,0,0c9.1,0,13.8-4.2,18-8c4-3.6,7.8-7,15.3-7
			c7.6,0,11.3,3.4,15.3,7c4.2,3.7,8.9,8,18,8c0,0,0,0,0,0c9.1,0,13.8-4.2,18-8c4-3.6,7.8-7,15.3-7c7.6,0,11.3,3.4,15.3,7
			c4.2,3.7,8.9,8,18,8c0,0,0,0,0,0c9.1,0,13.8-4.2,18-8c4-3.6,7.8-7,15.3-7v-4c-9.1,0-13.8,4.2-18,8C178,16.3,174.2,19.7,166.7,19.7
			z"/>
		<path class="st2" d="M166.7,105.4c-7.6,0-11.3-3.4-15.3-7c-4.2-3.7-8.9-8-18-8c-9.1,0-13.8,4.2-18,8c-4,3.6-7.8,7-15.3,7
			c-7.6,0-11.3-3.4-15.3-7c-4.2-3.7-8.9-8-18-8c-9.1,0-13.8,4.2-18,8c-4,3.6-7.8,7-15.3,7c-7.6,0-11.3-3.4-15.3-7
			c-4.2-3.7-8.9-8-18-8v4c7.6,0,11.3,3.4,15.3,7c4.2,3.7,8.9,8,18,8c0,0,0,0,0,0c9.1,0,13.8-4.2,18-8c4-3.6,7.8-7,15.3-7
			c7.6,0,11.3,3.4,15.3,7c4.2,3.7,8.9,8,18,8c0,0,0,0,0,0c9.1,0,13.8-4.2,18-8c4-3.6,7.8-7,15.3-7c7.6,0,11.3,3.4,15.3,7
			c4.2,3.7,8.9,8,18,8c0,0,0,0,0,0c9.1,0,13.8-4.2,18-8c4-3.6,7.8-7,15.3-7v-4c-9.1,0-13.8,4.2-18,8
			C178,102.1,174.2,105.4,166.7,105.4z"/>
		<path class="st2" d="M166.7,134c-7.6,0-11.3-3.4-15.3-7c-4.2-3.7-8.9-8-18-8c-9.1,0-13.8,4.2-18,8c-4,3.6-7.8,7-15.3,7
			c-7.6,0-11.3-3.4-15.3-7c-4.2-3.7-8.9-8-18-8c-9.1,0-13.8,4.2-18,8c-4,3.6-7.8,7-15.3,7c-7.6,0-11.3-3.4-15.3-7
			c-4.2-3.7-8.9-8-18-8v4c7.6,0,11.3,3.4,15.3,7c4.2,3.7,8.9,8,18,8c0,0,0,0,0,0c9.1,0,13.8-4.2,18-8c4-3.6,7.8-7,15.3-7
			c7.6,0,11.3,3.4,15.3,7c4.2,3.7,8.9,8,18,8c0,0,0,0,0,0c9.1,0,13.8-4.2,18-8c4-3.6,7.8-7,15.3-7c7.6,0,11.3,3.4,15.3,7
			c4.2,3.7,8.9,8,18,8c0,0,0,0,0,0c9.1,0,13.8-4.2,18-8c4-3.6,7.8-7,15.3-7v-4c-9.1,0-13.8,4.2-18,8C178,130.6,174.2,134,166.7,134z
			"/>
		<path class="st2" d="M166.7,119.7c-7.6,0-11.3-3.4-15.3-7c-4.2-3.7-8.9-8-18-8c-9.1,0-13.8,4.2-18,8c-4,3.6-7.8,7-15.3,7
			c-7.6,0-11.3-3.4-15.3-7c-4.2-3.7-8.9-8-18-8c-9.1,0-13.8,4.2-18,8c-4,3.6-7.8,7-15.3,7c-7.6,0-11.3-3.4-15.3-7
			c-4.2-3.7-8.9-8-18-8v4c7.6,0,11.3,3.4,15.3,7c4.2,3.7,8.9,8,18,8c0,0,0,0,0,0c9.1,0,13.8-4.2,18-8c4-3.6,7.8-7,15.3-7
			c7.6,0,11.3,3.4,15.3,7c4.2,3.7,8.9,8,18,8c0,0,0,0,0,0c9.1,0,13.8-4.2,18-8c4-3.6,7.8-7,15.3-7c7.6,0,11.3,3.4,15.3,7
			c4.2,3.7,8.9,8,18,8c0,0,0,0,0,0c9.1,0,13.8-4.2,18-8c4-3.6,7.8-7,15.3-7v-4c-9.1,0-13.8,4.2-18,8
			C178,116.3,174.2,119.7,166.7,119.7z"/>
		<path class="st2" d="M166.7,91.2c-7.6,0-11.3-3.4-15.3-7c-4.2-3.7-8.9-8-18-8c-9.1,0-13.8,4.2-18,8c-4,3.6-7.8,7-15.3,7
			c-7.6,0-11.3-3.4-15.3-7c-4.2-3.7-8.9-8-18-8c-9.1,0-13.8,4.2-18,8c-4,3.6-7.8,7-15.3,7c-7.6,0-11.3-3.4-15.3-7
			c-4.2-3.7-8.9-8-18-8v4c7.6,0,11.3,3.4,15.3,7c4.2,3.7,8.9,8,18,8c0,0,0,0,0,0c9.1,0,13.8-4.2,18-8c4-3.6,7.8-7,15.3-7
			c7.6,0,11.3,3.4,15.3,7c4.2,3.7,8.9,8,18,8c0,0,0,0,0,0c9.1,0,13.8-4.2,18-8c4-3.6,7.8-7,15.3-7c7.6,0,11.3,3.4,15.3,7
			c4.2,3.7,8.9,8,18,8c0,0,0,0,0,0c9.1,0,13.8-4.2,18-8c4-3.6,7.8-7,15.3-7v-4c-9.1,0-13.8,4.2-18,8C178,87.8,174.2,91.2,166.7,91.2
			z"/>
		<path class="st2" d="M166.7,76.9c-7.6,0-11.3-3.4-15.3-7c-4.2-3.7-8.9-8-18-8c-9.1,0-13.8,4.2-18,8c-4,3.6-7.8,7-15.3,7
			c-7.6,0-11.3-3.4-15.3-7c-4.2-3.7-8.9-8-18-8c-9.1,0-13.8,4.2-18,8c-4,3.6-7.8,7-15.3,7c-7.6,0-11.3-3.4-15.3-7
			c-4.2-3.7-8.9-8-18-8v4c7.6,0,11.3,3.4,15.3,7c4.2,3.7,8.9,8,18,8c0,0,0,0,0,0c9.1,0,13.8-4.2,18-8c4-3.6,7.8-7,15.3-7
			c7.6,0,11.3,3.4,15.3,7c4.2,3.7,8.9,8,18,8c0,0,0,0,0,0c9.1,0,13.8-4.2,18-8c4-3.6,7.8-7,15.3-7c7.6,0,11.3,3.4,15.3,7
			c4.2,3.7,8.9,8,18,8c0,0,0,0,0,0c9.1,0,13.8-4.2,18-8c4-3.6,7.8-7,15.3-7v-4c-9.1,0-13.8,4.2-18,8C178,73.5,174.2,76.9,166.7,76.9
			z"/>
	</g>
</g>
</svg>
