<?xml version="1.0" encoding="utf-8"?>
<!-- Generator: Adobe Illustrator 22.1.0, SVG Export Plug-In . SVG Version: 6.00 Build 0)  -->
<svg version="1.1" id="Layer_1" xmlns="http://www.w3.org/2000/svg" xmlns:xlink="http://www.w3.org/1999/xlink" x="0px" y="0px"
	 viewBox="0 0 45 45" style="enable-background:new 0 0 45 45;" xml:space="preserve">
<style type="text/css">
	.st0{fill:none;stroke:#585858;stroke-width:1.4;stroke-linecap:round;stroke-linejoin:round;stroke-miterlimit:10;}
	.st1{fill:#FFFFFF;}
	.st2{fill:#585858;}
	.st3{fill:#F58228;}
	.st4{fill:#59595B;}
	.st5{fill:#F58228;stroke:#F58228;stroke-width:0.5;stroke-miterlimit:10;}
	.st6{fill:#585858;stroke:#585858;stroke-width:0.5;stroke-miterlimit:10;}
	.st7{fill:#F58228;stroke:#F58228;stroke-width:0.2269;stroke-miterlimit:10;}
	.st8{fill:#585858;stroke:#FFFFFF;stroke-width:0.3256;stroke-miterlimit:10;}
	.st9{fill:#F58228;stroke:#FFFFFF;stroke-width:0.3256;stroke-miterlimit:10;}
	.st10{fill:#585858;stroke:#FFFFFF;stroke-width:0.5;stroke-miterlimit:10;}
	.st11{fill:none;stroke:#F58228;stroke-linecap:round;stroke-linejoin:round;stroke-miterlimit:22.9256;}
	.st12{fill:none;stroke:#585858;stroke-linecap:round;stroke-linejoin:round;stroke-miterlimit:22.9256;}
	.st13{fill:#585858;stroke:#FFFFFF;stroke-width:0.3454;stroke-miterlimit:10;}
	.st14{fill:#F58228;stroke:#FFFFFF;stroke-width:0.3454;stroke-miterlimit:10;}
	.st15{fill:#595A5C;}
	.st16{fill:none;stroke:#F58228;stroke-miterlimit:10;}
	.st17{fill:none;stroke:#FFFFFF;stroke-width:1.144;stroke-miterlimit:10;}
	.st18{fill:none;stroke:#FFFFFF;stroke-width:1.2222;stroke-miterlimit:10;}
	.st19{fill:none;stroke:#FFFFFF;stroke-width:1.2222;stroke-miterlimit:10;stroke-dasharray:1.3537,1.3537;}
	.st20{fill:none;stroke:#585858;stroke-width:1.144;stroke-miterlimit:10;}
	.st21{fill:none;stroke:#F58228;stroke-width:1.144;stroke-miterlimit:10;}
	.st22{fill:none;stroke:#585858;stroke-width:1.2222;stroke-miterlimit:10;}
	.st23{fill:none;stroke:#F58228;stroke-width:1.2222;stroke-miterlimit:10;}
	.st24{fill:none;stroke:#585858;stroke-width:1.2222;stroke-miterlimit:10;stroke-dasharray:1.3537,1.3537;}
</style>
<g id="hand_tablet_1_">
	<g>
		<path class="st2" d="M24.4,27.3h1.2v-1.8v-1.2c0-1.3-1.1-2.4-2.4-2.4v1.2c0.6,0,1.2,0.5,1.2,1.2v1.2V27.3z"/>
		<path class="st2" d="M29.2,24.4v1.2c0.6,0,1.2,0.5,1.2,1.2v4.1c0,2.6-0.5,4.5-0.8,5.8c-0.2,0.8-0.3,1.3-0.3,1.8v1.2h-8.8v-1.2
			c0-0.1,0-0.3-0.1-0.4l-3.5-4.6c-1.3-4.8-2.1-7.5-2.5-7.8c-0.1-0.1-0.1-0.2,0-0.3c0.1-0.2,0.3-0.5,0.8-0.5c0.6,0,1.1,1,1.2,1.4
			c0,0,0,0.1,0,0.1l1.8,3.5l0,0c0.1,0.2,0.3,0.3,0.5,0.3c0.3,0,0.6-0.3,0.6-0.6V17.3c0-0.6,0.5-1.2,1.2-1.2s1.2,0.5,1.2,1.2v7.1v2.4
			h1.2v-2.4v-3c1.4-0.8,2.4-2.4,2.4-4.1c0-2.6-2.1-4.7-4.7-4.7c-2.6,0-4.7,2.1-4.7,4.7c0,1.7,0.9,3.2,2.4,4.1v5.8l-0.6-1.3
			c-0.1-0.4-0.8-2.1-2.3-2.1c-0.8,0-1.6,0.5-1.9,1.2c-0.2,0.6-0.1,1.1,0.2,1.6c0.3,0.5,1.4,4.1,2.2,7.4c0,0.1,0.1,0.1,0.1,0.2
			l3.4,4.6v1c-0.6,0-1.2,0.5-1.2,1.2v2.4h1.2v-2.4h11.2v2.4h1.2v-2.4c0-0.6-0.5-1.2-1.2-1.2v-1.2c0-0.3,0.1-0.9,0.3-1.5
			c0.3-1.3,0.9-3.4,0.9-6.1v-4.1C31.5,25.4,30.5,24.4,29.2,24.4z M16.8,17.3c0-1.9,1.6-3.5,3.5-3.5s3.5,1.6,3.5,3.5
			c0,1-0.4,2-1.2,2.6v-2.6c0-1.3-1.1-2.4-2.4-2.4C19,15,18,16,18,17.3v2.6C17.2,19.3,16.8,18.3,16.8,17.3z"/>
		<path class="st2" d="M27.4,26.7v1.2h1.2v-1.2v-0.6v-0.6c0-1.3-1.1-2.4-2.4-2.4v1.2c0.6,0,1.2,0.5,1.2,1.2v0.6V26.7z"/>
		<path class="st3" d="M27.4,17.3c0-3.9-3.2-7.1-7.1-7.1s-7.1,3.2-7.1,7.1c0,1.4,0.4,2.7,1.1,3.9l1-0.6c-0.6-1-1-2.1-1-3.2
			c0-3.2,2.6-5.9,5.9-5.9s5.9,2.6,5.9,5.9c0,1.1-0.3,2.3-1,3.2l1,0.6C27,20,27.4,18.7,27.4,17.3z"/>
		<path class="st2" d="M29.7,17.3c0-5.2-4.2-9.4-9.4-9.4c-5.2,0-9.4,4.2-9.4,9.4h1.2c0-4.5,3.7-8.2,8.2-8.2c4.5,0,8.2,3.7,8.2,8.2
			H29.7z"/>
		<path class="st2" d="M36.8,5.5h-33c-0.6,0-1.2,0.5-1.2,1.2v21.2c0,0.6,0.5,1.2,1.2,1.2h7.7v-1.2H6.2v-20H5v20H3.8V6.7h30.6v20h1.2
			v-20h1.2v21.2h-4.1v1.2h4.1c0.6,0,1.2-0.5,1.2-1.2V6.7C38,6.1,37.5,5.5,36.8,5.5z"/>
	</g>
</g>
</svg>
