<?xml version="1.0" encoding="utf-8"?>
<!-- Generator: Adobe Illustrator 22.1.0, SVG Export Plug-In . SVG Version: 6.00 Build 0)  -->
<svg version="1.1" id="Layer_1" xmlns="http://www.w3.org/2000/svg" xmlns:xlink="http://www.w3.org/1999/xlink" x="0px" y="0px"
	 viewBox="0 0 45 45" style="enable-background:new 0 0 45 45;" xml:space="preserve">
<style type="text/css">
	.st0{fill:none;stroke:#585858;stroke-width:1.4;stroke-linecap:round;stroke-linejoin:round;stroke-miterlimit:10;}
	.st1{fill:#FFFFFF;}
	.st2{fill:#585858;}
	.st3{fill:#F58228;}
	.st4{fill:#59595B;}
	.st5{fill:#F58228;stroke:#F58228;stroke-width:0.5;stroke-miterlimit:10;}
	.st6{fill:#585858;stroke:#585858;stroke-width:0.5;stroke-miterlimit:10;}
	.st7{fill:#F58228;stroke:#F58228;stroke-width:0.2269;stroke-miterlimit:10;}
	.st8{fill:#585858;stroke:#FFFFFF;stroke-width:0.3256;stroke-miterlimit:10;}
	.st9{fill:#F58228;stroke:#FFFFFF;stroke-width:0.3256;stroke-miterlimit:10;}
	.st10{fill:#585858;stroke:#FFFFFF;stroke-width:0.5;stroke-miterlimit:10;}
	.st11{fill:none;stroke:#F58228;stroke-linecap:round;stroke-linejoin:round;stroke-miterlimit:22.9256;}
	.st12{fill:none;stroke:#585858;stroke-linecap:round;stroke-linejoin:round;stroke-miterlimit:22.9256;}
	.st13{fill:#585858;stroke:#FFFFFF;stroke-width:0.3454;stroke-miterlimit:10;}
	.st14{fill:#F58228;stroke:#FFFFFF;stroke-width:0.3454;stroke-miterlimit:10;}
	.st15{fill:#595A5C;}
	.st16{fill:none;stroke:#F58228;stroke-miterlimit:10;}
	.st17{fill:none;stroke:#FFFFFF;stroke-width:1.144;stroke-miterlimit:10;}
	.st18{fill:none;stroke:#FFFFFF;stroke-width:1.2222;stroke-miterlimit:10;}
	.st19{fill:none;stroke:#FFFFFF;stroke-width:1.2222;stroke-miterlimit:10;stroke-dasharray:1.3537,1.3537;}
	.st20{fill:none;stroke:#585858;stroke-width:1.144;stroke-miterlimit:10;}
	.st21{fill:none;stroke:#F58228;stroke-width:1.144;stroke-miterlimit:10;}
	.st22{fill:none;stroke:#585858;stroke-width:1.2222;stroke-miterlimit:10;}
	.st23{fill:none;stroke:#F58228;stroke-width:1.2222;stroke-miterlimit:10;}
	.st24{fill:none;stroke:#585858;stroke-width:1.2222;stroke-miterlimit:10;stroke-dasharray:1.3537,1.3537;}
</style>
<g>
	<path class="st2" d="M39.8,11.1c0-0.5-0.3-1-0.7-1.3c-0.3-0.2-0.5-0.3-0.8-0.3c-0.2,0-0.4,0-0.6,0.1l-15.4,6.7
		c-0.1,0-0.1,0.1-0.2,0.1c-0.1,0-0.1-0.1-0.2-0.1L6.4,9.7C6.2,9.6,6,9.6,5.8,9.6C5.5,9.6,5.2,9.7,5,9.8c-0.4,0.3-0.7,0.8-0.7,1.3
		l0,22.9c0,0.6,0.4,1.2,0.9,1.4l15.5,6.7c0.8,0.4,1.8,0.4,2.6,0l15.6-6.7c0.6-0.2,0.9-0.8,0.9-1.4L39.8,11.1z M5.8,11.1l15.4,6.7
		v22.9l-0.8-0.3l0,0L5.8,34L5.8,11.1z M22.9,40.6l-0.1,0V17.8l15.4-6.7l0,22.9L22.9,40.6z"/>
	<g>
		<path class="st3" d="M19.8,10.9l2.2,0.9l9-4c0.3-0.1,0.4-0.4,0.5-0.7v0c0-0.6-0.6-1-1.1-0.7L22,10.1l-8.4-3.7
			c-0.5-0.2-1.1,0.2-1.1,0.7l0,0c0,0.3,0.2,0.6,0.5,0.7L19.8,10.9z"/>
		<path class="st3" d="M22,13.2L9.9,7.8C9.4,7.6,8.8,8,8.8,8.5l0,0c0,0.3,0.2,0.6,0.5,0.7L22,14.9l12.7-5.6c0.3-0.1,0.5-0.4,0.5-0.7
			l0,0c0-0.6-0.6-1-1.1-0.7L22,13.2z"/>
	</g>
</g>
</svg>
