<?xml version="1.0" encoding="utf-8"?>
<!-- Generator: Adobe Illustrator 22.1.0, SVG Export Plug-In . SVG Version: 6.00 Build 0)  -->
<svg version="1.1" id="Layer_1" xmlns="http://www.w3.org/2000/svg" xmlns:xlink="http://www.w3.org/1999/xlink" x="0px" y="0px"
	 viewBox="0 0 45 45" style="enable-background:new 0 0 45 45;" xml:space="preserve">
<style type="text/css">
	.st0{fill:none;stroke:#585858;stroke-width:1.4;stroke-linecap:round;stroke-linejoin:round;stroke-miterlimit:10;}
	.st1{fill:#FFFFFF;}
	.st2{fill:#585858;}
	.st3{fill:#F58228;}
	.st4{fill:#59595B;}
	.st5{fill:#F58228;stroke:#F58228;stroke-width:0.5;stroke-miterlimit:10;}
	.st6{fill:#585858;stroke:#585858;stroke-width:0.5;stroke-miterlimit:10;}
	.st7{fill:#F58228;stroke:#F58228;stroke-width:0.2269;stroke-miterlimit:10;}
	.st8{fill:#585858;stroke:#FFFFFF;stroke-width:0.3256;stroke-miterlimit:10;}
	.st9{fill:#F58228;stroke:#FFFFFF;stroke-width:0.3256;stroke-miterlimit:10;}
	.st10{fill:#585858;stroke:#FFFFFF;stroke-width:0.5;stroke-miterlimit:10;}
	.st11{fill:none;stroke:#F58228;stroke-linecap:round;stroke-linejoin:round;stroke-miterlimit:22.9256;}
	.st12{fill:none;stroke:#585858;stroke-linecap:round;stroke-linejoin:round;stroke-miterlimit:22.9256;}
	.st13{fill:#585858;stroke:#FFFFFF;stroke-width:0.3454;stroke-miterlimit:10;}
	.st14{fill:#F58228;stroke:#FFFFFF;stroke-width:0.3454;stroke-miterlimit:10;}
	.st15{fill:#595A5C;}
	.st16{fill:none;stroke:#F58228;stroke-miterlimit:10;}
	.st17{fill:none;stroke:#FFFFFF;stroke-width:1.144;stroke-miterlimit:10;}
	.st18{fill:none;stroke:#FFFFFF;stroke-width:1.2222;stroke-miterlimit:10;}
	.st19{fill:none;stroke:#FFFFFF;stroke-width:1.2222;stroke-miterlimit:10;stroke-dasharray:1.3537,1.3537;}
	.st20{fill:none;stroke:#585858;stroke-width:1.144;stroke-miterlimit:10;}
	.st21{fill:none;stroke:#F58228;stroke-width:1.144;stroke-miterlimit:10;}
	.st22{fill:none;stroke:#585858;stroke-width:1.2222;stroke-miterlimit:10;}
	.st23{fill:none;stroke:#F58228;stroke-width:1.2222;stroke-miterlimit:10;}
	.st24{fill:none;stroke:#585858;stroke-width:1.2222;stroke-miterlimit:10;stroke-dasharray:1.3537,1.3537;}
</style>
<g>
	<polyline class="st17" points="26.7,35.5 26.7,38.2 17.7,38.2 17.7,35.5 	"/>
	<line class="st17" x1="15.2" y1="38.2" x2="29.3" y2="38.2"/>
	<path class="st17" d="M36.4,9.4c0.3,0,0.6,0.1,0.8,0.3c0.2,0.2,0.3,0.5,0.3,0.8v19.6H7V10.5c0-0.3,0.1-0.6,0.3-0.8
		C7.5,9.5,7.8,9.4,8,9.4H36.4z"/>
	<rect x="9.2" y="11.6" class="st17" width="26.1" height="16.3"/>
	<g>
		<line class="st17" x1="11.7" y1="19.5" x2="11.7" y2="22.1"/>
		<line class="st17" x1="13.6" y1="16.9" x2="13.6" y2="20.6"/>
		<line class="st17" x1="15.5" y1="20.9" x2="15.5" y2="22.1"/>
		<line class="st17" x1="17.4" y1="21.9" x2="17.4" y2="25.1"/>
		<line class="st17" x1="19.3" y1="24.3" x2="19.3" y2="25.9"/>
		<line class="st17" x1="21.2" y1="15.5" x2="21.2" y2="23.2"/>
		<line class="st17" x1="23.2" y1="13.7" x2="23.2" y2="16.8"/>
		<line class="st17" x1="25.1" y1="16.3" x2="25.1" y2="21.5"/>
		<line class="st17" x1="27" y1="19.3" x2="27" y2="20.8"/>
		<line class="st17" x1="28.9" y1="20.3" x2="28.9" y2="23.7"/>
		<line class="st17" x1="30.8" y1="16.6" x2="30.8" y2="21.6"/>
		<line class="st17" x1="32.8" y1="15.5" x2="32.8" y2="17.3"/>
	</g>
	<path class="st17" d="M7,30.1v2.5c0,0.3,0.1,0.6,0.3,0.8c0.2,0.2,0.5,0.3,0.8,0.3h28.4c0.3,0,0.6-0.1,0.8-0.3
		c0.2-0.2,0.3-0.5,0.3-0.8v-2.5H7z"/>
</g>
</svg>
