<?xml version="1.0" encoding="utf-8"?>
<!-- Generator: Adobe Illustrator 22.1.0, SVG Export Plug-In . SVG Version: 6.00 Build 0)  -->
<svg version="1.1" id="Layer_1" xmlns="http://www.w3.org/2000/svg" xmlns:xlink="http://www.w3.org/1999/xlink" x="0px" y="0px"
	 viewBox="0 0 45 45" style="enable-background:new 0 0 45 45;" xml:space="preserve">
<style type="text/css">
	.st0{fill:none;stroke:#585858;stroke-width:1.4;stroke-linecap:round;stroke-linejoin:round;stroke-miterlimit:10;}
	.st1{fill:#FFFFFF;}
	.st2{fill:#585858;}
	.st3{fill:#F58228;}
	.st4{fill:#59595B;}
	.st5{fill:#F58228;stroke:#F58228;stroke-width:0.5;stroke-miterlimit:10;}
	.st6{fill:#585858;stroke:#585858;stroke-width:0.5;stroke-miterlimit:10;}
	.st7{fill:#F58228;stroke:#F58228;stroke-width:0.2269;stroke-miterlimit:10;}
	.st8{fill:#585858;stroke:#FFFFFF;stroke-width:0.3256;stroke-miterlimit:10;}
	.st9{fill:#F58228;stroke:#FFFFFF;stroke-width:0.3256;stroke-miterlimit:10;}
	.st10{fill:#585858;stroke:#FFFFFF;stroke-width:0.5;stroke-miterlimit:10;}
	.st11{fill:none;stroke:#F58228;stroke-linecap:round;stroke-linejoin:round;stroke-miterlimit:22.9256;}
	.st12{fill:none;stroke:#585858;stroke-linecap:round;stroke-linejoin:round;stroke-miterlimit:22.9256;}
	.st13{fill:#585858;stroke:#FFFFFF;stroke-width:0.3454;stroke-miterlimit:10;}
	.st14{fill:#F58228;stroke:#FFFFFF;stroke-width:0.3454;stroke-miterlimit:10;}
	.st15{fill:#595A5C;}
	.st16{fill:none;stroke:#F58228;stroke-miterlimit:10;}
	.st17{fill:none;stroke:#FFFFFF;stroke-width:1.144;stroke-miterlimit:10;}
	.st18{fill:none;stroke:#FFFFFF;stroke-width:1.2222;stroke-miterlimit:10;}
	.st19{fill:none;stroke:#FFFFFF;stroke-width:1.2222;stroke-miterlimit:10;stroke-dasharray:1.3537,1.3537;}
	.st20{fill:none;stroke:#585858;stroke-width:1.144;stroke-miterlimit:10;}
	.st21{fill:none;stroke:#F58228;stroke-width:1.144;stroke-miterlimit:10;}
	.st22{fill:none;stroke:#585858;stroke-width:1.2222;stroke-miterlimit:10;}
	.st23{fill:none;stroke:#F58228;stroke-width:1.2222;stroke-miterlimit:10;}
	.st24{fill:none;stroke:#585858;stroke-width:1.2222;stroke-miterlimit:10;stroke-dasharray:1.3537,1.3537;}
</style>
<g>
	<g>
		<g>
			<path class="st1" d="M16.9,21H6.6V5.6h10.3V21z M7.6,20h8.2V6.6H7.6V20z"/>
		</g>
		<g>
			<path class="st1" d="M28.2,15.9H17.9V5.6h10.3V15.9z M18.9,14.8h8.2V6.6h-8.2V14.8z"/>
		</g>
		<g>
			<path class="st1" d="M39.4,23H29.2V5.6h10.3V23z M30.2,22h8.2V6.6h-8.2V22z"/>
		</g>
		<g>
			<rect x="17.9" y="16.9" class="st1" width="10.3" height="1"/>
		</g>
		<g>
			<rect x="6.6" y="22" class="st1" width="10.3" height="1"/>
		</g>
		<g>
			<rect x="6.6" y="24.1" class="st1" width="10.3" height="1"/>
		</g>
		<g>
			<rect x="6.6" y="37.4" class="st1" width="10.3" height="1"/>
		</g>
		<g>
			<rect x="7.1" y="16.9" class="st1" width="9.2" height="1"/>
		</g>
		<g>
			<path class="st1" d="M28.2,38.4H17.9V21h10.3V38.4z M18.9,37.4h8.2V22h-8.2V37.4z"/>
		</g>
		<g>
			<path class="st1" d="M16.9,36.4H6.6V26.1h10.3V36.4z M7.6,35.3h8.2v-8.2H7.6V35.3z"/>
		</g>
		<g>
			<rect x="17.9" y="18.9" class="st1" width="10.3" height="1"/>
		</g>
		<g>
			<rect x="29.2" y="35.3" class="st1" width="10.3" height="1"/>
		</g>
		<g>
			<rect x="29.2" y="37.4" class="st1" width="10.3" height="1"/>
		</g>
		<g>
			<rect x="20.5" y="23" class="st1" width="1" height="1"/>
		</g>
		<g>
			<rect x="22.5" y="23" class="st1" width="1" height="1"/>
		</g>
		<g>
			<rect x="24.6" y="23" class="st1" width="1" height="1"/>
		</g>
		<g>
			<rect x="31.7" y="7.6" class="st1" width="1" height="1"/>
		</g>
		<g>
			<rect x="33.8" y="7.6" class="st1" width="1" height="1"/>
		</g>
		<g>
			<rect x="35.8" y="7.6" class="st1" width="1" height="1"/>
		</g>
		<g>
			<rect x="9.2" y="7.6" class="st1" width="1" height="1"/>
		</g>
		<g>
			<rect x="11.2" y="7.6" class="st1" width="1" height="1"/>
		</g>
		<g>
			<rect x="13.3" y="7.6" class="st1" width="1" height="1"/>
		</g>
		<g>
			<rect x="29.7" y="18.9" class="st1" width="9.2" height="1"/>
		</g>
		<g>
			<rect x="18.4" y="34.3" class="st1" width="9.2" height="1"/>
		</g>
		<g>
			<rect x="22.5" y="4.2" transform="matrix(0.7071 -0.7071 0.7071 0.7071 -0.8392 19.4233)" class="st1" width="1" height="13"/>
		</g>
		<g>
			<rect x="16.5" y="10.2" transform="matrix(0.7071 -0.7071 0.7071 0.7071 -0.8392 19.4233)" class="st1" width="13" height="1"/>
		</g>
		<g>
			<rect x="11.2" y="24.7" transform="matrix(0.7071 -0.7071 0.7071 0.7071 -18.6413 17.4546)" class="st1" width="1" height="13"/>
		</g>
		<g>
			<rect x="5.2" y="30.7" transform="matrix(0.7071 -0.7071 0.7071 0.7071 -18.6413 17.4546)" class="st1" width="13" height="1"/>
		</g>
		<g>
			<path class="st1" d="M39.4,34.3H29.2V24.1h10.3V34.3z M30.2,33.3h8.2v-8.2h-8.2V33.3z"/>
		</g>
		<g>
			<rect x="33.8" y="22.7" transform="matrix(0.7071 -0.7071 0.7071 0.7071 -10.5851 32.8029)" class="st1" width="1" height="13"/>
		</g>
		<g>
			<rect x="27.8" y="28.7" transform="matrix(0.7071 -0.7071 0.7071 0.7071 -10.5851 32.8029)" class="st1" width="13" height="1"/>
		</g>
	</g>
</g>
</svg>
