<?xml version="1.0" encoding="utf-8"?>
<!-- Generator: Adobe Illustrator 22.1.0, SVG Export Plug-In . SVG Version: 6.00 Build 0)  -->
<svg version="1.1" id="Layer_1" xmlns="http://www.w3.org/2000/svg" xmlns:xlink="http://www.w3.org/1999/xlink" x="0px" y="0px"
	 viewBox="0 0 45 45" style="enable-background:new 0 0 45 45;" xml:space="preserve">
<style type="text/css">
	.st0{fill:none;stroke:#585858;stroke-width:1.4;stroke-linecap:round;stroke-linejoin:round;stroke-miterlimit:10;}
	.st1{fill:#FFFFFF;}
	.st2{fill:#585858;}
	.st3{fill:#F58228;}
	.st4{fill:#59595B;}
	.st5{fill:#F58228;stroke:#F58228;stroke-width:0.5;stroke-miterlimit:10;}
	.st6{fill:#585858;stroke:#585858;stroke-width:0.5;stroke-miterlimit:10;}
	.st7{fill:#F58228;stroke:#F58228;stroke-width:0.2269;stroke-miterlimit:10;}
	.st8{fill:#585858;stroke:#FFFFFF;stroke-width:0.3256;stroke-miterlimit:10;}
	.st9{fill:#F58228;stroke:#FFFFFF;stroke-width:0.3256;stroke-miterlimit:10;}
	.st10{fill:#585858;stroke:#FFFFFF;stroke-width:0.5;stroke-miterlimit:10;}
	.st11{fill:none;stroke:#F58228;stroke-linecap:round;stroke-linejoin:round;stroke-miterlimit:22.9256;}
	.st12{fill:none;stroke:#585858;stroke-linecap:round;stroke-linejoin:round;stroke-miterlimit:22.9256;}
	.st13{fill:#585858;stroke:#FFFFFF;stroke-width:0.3454;stroke-miterlimit:10;}
	.st14{fill:#F58228;stroke:#FFFFFF;stroke-width:0.3454;stroke-miterlimit:10;}
	.st15{fill:#595A5C;}
	.st16{fill:none;stroke:#F58228;stroke-miterlimit:10;}
	.st17{fill:none;stroke:#FFFFFF;stroke-width:1.144;stroke-miterlimit:10;}
	.st18{fill:none;stroke:#FFFFFF;stroke-width:1.2222;stroke-miterlimit:10;}
	.st19{fill:none;stroke:#FFFFFF;stroke-width:1.2222;stroke-miterlimit:10;stroke-dasharray:1.3537,1.3537;}
	.st20{fill:none;stroke:#585858;stroke-width:1.144;stroke-miterlimit:10;}
	.st21{fill:none;stroke:#F58228;stroke-width:1.144;stroke-miterlimit:10;}
	.st22{fill:none;stroke:#585858;stroke-width:1.2222;stroke-miterlimit:10;}
	.st23{fill:none;stroke:#F58228;stroke-width:1.2222;stroke-miterlimit:10;}
	.st24{fill:none;stroke:#585858;stroke-width:1.2222;stroke-miterlimit:10;stroke-dasharray:1.3537,1.3537;}
</style>
<g>
	<path class="st18" d="M33.2,41.9l-1.7-10.3l2.9-9.4c0.4-1.3,0.7-2.7,0.7-4.2C35,11,29.3,5.3,22.2,5.3C15.1,5.3,9.4,11,9.4,18.1
		l0,1.5L6.5,28h3.3l0.6,8.1l6.4-0.6l0.8,6.5"/>
	<g>
		<path class="st18" d="M27.1,18.1c0,2.7-2.2,4.8-4.8,4.8c-2.7,0-4.8-2.2-4.8-4.8c0-2.7,2.2-4.8,4.8-4.8
			C24.9,13.2,27.1,15.4,27.1,18.1z"/>
		<circle class="st18" cx="22.2" cy="18.1" r="1.8"/>
		<g>
			<line class="st18" x1="22.2" y1="13.2" x2="22.2" y2="11.3"/>
			<line class="st18" x1="19.8" y1="13.9" x2="18.8" y2="12.2"/>
			<line class="st18" x1="18" y1="15.7" x2="16.3" y2="14.7"/>
			<line class="st18" x1="17.4" y1="18.1" x2="15.4" y2="18.1"/>
			<line class="st18" x1="18" y1="20.5" x2="16.3" y2="21.5"/>
			<line class="st18" x1="19.8" y1="22.3" x2="18.8" y2="24"/>
			<line class="st18" x1="22.2" y1="22.9" x2="22.2" y2="24.9"/>
			<line class="st18" x1="24.6" y1="22.3" x2="25.6" y2="24"/>
			<line class="st18" x1="26.4" y1="20.5" x2="28.1" y2="21.5"/>
			<line class="st18" x1="27.1" y1="18.1" x2="29" y2="18.1"/>
			<line class="st18" x1="26.4" y1="15.7" x2="28.1" y2="14.7"/>
			<line class="st18" x1="24.6" y1="13.9" x2="25.6" y2="12.2"/>
		</g>
	</g>
	<g>
		<circle class="st19" cx="22.2" cy="18.1" r="9.9"/>
	</g>
</g>
</svg>
