<?xml version="1.0" encoding="utf-8"?>
<!-- Generator: Adobe Illustrator 22.1.0, SVG Export Plug-In . SVG Version: 6.00 Build 0)  -->
<svg version="1.1" id="Layer_1" xmlns="http://www.w3.org/2000/svg" xmlns:xlink="http://www.w3.org/1999/xlink" x="0px" y="0px"
	 viewBox="0 0 45 45" style="enable-background:new 0 0 45 45;" xml:space="preserve">
<style type="text/css">
	.st0{fill:none;stroke:#585858;stroke-width:1.4;stroke-linecap:round;stroke-linejoin:round;stroke-miterlimit:10;}
	.st1{fill:#FFFFFF;}
	.st2{fill:#585858;}
	.st3{fill:#F58228;}
	.st4{fill:#59595B;}
	.st5{fill:#F58228;stroke:#F58228;stroke-width:0.5;stroke-miterlimit:10;}
	.st6{fill:#585858;stroke:#585858;stroke-width:0.5;stroke-miterlimit:10;}
	.st7{fill:#F58228;stroke:#F58228;stroke-width:0.2269;stroke-miterlimit:10;}
	.st8{fill:#585858;stroke:#FFFFFF;stroke-width:0.3256;stroke-miterlimit:10;}
	.st9{fill:#F58228;stroke:#FFFFFF;stroke-width:0.3256;stroke-miterlimit:10;}
	.st10{fill:#585858;stroke:#FFFFFF;stroke-width:0.5;stroke-miterlimit:10;}
	.st11{fill:none;stroke:#F58228;stroke-linecap:round;stroke-linejoin:round;stroke-miterlimit:22.9256;}
	.st12{fill:none;stroke:#585858;stroke-linecap:round;stroke-linejoin:round;stroke-miterlimit:22.9256;}
	.st13{fill:#585858;stroke:#FFFFFF;stroke-width:0.3454;stroke-miterlimit:10;}
	.st14{fill:#F58228;stroke:#FFFFFF;stroke-width:0.3454;stroke-miterlimit:10;}
	.st15{fill:#595A5C;}
	.st16{fill:none;stroke:#F58228;stroke-miterlimit:10;}
	.st17{fill:none;stroke:#FFFFFF;stroke-width:1.144;stroke-miterlimit:10;}
	.st18{fill:none;stroke:#FFFFFF;stroke-width:1.2222;stroke-miterlimit:10;}
	.st19{fill:none;stroke:#FFFFFF;stroke-width:1.2222;stroke-miterlimit:10;stroke-dasharray:1.3537,1.3537;}
	.st20{fill:none;stroke:#585858;stroke-width:1.144;stroke-miterlimit:10;}
	.st21{fill:none;stroke:#F58228;stroke-width:1.144;stroke-miterlimit:10;}
	.st22{fill:none;stroke:#585858;stroke-width:1.2222;stroke-miterlimit:10;}
	.st23{fill:none;stroke:#F58228;stroke-width:1.2222;stroke-miterlimit:10;}
	.st24{fill:none;stroke:#585858;stroke-width:1.2222;stroke-miterlimit:10;stroke-dasharray:1.3537,1.3537;}
</style>
<g>
	<g id="trophy_2_">
		<path class="st1" d="M29.6,22.9h2.1c2.9-0.3,5-2.7,5-5.6v-6.9c0-0.2-0.1-0.3-0.3-0.3h-3.7C32.3,13.6,31.3,18.7,29.6,22.9
			L29.6,22.9z M12.9,10.1H9.2c-0.2,0-0.3,0.1-0.3,0.3v6.9c0,2.9,2.2,5.3,5,5.6H16C14.3,18.7,13.4,13.6,12.9,10.1L12.9,10.1z
			 M13.9,6.9c0.6,6.6,3.3,21.5,9,21.5c5.7,0,8.3-14.9,9-21.5H13.9L13.9,6.9z M10.8,39.1h24.1v-4.3H10.8V39.1L10.8,39.1z M14.7,33.5
			c1.5,0,4.7-2.3,5.9-4.2c-1.6-0.8-3-2.7-4.1-4.9l-2.6,0C10.2,24,7.6,21,7.6,17.4v-7c0-0.9,0.7-1.6,1.6-1.6h3.5
			c-0.2-1.4-0.3-2.3-0.3-2.5c0-0.2,0-0.4,0.2-0.5c0.1-0.1,0.3-0.2,0.5-0.2h19.4c0.2,0,0.4,0.1,0.5,0.2c0.1,0.1,0.2,0.3,0.2,0.5
			c0,0.2-0.1,1.1-0.3,2.5h3.5c0.9,0,1.6,0.7,1.6,1.6v7c0,3.6-2.7,6.6-6.3,6.9l-2.7,0c-1.1,2.3-2.4,4.1-4.1,4.9
			c1.2,1.9,4.4,4.2,5.9,4.2h4.7c0.4,0,0.7,0.3,0.7,0.7v5.7c0,0.4-0.3,0.7-0.7,0.7H10.1c-0.4,0-0.7-0.3-0.7-0.7v-5.7
			c0-0.4,0.3-0.7,0.7-0.7H14.7L14.7,33.5z M27.4,33.5c-1.6-1-3.1-2.5-3.8-3.8c-0.3,0-0.5,0.1-0.8,0.1c-0.3,0-0.5,0-0.8-0.1
			c-0.7,1.3-2.3,2.8-3.8,3.8H27.4L27.4,33.5z"/>
	</g>
	<path class="st1" d="M28.6,13.8c-0.1-0.3-0.3-0.5-0.6-0.5h-3.4l-1.1-3.2c-0.1-0.3-0.3-0.5-0.6-0.5c-0.3,0-0.6,0.2-0.6,0.5l-1.1,3.2
		h-3.4c-0.3,0-0.6,0.2-0.6,0.5c-0.1,0.3,0,0.6,0.2,0.8l2.8,2L19,19.8c-0.1,0.3,0,0.6,0.2,0.8c0.2,0.2,0.6,0.2,0.8,0l2.8-2l2.8,2
		c0.1,0.1,0.3,0.1,0.4,0.1c0.1,0,0.3,0,0.4-0.1c0.2-0.2,0.3-0.5,0.2-0.8l-1.1-3.2l2.8-2C28.6,14.4,28.7,14.1,28.6,13.8z M24.4,15.9
		c-0.2,0.2-0.3,0.5-0.2,0.8l0.6,1.7l-1.5-1.1c-0.1-0.1-0.3-0.1-0.4-0.1s-0.3,0-0.4,0.1L21,18.3l0.6-1.7c0.1-0.3,0-0.6-0.2-0.8
		l-1.5-1.1h1.8c0.3,0,0.6-0.2,0.6-0.5l0.6-1.7l0.6,1.7c0.1,0.3,0.3,0.5,0.6,0.5h1.8L24.4,15.9z"/>
</g>
</svg>
