<?xml version="1.0" encoding="utf-8"?>
<!-- Generator: Adobe Illustrator 22.1.0, SVG Export Plug-In . SVG Version: 6.00 Build 0)  -->
<svg version="1.1" id="Layer_1" xmlns="http://www.w3.org/2000/svg" xmlns:xlink="http://www.w3.org/1999/xlink" x="0px" y="0px"
	 viewBox="0 0 45 45" style="enable-background:new 0 0 45 45;" xml:space="preserve">
<style type="text/css">
	.st0{fill:none;stroke:#585858;stroke-width:1.4;stroke-linecap:round;stroke-linejoin:round;stroke-miterlimit:10;}
	.st1{fill:#FFFFFF;}
	.st2{fill:#585858;}
	.st3{fill:#F58228;}
	.st4{fill:#59595B;}
	.st5{fill:#F58228;stroke:#F58228;stroke-width:0.5;stroke-miterlimit:10;}
	.st6{fill:#585858;stroke:#585858;stroke-width:0.5;stroke-miterlimit:10;}
	.st7{fill:#F58228;stroke:#F58228;stroke-width:0.2269;stroke-miterlimit:10;}
	.st8{fill:#585858;stroke:#FFFFFF;stroke-width:0.3256;stroke-miterlimit:10;}
	.st9{fill:#F58228;stroke:#FFFFFF;stroke-width:0.3256;stroke-miterlimit:10;}
	.st10{fill:#585858;stroke:#FFFFFF;stroke-width:0.5;stroke-miterlimit:10;}
	.st11{fill:none;stroke:#F58228;stroke-linecap:round;stroke-linejoin:round;stroke-miterlimit:22.9256;}
	.st12{fill:none;stroke:#585858;stroke-linecap:round;stroke-linejoin:round;stroke-miterlimit:22.9256;}
	.st13{fill:#585858;stroke:#FFFFFF;stroke-width:0.3454;stroke-miterlimit:10;}
	.st14{fill:#F58228;stroke:#FFFFFF;stroke-width:0.3454;stroke-miterlimit:10;}
	.st15{fill:#595A5C;}
	.st16{fill:none;stroke:#F58228;stroke-miterlimit:10;}
	.st17{fill:none;stroke:#FFFFFF;stroke-width:1.144;stroke-miterlimit:10;}
	.st18{fill:none;stroke:#FFFFFF;stroke-width:1.2222;stroke-miterlimit:10;}
	.st19{fill:none;stroke:#FFFFFF;stroke-width:1.2222;stroke-miterlimit:10;stroke-dasharray:1.3537,1.3537;}
	.st20{fill:none;stroke:#585858;stroke-width:1.144;stroke-miterlimit:10;}
	.st21{fill:none;stroke:#F58228;stroke-width:1.144;stroke-miterlimit:10;}
	.st22{fill:none;stroke:#585858;stroke-width:1.2222;stroke-miterlimit:10;}
	.st23{fill:none;stroke:#F58228;stroke-width:1.2222;stroke-miterlimit:10;}
	.st24{fill:none;stroke:#585858;stroke-width:1.2222;stroke-miterlimit:10;stroke-dasharray:1.3537,1.3537;}
</style>
<g>
	<g>
		<path class="st6" d="M21.2,8.8v0.7c-0.5,0.4-2.1,1.9-2.2,6c0,0,0,0,0,0v22.9c0,0.2,0,0.7,0.4,1.2c0.8,1.1,3.2,2.4,10,2.4
			c0.1,0,0.1,0,0.2,0c0.1,0,0.1,0,0.2,0c6.8,0,9.1-1.3,9.9-2.4c0.4-0.5,0.4-1,0.4-1.2v-5.2c0,0,0-0.1,0-0.1
			c0.7-1.6,1.7-5.8,0.7-10.4c-0.6-2.7-1.8-5.1-3.5-7.3c-2.1-2.5-4.9-4.6-8.5-6.2V8.8L21.2,8.8z M19.6,15.5c0-0.3,0-0.7,0.1-1
			c1.7-0.6,3.5-0.9,5.3-0.9c7.8,0,14.1,5.5,14.1,12.2c0,6.7-6.3,12.2-14.1,12.2c-1.9,0-3.7-0.3-5.4-0.9V15.5z M28.1,8.8v0.7
			c0,0.1,0.1,0.2,0.2,0.3c6.6,2.9,10.6,7.3,11.8,13.2c1,4.5,0,8.5-0.7,10.1c-1.1,2.6-2.5,7.1-2.7,7.7c-0.1,0-0.2,0.1-0.3,0.1
			c-1.7,0.5-4.1,0.7-7,0.7c-2.9,0-5.3-0.2-7-0.7c-1.2-0.3-2.1-0.8-2.6-1.4c-0.4-0.5-0.4-0.9-0.4-0.9c0,0,0,0,0-0.1v-0.7
			c1.7,0.6,3.5,0.9,5.4,0.9c3.9,0,7.6-1.3,10.3-3.7c1.3-1.2,2.4-2.5,3.1-4.1c0.8-1.6,1.2-3.3,1.2-5c0-1.7-0.4-3.4-1.2-5
			c-0.7-1.5-1.8-2.9-3.1-4.1C32.6,14.4,28.9,13,25,13c-1.8,0-3.6,0.3-5.3,0.9c0.2-1.4,0.6-2.3,0.9-2.8c0.5-0.8,1-1.1,1-1.1
			c0.1-0.1,0.1-0.1,0.1-0.3V8.8 M21.8,8.8h6.3H21.8z M39.1,39.4c-0.3,0.4-0.9,0.7-1.6,1c0.3-1.1,1.2-3.7,2-5.8v3.8v0c0,0,0,0,0,0
			c0,0,0,0,0,0c0,0,0,0,0,0c0,0,0,0,0,0C39.5,38.5,39.5,38.9,39.1,39.4z"/>
	</g>
	<g>
		<path class="st6" d="M34.3,28.7c0,0.1-0.1,0.5,0,1c0.1,1,0.6,1.2,0.9,1.3c0.1,0,0.2,0,0.3,0c0,0,0,0,0,0c1,0,1.4-1,1.4-1.1
			c0.6-1.3,0.9-2.6,0.9-4c0-0.7-0.1-1.5-0.2-2.2c-0.2-0.7-0.4-1.3-0.7-1.9c-0.7-1.2-1.6-2.3-2.7-3.1c-0.1,0-0.5-0.4-1.1-0.4
			c-0.3,0-0.6,0.1-0.9,0.3c-0.8,0.6-0.2,1.8,0.3,2.4C34.3,23.4,34.4,26.8,34.3,28.7z M32.5,19c0.2-0.1,0.3-0.2,0.5-0.2
			c0.4,0,0.7,0.3,0.8,0.3c0,0,0,0,0,0c1,0.8,1.9,1.8,2.5,3c0.3,0.5,0.5,1.1,0.7,1.7c0.2,0.6,0.2,1.3,0.2,2c0,1.3-0.3,2.6-0.8,3.8
			c0,0,0,0,0,0c0,0-0.3,0.7-0.9,0.7c-0.1,0-0.1,0-0.2,0c-0.6-0.1-0.4-1.6-0.4-1.6c0,0,0,0,0,0c0.1-1.9,0-5.5-2-8.1c0,0,0,0,0,0
			C32.7,20.3,32.1,19.4,32.5,19z"/>
	</g>
</g>
<path class="st1" d="M21.8,30.7C21.8,30.7,21.8,30.6,21.8,30.7C21.8,30.6,21.8,30.6,21.8,30.7C21.8,30.6,21.8,30.6,21.8,30.7
	c0-0.1,0-0.1,0-0.1c0,0,0,0,0,0c0-0.2,0-0.3,0-0.4c0-0.1,0-2.1-0.6-5.1c-0.5-2.7-1.6-6.8-3.8-10.8v-2.1c0-0.6-0.4-1-0.9-1.1
	c0.1-0.8,0.5-3.1,2.7-4.1c0.1,0,0.1-0.1,0.2-0.2c0-0.1,0-0.2-0.1-0.2c0,0-1.2-1.1-3.8-1.6c0,0,0,0,0,0H7.7c0-0.2-0.2-0.3-0.4-0.3
	C7.2,4.6,7,4.7,7,4.9L5.4,5.1c-0.1,0-0.2,0.1-0.2,0.3v2c0,0.1,0.1,0.3,0.2,0.3L7,7.8v0C7,8,7.2,8.2,7.4,8.2c0.2,0,0.3-0.1,0.4-0.3
	h0.9L8.9,8c-0.3,0.4-0.6,1-0.5,2.2c0.2,1.9-0.9,3.6-0.9,3.6c0,0,0,0,0,0.1c-0.1,0.3-0.1,0.8,0.4,1c0,0,0.1,0,0.2,0
	c0.1,0,0.1,0,0.2,0c0.4-0.2,0.9-1,1.3-1.7c0.4-0.7,0.8-1.6,0.9-2.1c0.1-0.4,0.2-0.5,0.2-0.5c0.1-0.1,0.3-0.1,0.5,0
	c0.1,0.3,0.5,0.6,1.3,0.6h0.2c-0.3,0.2-0.5,0.6-0.5,1v2.2c0,0,0,0,0,0c-0.3,0.6-0.7,1.5-0.1,2c0.1,0.1,0.5,0.6,0.4,1.3
	c-0.3,0.5,0,0.9,0.1,1.2c0.1,0.1,0.2,0.3,0.2,0.4c0,0,0,0,0,0c0,0.2,0,0.5-0.1,0.7c-0.1,0.3-0.3,0.9,0.3,1.4
	c0.1,0.1,0.1,0.2,0.2,0.4c0,0.3-0.2,0.8-0.5,1.1c-0.1,0.1-1.9,1.7-3.1,2.8c0,0-0.4,0.4-0.8,0.7c-0.6,0.6-1.4,1.6-1.3,3.9
	c0,0,0,0,0,0.1v0c0,0,0,0,0,0c0,0,0,0,0,0c0,0,0,0,0,0c0,0,0,0,0,0c0,0,0,0,0,0c0,0,0,0,0,0c0,0,0,0,0,0c0,0,0,0,0,0c0,0,0,0,0,0
	c0,0,0,0,0,0c0,0,0,0,0,0c0,0,0,0,0,0c0,0,0,0,0,0c0,0,0,0,0,0c0,0,0,0,0,0c0,0,0,0,0,0c0,0,0,0,0,0c0,0,0,0,0,0c0,0,0,0,0,0
	c0,0,0,0,0,0c0,0,0,0,0,0c0,0,0,0,0,0c0,0,0,0,0,0c0,0,0,0,0,0c0,0,0,0,0,0c0,0,0,0,0,0c0,0,0,0,0,0c0,0,0,0,0,0c0,0,0,0,0,0
	c0,0,0,0,0,0c0,0,0,0,0,0c0,0,0,0,0,0c0,0,0,0,0,0c0,0,0,0,0,0c0,0,0,0,0,0c0,0,0,0,0,0c0,0,0,0,0,0c0,0,0,0,0,0c0,0,0,0,0,0
	c0,0,0,0,0,0c0,0,0,0,0,0c0,0,0,0,0,0c0,0,0,0,0,0c0,0,0,0,0,0c0,0,0,0,0,0.1c0,0,0,0,0,0c0,0,0,0,0,0.1c0,0.1,0,0.1,0,0.2
	c0,0,0,0,0,0c0,0,0,0,0,0.1c0,0,0,0,0,0c0,0,0,0,0,0.1c0,0,0,0,0,0c0,0,0,0,0,0.1c0,0,0,0,0,0c0,0,0,0,0,0.1c0,0,0,0,0,0
	c0,0,0,0,0,0.1c0,0,0,0,0,0c0,0,0,0,0,0.1c0,0,0,0,0,0c0,0,0,0,0,0.1c0,0,0,0,0,0.1c0,0,0,0,0,0.1c0,0,0,0,0,0.1c0,0,0,0,0,0.1
	c0,0,0,0,0,0c0,0,0,0,0,0.1c0,0,0,0,0,0c0,0,0,0,0,0.1c0,0,0,0,0,0.1c0,0,0,0,0,0.1c0,0,0,0,0,0.1c0,0,0,0,0,0.1c0,0,0,0,0,0.1
	c0,0,0,0,0,0.1c0,0,0,0,0,0.1c0,0,0,0,0,0.1c0,0,0,0,0,0.1c0,0,0,0,0,0.1c0,0,0,0,0,0.1c0,0,0,0,0,0.1c0,0,0,0,0,0.1c0,0,0,0,0,0.1
	c0,0,0,0,0,0.1c0,0,0,0,0,0.1c0,0,0,0,0,0.1c0,0,0,0,0,0.1c0,0,0,0,0,0.1c0,0,0,0,0,0.1c0,0,0,0,0,0.1c0,0,0,0,0,0.1c0,0,0,0,0,0.1
	c0,0,0,0,0,0.1c0,0,0,0,0,0.1c0,0,0,0,0,0.1c0,0,0,0,0,0.1c0,0,0,0,0,0.1c0,0,0,0,0,0.1c0,0,0,0,0,0.1c0,0,0,0,0,0.1c0,0,0,0,0,0.1
	c0,0,0,0,0,0.1c0,0,0,0,0,0.1c0,0,0,0,0,0.1c0,0,0,0,0,0.1c0,0,0,0.1,0,0.1c0,0,0,0,0,0c0,0,0,0.1,0,0.1c0.2,1.6,0.4,2.9,0.8,3.9
	c0.5,1.3,1.1,2,1.8,2.1c0.2,0.1,1.1,0.4,2.9,0.5c0,0,0,0,0,0c0.1,0,0.2,0,0.4,0c0.1,0,0.3,0,0.4,0c0.2,0,0.5,0,0.7,0
	c2.7,0,4.1-0.5,4.4-0.6c0.7-0.1,1.3-0.8,1.8-2.1c0.3-1,0.6-2.3,0.8-3.9c0,0,0-0.1,0-0.1c0,0,0,0,0,0c0,0,0-0.1,0-0.1c0,0,0,0,0-0.1
	c0,0,0,0,0-0.1c0,0,0,0,0-0.1c0,0,0,0,0-0.1c0,0,0,0,0-0.1c0,0,0,0,0-0.1c0,0,0,0,0-0.1c0,0,0,0,0-0.1c0,0,0,0,0-0.1c0,0,0,0,0-0.1
	c0,0,0,0,0-0.1c0,0,0,0,0-0.1c0,0,0,0,0-0.1c0,0,0,0,0-0.1c0,0,0,0,0-0.1c0,0,0,0,0-0.1c0,0,0,0,0-0.1c0,0,0,0,0-0.1c0,0,0,0,0-0.1
	c0,0,0,0,0-0.1c0,0,0,0,0-0.1c0,0,0,0,0-0.1c0,0,0,0,0-0.1c0,0,0,0,0-0.1c0,0,0,0,0-0.1c0,0,0,0,0,0c0,0,0,0,0-0.1c0,0,0,0,0,0
	c0,0,0,0,0-0.1c0,0,0,0,0-0.1c0,0,0,0,0-0.1c0,0,0,0,0,0c0,0,0,0,0-0.1c0,0,0,0,0,0c0,0,0,0,0-0.1c0,0,0,0,0,0c0,0,0,0,0-0.1
	c0,0,0,0,0,0c0,0,0,0,0-0.1c0,0,0,0,0,0c0,0,0,0,0-0.1c0,0,0,0,0,0c0,0,0,0,0-0.1c0,0,0,0,0,0c0,0,0,0,0-0.1c0,0,0,0,0,0
	c0,0,0,0,0-0.1c0,0,0,0,0,0c0,0,0,0,0-0.1c0,0,0,0,0,0c0,0,0,0,0-0.1c0,0,0,0,0,0c0,0,0,0,0-0.1c0,0,0,0,0,0c0,0,0,0,0-0.1
	c0,0,0,0,0,0c0,0,0,0,0-0.1c0,0,0,0,0,0c0,0,0,0,0-0.1c0,0,0,0,0,0c0,0,0,0,0-0.1c0,0,0,0,0,0c0,0,0,0,0-0.1c0,0,0,0,0,0
	c0,0,0,0,0-0.1c0,0,0,0,0,0c0,0,0,0,0-0.1c0,0,0,0,0,0c0,0,0,0,0-0.1c0,0,0,0,0,0c0,0,0,0,0-0.1c0,0,0,0,0,0c0,0,0,0,0-0.1
	c0,0,0,0,0,0c0,0,0,0,0-0.1c0,0,0,0,0,0c0,0,0,0,0-0.1c0,0,0,0,0,0c0,0,0,0,0,0c0,0,0,0,0,0c0,0,0,0,0,0c0,0,0,0,0,0c0,0,0,0,0,0
	c0,0,0,0,0,0c0,0,0,0,0,0c0,0,0,0,0,0c0,0,0,0,0,0c0,0,0,0,0,0c0,0,0,0,0,0c0,0,0,0,0,0C21.8,30.7,21.8,30.7,21.8,30.7
	C21.8,30.7,21.8,30.7,21.8,30.7C21.8,30.7,21.8,30.7,21.8,30.7z"/>
<g>
	<g>
		<path class="st6" d="M12.3,14.2C12.3,14.2,12.3,14.2,12.3,14.2c-0.3,0.6-0.9,1.6-0.3,2.1c0.1,0.1,0.5,0.6,0.4,1.3
			c-0.3,0.5,0,0.9,0.1,1.2c0.1,0.1,0.2,0.3,0.2,0.4c0,0,0,0,0,0c0,0.2,0,0.5-0.1,0.7c-0.1,0.3-0.3,0.9,0.3,1.4
			c0.1,0.1,0.1,0.2,0.2,0.4c0,0.3-0.2,0.8-0.5,1.1c-0.1,0.1-1.9,1.7-3.1,2.8c0,0-0.4,0.4-0.8,0.7c-0.6,0.6-1.4,1.6-1.3,3.9
			c0,0,0,0,0,0.1v0c0,0,0,0,0,0c0,0,0,0,0,0c0,0,0,0,0,0c0,0,0,0,0,0c0,0,0,0,0,0c0,0,0,0,0,0c0,0,0,0,0,0c0,0,0,0,0,0c0,0,0,0,0,0
			c0,0,0,0,0,0c0,0,0,0,0,0c0,0,0,0,0,0c0,0,0,0,0,0c0,0,0,0,0,0c0,0,0,0,0,0c0,0,0,0,0,0c0,0,0,0,0,0c0,0,0,0,0,0c0,0,0,0,0,0
			c0,0,0,0,0,0c0,0,0,0,0,0c0,0,0,0,0,0c0,0,0,0,0,0c0,0,0,0,0,0c0,0,0,0,0,0c0,0,0,0,0,0c0,0,0,0,0,0c0,0,0,0,0,0c0,0,0,0,0,0
			c0,0,0,0,0,0c0,0,0,0,0,0c0,0,0,0,0,0c0,0,0,0,0,0c0,0,0,0,0,0c0,0,0,0,0,0c0,0,0,0,0,0c0,0,0,0,0,0c0,0,0,0,0,0c0,0,0,0,0,0
			c0,0,0,0,0,0c0,0,0,0,0,0c0,0,0,0,0,0c0,0,0,0,0,0c0,0,0,0,0,0c0,0,0,0,0,0.1c0,0,0,0,0,0c0,0,0,0,0,0.1c0,0.1,0,0.1,0,0.2
			c0,0,0,0,0,0c0,0,0,0,0,0.1c0,0,0,0,0,0c0,0,0,0,0,0.1c0,0,0,0,0,0c0,0,0,0,0,0.1c0,0,0,0,0,0c0,0,0,0,0,0.1c0,0,0,0,0,0
			c0,0,0,0,0,0.1c0,0,0,0,0,0c0,0,0,0,0,0.1c0,0,0,0,0,0c0,0,0,0,0,0.1c0,0,0,0,0,0.1c0,0,0,0,0,0.1c0,0,0,0,0,0.1c0,0,0,0,0,0.1
			c0,0,0,0,0,0c0,0,0,0,0,0.1c0,0,0,0,0,0c0,0,0,0,0,0.1c0,0,0,0,0,0.1c0,0,0,0,0,0.1c0,0,0,0,0,0.1c0,0,0,0,0,0.1c0,0,0,0,0,0.1
			c0,0,0,0,0,0.1c0,0,0,0,0,0.1c0,0,0,0,0,0.1c0,0,0,0,0,0.1c0,0,0,0,0,0.1c0,0,0,0,0,0.1c0,0,0,0,0,0.1c0,0,0,0,0,0.1
			c0,0,0,0,0,0.1c0,0,0,0,0,0.1c0,0,0,0,0,0.1c0,0,0,0,0,0.1c0,0,0,0,0,0.1c0,0,0,0,0,0.1c0,0,0,0,0,0.1c0,0,0,0,0,0.1
			c0,0,0,0,0,0.1c0,0,0,0,0,0.1c0,0,0,0,0,0.1c0,0,0,0,0,0.1c0,0,0,0,0,0.1c0,0,0,0,0,0.1c0,0,0,0,0,0.1c0,0,0,0,0,0.1
			c0,0,0,0,0,0.1c0,0,0,0,0,0.1c0,0,0,0,0,0.1c0,0,0,0,0,0.1c0,0,0,0,0,0.1c0,0,0,0,0,0.1c0,0,0,0,0,0.1c0,0,0,0.1,0,0.1
			c0,0,0,0,0,0c0,0,0,0.1,0,0.1c0.2,1.6,0.4,2.9,0.8,3.9c0.5,1.3,1.1,2,1.8,2.1c0.2,0.1,1.1,0.4,2.9,0.5c0,0,0,0,0,0
			c0.1,0,0.2,0,0.4,0c0.1,0,0.3,0,0.4,0c0.2,0,0.5,0,0.7,0c2.7,0,4.1-0.5,4.4-0.6c0.7-0.1,1.3-0.8,1.8-2.1c0.3-1,0.6-2.3,0.8-3.9
			c0,0,0-0.1,0-0.1c0,0,0,0,0,0c0,0,0-0.1,0-0.1c0,0,0,0,0-0.1c0,0,0,0,0-0.1c0,0,0,0,0-0.1c0,0,0,0,0-0.1c0,0,0,0,0-0.1
			c0,0,0,0,0-0.1c0,0,0,0,0-0.1c0,0,0,0,0-0.1c0,0,0,0,0-0.1c0,0,0,0,0-0.1c0,0,0,0,0-0.1c0,0,0,0,0-0.1c0,0,0,0,0-0.1
			c0,0,0,0,0-0.1c0,0,0,0,0-0.1c0,0,0,0,0-0.1c0,0,0,0,0-0.1c0,0,0,0,0-0.1c0,0,0,0,0-0.1c0,0,0,0,0-0.1c0,0,0,0,0-0.1
			c0,0,0,0,0-0.1c0,0,0,0,0-0.1c0,0,0,0,0-0.1c0,0,0,0,0-0.1c0,0,0,0,0,0c0,0,0,0,0-0.1c0,0,0,0,0,0c0,0,0,0,0-0.1c0,0,0,0,0-0.1
			c0,0,0,0,0-0.1c0,0,0,0,0,0c0,0,0,0,0-0.1c0,0,0,0,0,0c0,0,0,0,0-0.1c0,0,0,0,0,0c0,0,0,0,0-0.1c0,0,0,0,0,0c0,0,0,0,0-0.1
			c0,0,0,0,0,0c0,0,0,0,0-0.1c0,0,0,0,0,0c0,0,0,0,0-0.1c0,0,0,0,0,0c0,0,0,0,0-0.1c0,0,0,0,0,0c0,0,0,0,0-0.1c0,0,0,0,0,0
			c0,0,0,0,0-0.1c0,0,0,0,0,0c0,0,0,0,0-0.1c0,0,0,0,0,0c0,0,0,0,0-0.1c0,0,0,0,0,0c0,0,0,0,0-0.1c0,0,0,0,0,0c0,0,0,0,0-0.1
			c0,0,0,0,0,0c0,0,0,0,0-0.1c0,0,0,0,0,0c0,0,0,0,0-0.1c0,0,0,0,0,0c0,0,0,0,0-0.1c0,0,0,0,0,0c0,0,0,0,0-0.1c0,0,0,0,0,0
			c0,0,0,0,0-0.1c0,0,0,0,0,0c0,0,0,0,0-0.1c0,0,0,0,0,0c0,0,0,0,0-0.1c0,0,0,0,0,0c0,0,0,0,0-0.1c0,0,0,0,0,0c0,0,0,0,0-0.1
			c0,0,0,0,0,0c0,0,0,0,0-0.1c0,0,0,0,0,0c0,0,0,0,0,0c0,0,0,0,0,0c0,0,0,0,0,0c0,0,0,0,0,0c0,0,0,0,0,0c0,0,0,0,0,0c0,0,0,0,0,0
			c0,0,0,0,0,0c0,0,0,0,0,0c0,0,0,0,0,0c0,0,0,0,0,0c0,0,0,0,0,0c0,0,0,0,0-0.1c0,0,0,0,0,0c0,0,0,0,0,0c0,0,0,0,0,0c0,0,0,0,0,0
			c0,0,0,0,0,0c0,0,0,0,0,0c0,0,0,0,0,0c0-0.2,0-0.3,0-0.4c0-0.1,0-2.1-0.6-5.1c-0.5-2.7-1.7-6.8-4-10.9 M13.1,20.2
			C13.1,20.2,13.1,20.2,13.1,20.2c0.2-0.3,0.2-0.7,0.2-1c0-0.3-0.2-0.5-0.3-0.7c-0.2-0.3-0.3-0.4-0.1-0.7c0,0,0-0.1,0-0.1
			c0.1-1.1-0.6-1.8-0.6-1.8c0,0,0,0,0,0c-0.3-0.2-0.1-0.9,0.2-1.4h4.6c2.2,4,3.2,7.9,3.7,10.6c0.5,3,0.5,5,0.5,5c0,0,0,0,0,0v0
			c0,0,0,0,0,0c0,0,0,0.2,0,0.4c-0.4-1.3-0.9-2.5-1.5-3.5c-0.8-1.3-1.8-2.3-3-3c-1.4-0.9-2.8-1.2-3.5-1.3c0.2-0.4,0.4-0.7,0.4-1.1
			c0-0.3-0.1-0.6-0.3-0.8C12.9,20.6,13.1,20.2,13.1,20.2z M18.8,41.1C18.8,41.1,18.8,41.1,18.8,41.1C18.8,41.1,18.8,41.1,18.8,41.1
			c-0.1,0-0.7,0.2-1.8,0.4c-0.2,0-0.3,0-0.5,0.1c-0.1,0-0.2,0-0.3,0c-0.1,0-0.2,0-0.4,0c-0.1,0-0.3,0-0.5,0c-0.2,0-0.5,0-0.8,0
			c-0.9,0-1.6-0.1-2.3-0.1c-0.1,0-0.2,0-0.4,0c-0.4-0.1-0.7-0.1-1-0.2c0,0-0.1,0-0.1,0c0,0-0.1,0-0.1,0c-0.1,0-0.2-0.1-0.3-0.1
			c-0.1,0-0.2,0-0.2-0.1c0,0,0,0-0.1,0c-0.5-0.1-1-0.6-1.3-1.5c0.2,0.1,0.4,0.1,0.5,0.2c0.2,0.1,1.9,0.6,5.1,0.6
			c3.2,0,4.8-0.5,5-0.6c0.2,0,0.4-0.1,0.5-0.2C19.8,40.5,19.4,41.1,18.8,41.1C18.9,41.1,18.9,41.1,18.8,41.1z M21.1,34.8
			c0,0,0,0.1,0,0.1c0,0,0,0,0,0c0,0,0,0.1,0,0.1c0,0,0,0,0,0c0,0,0,0.1,0,0.1c0,0,0,0,0,0.1c0,0,0,0,0,0.1c0,0,0,0,0,0.1
			c0,0,0,0,0,0.1c0,0,0,0,0,0.1c0,0,0,0,0,0.1c0,0,0,0,0,0.1c0,0,0,0,0,0.1c0,0,0,0.1,0,0.1c0,0,0,0,0,0.1c0,0,0,0.1,0,0.1
			c0,0,0,0.1,0,0.1c0,0,0,0,0,0.1c0,0,0,0.1,0,0.1c0,0,0,0,0,0.1c0,0,0,0.1,0,0.1c0,0,0,0.1,0,0.1c0,0,0,0.1,0,0.1c0,0,0,0.1,0,0.1
			c0,0,0,0,0,0.1c0,0,0,0,0,0.1c0,0,0,0.1,0,0.1c0,0,0,0,0,0.1c0,0,0,0.1,0,0.1c0,0,0,0,0,0.1c0,0,0,0.1,0,0.1c0,0,0,0,0,0.1
			c0,0,0,0.1,0,0.1c0,0,0,0,0,0c0,0,0,0.1,0,0.1c0,0,0,0,0,0c0,0,0,0.1,0,0.1c0,0,0,0,0,0c0,0,0,0.1,0,0.1c0,0,0,0,0,0
			c0,0,0,0.1,0,0.1c0,0,0,0,0,0c0,0,0,0.1,0,0.1c0,0,0,0,0,0c0,0,0,0.1,0,0.1c0,0,0,0,0,0c0,0,0,0.1,0,0.1c0,0,0,0,0,0
			c0,0.1,0,0.1,0,0.2c0,0.2-0.1,0.3-0.1,0.5c0,0,0,0,0,0c-0.3,0.3-0.6,0.5-0.9,0.5c0,0,0,0-0.1,0c0,0-1.6,0.5-4.9,0.5
			c-3.3,0-5-0.5-5-0.5c0,0,0,0-0.1,0c-0.3,0-0.6-0.2-0.9-0.5c0,0,0,0,0,0c-0.2-0.8-0.4-1.9-0.5-3.1c0,0,0-0.1,0-0.1
			c0-0.1,0-0.1,0-0.2C8,34,7.9,32.7,7.9,31.8c0,0,0,0,0-0.1c0,0,0,0,0,0c0-0.1,0-0.2,0-0.3c0,0,0,0,0,0c0-0.1,0-0.2,0-0.3
			c0,0,0,0,0,0c0-0.1,0-0.2,0-0.3c0-0.3,0-0.5,0-0.5v0c0,0,0,0,0,0c-0.1-2,0.6-2.9,1.2-3.5C9.4,26.4,9.8,26,9.8,26
			c0.3-0.2,2.5-2.3,3-2.7c0.4,0,2,0.2,3.7,1.2c2.6,1.6,4.2,4.5,4.7,8.5c0,0,0,0,0,0.1C21.2,33.6,21.2,34.2,21.1,34.8
			C21.1,34.7,21.1,34.7,21.1,34.8z"/>
	</g>
	<g>
		<path class="st2" d="M13.8,16H17c0.1,0,0.3-0.1,0.3-0.3s-0.1-0.3-0.3-0.3h-3.2c-0.1,0-0.3,0.1-0.3,0.3S13.6,16,13.8,16z"/>
	</g>
	<g>
		<path class="st2" d="M14,16.8c0,0.1,0.1,0.3,0.3,0.3h3.3c0.1,0,0.3-0.1,0.3-0.3s-0.1-0.3-0.3-0.3h-3.3C14.1,16.6,14,16.7,14,16.8z
			"/>
	</g>
	<g>
		<path class="st2" d="M14.3,18c0,0.1,0.1,0.3,0.3,0.3H18c0.1,0,0.3-0.1,0.3-0.3c0-0.1-0.1-0.3-0.3-0.3h-3.4
			C14.4,17.7,14.3,17.8,14.3,18z"/>
	</g>
	<g>
		<path class="st2" d="M14.8,19.1c0,0.1,0.1,0.3,0.3,0.3h3.3c0.1,0,0.3-0.1,0.3-0.3s-0.1-0.3-0.3-0.3h-3.3
			C14.9,18.8,14.8,18.9,14.8,19.1z"/>
	</g>
</g>
<path class="st7" d="M19.4,6.4c0,0-1.2-1.1-3.8-1.6c0,0,0,0,0,0H7.7c0-0.2-0.2-0.3-0.4-0.3C7.2,4.6,7,4.7,7,4.9L5.4,5
	c-0.1,0-0.2,0.1-0.2,0.3v2c0,0.1,0.1,0.3,0.2,0.3L7,7.8v0C7,8,7.2,8.2,7.4,8.2c0.2,0,0.3-0.1,0.4-0.3h0.9L8.9,8
	c-0.3,0.4-0.6,1-0.5,2.2c0.2,1.9-0.9,3.6-0.9,3.6c0,0,0,0,0,0.1c-0.1,0.3-0.1,0.8,0.4,1c0,0,0.1,0,0.2,0c0.1,0,0.1,0,0.2,0
	c0.4-0.2,0.9-1,1.3-1.7c0.4-0.7,0.8-1.6,0.9-2.1c0.1-0.4,0.2-0.5,0.2-0.5c0.1-0.1,0.3-0.1,0.5,0c0.1,0.3,0.5,0.6,1.3,0.6h0.2
	c-0.3,0.2-0.5,0.6-0.5,1v2.2l5.5-0.1v-2.1c0-0.6-0.4-1-0.9-1.1c0.1-0.8,0.5-3.1,2.7-4.1c0.1,0,0.1-0.1,0.2-0.2
	C19.5,6.6,19.5,6.5,19.4,6.4z M7,7.3L5.7,7.1V5.5L7,5.4V7.3z M12.3,10.6c-0.6,0-0.8-0.2-0.8-0.4c0-0.1-0.1-0.3-0.2-0.3
	c-0.9-0.1-1.3,0-1.5,1c-0.1,0.3-0.4,1.1-0.9,1.9c-0.5,0.9-0.8,1.3-1,1.5c0-0.1,0-0.2,0-0.3c0.2-0.3,1.2-2,1-3.9
	C8.8,9,9.1,8.5,9.3,8.3l3.1,2c0,0,0.2,0.1,0.3,0.4H12.3z M16.4,9.3c-0.3,0.7-0.4,1.3-0.4,1.6h-2.6c0,0,0,0,0,0c0-0.1,0-0.1-0.1-0.2
	c-0.2-0.6-0.6-0.9-0.6-0.9c0,0,0,0,0,0L9.4,7.7L9.3,7.6L8.9,7.4c0,0-0.1,0-0.1,0h-1V5.4h7.8c1.7,0.3,2.7,0.9,3.2,1.2
	C17.7,7.2,16.9,8.1,16.4,9.3z"/>
<path class="st7" d="M27.6,5.5V3.4C27.6,2.6,27,2,26.3,2h-2.7c-0.7,0-1.3,0.6-1.3,1.3v2.1c-0.7,0-1.3,0.6-1.3,1.3v2
	c0,0.1,0.1,0.3,0.3,0.3l7.5,0c0.1,0,0.2-0.1,0.2-0.3v-2C28.9,6.1,28.3,5.5,27.6,5.5z M22.8,3.4c0-0.4,0.3-0.8,0.8-0.8h2.7
	c0.4,0,0.8,0.3,0.8,0.8v2.1h-4.2V3.4z M28.3,8.4h-6.7V6.8c0-0.4,0.3-0.8,0.8-0.8h5.2c0.4,0,0.8,0.3,0.8,0.8V8.4z"/>
<path class="st1" d="M16.6,13.7v-2.2c0.2,0.1,0.3,0.3,0.3,0.6v1.6V14h-0.3V13.7z"/>
<path class="st1" d="M12.9,13.7V14h-0.3v-0.3v-1.6c0-0.2,0.1-0.4,0.3-0.6V13.7z"/>
<polygon class="st1" points="13.7,11.5 13.7,13.7 13.7,14 13.4,14 13.4,13.7 13.4,11.7 13.4,11.5 13.4,11.5 13.5,11.5 13.7,11.5 "/>
<polygon class="st1" points="14.5,13.7 14.5,14 14.2,14 14.2,13.7 14.2,11.5 14.5,11.5 "/>
<polygon class="st1" points="15.3,13.7 15.3,14 15,14 15,13.7 15,11.5 15.3,11.5 "/>
<polygon class="st1" points="16.1,13.7 16.1,14 15.8,14 15.8,13.7 15.8,11.5 16.1,11.5 "/>
</svg>
