<?xml version="1.0" encoding="utf-8"?>
<!-- Generator: Adobe Illustrator 22.1.0, SVG Export Plug-In . SVG Version: 6.00 Build 0)  -->
<svg version="1.1" id="Layer_1" xmlns="http://www.w3.org/2000/svg" xmlns:xlink="http://www.w3.org/1999/xlink" x="0px" y="0px"
	 viewBox="0 0 45 45" style="enable-background:new 0 0 45 45;" xml:space="preserve">
<style type="text/css">
	.st0{fill:none;stroke:#585858;stroke-width:1.4;stroke-linecap:round;stroke-linejoin:round;stroke-miterlimit:10;}
	.st1{fill:#FFFFFF;}
	.st2{fill:#585858;}
	.st3{fill:#F58228;}
	.st4{fill:#59595B;}
	.st5{fill:#F58228;stroke:#F58228;stroke-width:0.5;stroke-miterlimit:10;}
	.st6{fill:#585858;stroke:#585858;stroke-width:0.5;stroke-miterlimit:10;}
	.st7{fill:#F58228;stroke:#F58228;stroke-width:0.2269;stroke-miterlimit:10;}
	.st8{fill:#585858;stroke:#FFFFFF;stroke-width:0.3256;stroke-miterlimit:10;}
	.st9{fill:#F58228;stroke:#FFFFFF;stroke-width:0.3256;stroke-miterlimit:10;}
	.st10{fill:#585858;stroke:#FFFFFF;stroke-width:0.5;stroke-miterlimit:10;}
	.st11{fill:none;stroke:#F58228;stroke-linecap:round;stroke-linejoin:round;stroke-miterlimit:22.9256;}
	.st12{fill:none;stroke:#585858;stroke-linecap:round;stroke-linejoin:round;stroke-miterlimit:22.9256;}
	.st13{fill:#585858;stroke:#FFFFFF;stroke-width:0.3454;stroke-miterlimit:10;}
	.st14{fill:#F58228;stroke:#FFFFFF;stroke-width:0.3454;stroke-miterlimit:10;}
	.st15{fill:#595A5C;}
	.st16{fill:none;stroke:#F58228;stroke-miterlimit:10;}
	.st17{fill:none;stroke:#FFFFFF;stroke-width:1.144;stroke-miterlimit:10;}
	.st18{fill:none;stroke:#FFFFFF;stroke-width:1.2222;stroke-miterlimit:10;}
	.st19{fill:none;stroke:#FFFFFF;stroke-width:1.2222;stroke-miterlimit:10;stroke-dasharray:1.3537,1.3537;}
	.st20{fill:none;stroke:#585858;stroke-width:1.144;stroke-miterlimit:10;}
	.st21{fill:none;stroke:#F58228;stroke-width:1.144;stroke-miterlimit:10;}
	.st22{fill:none;stroke:#585858;stroke-width:1.2222;stroke-miterlimit:10;}
	.st23{fill:none;stroke:#F58228;stroke-width:1.2222;stroke-miterlimit:10;}
	.st24{fill:none;stroke:#585858;stroke-width:1.2222;stroke-miterlimit:10;stroke-dasharray:1.3537,1.3537;}
</style>
<g>
	<g id="trophy_1_">
		<path class="st2" d="M29,22.5h2.1c2.9-0.3,5-2.7,5-5.6V10c0-0.2-0.1-0.3-0.3-0.3h-3.7C31.7,13.2,30.7,18.3,29,22.5L29,22.5z
			 M12.3,9.7H8.6c-0.2,0-0.3,0.1-0.3,0.3v6.9c0,2.9,2.2,5.3,5,5.6h2.1C13.7,18.3,12.8,13.2,12.3,9.7L12.3,9.7z M13.3,6.5
			c0.6,6.6,3.3,21.5,9,21.5c5.7,0,8.3-14.9,9-21.5H13.3L13.3,6.5z M10.2,38.7h24.1v-4.3H10.2V38.7L10.2,38.7z M14.1,33
			c1.5,0,4.7-2.3,5.9-4.2c-1.6-0.8-3-2.7-4.1-4.9l-2.6,0C9.6,23.5,7,20.6,7,17v-7c0-0.9,0.7-1.6,1.6-1.6h3.5C11.9,7,11.9,6,11.8,5.8
			c0-0.2,0-0.4,0.2-0.5c0.1-0.1,0.3-0.2,0.5-0.2h19.4c0.2,0,0.4,0.1,0.5,0.2c0.1,0.1,0.2,0.3,0.2,0.5c0,0.2-0.1,1.1-0.3,2.5h3.5
			c0.9,0,1.6,0.7,1.6,1.6v7c0,3.6-2.7,6.6-6.3,6.9l-2.7,0c-1.1,2.3-2.4,4.1-4.1,4.9c1.2,1.9,4.4,4.2,5.9,4.2h4.7
			c0.4,0,0.7,0.3,0.7,0.7v5.7c0,0.4-0.3,0.7-0.7,0.7H9.5c-0.4,0-0.7-0.3-0.7-0.7v-5.7c0-0.4,0.3-0.7,0.7-0.7H14.1L14.1,33z M26.8,33
			c-1.6-1-3.1-2.5-3.8-3.8c-0.3,0-0.5,0.1-0.8,0.1c-0.3,0-0.5,0-0.8-0.1c-0.7,1.3-2.3,2.8-3.8,3.8H26.8L26.8,33z"/>
	</g>
	<path class="st3" d="M28,13.4c-0.1-0.3-0.3-0.5-0.6-0.5h-3.4l-1.1-3.2c-0.1-0.3-0.3-0.5-0.6-0.5c-0.3,0-0.6,0.2-0.6,0.5l-1.1,3.2
		h-3.4c-0.3,0-0.6,0.2-0.6,0.5c-0.1,0.3,0,0.6,0.2,0.8l2.8,2l-1.1,3.2c-0.1,0.3,0,0.6,0.2,0.8c0.2,0.2,0.6,0.2,0.8,0l2.8-2l2.8,2
		c0.1,0.1,0.3,0.1,0.4,0.1c0.1,0,0.3,0,0.4-0.1c0.2-0.2,0.3-0.5,0.2-0.8L25,16.2l2.8-2C28,14,28.1,13.7,28,13.4z M23.8,15.4
		c-0.2,0.2-0.3,0.5-0.2,0.8l0.6,1.7l-1.5-1.1c-0.1-0.1-0.3-0.1-0.4-0.1s-0.3,0-0.4,0.1l-1.5,1.1l0.6-1.7c0.1-0.3,0-0.6-0.2-0.8
		l-1.5-1.1H21c0.3,0,0.6-0.2,0.6-0.5l0.6-1.7l0.6,1.7c0.1,0.3,0.3,0.5,0.6,0.5h1.8L23.8,15.4z"/>
</g>
</svg>
