<?xml version="1.0" encoding="utf-8"?>
<!-- Generator: Adobe Illustrator 22.1.0, SVG Export Plug-In . SVG Version: 6.00 Build 0)  -->
<svg version="1.1" id="Layer_1" xmlns="http://www.w3.org/2000/svg" xmlns:xlink="http://www.w3.org/1999/xlink" x="0px" y="0px"
	 viewBox="0 0 45 45" style="enable-background:new 0 0 45 45;" xml:space="preserve">
<style type="text/css">
	.st0{fill:none;stroke:#585858;stroke-width:1.4;stroke-linecap:round;stroke-linejoin:round;stroke-miterlimit:10;}
	.st1{fill:#FFFFFF;}
	.st2{fill:#585858;}
	.st3{fill:#F58228;}
	.st4{fill:#59595B;}
	.st5{fill:#F58228;stroke:#F58228;stroke-width:0.5;stroke-miterlimit:10;}
	.st6{fill:#585858;stroke:#585858;stroke-width:0.5;stroke-miterlimit:10;}
	.st7{fill:#F58228;stroke:#F58228;stroke-width:0.2269;stroke-miterlimit:10;}
	.st8{fill:#585858;stroke:#FFFFFF;stroke-width:0.3256;stroke-miterlimit:10;}
	.st9{fill:#F58228;stroke:#FFFFFF;stroke-width:0.3256;stroke-miterlimit:10;}
	.st10{fill:#585858;stroke:#FFFFFF;stroke-width:0.5;stroke-miterlimit:10;}
	.st11{fill:none;stroke:#F58228;stroke-linecap:round;stroke-linejoin:round;stroke-miterlimit:22.9256;}
	.st12{fill:none;stroke:#585858;stroke-linecap:round;stroke-linejoin:round;stroke-miterlimit:22.9256;}
	.st13{fill:#585858;stroke:#FFFFFF;stroke-width:0.3454;stroke-miterlimit:10;}
	.st14{fill:#F58228;stroke:#FFFFFF;stroke-width:0.3454;stroke-miterlimit:10;}
	.st15{fill:#595A5C;}
	.st16{fill:none;stroke:#F58228;stroke-miterlimit:10;}
	.st17{fill:none;stroke:#FFFFFF;stroke-width:1.144;stroke-miterlimit:10;}
	.st18{fill:none;stroke:#FFFFFF;stroke-width:1.2222;stroke-miterlimit:10;}
	.st19{fill:none;stroke:#FFFFFF;stroke-width:1.2222;stroke-miterlimit:10;stroke-dasharray:1.3537,1.3537;}
	.st20{fill:none;stroke:#585858;stroke-width:1.144;stroke-miterlimit:10;}
	.st21{fill:none;stroke:#F58228;stroke-width:1.144;stroke-miterlimit:10;}
	.st22{fill:none;stroke:#585858;stroke-width:1.2222;stroke-miterlimit:10;}
	.st23{fill:none;stroke:#F58228;stroke-width:1.2222;stroke-miterlimit:10;}
	.st24{fill:none;stroke:#585858;stroke-width:1.2222;stroke-miterlimit:10;stroke-dasharray:1.3537,1.3537;}
</style>
<g>
	<polyline class="st20" points="26.7,37.4 26.7,40.2 17.7,40.2 17.7,37.4 	"/>
	<line class="st20" x1="15.2" y1="40.2" x2="29.3" y2="40.2"/>
	<path class="st20" d="M36.4,11.3c0.3,0,0.6,0.1,0.8,0.3c0.2,0.2,0.3,0.5,0.3,0.8V32H7V12.4c0-0.3,0.1-0.6,0.3-0.8
		c0.2-0.2,0.5-0.3,0.8-0.3H36.4z"/>
	<rect x="9.2" y="13.6" class="st20" width="26.1" height="16.3"/>
	<g>
		<line class="st20" x1="11.7" y1="21.4" x2="11.7" y2="24.1"/>
		<line class="st21" x1="13.6" y1="18.8" x2="13.6" y2="22.5"/>
		<line class="st20" x1="15.5" y1="22.8" x2="15.5" y2="24.1"/>
		<line class="st21" x1="17.4" y1="23.8" x2="17.4" y2="27"/>
		<line class="st20" x1="19.3" y1="26.3" x2="19.3" y2="27.8"/>
		<line class="st20" x1="21.2" y1="17.4" x2="21.2" y2="25.1"/>
		<line class="st21" x1="23.2" y1="15.6" x2="23.2" y2="18.7"/>
		<line class="st20" x1="25.1" y1="18.2" x2="25.1" y2="23.5"/>
		<line class="st20" x1="27" y1="21.2" x2="27" y2="22.7"/>
		<line class="st21" x1="28.9" y1="22.2" x2="28.9" y2="25.6"/>
		<line class="st20" x1="30.8" y1="18.5" x2="30.8" y2="23.5"/>
		<line class="st21" x1="32.8" y1="17.4" x2="32.8" y2="19.2"/>
	</g>
	<path class="st20" d="M7,32v2.5c0,0.3,0.1,0.6,0.3,0.8c0.2,0.2,0.5,0.3,0.8,0.3h28.4c0.3,0,0.6-0.1,0.8-0.3
		c0.2-0.2,0.3-0.5,0.3-0.8V32H7z"/>
</g>
</svg>
