<?xml version="1.0" encoding="utf-8"?>
<!-- Generator: Adobe Illustrator 22.1.0, SVG Export Plug-In . SVG Version: 6.00 Build 0)  -->
<svg version="1.1" id="Layer_1" xmlns="http://www.w3.org/2000/svg" xmlns:xlink="http://www.w3.org/1999/xlink" x="0px" y="0px"
	 viewBox="0 0 45 45" style="enable-background:new 0 0 45 45;" xml:space="preserve">
<style type="text/css">
	.st0{fill:none;stroke:#585858;stroke-width:1.4;stroke-linecap:round;stroke-linejoin:round;stroke-miterlimit:10;}
	.st1{fill:#FFFFFF;}
	.st2{fill:#585858;}
	.st3{fill:#F58228;}
	.st4{fill:#59595B;}
	.st5{fill:#F58228;stroke:#F58228;stroke-width:0.5;stroke-miterlimit:10;}
	.st6{fill:#585858;stroke:#585858;stroke-width:0.5;stroke-miterlimit:10;}
	.st7{fill:#F58228;stroke:#F58228;stroke-width:0.2269;stroke-miterlimit:10;}
	.st8{fill:#585858;stroke:#FFFFFF;stroke-width:0.3256;stroke-miterlimit:10;}
	.st9{fill:#F58228;stroke:#FFFFFF;stroke-width:0.3256;stroke-miterlimit:10;}
	.st10{fill:#585858;stroke:#FFFFFF;stroke-width:0.5;stroke-miterlimit:10;}
	.st11{fill:none;stroke:#F58228;stroke-linecap:round;stroke-linejoin:round;stroke-miterlimit:22.9256;}
	.st12{fill:none;stroke:#585858;stroke-linecap:round;stroke-linejoin:round;stroke-miterlimit:22.9256;}
	.st13{fill:#585858;stroke:#FFFFFF;stroke-width:0.3454;stroke-miterlimit:10;}
	.st14{fill:#F58228;stroke:#FFFFFF;stroke-width:0.3454;stroke-miterlimit:10;}
	.st15{fill:#595A5C;}
	.st16{fill:none;stroke:#F58228;stroke-miterlimit:10;}
	.st17{fill:none;stroke:#FFFFFF;stroke-width:1.144;stroke-miterlimit:10;}
	.st18{fill:none;stroke:#FFFFFF;stroke-width:1.2222;stroke-miterlimit:10;}
	.st19{fill:none;stroke:#FFFFFF;stroke-width:1.2222;stroke-miterlimit:10;stroke-dasharray:1.3537,1.3537;}
	.st20{fill:none;stroke:#585858;stroke-width:1.144;stroke-miterlimit:10;}
	.st21{fill:none;stroke:#F58228;stroke-width:1.144;stroke-miterlimit:10;}
	.st22{fill:none;stroke:#585858;stroke-width:1.2222;stroke-miterlimit:10;}
	.st23{fill:none;stroke:#F58228;stroke-width:1.2222;stroke-miterlimit:10;}
	.st24{fill:none;stroke:#585858;stroke-width:1.2222;stroke-miterlimit:10;stroke-dasharray:1.3537,1.3537;}
</style>
<g>
	<g>
		<path class="st3" d="M23.9,28.8h-1v-7.2c0-0.3,0.2-0.5,0.5-0.5H24l-2.7-4.2l-2.7,4.2h0.6c0.3,0,0.5,0.2,0.5,0.5v3.1h-1v-2.6h-1
			c-0.2,0-0.4-0.1-0.4-0.3c-0.1-0.2-0.1-0.4,0-0.5l3.6-5.6c0.2-0.3,0.7-0.3,0.9,0l3.6,5.6c0.1,0.2,0.1,0.4,0,0.5
			c-0.1,0.2-0.3,0.3-0.4,0.3h-1V28.8z"/>
	</g>
	<g>
		<rect x="20.9" y="21.1" class="st3" width="2.6" height="1"/>
	</g>
	<g>
		<rect x="25" y="34.4" class="st3" width="2.6" height="1"/>
	</g>
	<g>
		<path class="st2" d="M35.6,29.8l-0.9-0.5c1.3-2.3,2.1-5,2.1-7.7c0-8.5-6.9-15.4-15.4-15.4S6,13.1,6,21.6c0,2.7,0.7,5.4,2.1,7.7
			l-0.9,0.5C5.7,27.3,5,24.5,5,21.6c0-9,7.4-16.4,16.4-16.4s16.4,7.4,16.4,16.4C37.8,24.5,37,27.3,35.6,29.8z"/>
	</g>
	<g>
		<path class="st2" d="M31.2,27.2l-0.9-0.5c0.9-1.6,1.4-3.3,1.4-5.1c0-1.2-0.2-2.3-0.6-3.4l1-0.3c0.4,1.2,0.6,2.5,0.6,3.8
			C32.7,23.6,32.1,25.5,31.2,27.2z"/>
	</g>
	<g>
		<path class="st2" d="M30.3,16.5c-1.6-2.7-4.3-4.5-7.4-5l0.2-1c3.4,0.5,6.4,2.5,8.1,5.5L30.3,16.5z"/>
	</g>
	<g>
		<path class="st2" d="M11.9,17.7L11,17.3c1.8-4.2,5.8-7,10.4-7v1C17.2,11.3,13.5,13.8,11.9,17.7z"/>
	</g>
	<g>
		<path class="st2" d="M11.6,27.2c-1-1.7-1.5-3.7-1.5-5.6h1c0,1.8,0.5,3.6,1.4,5.1L11.6,27.2z"/>
	</g>
	<g>
		<rect x="5.5" y="21.1" class="st2" width="9.7" height="1"/>
	</g>
	<g>
		<rect x="26" y="15.4" transform="matrix(0.8661 -0.4999 0.4999 0.8661 -3.8071 17.6994)" class="st2" width="10.3" height="1"/>
	</g>
	<g>
		<rect x="20.9" y="5.7" class="st2" width="1" height="7.7"/>
	</g>
	<g>
		<rect x="10.1" y="19" class="st2" width="1" height="1"/>
	</g>
	<g>
		<rect x="12.2" y="19" class="st2" width="1" height="1"/>
	</g>
	<g>
		<rect x="14.2" y="19" class="st2" width="1" height="1"/>
	</g>
	<g>
		<rect x="16.8" y="30.3" class="st3" width="2.6" height="1"/>
	</g>
	<g>
		<path class="st3" d="M37.8,38H27.5c-0.3,0-0.5-0.2-0.5-0.5v-2.6c0-0.3,0.2-0.5,0.5-0.5h0.6l-2.7-4.2l-2.7,4.2h0.6
			c0.3,0,0.5,0.2,0.5,0.5V38h-1v-2.6h-1c-0.2,0-0.4-0.1-0.4-0.3c-0.1-0.2-0.1-0.4,0-0.5l3.6-5.6c0.2-0.3,0.7-0.3,0.9,0l3.6,5.6
			c0.1,0.2,0.1,0.4,0,0.5c-0.1,0.2-0.3,0.3-0.4,0.3h-1V37h9.7V38z"/>
	</g>
	<g>
		<path class="st3" d="M19.8,38h-1v-7.2c0-0.3,0.2-0.5,0.5-0.5h0.6l-2.7-4.2l-2.7,4.2h0.6c0.3,0,0.5,0.2,0.5,0.5v6.7
			c0,0.3-0.2,0.5-0.5,0.5H5v-1h9.7v-5.6h-1c-0.2,0-0.4-0.1-0.4-0.3c-0.1-0.2-0.1-0.4,0-0.5l3.6-5.6c0.2-0.3,0.7-0.3,0.9,0l3.6,5.6
			c0.1,0.2,0.1,0.4,0,0.5c-0.1,0.2-0.3,0.3-0.4,0.3h-1V38z"/>
	</g>
</g>
</svg>
