<?xml version="1.0" encoding="utf-8"?>
<!-- Generator: Adobe Illustrator 22.1.0, SVG Export Plug-In . SVG Version: 6.00 Build 0)  -->
<svg version="1.1" id="Layer_1" xmlns="http://www.w3.org/2000/svg" xmlns:xlink="http://www.w3.org/1999/xlink" x="0px" y="0px"
	 viewBox="0 0 45 45" style="enable-background:new 0 0 45 45;" xml:space="preserve">
<style type="text/css">
	.st0{fill:none;stroke:#585858;stroke-width:1.4;stroke-linecap:round;stroke-linejoin:round;stroke-miterlimit:10;}
	.st1{fill:#FFFFFF;}
	.st2{fill:#585858;}
	.st3{fill:#F58228;}
	.st4{fill:#59595B;}
	.st5{fill:#F58228;stroke:#F58228;stroke-width:0.5;stroke-miterlimit:10;}
	.st6{fill:#585858;stroke:#585858;stroke-width:0.5;stroke-miterlimit:10;}
	.st7{fill:#F58228;stroke:#F58228;stroke-width:0.2269;stroke-miterlimit:10;}
	.st8{fill:#585858;stroke:#FFFFFF;stroke-width:0.3256;stroke-miterlimit:10;}
	.st9{fill:#F58228;stroke:#FFFFFF;stroke-width:0.3256;stroke-miterlimit:10;}
	.st10{fill:#585858;stroke:#FFFFFF;stroke-width:0.5;stroke-miterlimit:10;}
	.st11{fill:none;stroke:#F58228;stroke-linecap:round;stroke-linejoin:round;stroke-miterlimit:22.9256;}
	.st12{fill:none;stroke:#585858;stroke-linecap:round;stroke-linejoin:round;stroke-miterlimit:22.9256;}
	.st13{fill:#585858;stroke:#FFFFFF;stroke-width:0.3454;stroke-miterlimit:10;}
	.st14{fill:#F58228;stroke:#FFFFFF;stroke-width:0.3454;stroke-miterlimit:10;}
	.st15{fill:#595A5C;}
	.st16{fill:none;stroke:#F58228;stroke-miterlimit:10;}
	.st17{fill:none;stroke:#FFFFFF;stroke-width:1.144;stroke-miterlimit:10;}
	.st18{fill:none;stroke:#FFFFFF;stroke-width:1.2222;stroke-miterlimit:10;}
	.st19{fill:none;stroke:#FFFFFF;stroke-width:1.2222;stroke-miterlimit:10;stroke-dasharray:1.3537,1.3537;}
	.st20{fill:none;stroke:#585858;stroke-width:1.144;stroke-miterlimit:10;}
	.st21{fill:none;stroke:#F58228;stroke-width:1.144;stroke-miterlimit:10;}
	.st22{fill:none;stroke:#585858;stroke-width:1.2222;stroke-miterlimit:10;}
	.st23{fill:none;stroke:#F58228;stroke-width:1.2222;stroke-miterlimit:10;}
	.st24{fill:none;stroke:#585858;stroke-width:1.2222;stroke-miterlimit:10;stroke-dasharray:1.3537,1.3537;}
</style>
<g>
	<g>
		<path class="st2" d="M34.5,38.7H6.3c-1.4,0-2.6-1.1-2.6-2.6v-7c0-1.4,1.1-2.6,2.6-2.6h28.1c1.4,0,2.6,1.1,2.6,2.6v7
			C37,37.6,35.9,38.7,34.5,38.7z M6.3,28c-0.6,0-1.2,0.5-1.2,1.2v7c0,0.6,0.5,1.2,1.2,1.2h28.1c0.6,0,1.2-0.5,1.2-1.2v-7
			c0-0.6-0.5-1.2-1.2-1.2H6.3z"/>
	</g>
	<g>
		<path class="st2" d="M30.4,27.6c-0.4,0-0.7-0.3-0.7-0.7v-8.1c0-0.4,0.3-0.7,0.7-0.7s0.7,0.3,0.7,0.7v8.1
			C31.1,27.3,30.8,27.6,30.4,27.6z"/>
	</g>
	<g>
		<path class="st2" d="M30.4,19.1L30.4,19.1c-0.7,0-1.4-0.3-2-0.8c-0.5-0.5-0.8-1.2-0.8-2c0-1.5,1.3-2.8,2.8-2.8s2.8,1.3,2.8,2.8
			C33.2,17.8,31.9,19.1,30.4,19.1z M30.4,14.9c-0.8,0-1.4,0.6-1.4,1.4c0,0.4,0.1,0.7,0.4,1c0.3,0.3,0.6,0.4,1,0.4
			c0.8,0,1.4-0.6,1.4-1.4C31.8,15.5,31.2,14.9,30.4,14.9z"/>
	</g>
	<g>
		<path class="st3" d="M36.1,16.6c0,0-0.1,0-0.1,0c-0.4-0.1-0.6-0.4-0.5-0.8c0.3-1.6-0.2-3.3-1.3-4.5c-1.2-1.2-2.9-1.7-4.5-1.3
			c-0.4,0.1-0.7-0.2-0.8-0.5c-0.1-0.4,0.2-0.7,0.5-0.8c2.1-0.4,4.3,0.2,5.8,1.7c1.5,1.5,2.2,3.7,1.7,5.8
			C36.7,16.4,36.4,16.6,36.1,16.6z"/>
	</g>
	<g>
		<path class="st3" d="M41.1,15.3c-0.4,0-0.7-0.3-0.7-0.7c0-2.6-1.1-5-2.9-6.8C35.7,6,33.3,5,30.7,4.9c-0.4,0-0.7-0.3-0.7-0.7
			c0-0.4,0.3-0.7,0.7-0.7c2.9,0,5.7,1.2,7.8,3.3c2.1,2.1,3.2,4.8,3.3,7.8C41.8,15,41.5,15.3,41.1,15.3
			C41.1,15.3,41.1,15.3,41.1,15.3z"/>
	</g>
	<g>
		<path class="st3" d="M10.1,32.7c0,0.7-0.6,1.3-1.3,1.3c-0.7,0-1.3-0.6-1.3-1.3c0-0.7,0.6-1.3,1.3-1.3
			C9.5,31.3,10.1,31.9,10.1,32.7z"/>
	</g>
	<g>
		<path class="st3" d="M14,32.7c0,0.7-0.6,1.3-1.3,1.3c-0.7,0-1.3-0.6-1.3-1.3c0-0.7,0.6-1.3,1.3-1.3C13.4,31.3,14,31.9,14,32.7z"/>
	</g>
	<g>
		<path class="st3" d="M17.9,32.7c0,0.7-0.6,1.3-1.3,1.3c-0.7,0-1.3-0.6-1.3-1.3c0-0.7,0.6-1.3,1.3-1.3
			C17.3,31.3,17.9,31.9,17.9,32.7z"/>
	</g>
	<g>
		<path class="st2" d="M32,32.7c0,0.7-0.6,1.3-1.3,1.3c-0.7,0-1.3-0.6-1.3-1.3c0-0.7,0.6-1.3,1.3-1.3C31.5,31.3,32,31.9,32,32.7z"/>
	</g>
</g>
</svg>
