<?xml version="1.0" encoding="utf-8"?>
<!-- Generator: Adobe Illustrator 22.1.0, SVG Export Plug-In . SVG Version: 6.00 Build 0)  -->
<svg version="1.1" id="Layer_1" xmlns="http://www.w3.org/2000/svg" xmlns:xlink="http://www.w3.org/1999/xlink" x="0px" y="0px"
	 viewBox="0 0 45 45" style="enable-background:new 0 0 45 45;" xml:space="preserve">
<style type="text/css">
	.st0{fill:none;stroke:#585858;stroke-width:1.4;stroke-linecap:round;stroke-linejoin:round;stroke-miterlimit:10;}
	.st1{fill:#FFFFFF;}
	.st2{fill:#585858;}
	.st3{fill:#F58228;}
	.st4{fill:#59595B;}
	.st5{fill:#F58228;stroke:#F58228;stroke-width:0.5;stroke-miterlimit:10;}
	.st6{fill:#585858;stroke:#585858;stroke-width:0.5;stroke-miterlimit:10;}
	.st7{fill:#F58228;stroke:#F58228;stroke-width:0.2269;stroke-miterlimit:10;}
	.st8{fill:#585858;stroke:#FFFFFF;stroke-width:0.3256;stroke-miterlimit:10;}
	.st9{fill:#F58228;stroke:#FFFFFF;stroke-width:0.3256;stroke-miterlimit:10;}
	.st10{fill:#585858;stroke:#FFFFFF;stroke-width:0.5;stroke-miterlimit:10;}
	.st11{fill:none;stroke:#F58228;stroke-linecap:round;stroke-linejoin:round;stroke-miterlimit:22.9256;}
	.st12{fill:none;stroke:#585858;stroke-linecap:round;stroke-linejoin:round;stroke-miterlimit:22.9256;}
	.st13{fill:#585858;stroke:#FFFFFF;stroke-width:0.3454;stroke-miterlimit:10;}
	.st14{fill:#F58228;stroke:#FFFFFF;stroke-width:0.3454;stroke-miterlimit:10;}
	.st15{fill:#595A5C;}
	.st16{fill:none;stroke:#F58228;stroke-miterlimit:10;}
	.st17{fill:none;stroke:#FFFFFF;stroke-width:1.144;stroke-miterlimit:10;}
	.st18{fill:none;stroke:#FFFFFF;stroke-width:1.2222;stroke-miterlimit:10;}
	.st19{fill:none;stroke:#FFFFFF;stroke-width:1.2222;stroke-miterlimit:10;stroke-dasharray:1.3537,1.3537;}
	.st20{fill:none;stroke:#585858;stroke-width:1.144;stroke-miterlimit:10;}
	.st21{fill:none;stroke:#F58228;stroke-width:1.144;stroke-miterlimit:10;}
	.st22{fill:none;stroke:#585858;stroke-width:1.2222;stroke-miterlimit:10;}
	.st23{fill:none;stroke:#F58228;stroke-width:1.2222;stroke-miterlimit:10;}
	.st24{fill:none;stroke:#585858;stroke-width:1.2222;stroke-miterlimit:10;stroke-dasharray:1.3537,1.3537;}
</style>
<g>
	<g>
		<g>
			<path class="st1" d="M36.5,32.4h-1v-21c0-0.8-0.7-1.5-1.5-1.5h-1v-1h1c1.4,0,2.6,1.1,2.6,2.6V32.4z"/>
		</g>
		<g>
			<path class="st1" d="M34,37.5h-21v-1h21c0.8,0,1.5-0.7,1.5-1.5v-1h1v1C36.5,36.3,35.4,37.5,34,37.5z"/>
		</g>
		<g>
			<path class="st1" d="M11.4,37.5h-1c-1.4,0-2.6-1.1-2.6-2.6v-21h1v21c0,0.8,0.7,1.5,1.5,1.5h1V37.5z"/>
		</g>
		<g>
			<path class="st1" d="M8.8,12.4h-1v-1c0-1.4,1.1-2.6,2.6-2.6h21v1h-21c-0.8,0-1.5,0.7-1.5,1.5V12.4z"/>
		</g>
		<g>
			<path class="st1" d="M29.7,11.7L29,11l1.7-1.7L29,7.6l0.7-0.7l2.1,2.1c0.2,0.2,0.2,0.5,0,0.7L29.7,11.7z"/>
		</g>
		<g>
			<path class="st1" d="M14.6,39.4l-2.1-2.1c-0.2-0.2-0.2-0.5,0-0.7l2.1-2.1l0.7,0.7L13.7,37l1.7,1.7L14.6,39.4z"/>
		</g>
		<g>
			<path class="st1" d="M36,32.9c-0.1,0-0.3-0.1-0.4-0.2l-2.1-2.1l0.7-0.7l1.7,1.7l1.7-1.7l0.7,0.7l-2.1,2.1
				C36.3,32.8,36.1,32.9,36,32.9z"/>
		</g>
		<g>
			<path class="st1" d="M10,16.3l-1.7-1.7l-1.7,1.7l-0.7-0.7L8,13.6c0.2-0.2,0.5-0.2,0.7,0l2.1,2.1L10,16.3z"/>
		</g>
		<g>
			<rect x="37.6" y="14.9" class="st1" width="1" height="13.8"/>
		</g>
		<g>
			<rect x="5.8" y="17.5" class="st1" width="1" height="13.8"/>
		</g>
		<g>
			<rect x="16.5" y="38.5" class="st1" width="13.8" height="1"/>
		</g>
		<g>
			<rect x="14" y="6.7" class="st1" width="13.8" height="1"/>
		</g>
		<g>
			<rect x="35.5" y="38.5" class="st1" width="1" height="1"/>
		</g>
		<g>
			<rect x="33.5" y="38.5" class="st1" width="1" height="1"/>
		</g>
		<g>
			<rect x="31.4" y="38.5" class="st1" width="1" height="1"/>
		</g>
		<g>
			<rect x="11.9" y="6.7" class="st1" width="1" height="1"/>
		</g>
		<g>
			<rect x="9.9" y="6.7" class="st1" width="1" height="1"/>
		</g>
		<g>
			<rect x="7.8" y="6.7" class="st1" width="1" height="1"/>
		</g>
		<g>
			<rect x="5.8" y="36.5" class="st1" width="1" height="1"/>
		</g>
		<g>
			<rect x="5.8" y="34.4" class="st1" width="1" height="1"/>
		</g>
		<g>
			<rect x="5.8" y="32.4" class="st1" width="1" height="1"/>
		</g>
		<g>
			<rect x="37.6" y="12.9" class="st1" width="1" height="1"/>
		</g>
		<g>
			<rect x="37.6" y="10.8" class="st1" width="1" height="1"/>
		</g>
		<g>
			<rect x="37.6" y="8.8" class="st1" width="1" height="1"/>
		</g>
	</g>
	<g>
		<path class="st1" d="M24,33.7c-0.2,0-0.3-0.1-0.4-0.2l-1.4-2.2c0,0-0.1,0-0.1,0l-1.4,2.2c-0.1,0.2-0.3,0.3-0.5,0.2
			c-0.7-0.1-1.5-0.3-2.1-0.6c-0.2-0.1-0.3-0.3-0.3-0.5l0-2.6c0,0,0,0-0.1,0l-2.3,1.1c-0.2,0.1-0.4,0.1-0.6-0.1
			c-0.5-0.5-1-1.1-1.5-1.7c-0.1-0.2-0.1-0.4,0-0.6l1.4-2.2c0,0,0-0.1,0-0.1l-2.5-0.4c-0.2,0-0.4-0.2-0.4-0.4
			c-0.2-0.7-0.3-1.5-0.3-2.2c0-0.2,0.1-0.4,0.3-0.5l2.3-1.1c0,0,0-0.1,0-0.1l-1.9-1.7c-0.2-0.1-0.2-0.4-0.2-0.6
			c0.2-0.7,0.5-1.4,0.9-2c0.1-0.2,0.3-0.3,0.5-0.2l2.5,0.4c0,0,0,0,0.1-0.1l-0.7-2.5c-0.1-0.2,0-0.4,0.2-0.5
			c0.6-0.5,1.2-0.9,1.9-1.2c0.2-0.1,0.4-0.1,0.6,0.1l1.9,1.7c0,0,0.1,0,0.1,0l0.7-2.5c0.1-0.2,0.2-0.3,0.4-0.4
			c0.7-0.1,1.5-0.1,2.2,0c0.2,0,0.4,0.2,0.4,0.4l0.7,2.5c0,0,0.1,0,0.1,0l1.9-1.7c0.2-0.1,0.4-0.2,0.6-0.1c0.7,0.3,1.3,0.7,1.9,1.2
			c0.2,0.1,0.2,0.3,0.2,0.5l-0.7,2.5c0,0,0,0,0.1,0.1l2.5-0.4c0.2,0,0.4,0.1,0.5,0.2c0.4,0.6,0.7,1.3,0.9,2c0.1,0.2,0,0.4-0.2,0.6
			l-1.9,1.7c0,0,0,0.1,0,0.1l2.3,1.1c0.2,0.1,0.3,0.3,0.3,0.5c0,0.7-0.1,1.5-0.3,2.2c-0.1,0.2-0.2,0.4-0.4,0.4l-2.5,0.4
			c0,0,0,0.1,0,0.1l1.4,2.2c0.1,0.2,0.1,0.4,0,0.6c-0.4,0.6-0.9,1.2-1.5,1.7c-0.2,0.1-0.4,0.2-0.6,0.1L26.6,30c0,0,0,0-0.1,0l0,2.6
			c0,0.2-0.1,0.4-0.3,0.5C25.6,33.4,24.9,33.6,24,33.7C24.1,33.7,24.1,33.7,24,33.7z M22.5,30.3c0.2,0,0.3,0.1,0.4,0.2l1.4,2.1
			c0.4-0.1,0.9-0.2,1.3-0.4l0-2.5c0-0.2,0.1-0.4,0.3-0.4c0.2-0.1,0.3-0.2,0.5-0.3c0.1-0.1,0.3-0.1,0.5,0l2.3,1
			c0.3-0.3,0.6-0.7,0.9-1l-1.4-2.1c-0.1-0.2-0.1-0.3,0-0.5c0.1-0.2,0.2-0.4,0.3-0.5c0.1-0.2,0.2-0.3,0.4-0.3l2.5-0.4
			c0.1-0.4,0.2-0.9,0.2-1.3l-2.3-1c-0.2-0.1-0.3-0.2-0.3-0.4c0-0.2-0.1-0.4-0.1-0.6c0-0.2,0-0.4,0.2-0.5l1.9-1.6
			c-0.2-0.4-0.3-0.8-0.6-1.2l-2.5,0.4c-0.2,0-0.4,0-0.5-0.2c-0.1-0.2-0.3-0.3-0.4-0.4c-0.1-0.1-0.2-0.3-0.1-0.5l0.7-2.4
			c-0.4-0.3-0.7-0.5-1.1-0.7L25,16.3c-0.1,0.1-0.3,0.2-0.5,0.1c-0.2-0.1-0.4-0.1-0.6-0.2c-0.2,0-0.3-0.2-0.4-0.4l-0.7-2.4
			c-0.4,0-0.9,0-1.3,0l-0.7,2.4c-0.1,0.2-0.2,0.3-0.4,0.4c-0.2,0-0.4,0.1-0.6,0.2c-0.2,0.1-0.4,0-0.5-0.1l-1.9-1.6
			c-0.4,0.2-0.8,0.5-1.1,0.7l0.7,2.4c0.1,0.2,0,0.4-0.1,0.5c-0.1,0.1-0.3,0.3-0.4,0.4c-0.1,0.1-0.3,0.2-0.5,0.2l-2.5-0.4
			c-0.2,0.4-0.4,0.8-0.6,1.2l1.9,1.6c0.1,0.1,0.2,0.3,0.2,0.5c0,0.2-0.1,0.4-0.1,0.6c0,0.2-0.1,0.3-0.3,0.4l-2.3,1
			c0,0.4,0.1,0.9,0.2,1.3l2.5,0.4c0.2,0,0.3,0.1,0.4,0.3c0.1,0.2,0.2,0.4,0.3,0.5c0.1,0.2,0.1,0.4,0,0.5L14.4,29
			c0.3,0.3,0.6,0.7,0.9,1l2.3-1c0.2-0.1,0.4-0.1,0.5,0c0.2,0.1,0.3,0.2,0.5,0.3c0.2,0.1,0.3,0.3,0.3,0.4l0,2.5
			c0.4,0.2,0.8,0.3,1.3,0.4l1.4-2.1c0.1-0.2,0.3-0.2,0.5-0.2l0.1,0c0.1,0,0.2,0,0.3,0H22.5C22.5,30.3,22.5,30.3,22.5,30.3z"/>
	</g>
	<g>
		<path class="st1" d="M22.2,28.8c-3.1,0-5.6-2.5-5.6-5.6c0-3.1,2.5-5.6,5.6-5.6c3.1,0,5.6,2.5,5.6,5.6
			C27.8,26.3,25.3,28.8,22.2,28.8z M22.2,18.5c-2.5,0-4.6,2.1-4.6,4.6c0,2.5,2.1,4.6,4.6,4.6c2.5,0,4.6-2.1,4.6-4.6
			C26.8,20.6,24.7,18.5,22.2,18.5z"/>
	</g>
	<g>
		<circle class="st1" cx="22.2" cy="23.1" r="1"/>
	</g>
	<g>
		<path class="st1" d="M22.2,24.7c-0.8,0-1.5-0.7-1.5-1.5c0-0.8,0.7-1.5,1.5-1.5c0.8,0,1.5,0.7,1.5,1.5C23.7,24,23,24.7,22.2,24.7z
			 M22.2,22.6c-0.3,0-0.5,0.2-0.5,0.5c0,0.3,0.2,0.5,0.5,0.5c0.3,0,0.5-0.2,0.5-0.5C22.7,22.9,22.5,22.6,22.2,22.6z"/>
	</g>
	<g>
		<path class="st1" d="M22.2,25.2c-1.1,0-2.1-0.9-2.1-2.1c0-1.1,0.9-2.1,2.1-2.1c1.1,0,2.1,0.9,2.1,2.1
			C24.2,24.3,23.3,25.2,22.2,25.2z M22.2,22.1c-0.6,0-1,0.5-1,1c0,0.6,0.5,1,1,1s1-0.5,1-1C23.2,22.6,22.7,22.1,22.2,22.1z"/>
	</g>
</g>
</svg>
