<?xml version="1.0" encoding="utf-8"?>
<!-- Generator: Adobe Illustrator 22.1.0, SVG Export Plug-In . SVG Version: 6.00 Build 0)  -->
<svg version="1.1" id="Layer_1" xmlns="http://www.w3.org/2000/svg" xmlns:xlink="http://www.w3.org/1999/xlink" x="0px" y="0px"
	 viewBox="0 0 45 45" style="enable-background:new 0 0 45 45;" xml:space="preserve">
<style type="text/css">
	.st0{fill:none;stroke:#585858;stroke-width:1.4;stroke-linecap:round;stroke-linejoin:round;stroke-miterlimit:10;}
	.st1{fill:#FFFFFF;}
	.st2{fill:#585858;}
	.st3{fill:#F58228;}
	.st4{fill:#59595B;}
	.st5{fill:#F58228;stroke:#F58228;stroke-width:0.5;stroke-miterlimit:10;}
	.st6{fill:#585858;stroke:#585858;stroke-width:0.5;stroke-miterlimit:10;}
	.st7{fill:#F58228;stroke:#F58228;stroke-width:0.2269;stroke-miterlimit:10;}
	.st8{fill:#585858;stroke:#FFFFFF;stroke-width:0.3256;stroke-miterlimit:10;}
	.st9{fill:#F58228;stroke:#FFFFFF;stroke-width:0.3256;stroke-miterlimit:10;}
	.st10{fill:#585858;stroke:#FFFFFF;stroke-width:0.5;stroke-miterlimit:10;}
	.st11{fill:none;stroke:#F58228;stroke-linecap:round;stroke-linejoin:round;stroke-miterlimit:22.9256;}
	.st12{fill:none;stroke:#585858;stroke-linecap:round;stroke-linejoin:round;stroke-miterlimit:22.9256;}
	.st13{fill:#585858;stroke:#FFFFFF;stroke-width:0.3454;stroke-miterlimit:10;}
	.st14{fill:#F58228;stroke:#FFFFFF;stroke-width:0.3454;stroke-miterlimit:10;}
	.st15{fill:#595A5C;}
	.st16{fill:none;stroke:#F58228;stroke-miterlimit:10;}
	.st17{fill:none;stroke:#FFFFFF;stroke-width:1.144;stroke-miterlimit:10;}
	.st18{fill:none;stroke:#FFFFFF;stroke-width:1.2222;stroke-miterlimit:10;}
	.st19{fill:none;stroke:#FFFFFF;stroke-width:1.2222;stroke-miterlimit:10;stroke-dasharray:1.3537,1.3537;}
	.st20{fill:none;stroke:#585858;stroke-width:1.144;stroke-miterlimit:10;}
	.st21{fill:none;stroke:#F58228;stroke-width:1.144;stroke-miterlimit:10;}
	.st22{fill:none;stroke:#585858;stroke-width:1.2222;stroke-miterlimit:10;}
	.st23{fill:none;stroke:#F58228;stroke-width:1.2222;stroke-miterlimit:10;}
	.st24{fill:none;stroke:#585858;stroke-width:1.2222;stroke-miterlimit:10;stroke-dasharray:1.3537,1.3537;}
</style>
<g>
	<g>
		<g>
			<path class="st2" d="M16.9,22.9H6.6V7.5h10.3V22.9z M7.6,21.9h8.2V8.6H7.6V21.9z"/>
		</g>
		<g>
			<path class="st3" d="M28.2,17.8H17.9V7.5h10.3V17.8z M18.9,16.8h8.2V8.6h-8.2V16.8z"/>
		</g>
		<g>
			<path class="st2" d="M39.4,25H29.2V7.5h10.3V25z M30.2,23.9h8.2V8.6h-8.2V23.9z"/>
		</g>
		<g>
			<rect x="17.9" y="18.8" class="st2" width="10.3" height="1"/>
		</g>
		<g>
			<rect x="6.6" y="23.9" class="st2" width="10.3" height="1"/>
		</g>
		<g>
			<rect x="6.6" y="26" class="st2" width="10.3" height="1"/>
		</g>
		<g>
			<rect x="6.6" y="39.3" class="st2" width="10.3" height="1"/>
		</g>
		<g>
			<rect x="7.1" y="18.8" class="st2" width="9.2" height="1"/>
		</g>
		<g>
			<path class="st2" d="M28.2,40.3H17.9V22.9h10.3V40.3z M18.9,39.3h8.2V23.9h-8.2V39.3z"/>
		</g>
		<g>
			<path class="st3" d="M16.9,38.3H6.6V28h10.3V38.3z M7.6,37.3h8.2v-8.2H7.6V37.3z"/>
		</g>
		<g>
			<rect x="17.9" y="20.9" class="st2" width="10.3" height="1"/>
		</g>
		<g>
			<rect x="29.2" y="37.3" class="st2" width="10.3" height="1"/>
		</g>
		<g>
			<rect x="29.2" y="39.3" class="st2" width="10.3" height="1"/>
		</g>
		<g>
			<rect x="20.5" y="25" class="st2" width="1" height="1"/>
		</g>
		<g>
			<rect x="22.5" y="25" class="st2" width="1" height="1"/>
		</g>
		<g>
			<rect x="24.6" y="25" class="st2" width="1" height="1"/>
		</g>
		<g>
			<rect x="31.7" y="9.6" class="st2" width="1" height="1"/>
		</g>
		<g>
			<rect x="33.8" y="9.6" class="st2" width="1" height="1"/>
		</g>
		<g>
			<rect x="35.8" y="9.6" class="st2" width="1" height="1"/>
		</g>
		<g>
			<rect x="9.2" y="9.6" class="st2" width="1" height="1"/>
		</g>
		<g>
			<rect x="11.2" y="9.6" class="st2" width="1" height="1"/>
		</g>
		<g>
			<rect x="13.3" y="9.6" class="st2" width="1" height="1"/>
		</g>
		<g>
			<rect x="29.7" y="20.9" class="st2" width="9.2" height="1"/>
		</g>
		<g>
			<rect x="18.4" y="36.2" class="st2" width="9.2" height="1"/>
		</g>
		<g>
			<rect x="22.5" y="6.1" transform="matrix(0.7071 -0.7071 0.7071 0.7071 -2.2033 19.9884)" class="st3" width="1" height="13"/>
		</g>
		<g>
			<rect x="16.5" y="12.1" transform="matrix(0.7071 -0.7071 0.7071 0.7071 -2.2033 19.9884)" class="st3" width="13" height="1"/>
		</g>
		<g>
			<rect x="11.2" y="26.6" transform="matrix(0.7071 -0.7071 0.7071 0.7071 -20.0054 18.0196)" class="st3" width="1" height="13"/>
		</g>
		<g>
			<rect x="5.2" y="32.6" transform="matrix(0.7071 -0.7071 0.7071 0.7071 -20.0054 18.0196)" class="st3" width="13" height="1"/>
		</g>
		<g>
			<path class="st3" d="M39.4,36.2H29.2V26h10.3V36.2z M30.2,35.2h8.2V27h-8.2V35.2z"/>
		</g>
		<g>
			<rect x="33.8" y="24.6" transform="matrix(0.7071 -0.7071 0.7071 0.7071 -11.9493 33.3679)" class="st3" width="1" height="13"/>
		</g>
		<g>
			<rect x="27.8" y="30.6" transform="matrix(0.7071 -0.7071 0.7071 0.7071 -11.9493 33.3679)" class="st3" width="13" height="1"/>
		</g>
	</g>
</g>
</svg>
