<?xml version="1.0" encoding="utf-8"?>
<!-- Generator: Adobe Illustrator 22.1.0, SVG Export Plug-In . SVG Version: 6.00 Build 0)  -->
<svg version="1.1" id="Layer_1" xmlns="http://www.w3.org/2000/svg" xmlns:xlink="http://www.w3.org/1999/xlink" x="0px" y="0px"
	 viewBox="0 0 380.3 64.3" style="enable-background:new 0 0 380.3 64.3;" xml:space="preserve">
<style type="text/css">
	.st0{fill:#FFFFFF;}
	.st1{fill:#FF6600;}
</style>
<g>
	<g>
		<path class="st0" d="M79.9,17.1h5.2v33.5h-5.2V17.1z"/>
	</g>
	<g>
		<path class="st0" d="M93.8,17.1H99V22c3.5-3.1,8.1-5.9,14.1-5.9c4.2,0,13.8,1,13.8,12.4v22.1h-5.2V29.5c0.1-7.9-5.6-9-9.3-9
			c-5.7,0-10.4,3.5-13.5,6.7v23.4h-5.2V17.1z"/>
	</g>
	<g>
		<polygon class="st0" points="166.1,21.6 166.1,17.2 135.5,17.2 135.4,50.6 140.6,50.6 140.6,35 166.1,35 166.1,30.6 140.6,30.6 
			140.6,21.6 		"/>
	</g>
	<g>
		<path class="st0" d="M276,17.2v4.4h-13.2v29h-5.2v-29h-12.1v-4.4H276z"/>
	</g>
	<g>
		<path class="st0" d="M175.8,17.1h5.2v33.5h-5.2V17.1z"/>
	</g>
	<g>
		<path class="st0" d="M190.3,17.1h5.2V22c3.5-3.1,8.1-5.9,14.1-5.9c4.2,0,13.8,1,13.8,12.4v22.1h-5.2V29.5c0.1-7.9-5.6-9-9.3-9
			c-5.7,0-10.4,3.5-13.4,6.7v23.4h-5.2V17.1z"/>
	</g>
	<g>
		<path class="st0" d="M232.3,17.1h5.2v33.5h-5.2V17.1z"/>
	</g>
	<g>
		<path class="st0" d="M283.7,17.1h5.2v33.5h-5.2V17.1z"/>
	</g>
	<g>
		<path class="st0" d="M297.4,17.1h5.6L314.3,45l11.4-27.9h5.6l-14.3,33.5h-5.2L297.4,17.1z"/>
	</g>
	<g>
		<path class="st0" d="M368.2,43.6c-3.1,3.6-6.1,8-16.4,8c-10.2,0-17.1-7.7-17.1-18c0-10.6,7.2-17.6,16.5-17.6
			c9.6,0,18,5.6,17.8,18.8h-29.6c0.5,6.3,5,12.3,12.9,12.3c7.8,0,10.4-3.9,12.3-6.5L368.2,43.6z M363.9,30.5
			c-0.9-5.5-5.2-10-12.3-10c-6.9,0-10.7,3.8-12.1,10H363.9z"/>
	</g>
</g>
<g>
	<g>
		<path class="st1" d="M32.2,0c-6.9,0-12.5,5.6-12.5,12.5c0,6.9,5.6,12.5,12.5,12.5c6.9,0,12.5-5.6,12.5-12.5
			C44.7,5.6,39.1,0,32.2,0z M32.2,17.8c-2.9,0-5.3-2.4-5.3-5.3c0-2.9,2.4-5.3,5.3-5.3c2.9,0,5.3,2.4,5.3,5.3
			C37.4,15.4,35.1,17.8,32.2,17.8z"/>
		<path class="st1" d="M32.2,39.2c-6.9,0-12.5,5.6-12.5,12.5c0,6.9,5.6,12.5,12.5,12.5c6.9,0,12.5-5.6,12.5-12.5
			C44.7,44.9,39.1,39.2,32.2,39.2z M32.2,57.1c-2.9,0-5.3-2.4-5.3-5.3c0-2.9,2.4-5.3,5.3-5.3c2.9,0,5.3,2.4,5.3,5.3
			C37.4,54.7,35.1,57.1,32.2,57.1z"/>
		<path class="st1" d="M51.8,19.6c-3.4,0-6.6,1.4-9,3.8L42,24.3c-2.6,2.7-6.1,4.2-9.8,4.2c-3.7,0-7.2-1.5-9.8-4.2l-0.8-0.8
			c-2.4-2.5-5.6-3.8-9-3.8C5.6,19.6,0,25.3,0,32.2c0,6.9,5.6,12.5,12.5,12.5c3.4,0,6.6-1.4,9-3.8l0.8-0.8c2.6-2.7,6.1-4.2,9.8-4.2
			c3.7,0,7.2,1.5,9.8,4.2l0.8,0.8c2.4,2.5,5.6,3.8,9,3.8c6.9,0,12.5-5.6,12.5-12.5C64.3,25.3,58.7,19.6,51.8,19.6z M12.5,37.4
			c-2.9,0-5.3-2.4-5.3-5.3c0-2.9,2.4-5.3,5.3-5.3c2.9,0,5.3,2.4,5.3,5.3C17.8,35.1,15.5,37.4,12.5,37.4z M51.8,37.4
			c-2.9,0-5.3-2.4-5.3-5.3c0-2.9,2.4-5.3,5.3-5.3c2.9,0,5.3,2.4,5.3,5.3C57.1,35.1,54.7,37.4,51.8,37.4z"/>
	</g>
</g>
<g>
	<g>
		<path class="st0" d="M380.3,9.7c0,2.9-2.4,5.4-5.4,5.4c-3,0-5.4-2.4-5.4-5.4c0-2.9,2.4-5.4,5.4-5.4C377.9,4.3,380.3,6.7,380.3,9.7
			z M379.4,9.7c0-2.6-1.9-4.6-4.5-4.6c-2.6,0-4.5,2.1-4.5,4.6c0,2.6,1.9,4.6,4.5,4.6C377.5,14.3,379.4,12.2,379.4,9.7z M373.8,12.9
			h-0.9V6.5h2.5c1.4,0,2.1,0.6,2.1,1.8c0,1.1-0.7,1.6-1.5,1.8l1.8,2.8h-1L375,10h-1.2V12.9z M374.8,9.3c0.8,0,1.8,0,1.8-1.1
			c0-0.9-0.7-1-1.4-1h-1.4v2.1H374.8z"/>
	</g>
</g>
</svg>
