<?xml version="1.0" encoding="utf-8"?>
<!-- Generator: Adobe Illustrator 22.1.0, SVG Export Plug-In . SVG Version: 6.00 Build 0)  -->
<svg version="1.1" id="Layer_1" xmlns="http://www.w3.org/2000/svg" xmlns:xlink="http://www.w3.org/1999/xlink" x="0px" y="0px"
	 viewBox="0 0 64.3 64.3" style="enable-background:new 0 0 64.3 64.3;" xml:space="preserve">
<style type="text/css">
	.st0{fill:#FF6600;}
</style>
<g>
	<g>
		<path class="st0" d="M32.2,0c-6.9,0-12.5,5.6-12.5,12.5c0,6.9,5.6,12.5,12.5,12.5c6.9,0,12.5-5.6,12.5-12.5
			C44.7,5.6,39.1,0,32.2,0z M32.2,17.8c-2.9,0-5.3-2.4-5.3-5.3c0-2.9,2.4-5.3,5.3-5.3c2.9,0,5.3,2.4,5.3,5.3
			C37.4,15.4,35.1,17.8,32.2,17.8z"/>
		<path class="st0" d="M32.2,39.2c-6.9,0-12.5,5.6-12.5,12.5c0,6.9,5.6,12.5,12.5,12.5c6.9,0,12.5-5.6,12.5-12.5
			C44.7,44.9,39.1,39.2,32.2,39.2z M32.2,57.1c-2.9,0-5.3-2.4-5.3-5.3c0-2.9,2.4-5.3,5.3-5.3c2.9,0,5.3,2.4,5.3,5.3
			C37.4,54.7,35.1,57.1,32.2,57.1z"/>
		<path class="st0" d="M51.8,19.6c-3.4,0-6.6,1.4-9,3.8L42,24.3c-2.6,2.7-6.1,4.2-9.8,4.2c-3.7,0-7.2-1.5-9.8-4.2l-0.8-0.8
			c-2.4-2.5-5.6-3.8-9-3.8C5.6,19.6,0,25.3,0,32.2c0,6.9,5.6,12.5,12.5,12.5c3.4,0,6.6-1.4,9-3.8l0.8-0.8c2.6-2.7,6.1-4.2,9.8-4.2
			c3.7,0,7.2,1.5,9.8,4.2l0.8,0.8c2.4,2.5,5.6,3.8,9,3.8c6.9,0,12.5-5.6,12.5-12.5C64.3,25.3,58.7,19.6,51.8,19.6z M12.5,37.4
			c-2.9,0-5.3-2.4-5.3-5.3c0-2.9,2.4-5.3,5.3-5.3c2.9,0,5.3,2.4,5.3,5.3C17.8,35.1,15.5,37.4,12.5,37.4z M51.8,37.4
			c-2.9,0-5.3-2.4-5.3-5.3c0-2.9,2.4-5.3,5.3-5.3c2.9,0,5.3,2.4,5.3,5.3C57.1,35.1,54.7,37.4,51.8,37.4z"/>
	</g>
</g>
</svg>
