<?xml version="1.0" encoding="utf-8"?>
<!-- Generator: Adobe Illustrator 22.1.0, SVG Export Plug-In . SVG Version: 6.00 Build 0)  -->
<svg version="1.1" id="Layer_1" xmlns="http://www.w3.org/2000/svg" xmlns:xlink="http://www.w3.org/1999/xlink" x="0px" y="0px"
	 viewBox="0 0 45 45" style="enable-background:new 0 0 45 45;" xml:space="preserve">
<style type="text/css">
	.st0{fill:none;stroke:#585858;stroke-width:1.4;stroke-linecap:round;stroke-linejoin:round;stroke-miterlimit:10;}
	.st1{fill:#FFFFFF;}
	.st2{fill:#585858;}
	.st3{fill:#F58228;}
	.st4{fill:#59595B;}
	.st5{fill:#F58228;stroke:#F58228;stroke-width:0.5;stroke-miterlimit:10;}
	.st6{fill:#585858;stroke:#585858;stroke-width:0.5;stroke-miterlimit:10;}
	.st7{fill:#F58228;stroke:#F58228;stroke-width:0.2269;stroke-miterlimit:10;}
	.st8{fill:#585858;stroke:#FFFFFF;stroke-width:0.3256;stroke-miterlimit:10;}
	.st9{fill:#F58228;stroke:#FFFFFF;stroke-width:0.3256;stroke-miterlimit:10;}
	.st10{fill:#585858;stroke:#FFFFFF;stroke-width:0.5;stroke-miterlimit:10;}
	.st11{fill:none;stroke:#F58228;stroke-linecap:round;stroke-linejoin:round;stroke-miterlimit:22.9256;}
	.st12{fill:none;stroke:#585858;stroke-linecap:round;stroke-linejoin:round;stroke-miterlimit:22.9256;}
	.st13{fill:#585858;stroke:#FFFFFF;stroke-width:0.3454;stroke-miterlimit:10;}
	.st14{fill:#F58228;stroke:#FFFFFF;stroke-width:0.3454;stroke-miterlimit:10;}
	.st15{fill:#595A5C;}
	.st16{fill:none;stroke:#F58228;stroke-miterlimit:10;}
	.st17{fill:none;stroke:#FFFFFF;stroke-width:1.144;stroke-miterlimit:10;}
	.st18{fill:none;stroke:#FFFFFF;stroke-width:1.2222;stroke-miterlimit:10;}
	.st19{fill:none;stroke:#FFFFFF;stroke-width:1.2222;stroke-miterlimit:10;stroke-dasharray:1.3537,1.3537;}
	.st20{fill:none;stroke:#585858;stroke-width:1.144;stroke-miterlimit:10;}
	.st21{fill:none;stroke:#F58228;stroke-width:1.144;stroke-miterlimit:10;}
	.st22{fill:none;stroke:#585858;stroke-width:1.2222;stroke-miterlimit:10;}
	.st23{fill:none;stroke:#F58228;stroke-width:1.2222;stroke-miterlimit:10;}
	.st24{fill:none;stroke:#585858;stroke-width:1.2222;stroke-miterlimit:10;stroke-dasharray:1.3537,1.3537;}
</style>
<g>
	<g>
		<rect x="31.4" y="36.7" class="st1" width="9.1" height="1.1"/>
	</g>
	<g>
		<path class="st1" d="M38.2,40.1c-0.1,0-0.3-0.1-0.4-0.2c-0.2-0.2-0.2-0.6,0-0.8l1.9-1.9l-1.9-1.9c-0.2-0.2-0.2-0.6,0-0.8
			c0.2-0.2,0.6-0.2,0.8,0l2.3,2.3c0.2,0.2,0.2,0.6,0,0.8l-2.3,2.3C38.5,40,38.4,40.1,38.2,40.1z"/>
	</g>
	<g>
		<path class="st1" d="M25.2,9.5c-0.1,0-0.3-0.1-0.4-0.2L22.5,7c-0.2-0.2-0.2-0.6,0-0.8l2.3-2.3c0.2-0.2,0.6-0.2,0.8,0
			c0.2,0.2,0.2,0.6,0,0.8l-1.9,1.9l1.9,1.9c0.2,0.2,0.2,0.6,0,0.8C25.5,9.4,25.3,9.5,25.2,9.5z"/>
	</g>
	<g>
		<path class="st1" d="M22.9,37.8H4.8v-1.1h18.2c8.1,0,14.7-6.6,14.7-14.7S31,7.2,22.9,7.2V6c8.8,0,15.9,7.1,15.9,15.9
			C38.8,30.7,31.7,37.8,22.9,37.8z"/>
	</g>
	<g>
		<path class="st1" d="M14.7,35.5C9.9,32.6,7,27.5,7,21.9c0-7.7,5.5-14.2,13-15.6l0.2,1.1c-7,1.3-12.1,7.4-12.1,14.5
			c0,5.2,2.7,9.9,7.1,12.6L14.7,35.5z"/>
	</g>
	<g>
		<path class="st1" d="M22.9,32.1c-5.6,0-10.2-4.6-10.2-10.2c0-4.2,2.7-8.1,6.6-9.6l0.4,1.1c-3.5,1.3-5.9,4.7-5.9,8.5
			c0,5,4.1,9.1,9.1,9.1c5,0,9.1-4.1,9.1-9.1c0-3.8-2.4-7.2-5.9-8.5l0.4-1.1c4,1.5,6.6,5.3,6.6,9.6C33.1,27.6,28.5,32.1,22.9,32.1z"
			/>
	</g>
	<g>
		<rect x="21.2" y="11.7" class="st1" width="3.4" height="1.1"/>
	</g>
	<g>
		<rect x="22.3" y="12.3" class="st1" width="1.1" height="2.3"/>
	</g>
	<g>
		
			<rect x="14.7" y="13.1" transform="matrix(0.7071 -0.7071 0.7071 0.7071 -5.6226 14.9693)" class="st1" width="1.1" height="2.4"/>
	</g>
	<g>
		
			<rect x="29.4" y="13.7" transform="matrix(0.7071 -0.7071 0.7071 0.7071 -1.1369 25.7986)" class="st1" width="2.4" height="1.1"/>
	</g>
	<g>
		<path class="st1" d="M22.9,29.9c-4.4,0-7.9-3.6-7.9-7.9c0-4.4,3.6-7.9,7.9-7.9c4.4,0,7.9,3.6,7.9,7.9
			C30.9,26.3,27.3,29.9,22.9,29.9z M22.9,15.1c-3.8,0-6.8,3.1-6.8,6.8s3.1,6.8,6.8,6.8c3.8,0,6.8-3.1,6.8-6.8S26.7,15.1,22.9,15.1z"
			/>
	</g>
	<g>
		<rect x="23.5" y="18.8" transform="matrix(0.7071 -0.7071 0.7071 0.7071 -6.2419 23.6841)" class="st1" width="4" height="1.1"/>
	</g>
	<g>
		<rect x="22.3" y="16.3" class="st1" width="1.1" height="1.1"/>
	</g>
	<g>
		<rect x="17.2" y="21.4" class="st1" width="1.1" height="1.1"/>
	</g>
	<g>
		<rect x="22.3" y="26.5" class="st1" width="1.1" height="1.1"/>
	</g>
	<g>
		<rect x="27.5" y="21.4" class="st1" width="1.1" height="1.1"/>
	</g>
	<g>
		<path class="st1" d="M22.9,24.2c-1.3,0-2.3-1-2.3-2.3c0-1.3,1-2.3,2.3-2.3c1.3,0,2.3,1,2.3,2.3C25.2,23.2,24.2,24.2,22.9,24.2z
			 M22.9,20.8c-0.6,0-1.1,0.5-1.1,1.1c0,0.6,0.5,1.1,1.1,1.1c0.6,0,1.1-0.5,1.1-1.1C24.1,21.3,23.5,20.8,22.9,20.8z"/>
	</g>
</g>
</svg>
