<svg id="Layer_1" data-name="Layer 1" xmlns="http://www.w3.org/2000/svg" viewBox="0 0 45 45">
  <defs>
    <style>
      .cls-1 {
        fill: #fff;
      }
    </style>
  </defs>
  <title>audit-w</title>
  <g>
    <g>
      <path class="cls-1" d="M30.32,27.78A9,9,0,1,1,33,15.32,9,9,0,0,1,30.32,27.78Zm-9.11-14A7.73,7.73,0,1,0,31.9,16,7.74,7.74,0,0,0,21.21,13.73Z"/>
      <path class="cls-1" d="M36.62,37.51a3.22,3.22,0,0,1-4.45-.95l-3.85-5.94,1.08-.7,3.85,5.94a1.93,1.93,0,1,0,3.24-2.1l-5.25-8.11,1.08-.7,5.25,8.11A3.21,3.21,0,0,1,36.62,37.51Z"/>
      <rect class="cls-1" x="33.53" y="33.08" width="1.29" height="1.29" transform="translate(-12.85 24.01) rotate(-32.94)"/>
      <rect class="cls-1" x="32.13" y="30.92" width="1.29" height="1.29" transform="translate(-11.9 22.9) rotate(-32.94)"/>
      <rect class="cls-1" x="30.73" y="28.76" width="1.29" height="1.29" transform="translate(-10.95 21.79) rotate(-32.94)"/>
      <path class="cls-1" d="M24.63,23.09a.61.61,0,0,1-.45-.19L21.6,20.32l.91-.91,2.12,2.12,4.7-4.69.91.91L25.09,22.9A.63.63,0,0,1,24.63,23.09Z"/>
    </g>
    <g>
      <g>
        <rect class="cls-1" x="7.06" y="16.72" width="1.7" height="1.7"/>
        <rect class="cls-1" x="10.45" y="16.72" width="1.7" height="1.7"/>
        <rect class="cls-1" x="13.84" y="16.72" width="1.7" height="1.7"/>
        <rect class="cls-1" x="7.06" y="23.67" width="1.7" height="1.7"/>
        <rect class="cls-1" x="10.45" y="23.67" width="1.7" height="1.7"/>
        <rect class="cls-1" x="13.84" y="23.67" width="1.7" height="1.7"/>
        <rect class="cls-1" x="8.75" y="20.11" width="1.7" height="1.7"/>
        <rect class="cls-1" x="12.14" y="20.11" width="1.7" height="1.7"/>
        <path class="cls-1" d="M16.16,21.8h-.62V20.11H16A8.64,8.64,0,0,0,16.16,21.8Z"/>
      </g>
      <g>
        <rect class="cls-1" x="7.06" y="9.88" width="1.7" height="1.7"/>
        <rect class="cls-1" x="10.45" y="9.88" width="1.7" height="1.7"/>
        <rect class="cls-1" x="13.84" y="9.88" width="1.7" height="1.7"/>
        <rect class="cls-1" x="17.23" y="9.88" width="1.7" height="1.7"/>
        <path class="cls-1" d="M22.32,9.88v1.38c-.26.09-.52.2-.77.31h-.93V9.88Z"/>
        <rect class="cls-1" x="8.75" y="13.27" width="1.7" height="1.7"/>
        <rect class="cls-1" x="12.14" y="13.27" width="1.7" height="1.7"/>
        <rect class="cls-1" x="15.54" y="13.27" width="1.7" height="1.7"/>
      </g>
      <g>
        <rect class="cls-1" x="7.06" y="30.57" width="1.7" height="1.7"/>
        <rect class="cls-1" x="10.45" y="30.57" width="1.7" height="1.7"/>
        <rect class="cls-1" x="13.84" y="30.57" width="1.7" height="1.7"/>
        <rect class="cls-1" x="17.23" y="30.57" width="1.7" height="1.7"/>
        <rect class="cls-1" x="20.62" y="30.57" width="1.7" height="1.7"/>
        <rect class="cls-1" x="8.75" y="27.01" width="1.7" height="1.7"/>
        <rect class="cls-1" x="12.14" y="27.01" width="1.7" height="1.7"/>
        <rect class="cls-1" x="15.54" y="27.01" width="1.7" height="1.7"/>
        <path class="cls-1" d="M20.62,28.36v.34H18.93V27.05A8.72,8.72,0,0,0,20.62,28.36Z"/>
      </g>
      <g>
        <path class="cls-1" d="M35.73,16.72v1.69h-.85a8.6,8.6,0,0,0-.5-1.69Z"/>
        <rect class="cls-1" x="37.42" y="16.72" width="1.7" height="1.7"/>
        <path class="cls-1" d="M35.73,23.66v1.7H34v-.87c.14-.27.26-.55.38-.83Z"/>
        <rect class="cls-1" x="37.42" y="23.67" width="1.7" height="1.7"/>
        <rect class="cls-1" x="35.72" y="20.11" width="1.7" height="1.7"/>
      </g>
      <g>
        <path class="cls-1" d="M25.55,9.88v.82a8.71,8.71,0,0,0-1.69.15v-1Z"/>
        <path class="cls-1" d="M29,9.88v1.45a8.71,8.71,0,0,0-1.43-.42l-.27-.05v-1Z"/>
        <rect class="cls-1" x="30.64" y="9.88" width="1.7" height="1.7"/>
        <rect class="cls-1" x="34.03" y="9.88" width="1.7" height="1.7"/>
        <rect class="cls-1" x="37.42" y="9.88" width="1.7" height="1.7"/>
        <path class="cls-1" d="M34,13.27V15h-.56a9.07,9.07,0,0,0-1.13-1.41v-.29Z"/>
        <rect class="cls-1" x="35.72" y="13.27" width="1.7" height="1.7"/>
      </g>
      <g>
        <rect class="cls-1" x="23.86" y="30.57" width="1.7" height="1.7"/>
        <polygon class="cls-1" points="28.91 32.27 27.25 32.27 27.25 30.57 27.8 30.57 28.91 32.27"/>
        <polygon class="cls-1" points="39.12 30.57 39.12 32.27 37.77 32.27 37.42 31.71 37.42 30.57 39.12 30.57"/>
        <rect class="cls-1" x="35.72" y="27.01" width="1.7" height="1.7"/>
      </g>
      <polygon class="cls-1" points="30.83 35.23 6.64 35.23 6.64 34.15 30.13 34.15 30.83 35.23"/>
      <rect class="cls-1" x="6.64" y="6.97" width="31.8" height="1.09"/>
    </g>
  </g>
</svg>
