<svg id="Layer_1" data-name="Layer 1" xmlns="http://www.w3.org/2000/svg" viewBox="0 0 45 45">
  <defs>
    <style>
      .cls-1 {
        fill: #f47722;
      }

      .cls-2 {
        fill: #666766;
      }
    </style>
  </defs>
  <title>audit</title>
  <g>
    <g>
      <path class="cls-1" d="M30.54,27.78a9,9,0,1,1,2.67-12.46A9,9,0,0,1,30.54,27.78Zm-9.1-14A7.73,7.73,0,1,0,32.13,16,7.73,7.73,0,0,0,21.44,13.73Z"/>
      <path class="cls-1" d="M36.85,37.51a3.23,3.23,0,0,1-4.46-.95l-3.85-5.94,1.08-.7,3.86,5.94a1.93,1.93,0,1,0,3.24-2.1l-5.26-8.11,1.09-.7,5.25,8.11A3.22,3.22,0,0,1,36.85,37.51Z"/>
      <rect class="cls-1" x="33.75" y="33.08" width="1.29" height="1.29" transform="translate(-12.81 24.13) rotate(-32.94)"/>
      <rect class="cls-1" x="32.35" y="30.92" width="1.29" height="1.29" transform="translate(-11.86 23.02) rotate(-32.94)"/>
      <rect class="cls-1" x="30.95" y="28.76" width="1.29" height="1.29" transform="translate(-10.91 21.91) rotate(-32.94)"/>
      <path class="cls-1" d="M24.86,23.09a.63.63,0,0,1-.46-.19l-2.57-2.58.91-.91,2.12,2.12,4.69-4.69.91.91L25.31,22.9A.61.61,0,0,1,24.86,23.09Z"/>
    </g>
    <g>
      <g>
        <rect class="cls-2" x="7.28" y="16.72" width="1.7" height="1.7"/>
        <rect class="cls-2" x="10.67" y="16.72" width="1.7" height="1.7"/>
        <rect class="cls-1" x="14.06" y="16.72" width="1.7" height="1.7"/>
        <rect class="cls-2" x="7.28" y="23.67" width="1.7" height="1.7"/>
        <rect class="cls-2" x="10.67" y="23.67" width="1.7" height="1.7"/>
        <rect class="cls-1" x="14.06" y="23.67" width="1.7" height="1.7"/>
        <rect class="cls-1" x="8.98" y="20.11" width="1.7" height="1.7"/>
        <rect class="cls-2" x="12.37" y="20.11" width="1.7" height="1.7"/>
      </g>
      <g>
        <rect class="cls-2" x="7.28" y="9.88" width="1.7" height="1.7"/>
        <rect class="cls-2" x="10.67" y="9.88" width="1.7" height="1.7"/>
        <rect class="cls-1" x="14.06" y="9.88" width="1.7" height="1.7"/>
        <rect class="cls-2" x="17.45" y="9.88" width="1.7" height="1.7"/>
        <path class="cls-2" d="M22.54,9.88v1.38c-.26.09-.52.2-.77.31h-.93V9.88Z"/>
        <rect class="cls-1" x="8.98" y="13.27" width="1.7" height="1.7"/>
        <rect class="cls-2" x="12.37" y="13.27" width="1.7" height="1.7"/>
        <rect class="cls-2" x="15.76" y="13.27" width="1.7" height="1.7"/>
      </g>
      <g>
        <rect class="cls-2" x="7.28" y="30.57" width="1.7" height="1.7"/>
        <rect class="cls-2" x="10.67" y="30.57" width="1.7" height="1.7"/>
        <rect class="cls-1" x="14.06" y="30.57" width="1.7" height="1.7"/>
        <rect class="cls-2" x="17.45" y="30.57" width="1.7" height="1.7"/>
        <rect class="cls-2" x="20.85" y="30.57" width="1.7" height="1.7"/>
        <rect class="cls-2" x="8.98" y="27.01" width="1.7" height="1.7"/>
        <rect class="cls-1" x="12.37" y="27.01" width="1.7" height="1.7"/>
        <rect class="cls-2" x="15.76" y="27.01" width="1.7" height="1.7"/>
        <path class="cls-2" d="M20.84,28.36v.34H19.15V27.05A8.72,8.72,0,0,0,20.84,28.36Z"/>
      </g>
      <g>
        <path class="cls-2" d="M36,16.72v1.69H35.1a8.6,8.6,0,0,0-.5-1.69Z"/>
        <rect class="cls-1" x="37.64" y="16.72" width="1.7" height="1.7"/>
        <path class="cls-2" d="M36,23.66v1.7h-1.7v-.87c.14-.27.26-.55.38-.83Z"/>
        <rect class="cls-1" x="37.64" y="23.67" width="1.7" height="1.7"/>
        <rect class="cls-2" x="35.95" y="20.11" width="1.7" height="1.7"/>
      </g>
      <g>
        <path class="cls-2" d="M25.77,9.88v.82a8.71,8.71,0,0,0-1.69.15v-1Z"/>
        <path class="cls-2" d="M29.17,9.88v1.45a8.71,8.71,0,0,0-1.43-.42l-.27-.05v-1Z"/>
        <rect class="cls-2" x="30.86" y="9.88" width="1.7" height="1.7"/>
        <rect class="cls-1" x="34.25" y="9.88" width="1.7" height="1.7"/>
        <rect class="cls-2" x="37.64" y="9.88" width="1.7" height="1.7"/>
        <path class="cls-2" d="M34.25,13.27V15h-.56a9.07,9.07,0,0,0-1.13-1.41v-.29Z"/>
        <rect class="cls-2" x="35.95" y="13.27" width="1.7" height="1.7"/>
      </g>
      <g>
        <rect class="cls-1" x="24.08" y="30.57" width="1.7" height="1.7"/>
        <polygon class="cls-2" points="29.13 32.27 27.47 32.27 27.47 30.57 28.02 30.57 29.13 32.27"/>
        <polygon class="cls-2" points="39.34 30.57 39.34 32.27 37.99 32.27 37.64 31.71 37.64 30.57 39.34 30.57"/>
        <rect class="cls-2" x="35.95" y="27.01" width="1.7" height="1.7"/>
      </g>
      <polygon class="cls-2" points="31.05 35.23 6.86 35.23 6.86 34.15 30.35 34.15 31.05 35.23"/>
      <rect class="cls-2" x="6.87" y="6.97" width="31.8" height="1.09"/>
    </g>
  </g>
</svg>
