<svg id="Layer_1" data-name="Layer 1" xmlns="http://www.w3.org/2000/svg" viewBox="0 0 45 45"><defs><style>.cls-1{fill:#fff;}</style></defs><title>biomedical</title><path class="cls-1" d="M22.23,18a3.31,3.31,0,0,0-2.39,1,3.43,3.43,0,0,0-.06,4.92,3.35,3.35,0,0,0,2.4,1h0a3.35,3.35,0,0,0,3.39-3.32A3.53,3.53,0,0,0,22.23,18Zm0,5.29a1.79,1.79,0,0,1-1.27-.54,1.83,1.83,0,0,1,0-2.63,1.74,1.74,0,0,1,1.21-.51h0a1.91,1.91,0,0,1,1.78,2A1.74,1.74,0,0,1,22.19,23.31Z"/><path class="cls-1" d="M36,25.27a.82.82,0,0,1-.12-.2c-.7-1.2-1.39-2.42-2.13-3.72.25-.33.61-.8,1-1.28A7.78,7.78,0,0,0,36.38,16a7.36,7.36,0,0,0-.2-2.11,2.28,2.28,0,0,0,.38-1.41,3.71,3.71,0,0,0,0-.48,3.51,3.51,0,0,0-3.36-3.57,3.31,3.31,0,0,0-2.39,1,3.47,3.47,0,0,0-1,1.74.85.85,0,0,1-.67.3l-1.06.08a8.18,8.18,0,0,1-.61-1.08,12.41,12.41,0,0,0-.62-1.27A6.85,6.85,0,0,0,23,5.62c-.28,0-.48-.09-.75-.09s-.43.09-.62.09c-2.55.83-3.74,2.91-4.67,5.18-.25.62-.47.8-1.18.69a9.87,9.87,0,0,0-4.94.32,3.94,3.94,0,0,0-2.62,4.93,11,11,0,0,0,2.14,4.14l.55.7c-.38.51-.75,1-1.1,1.5a10,10,0,0,0-1.67,3.8,3.35,3.35,0,0,0-.73.52,3.48,3.48,0,0,0-1.06,2.43A3.41,3.41,0,0,0,7.09,32l.17.21.1.12,0,0a2.33,2.33,0,0,0,.38.31,3.3,3.3,0,0,0,2,.66h0a3.37,3.37,0,0,0,2.84-1.51.66.66,0,0,1,.32-.1c1-.08,2-.1,3-.21a.71.71,0,0,1,.83.48,30.91,30.91,0,0,0,2.07,3.63,4.08,4.08,0,0,0,4.35,1.66,3.83,3.83,0,0,0,1.57-.82,9.74,9.74,0,0,0,2.89-4.38c.2-.52.42-.61.95-.52a10.89,10.89,0,0,0,4.18-.06,1.12,1.12,0,0,1,.63.05h0A3.27,3.27,0,0,0,35.1,32h0a3.34,3.34,0,0,0,3.39-3.31A3.54,3.54,0,0,0,36,25.27ZM9.35,15.43a2.28,2.28,0,0,1,1.34-2.17,7.79,7.79,0,0,1,4.47-.53,8.11,8.11,0,0,1,.88.15c-.22,1-.41,2-.61,3a14.55,14.55,0,0,1-.4,1.46,8.55,8.55,0,0,1-1.17,1.13,22.94,22.94,0,0,0-2.21,1.93C10.52,18.92,9.36,17.45,9.35,15.43ZM15,19.24v4.43L12.58,21.5ZM11.56,30a1.74,1.74,0,0,1-1.79,1.72,1.79,1.79,0,0,1-1.27-.54A1.83,1.83,0,0,1,8,29.85a1.81,1.81,0,0,1,.57-1.29,1.74,1.74,0,0,1,1.21-.51h0A1.91,1.91,0,0,1,11.56,30Zm1.58.3c0-.1,0-.19,0-.29a3.53,3.53,0,0,0-3.36-3.58l-.33,0a9.54,9.54,0,0,1,2.21-3.93c1,.83,1.91,1.67,2.89,2.44a1.9,1.9,0,0,1,.78,1.37c.17,1.21.47,2.41.74,3.74ZM27,13.14l.72,3.18L23.9,14.1ZM20,8.06A2.67,2.67,0,0,1,24.3,8a10.77,10.77,0,0,1,2.24,3.78c-1.42.51-2.81,1-4.22,1.52a.74.74,0,0,1-.46-.05l-4.05-1.48A11.28,11.28,0,0,1,20,8.06Zm-2.66,5.08,3.11.95-3.82,2.22C16.88,15.22,17.1,14.23,17.35,13.14Zm-.72,13.49,3.82,2.21-3.1,1C17.1,28.71,16.88,27.72,16.63,26.63ZM24,35.21a2.49,2.49,0,0,1-3.66,0,10.24,10.24,0,0,1-2.51-4c1.39-.5,2.72-1,4.05-1.46a1,1,0,0,1,.64,0c1.33.47,2.66,1,4,1.47A9.84,9.84,0,0,1,24,35.21Zm3-5.4-3.1-1,3.84-2.22C27.47,27.75,27.24,28.74,27,29.81Zm.94-5.44a.82.82,0,0,1-.33.58c-1.68,1-3.37,2-5.07,2.93a.81.81,0,0,1-.68,0C20.17,27,18.49,26,16.83,25a1,1,0,0,1-.39-.73c0-1.87,0-3.75,0-5.62a1,1,0,0,1,.37-.74c1.68-1,3.38-1.95,5.09-2.9a.79.79,0,0,1,.62,0c1.7,1,3.4,1.93,5.08,2.93a.85.85,0,0,1,.34.57c.08.86.1,1.73.16,3C28.06,22.23,28,23.3,27.94,24.37Zm7.17,6h0a1.78,1.78,0,0,1-1.26-.53,1.83,1.83,0,0,1-.54-1.34,1.81,1.81,0,0,1,.57-1.29,1.74,1.74,0,0,1,1.21-.51h0a1.91,1.91,0,0,1,1.79,2A1.73,1.73,0,0,1,35.11,30.4ZM33.2,13.73a1.77,1.77,0,0,1-1.26-.54,1.81,1.81,0,0,1-.54-1.33,1.83,1.83,0,0,1,.57-1.3,1.77,1.77,0,0,1,1.21-.5h0A1.9,1.9,0,0,1,35,12a1.72,1.72,0,0,1-1.79,1.72Zm-3.45-1.06a5,5,0,0,0,1,1.64l0,0,0,0a3.37,3.37,0,0,0,1,.73,2.78,2.78,0,0,0,1.2.25h.17a3.42,3.42,0,0,0,1.78-.5c.24,2.3-1,3.92-2.25,5.56l-3.38-2.84a.61.61,0,0,1-.19-.35c-.26-1.42-.5-2.83-.75-4.31Zm2.1,8.78-2.39,2.23V19.26Zm-3.45,8.6c.24-1.19.53-2.32.67-3.47a2.48,2.48,0,0,1,1.07-1.8c.9-.68,1.72-1.47,2.67-2.3l1.79,2.69a3.41,3.41,0,0,0-1.85.91,3.29,3.29,0,0,0-.67.94h0a3.19,3.19,0,0,0-.38,1.48,3.48,3.48,0,0,0,.42,1.67A10.06,10.06,0,0,1,28.4,30.05Z"/></svg>