<svg id="Layer_1" data-name="Layer 1" xmlns="http://www.w3.org/2000/svg" viewBox="0 0 45 45"><defs><style>.cls-1{fill:#f47722;}.cls-2{fill:#666766;}.cls-3{fill:#f26722;}</style></defs><title>pharma</title><rect class="cls-1" x="4.73" y="31.81" width="7.49" height="0.79"/><rect class="cls-2" x="4.73" y="30.23" width="1.97" height="0.79"/><rect class="cls-2" x="4.73" y="34.96" width="1.97" height="0.79"/><rect class="cls-2" x="4.73" y="33.38" width="1.97" height="0.79"/><rect class="cls-2" x="4.73" y="36.54" width="1.97" height="0.79"/><path class="cls-2" d="M2.75,25.9v1.28l1.58,2.76v7.38a2.77,2.77,0,0,0,2.76,2.76H11a2.66,2.66,0,0,0,.9-.15h0a2.69,2.69,0,0,0,1-.63,3.12,3.12,0,0,1-1-.17v-.06l-.06,0a1.94,1.94,0,0,1-.86.2H7.09a2,2,0,0,1-2-2V29.73L3.54,27v-.28H13v6.82a1.42,1.42,0,0,1,.67-.19h.12V25.9Z"/><path class="cls-2" d="M14.58,20h.79v8.41l-1.58,2.25L13,31.76l-2.78,4-.37.51a1.12,1.12,0,0,0,0,.27,3.14,3.14,0,0,0,2,2.56l.06,0a3.12,3.12,0,0,0,1,.17,2.69,2.69,0,0,1-1,.63h0a3.51,3.51,0,0,1-1.28-.64,3.88,3.88,0,0,1-1.59-3.15V36l2.4-3.43L12,31.8l1-1.42.79-1.12.79-1.13Z"/><polygon class="cls-2" points="17.74 28.13 18.7 29.51 17.74 29.51 16.95 28.39 16.95 19.98 17.74 19.98 17.74 28.13"/><polygon class="cls-2" points="22.47 35.75 22.47 36.26 22.1 35.75 22.47 35.75"/><path class="cls-2" d="M22.44,36.53a1.12,1.12,0,0,0,0-.27v.27Z"/><rect class="cls-2" x="13.79" y="19.59" width="4.73" height="0.79"/><path class="cls-1" d="M12,35.75c0,.23,0,.49,0,.78H9.85v-.78Z"/><polygon class="cls-2" points="22.47 35.75 22.47 36.26 22.1 35.75 22.47 35.75"/><path class="cls-2" d="M22.44,36.53a1.12,1.12,0,0,0,0-.27v.27Z"/><rect class="cls-2" x="16.16" y="21.95" width="1.18" height="0.79"/><rect class="cls-2" x="16.16" y="23.53" width="1.18" height="0.79"/><rect class="cls-2" x="16.16" y="25.1" width="1.18" height="0.79"/><rect class="cls-2" x="16.16" y="26.68" width="1.18" height="0.79"/><path class="cls-1" d="M10.24,21.17a2,2,0,1,0,2,2A2,2,0,0,0,10.24,21.17Zm0,3.15a1.19,1.19,0,1,1,1.19-1.18A1.2,1.2,0,0,1,10.24,24.32Z"/><path class="cls-2" d="M5.91,19.59a1.58,1.58,0,1,0,1.57,1.58A1.58,1.58,0,0,0,5.91,19.59Zm0,2.36a.79.79,0,1,1,0-1.57.79.79,0,1,1,0,1.57Z"/><path class="cls-1" d="M9.06,16.43A1.58,1.58,0,1,0,10.64,18,1.59,1.59,0,0,0,9.06,16.43Zm0,2.37A.79.79,0,1,1,9.85,18,.8.8,0,0,1,9.06,18.8Z"/><rect class="cls-1" x="6.7" y="23.53" width="0.79" height="0.79"/><rect class="cls-1" x="5.12" y="18.01" width="0.79" height="0.79"/><rect class="cls-2" x="11.43" y="19.59" width="0.79" height="0.79"/><rect class="cls-1" x="20.84" y="21.86" width="3.76" height="1.07"/><path class="cls-1" d="M21.38,5.75h4.3V9h-4.3ZM24.6,6.82H22.45V7.89H24.6Z"/><polygon class="cls-2" points="18.15 39.59 19.23 39.59 19.23 37.98 34.27 37.98 34.27 39.59 35.35 39.59 35.35 36.91 18.15 36.91 18.15 39.59"/><path class="cls-2" d="M6.33,39.06h6.45V35.83a2.16,2.16,0,0,1,2.15-2.15H38.57a2.15,2.15,0,0,1,2.15,2.15v4.3H6.33Zm33.31-3.23a1.07,1.07,0,0,0-1.07-1.07H14.93a1.07,1.07,0,0,0-1.07,1.07v3.23H39.64Z"/><path class="cls-2" d="M16.54,34.22h1.08V32.61H30.51a3,3,0,0,0,3-3.8l-1.77-7.69c-.46-2-1.84-3.56-3.13-3.56H26.21v1.08h2.42c.69,0,1.72,1.16,2.08,2.72l1.78,7.69a2,2,0,0,1-.34,1.76,2,2,0,0,1-1.64.72h-14Z"/><polygon class="cls-2" points="20.3 26.16 26.75 26.16 26.75 15.95 25.68 15.95 25.68 25.09 21.38 25.09 21.38 8.97 25.68 8.97 25.68 10.58 26.75 10.58 26.75 7.89 20.3 7.89 20.3 26.16"/><path class="cls-2" d="M37.5,32.61h1.07V30.19c0-1.38-3.35-11.33-3.73-12.47A5.58,5.58,0,0,0,30,14.34H28.9v1.08H30a4.5,4.5,0,0,1,3.86,2.67c1.41,4.19,3.67,11.2,3.67,12.1Z"/><rect class="cls-3" x="16.54" y="29.92" width="11.28" height="1.07"/><rect class="cls-2" x="23.53" y="19.71" width="1.07" height="1.07"/><rect class="cls-2" x="23.53" y="17.56" width="1.07" height="1.07"/><path class="cls-1" d="M23.53,13.27a3.22,3.22,0,1,1,3.22,3.22A3.23,3.23,0,0,1,23.53,13.27Zm1.07,0a2.15,2.15,0,1,0,2.15-2.15A2.16,2.16,0,0,0,24.6,13.27Z"/><rect class="cls-2" x="24.06" y="25.62" width="1.07" height="1.61"/><rect class="cls-2" x="21.91" y="25.62" width="1.07" height="2.69"/></svg>