<svg id="Layer_1" data-name="Layer 1" xmlns="http://www.w3.org/2000/svg" viewBox="0 0 45 45"><defs><style>.cls-1{fill:#fff;}</style></defs><title>pharma white</title><rect class="cls-1" x="5.23" y="31.81" width="7.49" height="0.79"/><rect class="cls-1" x="5.23" y="30.23" width="1.97" height="0.79"/><rect class="cls-1" x="5.23" y="34.96" width="1.97" height="0.79"/><rect class="cls-1" x="5.23" y="33.38" width="1.97" height="0.79"/><rect class="cls-1" x="5.23" y="36.54" width="1.97" height="0.79"/><path class="cls-1" d="M3.25,25.9v1.28l1.58,2.76v7.38a2.77,2.77,0,0,0,2.76,2.76h3.94a2.66,2.66,0,0,0,.9-.15h0a2.69,2.69,0,0,0,1-.63,3.12,3.12,0,0,1-1-.17v-.06l-.06,0a1.94,1.94,0,0,1-.86.2H7.59a2,2,0,0,1-2-2V29.73L4,27v-.28H13.5v6.82a1.42,1.42,0,0,1,.67-.19h.12V25.9Z"/><path class="cls-1" d="M15.08,20h.79v8.41l-1.58,2.25-.79,1.12-2.78,4-.37.51a1.12,1.12,0,0,0,0,.27,3.14,3.14,0,0,0,2,2.56l.06,0a3.12,3.12,0,0,0,1,.17,2.69,2.69,0,0,1-1,.63h0a3.51,3.51,0,0,1-1.28-.64,3.88,3.88,0,0,1-1.59-3.15V36L12,32.59l.55-.79,1-1.42.79-1.12.79-1.13Z"/><polygon class="cls-1" points="18.24 28.13 19.2 29.51 18.24 29.51 17.45 28.39 17.45 19.98 18.24 19.98 18.24 28.13"/><polygon class="cls-1" points="22.97 35.75 22.97 36.26 22.6 35.75 22.97 35.75"/><path class="cls-1" d="M22.94,36.53a1.12,1.12,0,0,0,0-.27v.27Z"/><rect class="cls-1" x="14.29" y="19.59" width="4.73" height="0.79"/><path class="cls-1" d="M12.45,35.75c0,.23,0,.49,0,.78H10.35v-.78Z"/><polygon class="cls-1" points="22.97 35.75 22.97 36.26 22.6 35.75 22.97 35.75"/><path class="cls-1" d="M22.94,36.53a1.12,1.12,0,0,0,0-.27v.27Z"/><rect class="cls-1" x="16.66" y="21.95" width="1.18" height="0.79"/><rect class="cls-1" x="16.66" y="23.53" width="1.18" height="0.79"/><rect class="cls-1" x="16.66" y="25.1" width="1.18" height="0.79"/><rect class="cls-1" x="16.66" y="26.68" width="1.18" height="0.79"/><path class="cls-1" d="M10.74,21.17a2,2,0,1,0,2,2A2,2,0,0,0,10.74,21.17Zm0,3.15a1.19,1.19,0,1,1,1.19-1.18A1.2,1.2,0,0,1,10.74,24.32Z"/><path class="cls-1" d="M6.41,19.59A1.58,1.58,0,1,0,8,21.17,1.58,1.58,0,0,0,6.41,19.59Zm0,2.36a.79.79,0,1,1,0-1.57.79.79,0,1,1,0,1.57Z"/><path class="cls-1" d="M9.56,16.43A1.58,1.58,0,1,0,11.14,18,1.59,1.59,0,0,0,9.56,16.43Zm0,2.37a.79.79,0,1,1,.79-.79A.8.8,0,0,1,9.56,18.8Z"/><rect class="cls-1" x="7.2" y="23.53" width="0.79" height="0.79"/><rect class="cls-1" x="5.62" y="18.01" width="0.79" height="0.79"/><rect class="cls-1" x="11.93" y="19.59" width="0.79" height="0.79"/><rect class="cls-1" x="21.34" y="21.86" width="3.76" height="1.07"/><path class="cls-1" d="M21.88,5.75h4.3V9h-4.3ZM25.1,6.82H23V7.89H25.1Z"/><polygon class="cls-1" points="18.65 39.59 19.73 39.59 19.73 37.98 34.77 37.98 34.77 39.59 35.85 39.59 35.85 36.91 18.65 36.91 18.65 39.59"/><path class="cls-1" d="M6.83,39.06h6.45V35.83a2.16,2.16,0,0,1,2.15-2.15H39.07a2.15,2.15,0,0,1,2.15,2.15v4.3H6.83Zm33.31-3.23a1.07,1.07,0,0,0-1.07-1.07H15.43a1.07,1.07,0,0,0-1.07,1.07v3.23H40.14Z"/><path class="cls-1" d="M17,34.22h1.08V32.61H31a3,3,0,0,0,3-3.8l-1.77-7.69c-.46-2-1.84-3.56-3.13-3.56H26.71v1.08h2.42c.69,0,1.72,1.16,2.08,2.72L33,29.05a2,2,0,0,1-.34,1.76,2,2,0,0,1-1.64.72H17Z"/><polygon class="cls-1" points="20.8 26.16 27.25 26.16 27.25 15.95 26.18 15.95 26.18 25.09 21.88 25.09 21.88 8.97 26.18 8.97 26.18 10.58 27.25 10.58 27.25 7.89 20.8 7.89 20.8 26.16"/><path class="cls-1" d="M38,32.61h1.07V30.19c0-1.38-3.35-11.33-3.73-12.47a5.58,5.58,0,0,0-4.87-3.38H29.4v1.08h1.07a4.5,4.5,0,0,1,3.86,2.67C35.74,22.28,38,29.29,38,30.19Z"/><rect class="cls-1" x="17.04" y="29.92" width="11.28" height="1.07"/><rect class="cls-1" x="24.03" y="19.71" width="1.07" height="1.07"/><rect class="cls-1" x="24.03" y="17.56" width="1.07" height="1.07"/><path class="cls-1" d="M24,13.27a3.22,3.22,0,1,1,3.22,3.22A3.23,3.23,0,0,1,24,13.27Zm1.07,0a2.15,2.15,0,1,0,2.15-2.15A2.16,2.16,0,0,0,25.1,13.27Z"/><rect class="cls-1" x="24.56" y="25.62" width="1.07" height="1.61"/><rect class="cls-1" x="22.41" y="25.62" width="1.07" height="2.69"/></svg>