<?xml version="1.0" encoding="utf-8"?>
<!-- Generator: Adobe Illustrator 22.1.0, SVG Export Plug-In . SVG Version: 6.00 Build 0)  -->
<svg version="1.1" id="Layer_1" xmlns="http://www.w3.org/2000/svg" xmlns:xlink="http://www.w3.org/1999/xlink" x="0px" y="0px"
	 viewBox="0 0 45 45" style="enable-background:new 0 0 45 45;" xml:space="preserve">
<style type="text/css">
	.st0{fill:none;stroke:#585858;stroke-width:1.4;stroke-linecap:round;stroke-linejoin:round;stroke-miterlimit:10;}
	.st1{fill:#FFFFFF;}
	.st2{fill:#585858;}
	.st3{fill:#F58228;}
	.st4{fill:#59595B;}
	.st5{fill:#F58228;stroke:#F58228;stroke-width:0.5;stroke-miterlimit:10;}
	.st6{fill:#585858;stroke:#585858;stroke-width:0.5;stroke-miterlimit:10;}
	.st7{fill:#F58228;stroke:#F58228;stroke-width:0.2269;stroke-miterlimit:10;}
	.st8{fill:#585858;stroke:#FFFFFF;stroke-width:0.3256;stroke-miterlimit:10;}
	.st9{fill:#F58228;stroke:#FFFFFF;stroke-width:0.3256;stroke-miterlimit:10;}
	.st10{fill:#585858;stroke:#FFFFFF;stroke-width:0.5;stroke-miterlimit:10;}
	.st11{fill:none;stroke:#F58228;stroke-linecap:round;stroke-linejoin:round;stroke-miterlimit:22.9256;}
	.st12{fill:none;stroke:#585858;stroke-linecap:round;stroke-linejoin:round;stroke-miterlimit:22.9256;}
	.st13{fill:#585858;stroke:#FFFFFF;stroke-width:0.3454;stroke-miterlimit:10;}
	.st14{fill:#F58228;stroke:#FFFFFF;stroke-width:0.3454;stroke-miterlimit:10;}
	.st15{fill:#595A5C;}
	.st16{fill:none;stroke:#F58228;stroke-miterlimit:10;}
	.st17{fill:none;stroke:#FFFFFF;stroke-width:1.144;stroke-miterlimit:10;}
	.st18{fill:none;stroke:#FFFFFF;stroke-width:1.2222;stroke-miterlimit:10;}
	.st19{fill:none;stroke:#FFFFFF;stroke-width:1.2222;stroke-miterlimit:10;stroke-dasharray:1.3537,1.3537;}
	.st20{fill:none;stroke:#585858;stroke-width:1.144;stroke-miterlimit:10;}
	.st21{fill:none;stroke:#F58228;stroke-width:1.144;stroke-miterlimit:10;}
	.st22{fill:none;stroke:#585858;stroke-width:1.2222;stroke-miterlimit:10;}
	.st23{fill:none;stroke:#F58228;stroke-width:1.2222;stroke-miterlimit:10;}
	.st24{fill:none;stroke:#585858;stroke-width:1.2222;stroke-miterlimit:10;stroke-dasharray:1.3537,1.3537;}
</style>
<g>
	<path class="st2" d="M38.5,5.7H14.4C14,4.2,12.7,3.1,11,3.1c-1.9,0-3.5,1.6-3.5,3.5v30h0C7.8,39,9.8,41,12.3,41h23.5
		c0.4,0,0.8-0.3,0.8-0.8v-2.8h1.9c0.4,0,0.8-0.3,0.8-0.8V6.5C39.2,6,38.9,5.7,38.5,5.7z M8.4,6.6c0-1.5,1.2-2.7,2.7-2.7
		c1.5,0,2.7,1.2,2.7,2.7v27.7C13,33.5,12.1,33,11,33c-1.1,0-2,0.5-2.7,1.2V6.6z M35.7,40.1H12.3c-2.1,0-3.8-1.7-4-3.7
		c0.1-1.4,1.3-2.5,2.7-2.5c1.5,0,2.7,1.2,2.7,2.7h0c0,0.5,0.4,0.9,0.9,0.9h21.1V40.1z M38.4,36.6H14.6c0,0-0.1,0-0.1-0.1V6.6v0h23.8
		V36.6z"/>
	<path class="st3" d="M17.3,13.6c-0.3,0-0.6,0.2-0.6,0.6v7.7c0,0.3,0.2,0.6,0.6,0.6h8.1c0.3,0,0.6-0.2,0.6-0.6v-7.7
		c0-0.3-0.2-0.6-0.6-0.6H17.3z M25.1,21.6h-7.5v-7.1h7.5V21.6z"/>
	<path class="st2" d="M17.2,11h18.5c0.2,0,0.4-0.2,0.4-0.4c0-0.2-0.2-0.4-0.4-0.4H17.2c-0.2,0-0.4,0.2-0.4,0.4
		C16.8,10.8,16.9,11,17.2,11z"/>
	<path class="st2" d="M17.2,26h18.5c0.2,0,0.4-0.2,0.4-0.4c0-0.2-0.2-0.4-0.4-0.4H17.2c-0.2,0-0.4,0.2-0.4,0.4
		C16.8,25.8,16.9,26,17.2,26z"/>
	<path class="st2" d="M17.2,28.6h18.5c0.2,0,0.4-0.2,0.4-0.4c0-0.2-0.2-0.4-0.4-0.4H17.2c-0.2,0-0.4,0.2-0.4,0.4
		C16.8,28.4,16.9,28.6,17.2,28.6z"/>
	<path class="st2" d="M17.2,31.3h18.5c0.2,0,0.4-0.2,0.4-0.4c0-0.2-0.2-0.4-0.4-0.4H17.2c-0.2,0-0.4,0.2-0.4,0.4
		C16.8,31.1,16.9,31.3,17.2,31.3z"/>
	<path class="st2" d="M35.7,13.6h-8c-0.2,0-0.4,0.2-0.4,0.4c0,0.2,0.2,0.4,0.4,0.4h8c0.2,0,0.4-0.2,0.4-0.4
		C36.2,13.8,36,13.6,35.7,13.6z"/>
	<path class="st2" d="M35.7,16.3h-8c-0.2,0-0.4,0.2-0.4,0.4c0,0.2,0.2,0.4,0.4,0.4h8c0.2,0,0.4-0.2,0.4-0.4
		C36.2,16.5,36,16.3,35.7,16.3z"/>
	<path class="st2" d="M35.7,18.9h-8c-0.2,0-0.4,0.2-0.4,0.4c0,0.2,0.2,0.4,0.4,0.4h8c0.2,0,0.4-0.2,0.4-0.4
		C36.2,19.1,36,18.9,35.7,18.9z"/>
	<path class="st2" d="M35.7,21.6h-8c-0.2,0-0.4,0.2-0.4,0.4c0,0.2,0.2,0.4,0.4,0.4h8c0.2,0,0.4-0.2,0.4-0.4
		C36.2,21.8,36,21.6,35.7,21.6z"/>
</g>
</svg>
