<svg id="Layer_1" data-name="Layer 1" xmlns="http://www.w3.org/2000/svg" viewBox="0 0 45 45">
  <defs>
    <style>
      .cls-1 {
        fill: #666766;
      }

      .cls-2 {
        fill: #f47722;
      }

      .cls-3 {
        fill: #f58220;
      }
    </style>
  </defs>
  <title>cloud-solutions-</title>
  <g id="cloud">
    <g>
      <path class="cls-1" d="M32.44,27.33H30.38v-1h2.06a5.67,5.67,0,0,0,5.66-5.66c0-2.94-2-5.15-4.63-5.15H33V15a3.83,3.83,0,0,0-4.12-4.12H28l-.14-.27a7.59,7.59,0,0,0-6.76-3.85,7.74,7.74,0,0,0-7.73,7.73V15h-.51a5.67,5.67,0,1,0,0,11.33h2.06v1H12.87A6.69,6.69,0,0,1,12.37,14,8.76,8.76,0,0,1,21.11,5.7a8.57,8.57,0,0,1,7.5,4.12h.22A4.8,4.8,0,0,1,34,14.48c3,.25,5.16,2.82,5.16,6.16A6.7,6.7,0,0,1,32.44,27.33Z"/>
      <path class="cls-1" d="M27.29,28.36H18V19.09h9.27Zm-8.24-1h7.21V20.12H19.05Z"/>
      <rect class="cls-1" x="19.05" y="17.03" width="1.03" height="2.58"/>
      <rect class="cls-1" x="21.11" y="17.03" width="1.03" height="2.58"/>
      <rect class="cls-1" x="23.17" y="17.03" width="1.03" height="2.58"/>
      <rect class="cls-1" x="25.23" y="17.03" width="1.03" height="2.58"/>
      <rect class="cls-1" x="21.11" y="27.85" width="1.03" height="10.82"/>
      <rect class="cls-1" x="23.17" y="27.85" width="1.03" height="10.82"/>
      <rect class="cls-1" x="26.77" y="20.12" width="2.58" height="1.03"/>
      <rect class="cls-1" x="26.77" y="22.18" width="2.58" height="1.03"/>
      <rect class="cls-1" x="26.77" y="24.24" width="2.58" height="1.03"/>
      <rect class="cls-1" x="26.77" y="26.3" width="2.58" height="1.03"/>
      <rect class="cls-1" x="15.96" y="20.12" width="2.58" height="1.03"/>
      <rect class="cls-1" x="15.96" y="22.18" width="2.58" height="1.03"/>
      <rect class="cls-1" x="15.96" y="24.24" width="2.58" height="1.03"/>
      <rect class="cls-1" x="15.96" y="26.3" width="2.58" height="1.03"/>
      <path class="cls-2" d="M24.2,25.27H21.11V22.18H24.2Zm-2.06-1h1v-1h-1Z"/>
      <polygon class="cls-1" points="20.08 33.51 6.17 33.51 6.17 32.48 19.05 32.48 19.05 27.85 20.08 27.85 20.08 33.51"/>
      <polygon class="cls-1" points="39.13 33.51 25.23 33.51 25.23 27.85 26.26 27.85 26.26 32.48 39.13 32.48 39.13 33.51"/>
      <rect class="cls-1" x="19.05" y="14.97" width="1.03" height="1.03"/>
      <rect class="cls-1" x="21.11" y="14.97" width="1.03" height="1.03"/>
      <rect class="cls-3" x="21.11" y="12.91" width="1.03" height="1.03"/>
      <rect class="cls-3" x="23.17" y="12.91" width="1.03" height="1.03"/>
      <rect class="cls-1" x="23.17" y="14.97" width="1.03" height="1.03"/>
      <rect class="cls-1" x="25.23" y="14.97" width="1.03" height="1.03"/>
      <rect class="cls-1" x="13.9" y="20.12" width="1.03" height="1.03"/>
      <rect class="cls-3" x="11.84" y="20.12" width="1.03" height="1.03"/>
      <rect class="cls-1" x="13.9" y="22.18" width="1.03" height="1.03"/>
      <rect class="cls-1" x="11.84" y="22.18" width="1.03" height="1.03"/>
      <rect class="cls-1" x="13.9" y="24.24" width="1.03" height="1.03"/>
      <rect class="cls-3" x="9.78" y="20.12" width="1.03" height="1.03"/>
      <rect class="cls-1" x="30.38" y="20.12" width="1.03" height="1.03"/>
      <rect class="cls-3" x="32.44" y="20.12" width="1.03" height="1.03"/>
      <rect class="cls-1" x="30.38" y="22.18" width="1.03" height="1.03"/>
      <rect class="cls-1" x="32.44" y="22.18" width="1.03" height="1.03"/>
      <rect class="cls-1" x="30.38" y="24.24" width="1.03" height="1.03"/>
      <rect class="cls-3" x="34.5" y="20.12" width="1.03" height="1.03"/>
    </g>
  </g>
</svg>
