<?xml version="1.0" encoding="utf-8"?>
<!-- Generator: Adobe Illustrator 22.1.0, SVG Export Plug-In . SVG Version: 6.00 Build 0)  -->
<svg version="1.1" id="Layer_1" xmlns="http://www.w3.org/2000/svg" xmlns:xlink="http://www.w3.org/1999/xlink" x="0px" y="0px"
	 viewBox="0 0 45 45" style="enable-background:new 0 0 45 45;" xml:space="preserve">
<style type="text/css">
	.st0{fill:none;stroke:#585858;stroke-width:1.4;stroke-linecap:round;stroke-linejoin:round;stroke-miterlimit:10;}
	.st1{fill:#FFFFFF;}
	.st2{fill:#585858;}
	.st3{fill:#F58228;}
	.st4{fill:#59595B;}
	.st5{fill:#F58228;stroke:#F58228;stroke-width:0.5;stroke-miterlimit:10;}
	.st6{fill:#585858;stroke:#585858;stroke-width:0.5;stroke-miterlimit:10;}
	.st7{fill:#F58228;stroke:#F58228;stroke-width:0.2269;stroke-miterlimit:10;}
	.st8{fill:#585858;stroke:#FFFFFF;stroke-width:0.3256;stroke-miterlimit:10;}
	.st9{fill:#F58228;stroke:#FFFFFF;stroke-width:0.3256;stroke-miterlimit:10;}
	.st10{fill:#585858;stroke:#FFFFFF;stroke-width:0.5;stroke-miterlimit:10;}
	.st11{fill:none;stroke:#F58228;stroke-linecap:round;stroke-linejoin:round;stroke-miterlimit:22.9256;}
	.st12{fill:none;stroke:#585858;stroke-linecap:round;stroke-linejoin:round;stroke-miterlimit:22.9256;}
	.st13{fill:#585858;stroke:#FFFFFF;stroke-width:0.3454;stroke-miterlimit:10;}
	.st14{fill:#F58228;stroke:#FFFFFF;stroke-width:0.3454;stroke-miterlimit:10;}
	.st15{fill:#595A5C;}
	.st16{fill:none;stroke:#F58228;stroke-miterlimit:10;}
	.st17{fill:none;stroke:#FFFFFF;stroke-width:1.144;stroke-miterlimit:10;}
	.st18{fill:none;stroke:#FFFFFF;stroke-width:1.2222;stroke-miterlimit:10;}
	.st19{fill:none;stroke:#FFFFFF;stroke-width:1.2222;stroke-miterlimit:10;stroke-dasharray:1.3537,1.3537;}
	.st20{fill:none;stroke:#585858;stroke-width:1.144;stroke-miterlimit:10;}
	.st21{fill:none;stroke:#F58228;stroke-width:1.144;stroke-miterlimit:10;}
	.st22{fill:none;stroke:#585858;stroke-width:1.2222;stroke-miterlimit:10;}
	.st23{fill:none;stroke:#F58228;stroke-width:1.2222;stroke-miterlimit:10;}
	.st24{fill:none;stroke:#585858;stroke-width:1.2222;stroke-miterlimit:10;stroke-dasharray:1.3537,1.3537;}
</style>
<path class="st2" d="M36.7,26.6c-0.7,0-1.3,0.4-1.5,1h-9v-3.9h4.5c3.5,0,6.3-2.8,6.3-6.3c0-3.5-2.8-6.3-6.3-6.3
	c-0.3,0-0.6,0-0.9,0.1c-0.5-3.9-3.8-6.9-7.8-6.9c-4.3,0-7.8,3.5-7.8,7.8c0,0.2,0,0.4,0,0.6c-2.7,0.4-4.7,2.7-4.7,5.5
	c0,3.1,2.5,5.5,5.5,5.5h6v3.9h-6.4c-0.3-0.6-0.9-1-1.5-1c-1,0-1.7,0.8-1.7,1.7c0,1,0.8,1.7,1.7,1.7c0.7,0,1.3-0.4,1.5-1H21V32H9.4
	c-0.3-0.6-0.9-1.1-1.6-1.1c-1,0-1.7,0.8-1.7,1.7c0,1,0.8,1.7,1.7,1.7c0.6,0,1.2-0.3,1.5-0.8c0,0,0,0,0,0H17v4.3c0,0,0,0.1,0,0.1
	c-0.6,0.3-1,0.9-1,1.6c0,1,0.8,1.7,1.7,1.7c1,0,1.7-0.8,1.7-1.7c0-0.7-0.4-1.3-1-1.6c0,0,0-0.1,0-0.1v-4.3h3.2
	c0.4,0,0.8-0.3,0.8-0.8v-9h2v4.6v8.9c0,0,0,0.1,0,0.1c-0.6,0.3-1,0.9-1,1.6c0,1,0.8,1.7,1.7,1.7c1,0,1.7-0.8,1.7-1.7
	c0-0.7-0.4-1.3-1-1.6c0,0,0-0.1,0-0.1v-4h4.5c0.3,0.6,0.9,1,1.5,1c1,0,1.7-0.8,1.7-1.7c0-1-0.8-1.7-1.7-1.7c-0.7,0-1.3,0.4-1.5,1
	h-4.5v-2.6h9c0.3,0.6,0.9,1,1.5,1c1,0,1.7-0.8,1.7-1.7C38.4,27.4,37.6,26.6,36.7,26.6z M10.9,18.2c0-2.2,1.8-4,4-4c0,0,0,0,0.1,0
	c0.2,0,0.5-0.1,0.6-0.3c0.1-0.2,0.2-0.4,0.2-0.6c-0.1-0.4-0.1-0.8-0.1-1.1c0-3.5,2.8-6.3,6.3-6.3c3.5,0,6.3,2.8,6.3,6.3c0,0,0,0,0,0
	c0,0.2,0.1,0.5,0.3,0.6c0.2,0.1,0.4,0.2,0.7,0.1c0.4-0.1,0.9-0.2,1.4-0.2c2.6,0,4.8,2.1,4.8,4.8c0,2.6-2.1,4.8-4.8,4.8H14.9
	C12.7,22.2,10.9,20.4,10.9,18.2z"/>
<circle class="st5" cx="13" cy="28.4" r="1.8"/>
<circle class="st5" cx="17.8" cy="39.2" r="1.8"/>
<circle class="st5" cx="25.3" cy="39.2" r="1.8"/>
<circle class="st5" cx="36.6" cy="28.4" r="1.8"/>
<circle class="st5" cx="7.7" cy="32.4" r="1.8"/>
<circle class="st5" cx="32.2" cy="32.4" r="1.8"/>
</svg>
