<svg id="Layer_1" data-name="Layer 1" xmlns="http://www.w3.org/2000/svg" viewBox="0 0 45 45">
  <defs>
    <style>
      .cls-1 {
        fill: #fff;
      }
    </style>
  </defs>
  <title>cloud-solutions-w copy</title>
  <g id="cloud">
    <path class="cls-1" d="M32.8,30.33H30.74v-1H32.8a5.67,5.67,0,0,0,5.67-5.66c0-2.94-2-5.15-4.64-5.15h-.51V18a3.83,3.83,0,0,0-4.12-4.12h-.82l-.15-.27a7.56,7.56,0,0,0-6.76-3.85,7.73,7.73,0,0,0-7.72,7.73V18h-.52a5.67,5.67,0,0,0,0,11.33h2.06v1H13.23A6.69,6.69,0,0,1,12.73,17,8.77,8.77,0,0,1,21.47,8.7,8.59,8.59,0,0,1,29,12.82h.22a4.78,4.78,0,0,1,5.13,4.66c3,.25,5.17,2.82,5.17,6.16A6.7,6.7,0,0,1,32.8,30.33Z"/>
  </g>
  <g>
    <rect class="cls-1" x="17.79" y="31.71" width="10.44" height="0.8"/>
    <path class="cls-1" d="M23,28.5a1.61,1.61,0,1,1,1.61-1.61A1.62,1.62,0,0,1,23,28.5Zm0-2.41a.8.8,0,1,0,.8.8A.8.8,0,0,0,23,26.09Z"/>
    <rect class="cls-1" x="22.61" y="28.09" width="0.8" height="2.01"/>
    <g>
      <path class="cls-1" d="M28.23,34.3H17.65A1.63,1.63,0,0,1,16,32.67V24.53a1.63,1.63,0,0,1,1.63-1.63H28.23a1.63,1.63,0,0,1,1.63,1.63v8.14A1.63,1.63,0,0,1,28.23,34.3ZM17.65,23.71a.82.82,0,0,0-.81.82v8.14a.81.81,0,0,0,.81.81H28.23a.82.82,0,0,0,.82-.81V24.53a.82.82,0,0,0-.82-.82Z"/>
      <path class="cls-1" d="M25.38,23.31h-.81V20.46a1.63,1.63,0,1,0-3.26,0v2.85H20.5V20.46a2.44,2.44,0,1,1,4.88,0Z"/>
      <path class="cls-1" d="M27.83,23.31H27V20.46a4.07,4.07,0,0,0-8.14,0v2.85h-.81V20.46a4.89,4.89,0,1,1,9.77,0Z"/>
    </g>
  </g>
  <rect class="cls-1" x="13.03" y="21.84" width="1.03" height="1.03"/>
  <rect class="cls-1" x="10.97" y="21.84" width="1.03" height="1.03"/>
  <rect class="cls-1" x="13.03" y="23.9" width="1.03" height="1.03"/>
  <rect class="cls-1" x="10.97" y="23.9" width="1.03" height="1.03"/>
  <rect class="cls-1" x="13.03" y="25.96" width="1.03" height="1.03"/>
  <rect class="cls-1" x="8.91" y="21.84" width="1.03" height="1.03"/>
  <rect class="cls-1" x="31.69" y="21.84" width="1.03" height="1.03"/>
  <rect class="cls-1" x="33.75" y="21.84" width="1.03" height="1.03"/>
  <rect class="cls-1" x="31.69" y="23.9" width="1.03" height="1.03"/>
  <rect class="cls-1" x="33.75" y="23.9" width="1.03" height="1.03"/>
  <rect class="cls-1" x="31.69" y="25.96" width="1.03" height="1.03"/>
  <rect class="cls-1" x="35.81" y="21.84" width="1.03" height="1.03"/>
</svg>
