<svg id="Layer_1" data-name="Layer 1" xmlns="http://www.w3.org/2000/svg" viewBox="0 0 45 45">
  <defs>
    <style>
      .cls-1 {
        fill: #666766;
      }

      .cls-2 {
        fill: #f58220;
      }
    </style>
  </defs>
  <title>cloud-security</title>
  <g id="cloud">
    <path class="cls-1" d="M32.44,30.33H30.38v-1h2.06a5.67,5.67,0,0,0,5.66-5.66c0-2.94-2-5.15-4.63-5.15H33V18a3.83,3.83,0,0,0-4.12-4.12H28l-.14-.27a7.59,7.59,0,0,0-6.76-3.85,7.74,7.74,0,0,0-7.73,7.73V18h-.51a5.67,5.67,0,1,0,0,11.33h2.06v1H12.87A6.69,6.69,0,0,1,12.37,17,8.76,8.76,0,0,1,21.11,8.7a8.57,8.57,0,0,1,7.5,4.12h.22A4.8,4.8,0,0,1,34,17.48c3,.25,5.16,2.82,5.16,6.16A6.7,6.7,0,0,1,32.44,30.33Z"/>
  </g>
  <g>
    <rect class="cls-2" x="17.42" y="31.71" width="10.44" height="0.8"/>
    <path class="cls-2" d="M22.64,28.5a1.61,1.61,0,1,1,1.61-1.61A1.61,1.61,0,0,1,22.64,28.5Zm0-2.41a.8.8,0,1,0,.81.8A.8.8,0,0,0,22.64,26.09Z"/>
    <rect class="cls-2" x="22.24" y="28.09" width="0.8" height="2.01"/>
    <g>
      <path class="cls-2" d="M27.87,34.3H17.28a1.63,1.63,0,0,1-1.62-1.63V24.53a1.63,1.63,0,0,1,1.62-1.63H27.87a1.63,1.63,0,0,1,1.62,1.63v8.14A1.63,1.63,0,0,1,27.87,34.3ZM17.28,23.71a.82.82,0,0,0-.81.82v8.14a.81.81,0,0,0,.81.81H27.87a.81.81,0,0,0,.81-.81V24.53a.82.82,0,0,0-.81-.82Z"/>
      <path class="cls-2" d="M25,23.31H24.2V20.46a1.63,1.63,0,1,0-3.25,0v2.85h-.82V20.46a2.45,2.45,0,0,1,4.89,0Z"/>
      <path class="cls-2" d="M27.46,23.31h-.81V20.46a4.07,4.07,0,0,0-8.14,0v2.85h-.82V20.46a4.89,4.89,0,1,1,9.77,0Z"/>
    </g>
  </g>
  <rect class="cls-1" x="12.67" y="21.84" width="1.03" height="1.03"/>
  <rect class="cls-2" x="10.61" y="21.84" width="1.03" height="1.03"/>
  <rect class="cls-1" x="12.67" y="23.9" width="1.03" height="1.03"/>
  <rect class="cls-1" x="10.61" y="23.9" width="1.03" height="1.03"/>
  <rect class="cls-1" x="12.67" y="25.96" width="1.03" height="1.03"/>
  <rect class="cls-2" x="8.55" y="21.84" width="1.03" height="1.03"/>
  <rect class="cls-1" x="31.32" y="21.84" width="1.03" height="1.03"/>
  <rect class="cls-2" x="33.38" y="21.84" width="1.03" height="1.03"/>
  <rect class="cls-1" x="31.32" y="23.9" width="1.03" height="1.03"/>
  <rect class="cls-1" x="33.38" y="23.9" width="1.03" height="1.03"/>
  <rect class="cls-1" x="31.32" y="25.96" width="1.03" height="1.03"/>
  <rect class="cls-2" x="35.44" y="21.84" width="1.03" height="1.03"/>
</svg>
