<?xml version="1.0" encoding="utf-8"?>
<!-- Generator: Adobe Illustrator 22.1.0, SVG Export Plug-In . SVG Version: 6.00 Build 0)  -->
<svg version="1.1" id="Layer_1" xmlns="http://www.w3.org/2000/svg" xmlns:xlink="http://www.w3.org/1999/xlink" x="0px" y="0px"
	 viewBox="0 0 45 45" style="enable-background:new 0 0 45 45;" xml:space="preserve">
<style type="text/css">
	.st0{fill:none;stroke:#585858;stroke-width:1.4;stroke-linecap:round;stroke-linejoin:round;stroke-miterlimit:10;}
	.st1{fill:#FFFFFF;}
	.st2{fill:#585858;}
	.st3{fill:#F58228;}
	.st4{fill:#59595B;}
	.st5{fill:#F58228;stroke:#F58228;stroke-width:0.5;stroke-miterlimit:10;}
	.st6{fill:#585858;stroke:#585858;stroke-width:0.5;stroke-miterlimit:10;}
	.st7{fill:#F58228;stroke:#F58228;stroke-width:0.2269;stroke-miterlimit:10;}
	.st8{fill:#585858;stroke:#FFFFFF;stroke-width:0.3256;stroke-miterlimit:10;}
	.st9{fill:#F58228;stroke:#FFFFFF;stroke-width:0.3256;stroke-miterlimit:10;}
	.st10{fill:#585858;stroke:#FFFFFF;stroke-width:0.5;stroke-miterlimit:10;}
	.st11{fill:none;stroke:#F58228;stroke-linecap:round;stroke-linejoin:round;stroke-miterlimit:22.9256;}
	.st12{fill:none;stroke:#585858;stroke-linecap:round;stroke-linejoin:round;stroke-miterlimit:22.9256;}
	.st13{fill:#585858;stroke:#FFFFFF;stroke-width:0.3454;stroke-miterlimit:10;}
	.st14{fill:#F58228;stroke:#FFFFFF;stroke-width:0.3454;stroke-miterlimit:10;}
	.st15{fill:#595A5C;}
	.st16{fill:none;stroke:#F58228;stroke-miterlimit:10;}
	.st17{fill:none;stroke:#FFFFFF;stroke-width:1.144;stroke-miterlimit:10;}
	.st18{fill:none;stroke:#FFFFFF;stroke-width:1.2222;stroke-miterlimit:10;}
	.st19{fill:none;stroke:#FFFFFF;stroke-width:1.2222;stroke-miterlimit:10;stroke-dasharray:1.3537,1.3537;}
	.st20{fill:none;stroke:#585858;stroke-width:1.144;stroke-miterlimit:10;}
	.st21{fill:none;stroke:#F58228;stroke-width:1.144;stroke-miterlimit:10;}
	.st22{fill:none;stroke:#585858;stroke-width:1.2222;stroke-miterlimit:10;}
	.st23{fill:none;stroke:#F58228;stroke-width:1.2222;stroke-miterlimit:10;}
	.st24{fill:none;stroke:#585858;stroke-width:1.2222;stroke-miterlimit:10;stroke-dasharray:1.3537,1.3537;}
</style>
<g>
	<path class="st2" d="M27.1,27.1C27.1,27.1,27.1,27.1,27.1,27.1L27.1,27.1L27.1,27.1z"/>
	<g>
		<g>
			<g>
				<path class="st2" d="M8.7,41.4c-0.5,0-0.9-0.2-1.3-0.5l-4.1-4.1c-0.7-0.7-0.7-1.9,0-2.7l9.1-9.1c0.3-0.3,0.8-0.3,1.1,0
					c0.3,0.3,0.3,0.8,0,1.1l-9.1,9.1c-0.1,0.1-0.2,0.4,0,0.5l4.1,4.1c0.1,0.1,0.3,0.1,0.5,0l9.1-9.1c0.3-0.3,0.8-0.3,1.1,0
					c0.3,0.3,0.3,0.8,0,1.1L10,40.8C9.6,41.2,9.2,41.4,8.7,41.4z"/>
			</g>
			<g>
				<path class="st2" d="M29.9,20.6c-0.2,0-0.4-0.1-0.5-0.2c-0.3-0.3-0.3-0.8,0-1.1l9.1-9.1c0.1-0.1,0.1-0.2,0.1-0.3
					c0-0.1,0-0.1-0.1-0.2l-4.1-4.1c-0.1-0.1-0.2-0.1-0.2-0.1c-0.1,0-0.2,0-0.3,0.1l-9.1,9.1c-0.3,0.3-0.8,0.3-1.1,0
					c-0.3-0.3-0.3-0.8,0-1.1l9.1-9.1C33.2,4.2,33.7,4,34.2,4c0.5,0,1,0.2,1.3,0.5l4.1,4.1c0.4,0.4,0.5,0.8,0.5,1.3
					c0,0.5-0.2,1-0.6,1.3l-9.1,9.1C30.3,20.5,30.1,20.6,29.9,20.6z"/>
			</g>
		</g>
		<g>
			<path class="st2" d="M29.2,32.8C29.2,32.8,29.2,32.8,29.2,32.8c-0.3,0-0.6-0.1-0.9-0.4l-1.9-1.9l-1.3,1.3c-0.4,0.4-1,0.7-1.6,0.7
				c-0.6,0-1.2-0.2-1.6-0.7l-10-10c-0.4-0.4-0.7-1-0.7-1.6c0-0.6,0.2-1.2,0.7-1.6l5.4-5.4c0.4-0.4,1-0.7,1.6-0.7
				c0.6,0,1.2,0.2,1.6,0.7l10,10c0.4,0.4,0.7,1,0.7,1.6c0,0.6-0.2,1.2-0.7,1.6l-1.3,1.3l1.6,1.6c0.3,0.3,0.4,0.7,0.4,1.2
				c0,0.6-0.2,1.1-0.6,1.5l0,0C30.3,32.3,29.8,32.8,29.2,32.8z M26.4,28.6c0.2,0,0.4,0.1,0.5,0.2l2.3,2.3c0.1-0.1,0.2-0.2,0.3-0.3
				l0.1-0.1c0.1-0.1,0.2-0.4,0.2-0.5l-2.1-2.1c-0.3-0.3-0.3-0.8,0-1.1l1.8-1.8c0.1-0.1,0.2-0.3,0.2-0.5s-0.1-0.3-0.2-0.5l-10-10
				c-0.3-0.3-0.7-0.3-1,0l-5.4,5.4c-0.1,0.1-0.2,0.3-0.2,0.5c0,0.2,0.1,0.3,0.2,0.5l10,10c0.3,0.3,0.7,0.3,1,0l1.8-1.8
				C26,28.7,26.2,28.6,26.4,28.6z"/>
		</g>
		<g>
			<path class="st3" d="M29.9,37.4c-0.4,0-0.9,0-1.3-0.1c-0.4-0.1-0.7-0.5-0.6-0.9c0.1-0.4,0.5-0.7,0.9-0.6c1.6,0.3,3.2-0.2,4.3-1.3
				c1.1-1.1,1.6-2.7,1.3-4.3c-0.1-0.4,0.2-0.8,0.6-0.9c0.4-0.1,0.8,0.2,0.9,0.6c0.4,2.1-0.2,4.2-1.7,5.7
				C33.1,36.7,31.6,37.4,29.9,37.4z"/>
		</g>
		<g>
			<path class="st3" d="M30.1,42.1c-0.4,0-0.8-0.3-0.8-0.8c0-0.4,0.3-0.8,0.8-0.8c2.5,0,4.8-1,6.5-2.7c1.7-1.7,2.7-4,2.7-6.5
				c0-0.4,0.4-0.8,0.8-0.8c0.4,0,0.8,0.4,0.8,0.8c0,2.9-1.2,5.6-3.2,7.6C35.7,40.9,33,42.1,30.1,42.1C30.1,42.1,30.1,42.1,30.1,42.1
				z"/>
		</g>
	</g>
</g>
</svg>
