<svg id="Layer_1" data-name="Layer 1" xmlns="http://www.w3.org/2000/svg" viewBox="0 0 45 45">
  <defs>
    <style>
      .cls-1 {
        fill: #fff;
      }
    </style>
  </defs>
  <title>compliance-w</title>
  <g>
    <path class="cls-1" d="M31,28l-5-5,2.62-2.62L31,22.8l5.34-5.33L39,20.08Zm-3.31-5L31,26.36l6.28-6.28-.94-.94L31,24.48l-2.37-2.37Z"/>
    <path class="cls-1" d="M31,32a8.31,8.31,0,0,1,0-16.61,8.13,8.13,0,0,1,3.2.64l-.46,1.09a7.12,7.12,0,1,0,4.38,6.57h1.19A8.32,8.32,0,0,1,31,32Z"/>
    <g>
      <path class="cls-1" d="M30.76,14.13H31l.75,0V11.06a.51.51,0,0,0-.15-.36L27.54,6.61a.55.55,0,0,0-.36-.15H8.78A.51.51,0,0,0,8.27,7V38.67a.51.51,0,0,0,.51.51H31.27a.51.51,0,0,0,.51-.51V33.14l-.75,0h-.27v5H9.29V7.49H27l.72.72L30,10.55l.73.73Z"/>
      <rect class="cls-1" x="10.89" y="15.15" width="5.11" height="1.02"/>
      <rect class="cls-1" x="10.89" y="17.2" width="8.18" height="1.02"/>
      <polygon class="cls-1" points="21.79 21.29 10.89 21.29 10.89 20.27 22.12 20.27 21.79 21.29"/>
      <rect class="cls-1" x="10.89" y="22.31" width="4.09" height="1.02"/>
      <path class="cls-1" d="M21.91,26.4h-11v-1H21.66A8.44,8.44,0,0,0,21.91,26.4Z"/>
      <rect class="cls-1" x="10.89" y="27.42" width="6.13" height="1.02"/>
      <rect class="cls-1" x="10.89" y="30.49" width="7.16" height="1.02"/>
      <rect class="cls-1" x="10.89" y="32.53" width="11.25" height="1.02"/>
      <path class="cls-1" d="M21.6,22.31a8.41,8.41,0,0,0-.09,1H16v-1Z"/>
      <rect class="cls-1" x="17.02" y="15.15" width="5.11" height="1.02"/>
      <rect class="cls-1" x="19.07" y="30.49" width="3.07" height="1.02"/>
      <path class="cls-1" d="M31.27,11.58H27.18a.51.51,0,0,1-.51-.52V7h1v3.57h3.58Z"/>
      <rect class="cls-1" x="11.33" y="8.51" width="1.02" height="1.02"/>
      <rect class="cls-1" x="13.38" y="8.51" width="1.02" height="1.02"/>
      <rect class="cls-1" x="15.42" y="8.51" width="1.02" height="1.02"/>
      <rect class="cls-1" x="11.33" y="10.55" width="13.29" height="1.02"/>
    </g>
    <path class="cls-1" d="M22.12,20.27a8.67,8.67,0,0,0-.33,1"/>
  </g>
</svg>
