<?xml version="1.0" encoding="utf-8"?>
<!-- Generator: Adobe Illustrator 22.1.0, SVG Export Plug-In . SVG Version: 6.00 Build 0)  -->
<svg version="1.1" id="Layer_1" xmlns="http://www.w3.org/2000/svg" xmlns:xlink="http://www.w3.org/1999/xlink" x="0px" y="0px"
	 viewBox="0 0 45 45" style="enable-background:new 0 0 45 45;" xml:space="preserve">
<style type="text/css">
	.st0{fill:#FFFFFF;}
</style>
<g id="Innovation_1_">
	<g>
		<g>
			<polygon class="st0" points="22.6,10.8 26.5,10.8 23.5,16.5 24.8,16.5 19.8,24.3 22,16.7 20.3,16.7 			"/>
		</g>
		<g>
			<g>
				<path class="st0" d="M25.7,6.7c-1,1-4,1.1-5.6,0.5C19,6.7,18.9,6,18.9,5.7c0-0.1,0-0.2,0.1-0.3c0.9-1.3,1.9-2.5,3.1-3.5
					c0.2-0.2,0.5-0.2,0.7,0C24,3,25.1,4.2,26,5.5c0.1,0.1,0.1,0.2,0.1,0.3C26.1,6.1,26,6.4,25.7,6.7 M20,5.8
					c0.1,0.1,0.3,0.2,0.5,0.3c1.3,0.5,3.8,0.4,4.4-0.3c0,0,0,0,0.1-0.1c-0.7-1-1.5-1.9-2.5-2.8c-0.2,0.2-0.3,0.3-0.5,0.5
					C21.3,4.2,20.6,5,20,5.8"/>
			</g>
			<g>
				<path class="st0" d="M25.9,28.6h-0.1c-0.3-0.1-0.4-0.3-0.4-0.5c-0.1-0.2-1.1-0.6-2.7-0.6c-1.7,0-2.7,0.4-2.8,0.6
					c0,0.3-0.2,0.5-0.4,0.5c-0.3,0.1-0.5-0.1-0.6-0.3c-0.2-0.4-0.3-0.8-0.5-1.1c-0.7-1.7-1.2-3.4-1.6-4.9C15.1,15.5,15.9,9.9,19,5.4
					c0.1-0.2,0.4-0.3,0.6-0.2c0.2,0,0.4,0.2,0.4,0.5C20,5.8,20.2,6,20.3,6c1,0.6,3.5,0.6,4.4,0C24.8,6,25,5.8,25,5.7
					c0-0.2,0.2-0.5,0.4-0.5c0.2-0.1,0.5,0,0.6,0.2c3.1,4.5,3.9,10.2,2.3,16.8c-0.4,1.6-0.9,3.2-1.5,4.9c-0.1,0.4-0.3,0.7-0.4,1.1
					C26.3,28.4,26.1,28.6,25.9,28.6z M22.5,26.3c1.2,0,2.5,0.2,3.2,0.6l0,0c0-0.1,0.1-0.1,0.1-0.2c0.6-1.6,1.1-3.2,1.5-4.8
					c1.4-5.9,0.8-11.1-1.7-15.2c-0.1,0.1-0.2,0.2-0.3,0.2c-1.3,0.8-4.2,0.8-5.5,0c-0.1-0.1-0.2-0.2-0.3-0.2
					c-2.5,4.1-3.1,9.2-1.6,15.1c0.4,1.5,0.9,3.1,1.5,4.8c0,0.1,0.1,0.2,0.1,0.3l0,0C20.1,26.5,21.3,26.3,22.5,26.3z"/>
			</g>
			<g>
				<path class="st0" d="M25.7,30.7c-0.1,0.1-0.2,0.2-0.4,0.2h-5.6c-0.3,0-0.5-0.2-0.5-0.4l-0.6-2.4V28c0-0.2,0.1-0.5,0.3-0.8
					c1.1-1.1,4.8-1.1,6.3-0.4c0.9,0.4,1.1,0.9,1.1,1.2v0.1l-0.5,2.4C25.9,30.6,25.8,30.7,25.7,30.7 M20.2,29.8h4.7l0.4-1.8
					c-0.1-0.1-0.4-0.3-1.2-0.4c-1.8-0.3-3.9-0.1-4.4,0.4l0,0L20.2,29.8z"/>
			</g>
			<g>
				<path class="st0" d="M13.5,35.1c-0.1,0.1-0.2,0.2-0.4,0.2s-0.5-0.2-0.5-0.4c-1.6-4.9-1-8.7,1.9-11.5c0.7-0.7,1.6-1.4,2.5-1.9
					c0.1-0.1,0.3-0.1,0.5,0s0.3,0.2,0.3,0.4c0.4,1.5,0.9,3.1,1.5,4.8c0.1,0.1,0,0.3,0,0.4c-0.1,0.1-0.2,0.2-0.3,0.3
					c-0.9,0.4-1.7,0.9-2.4,1.5c-1.6,1.6-2.4,3.9-3,6C13.6,35,13.5,35.1,13.5,35.1 M15.2,24.2c-2.2,2.2-2.9,4.9-2.1,8.6
					c0.6-1.7,1.4-3.4,2.7-4.7c0.7-0.7,1.4-1.2,2.3-1.6c-0.5-1.3-0.9-2.5-1.2-3.7C16.3,23.3,15.7,23.7,15.2,24.2"/>
			</g>
			<g>
				<path class="st0" d="M32.3,35.2c-0.1,0.1-0.2,0.2-0.4,0.2c-0.2,0-0.5-0.2-0.5-0.4c-0.9-3.1-2.1-6.3-5.3-7.5
					c-0.3-0.1-0.4-0.4-0.3-0.7c0.6-1.6,1.1-3.2,1.5-4.8c0-0.2,0.2-0.3,0.3-0.4c0.2-0.1,0.3-0.1,0.5,0c4.8,3,6.3,7.3,4.4,13.4
					C32.4,35.1,32.4,35.1,32.3,35.2 M27,26.6c2.7,1.3,4,3.7,4.9,6.2c0.9-4.4-0.3-7.6-3.7-9.9C27.9,24.2,27.5,25.4,27,26.6"/>
			</g>
			<g>
				<path class="st0" d="M23,43.1c-0.1,0.1-0.2,0.2-0.4,0.2c-0.1,0-0.3,0-0.4-0.1c-2.6-2.4-3.7-6-3.3-10.7c0-0.2,0.2-0.4,0.4-0.5
					c0.2,0,0.5,0.1,0.6,0.3c0.9,1.9,2,3.6,2.4,3.9c0,0,0,0,0.1-0.1c0.7-0.7,1.9-3.2,2.3-4c0.1-0.2,0.3-0.4,0.6-0.3
					c0.2,0,0.4,0.2,0.5,0.5C26.3,36.7,25.3,40.4,23,43.1L23,43.1 M20,34.5c0,3.1,0.9,5.6,2.6,7.4c1.5-2,2.3-4.5,2.3-7.5
					c-0.5,0.9-1.1,1.9-1.6,2.4l0,0c-0.2,0.2-0.5,0.4-0.8,0.4c-0.5,0-1.1-0.4-2.3-2.4C20.1,34.8,20,34.6,20,34.5"/>
			</g>
			<g>
				<path class="st0" d="M16.9,38.1c-0.1,0.1-0.2,0.2-0.4,0.2c-0.3,0-0.5-0.2-0.5-0.5v-2c0-0.3,0.2-0.5,0.5-0.5s0.5,0.2,0.5,0.5v2
					C17.1,37.9,17,38,16.9,38.1"/>
			</g>
			<g>
				<path class="st0" d="M13.5,39.5c-0.1,0.1-0.2,0.2-0.4,0.2c-0.3,0-0.5-0.2-0.5-0.5v-2.6c0-0.3,0.2-0.5,0.5-0.5s0.5,0.2,0.5,0.5
					v2.6C13.7,39.3,13.6,39.4,13.5,39.5"/>
			</g>
			<g>
				<path class="st0" d="M31.1,40c-0.1,0.1-0.2,0.2-0.4,0.2c-0.3,0-0.5-0.2-0.5-0.5v-2.6c0-0.3,0.2-0.5,0.5-0.5s0.5,0.2,0.5,0.5v2.6
					C31.3,39.8,31.2,39.9,31.1,40"/>
			</g>
			<g>
				<path class="st0" d="M29.2,36.6c-0.1,0.1-0.2,0.2-0.4,0.2c-0.3,0-0.5-0.2-0.5-0.5V33c0-0.3,0.2-0.5,0.5-0.5s0.5,0.2,0.5,0.5v3.3
					C29.3,36.3,29.3,36.5,29.2,36.6"/>
			</g>
			<g>
				<path class="st0" d="M17.7,33.4c-0.1,0.1-0.2,0.2-0.4,0.2c-0.3,0-0.5-0.2-0.5-0.5v-3.3c0-0.3,0.2-0.5,0.5-0.5s0.5,0.2,0.5,0.5
					v3.3C17.9,33.1,17.8,33.3,17.7,33.4"/>
			</g>
		</g>
	</g>
</g>
</svg>
