<svg id="Layer_1" data-name="Layer 1" xmlns="http://www.w3.org/2000/svg" viewBox="0 0 45 45">
  <defs>
    <style>
      .cls-1 {
        fill: #fff;
      }
    </style>
  </defs>
  <title>CPG wh</title>
  <g>
    <path class="cls-1" d="M38.75,20.73a12.79,12.79,0,0,0-3.21-4.15A15.88,15.88,0,0,0,25,12.78a16.52,16.52,0,0,0-5,.75,7,7,0,0,1,.83-2.36,3.39,3.39,0,0,1,.88-1.06.52.52,0,0,0,.27-.47V9.05h5.83v0h.83a.3.3,0,0,0,.17-.27V8.52L21,8.55v.82c-.6.5-2.1,2.15-2.18,6.13v2l0,.1c.22.52.41,1,.58,1.51l.49,1.34V15.5c0-.25,0-.51,0-.79A15.79,15.79,0,0,1,25,13.87c7.61,0,13.81,5.37,13.81,12s-6.2,12-13.81,12a16,16,0,0,1-3.46-.38l-.23,0-.27-.07,0,.27c0,.2-.07.39-.1.57l-.06.24.24,0,.24.05A16,16,0,0,0,25,38.9a15.88,15.88,0,0,0,10.5-3.8A12.79,12.79,0,0,0,38.75,31a11.57,11.57,0,0,0,0-10.22ZM20.51,39.55l-.11.3a3.5,3.5,0,0,1-.23.5l-.11.21.2.12.22.13a5,5,0,0,0,.48-1l-.18-.11Z"/>
    <path class="cls-1" d="M40.32,33.25a.17.17,0,0,0,0-.07A19.33,19.33,0,0,0,41,22.73a17.21,17.21,0,0,0-3.55-7.37A22.81,22.81,0,0,0,29,9.12v-.6h-.08V8.8a.3.3,0,0,1-.17.27h-.83v.4a.54.54,0,0,0,.32.5c6.51,2.87,10.45,7.24,11.71,13a18.13,18.13,0,0,1-.65,9.91c-1,2.33-2.19,6.18-2.59,7.44l0,.16-.15,0a26.06,26.06,0,0,1-6.75.69h-.17a26.14,26.14,0,0,1-6.92-.69A6.6,6.6,0,0,1,21,39.83a5,5,0,0,1-.48,1c1.74,1,4.72,1.48,8.88,1.48h.39c6.89,0,9.32-1.38,10.15-2.55a2,2,0,0,0,.42-1.32Zm-1.2,6.14a4.1,4.1,0,0,1-1.6,1c.33-1.06,1.16-3.67,2-5.81v3.86h0A1.18,1.18,0,0,1,39.12,39.39Z"/>
  </g>
  <g>
    <path class="cls-1" d="M17.09,14.29v0H12.52l-.22-.12,5,0Z"/>
    <path class="cls-1" d="M7.39,32.76H7.14l.24-.08v0A0,0,0,0,1,7.39,32.76Z"/>
    <polygon class="cls-1" points="7.38 32.57 7.38 32.68 7.13 32.69 7.13 32.63 7.38 32.57"/>
    <path class="cls-1" d="M21.52,25a34.55,34.55,0,0,0-1.63-5.74c-.33-.9-.7-1.8-1.09-2.68s-.82-1.73-1.27-2.55l0,0-.18.1-.07,0h0l-.14.08v0H12.52l-.09-.05h0l-.12-.07-.22-.12-.05.09,0,0c-.35.64-.93,1.71-.24,2.31a1.53,1.53,0,0,1,.37,1.09,1.29,1.29,0,0,0,.19,1.4.79.79,0,0,1,.15.31,1,1,0,0,1-.06.53,1.36,1.36,0,0,0,.32,1.68.3.3,0,0,1,.07.2,1.5,1.5,0,0,1-.48.93c-.09.1-1.65,1.51-3.05,2.78l-.78.7A4.69,4.69,0,0,0,7.1,30.2v1.62l0,.73v.08l.25-.06v.16a0,0,0,0,1,0,0H7.14v.08l0,.76,0,.69,0,.59.05.57,0,.26a18.34,18.34,0,0,0,.79,3.95c.49,1.36,1.16,2.11,1.95,2.23a12.33,12.33,0,0,0,3,.51l.38,0,.42,0h.75A13.56,13.56,0,0,0,19,41.9a2.11,2.11,0,0,0,1.45-1.09,5,5,0,0,0,.48-1,1.22,1.22,0,0,0,.07-.17,12,12,0,0,0,.33-1.17c.08-.33.16-.68.22-1.06s.16-1,.22-1.49c0-.12,0-.24,0-.38s0-.28,0-.31S22,34.13,22,34a1.94,1.94,0,0,0,0-.24s0-.06,0-.09,0-.12,0-.19,0-.08,0-.12,0-.35,0-.53,0-.32,0-.47a.09.09,0,0,0,0-.07.17.17,0,0,0,0-.07V32a.22.22,0,0,0,0-.08.14.14,0,0,0,0-.09.33.33,0,0,0,0-.14.22.22,0,0,0,0-.08V31.1h0v-.91A30.77,30.77,0,0,0,21.52,25Zm-2.63,16.1-.06,0h0a9.3,9.3,0,0,1-1.75.38l-.52.06-.34,0-.36,0-.47,0-.76,0a19.53,19.53,0,0,1-2.25-.13l-.35,0a9.4,9.4,0,0,1-.95-.17l-.13,0-.12,0-.33-.08-.15,0-.06,0c-.51-.06-1-.59-1.32-1.53a1.74,1.74,0,0,0,.55.16,18.59,18.59,0,0,0,5.12.55,17.47,17.47,0,0,0,5-.55,1.68,1.68,0,0,0,.54-.16C19.85,40.53,19.4,41.06,18.89,41.12Zm2.24-6.38h0a.45.45,0,0,0,0,.11,0,0,0,0,1,0,0v.18a.09.09,0,0,1,0,0v.05s0,0,0,.07v.06a.06.06,0,0,0,0,0v0a.07.07,0,0,1,0,.05v.08a.13.13,0,0,0,0,.06.89.89,0,0,1,0,.15.17.17,0,0,1,0,.07v.08a.22.22,0,0,0,0,.08A.15.15,0,0,0,21,36a.22.22,0,0,0,0,.08.2.2,0,0,0,0,.07.28.28,0,0,0,0,.09.17.17,0,0,0,0,.07.22.22,0,0,0,0,.08.17.17,0,0,0,0,.07,1269342249783.79,1269342249783.79,0,0,0,0,.14.22.22,0,0,0,0,.08.13.13,0,0,0,0,.06v0s0,0,0,0v.06s0,.06,0,.09a.11.11,0,0,1,0,.05v0h0v0a.43.43,0,0,1,0,0s0,.06,0,.09a.06.06,0,0,0,0,0s0,.06,0,.1a.08.08,0,0,1,0,0v0a.09.09,0,0,0,0,.05v0a.36.36,0,0,1,0,.1v0a.43.43,0,0,0,0,.11v0a.36.36,0,0,1,0,.1v0l0,.11c0,.07,0,.14,0,.21l-.12.47,0,0a1.48,1.48,0,0,1-.9.49h-.06a16.74,16.74,0,0,1-4.89.53,17.77,17.77,0,0,1-5-.53H9.59a1.47,1.47,0,0,1-.91-.5h0a20.92,20.92,0,0,1-.54-3.09.13.13,0,0,0,0-.06V35.5a1.49,1.49,0,0,1,0-.21C8,34,7.91,32.71,7.89,31.76v-.42h0c0-.1,0-.2,0-.29h0v-.35a4,4,0,0,1,0-.49s0,0,0,0A4,4,0,0,1,9,26.7c.37-.35.76-.69.76-.7.28-.24,2.51-2.26,3-2.72a8.43,8.43,0,0,1,3.7,1.23C19.08,26.1,20.71,29,21.22,33a.14.14,0,0,0,0,.07C21.21,33.59,21.18,34.16,21.13,34.74Zm.16-4.55v.38a12.54,12.54,0,0,0-1.49-3.49,9.3,9.3,0,0,0-3-3,9,9,0,0,0-3.53-1.26,2,2,0,0,0,.37-1.09,1,1,0,0,0-.33-.75.59.59,0,0,1-.17-.73v0a1.73,1.73,0,0,0,.16-1,1.39,1.39,0,0,0-.29-.65c-.17-.27-.26-.4-.1-.69a.18.18,0,0,0,0-.1,2.36,2.36,0,0,0-.59-1.83h0c-.29-.25-.07-.89.19-1.37h4.56a36.21,36.21,0,0,1,3.68,10.59,30.48,30.48,0,0,1,.55,5Z"/>
    <path class="cls-1" d="M7.38,32.73v-.16l-.25.06v.13h.25A0,0,0,0,0,7.38,32.73Z"/>
    <path class="cls-1" d="M17.26,15.7A.27.27,0,0,1,17,16H13.78a.27.27,0,0,1,0-.54H17A.27.27,0,0,1,17.26,15.7Z"/>
    <path class="cls-1" d="M17.77,16.83a.27.27,0,0,1-.26.27H14.22a.27.27,0,0,1,0-.54h3.29A.27.27,0,0,1,17.77,16.83Z"/>
    <path class="cls-1" d="M18.29,18a.27.27,0,0,1-.27.27H14.59a.27.27,0,1,1,0-.54H18A.27.27,0,0,1,18.29,18Z"/>
    <path class="cls-1" d="M18.69,19.09a.27.27,0,0,1-.27.27H15.1a.27.27,0,0,1,0-.54h3.32A.27.27,0,0,1,18.69,19.09Z"/>
  </g>
  <path class="cls-1" d="M19.39,6.43a8.06,8.06,0,0,0-3.81-1.56H7.71a.37.37,0,0,0-.36-.31.37.37,0,0,0-.36.3L5.43,5a.27.27,0,0,0-.24.27v2a.27.27,0,0,0,.24.27L7,7.8H7a.36.36,0,0,0,.36.36.37.37,0,0,0,.37-.32h.94L8.87,8A3,3,0,0,0,8.4,10.2a6.52,6.52,0,0,1-.94,3.62.25.25,0,0,0,0,.07.85.85,0,0,0,.36,1,.31.31,0,0,0,.16,0,.35.35,0,0,0,.18,0A5.32,5.32,0,0,0,9.4,13.14a10,10,0,0,0,.92-2.08c.07-.4.15-.49.22-.52a.93.93,0,0,1,.5,0c.12.29.47.63,1.28.63h.22a1.19,1.19,0,0,0-.51,1v2.15h.39l4.81,0h.26v-2.1A1.19,1.19,0,0,0,16.6,11a4.91,4.91,0,0,1,2.72-4.08.29.29,0,0,0,.16-.2A.29.29,0,0,0,19.39,6.43ZM7.08,7.26,5.72,7.11V5.55L7.08,5.4Zm5.24,3.34c-.6,0-.78-.22-.79-.36a.25.25,0,0,0-.25-.26C10.4,9.9,10,10,9.79,11a9.4,9.4,0,0,1-.86,1.93,6.6,6.6,0,0,1-1,1.46.55.55,0,0,1,0-.28,6.82,6.82,0,0,0,1-3.92,2.38,2.38,0,0,1,.38-1.88l3.13,2a1.28,1.28,0,0,1,.31.35ZM13.41,14V11.47h.27V14Zm.81,0V11.47h.27V14ZM15,14V11.47h.27V14Zm.8,0V11.47h.27V14Zm-2.95,0h-.32V12.11a.64.64,0,0,1,.32-.55Zm3.76-2.43a.63.63,0,0,1,.31.55V14h-.31Zm-.3-2.31A6.28,6.28,0,0,0,16,10.82H13.57c0-.06,0-.12-.05-.17a2.22,2.22,0,0,0-.68-.93L8.94,7.26a.36.36,0,0,0-.2-.06l-1.1,0V5.49l7.84,0a9.33,9.33,0,0,1,3,1.06A5.16,5.16,0,0,0,16.34,9.25Z"/>
  <path class="cls-1" d="M27.63,5.5V3.36A1.34,1.34,0,0,0,26.29,2H23.57a1.34,1.34,0,0,0-1.34,1.34V5.5A1.33,1.33,0,0,0,21,6.83v2a.29.29,0,0,0,.25.29h.83l5.83,0h.83a.3.3,0,0,0,.17-.27v-2A1.34,1.34,0,0,0,27.63,5.5ZM22.82,3.36a.75.75,0,0,1,.75-.75h2.72a.75.75,0,0,1,.76.75V5.45H22.82ZM21.56,6.83a.76.76,0,0,1,.76-.75h5.23a.76.76,0,0,1,.75.75V8.38H21.56Z"/>
  <path class="cls-1" d="M37.76,23.63A7.78,7.78,0,0,0,37,21.71a10,10,0,0,0-2.72-3.21A2.18,2.18,0,0,0,33,18a1.66,1.66,0,0,0-1,.35c-.83.65-.48,1.87.22,2.78,1.8,2.33,1.91,5.69,1.81,7.51a4.41,4.41,0,0,0,0,1c.14,1.2.85,1.45,1.14,1.49a1.16,1.16,0,0,0,.31,0,1.7,1.7,0,0,0,1.26-.57,2.22,2.22,0,0,0,.41-.63A10.22,10.22,0,0,0,38,25.84,9.36,9.36,0,0,0,37.76,23.63Zm-1.39,6s0,0,0,0-.29.7-.9.7l-.16,0c-.64-.11-.43-1.57-.43-1.59v0c.11-1.91,0-5.51-2-8a2.62,2.62,0,0,1-.53-1.23.44.44,0,0,1,.16-.38.81.81,0,0,1,.51-.18,1.37,1.37,0,0,1,.75.28h0a9.29,9.29,0,0,1,2.51,3A7.47,7.47,0,0,1,37,23.82a8.87,8.87,0,0,1,.23,2A9.39,9.39,0,0,1,36.37,29.63Z"/>
</svg>
