<?xml version="1.0" encoding="utf-8"?>
<!-- Generator: Adobe Illustrator 22.1.0, SVG Export Plug-In . SVG Version: 6.00 Build 0)  -->
<svg version="1.1" id="Layer_1" xmlns="http://www.w3.org/2000/svg" xmlns:xlink="http://www.w3.org/1999/xlink" x="0px" y="0px"
	 viewBox="0 0 45 45" style="enable-background:new 0 0 45 45;" xml:space="preserve">
<style type="text/css">
	.st0{fill:#585858;}
	.st1{fill:#F58228;}
</style>
<title>CPG</title>
<g>
	<path class="st0" d="M38.8,20.7c-0.8-1.6-1.9-3-3.2-4.1c-2.9-2.5-6.7-3.9-10.5-3.8c-1.7,0-3.4,0.2-5,0.8c0.1-0.8,0.4-1.6,0.8-2.4
		c0.2-0.4,0.5-0.8,0.9-1.1C21.9,10,22,9.8,22,9.6V9.1h5.8l0,0h0.8c0.1,0,0.2-0.2,0.2-0.3V8.5l-7.8,0v0.8c-0.6,0.5-2.1,2.2-2.2,6.1v2
		v0.1c0.2,0.5,0.4,1,0.6,1.5l0.5,1.3v-5c0-0.2,0-0.5,0-0.8c1.6-0.6,3.4-0.8,5.1-0.8c7.6,0,13.8,5.4,13.8,12s-6.2,12-13.8,12
		c-1.2,0-2.3-0.1-3.5-0.4h-0.2L21,37.4v0.3c0,0.2-0.1,0.4-0.1,0.6l-0.1,0.2h0.2l0.2,0c1.2,0.3,2.4,0.4,3.6,0.4
		c3.8,0,7.6-1.3,10.5-3.8c1.4-1.1,2.5-2.5,3.2-4.1C40.3,27.8,40.3,24,38.8,20.7L38.8,20.7z M20.5,39.5l-0.1,0.3
		c-0.1,0.2-0.1,0.3-0.2,0.5l-0.1,0.2l0.2,0.1l0.2,0.1c0.2-0.3,0.4-0.6,0.5-1l-0.2-0.1L20.5,39.5z"/>
	<path class="st0" d="M40.3,33.2C40.3,33.2,40.3,33.2,40.3,33.2c1.2-3.4,1.4-7,0.7-10.5c-0.6-2.7-1.8-5.2-3.5-7.4
		c-2.3-2.7-5.2-4.8-8.5-6.2V8.5h-0.1v0.3c0,0.1-0.1,0.2-0.2,0.3h-0.8v0.4c0,0.2,0.1,0.4,0.3,0.5c6.5,2.9,10.4,7.2,11.7,13
		c0.7,3.3,0.5,6.7-0.7,9.9c-1,2.3-2.2,6.2-2.6,7.4v0.2h-0.2c-2.2,0.5-4.5,0.8-6.8,0.7h-0.2c-2.3,0.1-4.7-0.2-6.9-0.7
		c-0.6-0.1-1.2-0.4-1.7-0.6c-0.1,0.4-0.3,0.7-0.5,1c1.7,1,4.7,1.5,8.9,1.5h0.4c6.9,0,9.3-1.4,10.2-2.5c0.3-0.4,0.4-0.8,0.4-1.3
		L40.3,33.2z M39.1,39.4c-0.4,0.5-1,0.8-1.6,1c0.3-1.1,1.2-3.7,2-5.8v3.9l0,0C39.5,38.8,39.4,39.2,39.1,39.4z"/>
</g>
<g>
	<path class="st0" d="M17.1,14.3L17.1,14.3h-4.6l-0.2-0.1h5L17.1,14.3z"/>
	<path class="st0" d="M21.5,25c-0.4-2-0.9-3.9-1.6-5.7c-0.3-0.9-0.7-1.8-1.1-2.7S18,14.9,17.5,14l0,0l-0.2,0.1h-0.1l0,0l-0.1,0.1
		l0,0h-4.6l-0.1-0.1l0,0l-0.1-0.1L12.1,14L12,14.1l0,0c-0.4,0.6-0.9,1.7-0.2,2.3c0.3,0.3,0.4,0.7,0.4,1.1c-0.2,0.5-0.1,1,0.2,1.4
		c0.1,0.1,0.1,0.2,0.1,0.3c0,0.2,0,0.4-0.1,0.5c-0.3,0.6-0.2,1.3,0.3,1.7c0,0.1,0.1,0.1,0.1,0.2c0,0.4-0.2,0.7-0.5,0.9
		c-0.1,0.1-1.6,1.5-3.1,2.8L8.5,26c-1.2,1.1-1.7,2.7-1.4,4.2v1.6v0.7v0.1l0,0.1v0.1v0.8v0.7v0.6l0.1,0.6v0.3c0.1,1.3,0.4,2.7,0.8,4
		c0.5,1.4,1.2,2.1,2,2.2c1,0.3,2,0.5,3,0.5h0.4h0.4h0.8c1.5,0.1,3.1-0.1,4.5-0.5c0.6-0.1,1.2-0.5,1.5-1.1c0.2-0.3,0.4-0.6,0.5-1
		c0-0.1,0.1-0.1,0.1-0.2c0.1-0.4,0.2-0.8,0.3-1.2c0.1-0.3,0.2-0.7,0.2-1.1s0.2-1,0.2-1.5c0-0.1,0-0.2,0-0.4s0-0.3,0-0.3
		S22,34.1,22,34c0-0.1,0-0.2,0-0.2c0,0,0-0.1,0-0.1s0-0.1,0-0.2s0-0.1,0-0.1s0-0.3,0-0.5s0-0.3,0-0.5c0,0,0,0,0-0.1c0,0,0,0,0-0.1
		V32c0,0,0-0.1,0-0.1c0,0,0-0.1,0-0.1c0,0,0-0.1,0-0.1c0,0,0-0.1,0-0.1v-0.5l0,0v-0.9C22,28.4,21.8,26.7,21.5,25z M18.9,41.1
		L18.9,41.1L18.9,41.1c-0.6,0.2-1.2,0.3-1.8,0.4l-0.5,0.1h-0.3h-0.4h-0.5h-0.8c-0.8,0-1.5,0-2.2-0.1H12c-0.3,0-0.6-0.1-0.9-0.2h-0.1
		h-0.1l-0.3-0.1h-0.1h-0.1c-0.5-0.1-1-0.6-1.3-1.5c0.2,0.1,0.4,0.1,0.6,0.2c1.7,0.4,3.4,0.6,5.1,0.5c1.7,0.1,3.4-0.1,5-0.5
		c0.2,0,0.4-0.1,0.5-0.2C19.9,40.5,19.4,41.1,18.9,41.1L18.9,41.1z M21,36.6C21,36.6,21,36.7,21,36.6c0,0.1,0,0.1,0,0.1l0,0l0,0v0.1
		c0,0,0,0.1,0,0.1c0,0,0,0,0,0l0,0l0,0l0,0l0,0c0,0,0,0.1,0,0.1l0,0c0,0,0,0.1,0,0.1l0,0l0,0c0,0,0,0,0,0l0,0c0,0,0,0.1,0,0.1l0,0
		c0,0,0,0.1,0,0.1l0,0c0,0,0,0.1,0,0.1l0,0v0.1c0,0.1,0,0.1,0,0.2l-0.1,0.5l0,0c-0.2,0.3-0.6,0.4-0.9,0.5h-0.1
		c-1.6,0.4-3.2,0.6-4.9,0.5c-1.7,0.1-3.4-0.1-5-0.5H9.6c-0.4-0.1-0.7-0.2-0.9-0.5l0,0c-0.3-1-0.4-2-0.5-3.1c0,0,0,0,0-0.1v0.4
		c0-0.1,0-0.1,0-0.2C8,34,7.9,32.7,7.9,31.8v-0.4l0,0c0-0.1,0-0.2,0-0.3l0,0v-0.4c0-0.2,0-0.3,0-0.5l0,0c-0.2-1.3,0.2-2.6,1.1-3.5
		C9.4,26.4,9.8,26,9.8,26c0.3-0.2,2.5-2.3,3-2.7c1.3,0.1,2.6,0.5,3.7,1.2c2.6,1.6,4.2,4.5,4.8,8.5c0,0,0,0,0,0.1
		c0,0.5,0,1.1-0.1,1.7v0l0,0c0,0,0,0.1,0,0.1l0,0V35l0,0v0c0,0,0,0,0,0.1v0.1l0,0l0,0c0,0,0,0,0,0v0.1c0,0,0,0,0,0.1
		c0,0,0,0.1,0,0.2c0,0,0,0,0,0.1v0.1c0,0,0,0.1,0,0.1c-0.1,0-0.2,0.1-0.2,0.1c0,0,0,0.1,0,0.1c0,0,0,0.1,0,0.1c0,0,0,0,0,0.1
		c0,0,0,0.1,0,0.1c0,0,0,0,0,0.1c0,0,0,0.1,0,0.1c0,0,0,0,0,0.1 M21.3,30.2v0.4c-0.3-1.2-0.8-2.4-1.5-3.5c-0.8-1.2-1.8-2.2-3-3
		c-1.1-0.7-2.3-1.1-3.5-1.3c0.2-0.3,0.4-0.7,0.4-1.1c0-0.3-0.1-0.6-0.3-0.8c-0.2-0.2-0.3-0.5-0.2-0.7l0,0c0.2-0.3,0.2-0.7,0.2-1
		c0-0.2-0.1-0.5-0.3-0.6c-0.2-0.3-0.3-0.4-0.1-0.7c0,0,0-0.1,0-0.1c0.1-0.7-0.1-1.3-0.6-1.8l0,0c-0.3-0.2-0.1-0.9,0.2-1.4h4.6
		c1.8,3.3,3,6.9,3.7,10.6C21.1,26.8,21.3,28.5,21.3,30.2L21.3,30.2z"/>
	<path class="st0" d="M17.3,15.7c0,0.1-0.1,0.3-0.2,0.3c0,0,0,0,0,0h-3.2c-0.1,0-0.3-0.1-0.3-0.3c0-0.1,0.1-0.3,0.3-0.3H17
		C17.1,15.5,17.2,15.6,17.3,15.7z"/>
	<path class="st0" d="M17.8,16.8c0,0.1-0.1,0.3-0.3,0.3h-3.3c-0.1,0-0.3-0.1-0.3-0.3s0.1-0.3,0.3-0.3h3.3
		C17.7,16.6,17.8,16.7,17.8,16.8z"/>
	<path class="st0" d="M18.3,18c0,0.1-0.1,0.3-0.3,0.3l0,0h-3.4c-0.1,0-0.3-0.1-0.3-0.3s0.1-0.3,0.3-0.3H18
		C18.1,17.7,18.3,17.8,18.3,18C18.3,18,18.3,18,18.3,18z"/>
	<path class="st0" d="M18.7,19.1c0,0.1-0.1,0.3-0.3,0.3l0,0h-3.3c-0.1,0-0.3-0.1-0.3-0.3s0.1-0.3,0.3-0.3h3.3
		C18.6,18.8,18.7,18.9,18.7,19.1L18.7,19.1z"/>
</g>
<path class="st1" d="M19.4,6.4c-1.1-0.8-2.4-1.4-3.8-1.6H7.7c0-0.2-0.2-0.3-0.4-0.3C7.2,4.6,7,4.7,7,4.9L5.4,5
	C5.3,5,5.2,5.1,5.2,5.3v2c0,0.1,0.1,0.3,0.2,0.3L7,7.8l0,0C7,8,7.2,8.2,7.4,8.2c0.2,0,0.3-0.1,0.4-0.3h0.9L8.9,8
	c-0.4,0.6-0.6,1.4-0.5,2.2c0,1.3-0.3,2.5-0.9,3.6c0,0,0,0,0,0.1c-0.1,0.4,0,0.8,0.4,1c0.1,0,0.1,0,0.2,0c0.1,0,0.1,0,0.2,0
	c0.5-0.5,0.9-1.1,1.2-1.7c0.4-0.7,0.7-1.4,0.9-2.1c0.1-0.4,0.1-0.5,0.2-0.5c0.2,0,0.3,0,0.5,0c0.1,0.3,0.5,0.6,1.3,0.6h0.2
	c-0.3,0.2-0.5,0.6-0.5,1v2.2h0.4h4.8h0.3v-2.1c0-0.6-0.3-1.1-0.9-1.2c0.1-1.7,1.2-3.3,2.7-4.1c0.1,0,0.1-0.1,0.2-0.2
	C19.5,6.6,19.5,6.5,19.4,6.4z M7.1,7.3L5.7,7.1V5.6l1.4-0.2V7.3z M12.3,10.6c-0.6,0-0.8-0.2-0.8-0.4c0-0.1-0.1-0.3-0.2-0.3
	c0,0,0,0,0,0c-0.9-0.1-1.3,0-1.5,1c-0.2,0.7-0.5,1.3-0.9,1.9c-0.3,0.5-0.6,1-1,1.5c0-0.1,0-0.2,0-0.3c0.7-1.2,1.1-2.5,1-3.9
	c-0.1-0.7,0-1.3,0.4-1.9l3.1,2c0.1,0.1,0.2,0.2,0.3,0.4L12.3,10.6z M13.4,14v-2.5h0.3V14H13.4z M14.2,14v-2.5h0.3V14H14.2z M15,14
	v-2.5h0.3V14H15z M15.8,14v-2.5h0.3V14H15.8z M12.9,14h-0.3v-1.9c0-0.2,0.1-0.4,0.3-0.6V14z M16.6,11.6c0.2,0.1,0.3,0.3,0.3,0.6V14
	h-0.3V11.6z M16.3,9.3c-0.2,0.5-0.3,1-0.3,1.6h-2.4c0-0.1,0-0.1-0.1-0.2c-0.1-0.4-0.4-0.7-0.7-0.9L8.9,7.3c-0.1,0-0.1-0.1-0.2-0.1
	H7.6V5.5h7.8c1.1,0.2,2.1,0.5,3,1.1C17.5,7.2,16.7,8.1,16.3,9.3L16.3,9.3z"/>
<path class="st1" d="M27.6,5.5V3.4c0-0.7-0.6-1.3-1.3-1.4c0,0,0,0,0,0h-2.7c-0.7,0-1.3,0.6-1.3,1.3c0,0,0,0,0,0v2.2
	C21.5,5.6,21,6.1,21,6.8v2c0,0.1,0.1,0.3,0.2,0.3h0.8h5.8h0.8c0.1,0,0.2-0.2,0.2-0.3v-2C28.9,6.1,28.4,5.5,27.6,5.5z M22.8,3.4
	c0-0.4,0.3-0.8,0.8-0.8l0,0h2.7c0.4,0,0.8,0.3,0.8,0.7c0,0,0,0,0,0v2.1h-4.2V3.4z M21.6,6.8c0-0.4,0.3-0.8,0.8-0.8h5.2
	c0.4,0,0.7,0.3,0.8,0.8v1.6h-6.7V6.8z"/>
<path class="st0" d="M37.8,23.6c-0.2-0.7-0.4-1.3-0.8-1.9c-0.7-1.3-1.6-2.3-2.7-3.2C33.9,18.2,33.5,18,33,18c-0.4,0-0.7,0.1-1,0.4
	c-0.8,0.6-0.5,1.9,0.2,2.8c1.8,2.3,1.9,5.7,1.8,7.5c0,0.3,0,0.7,0,1c0.1,1.2,0.8,1.5,1.1,1.5c0.1,0,0.2,0,0.3,0
	c0.5,0,0.9-0.2,1.3-0.6c0.2-0.2,0.3-0.4,0.4-0.6c0.6-1.3,0.9-2.7,0.8-4.1C38,25.1,37.9,24.4,37.8,23.6z M36.4,29.6L36.4,29.6
	c0,0-0.3,0.7-0.9,0.7h-0.2c-0.6-0.1-0.4-1.6-0.4-1.6l0,0c0.1-1.9,0-5.5-2-8c-0.3-0.4-0.5-0.8-0.5-1.2c0-0.1,0-0.3,0.2-0.4
	c0.1-0.1,0.3-0.2,0.5-0.2c0.3,0,0.5,0.1,0.8,0.3l0,0c1,0.8,1.9,1.8,2.5,3c0.3,0.5,0.5,1,0.7,1.6c0.2,0.7,0.2,1.3,0.2,2
	C37.2,27.1,36.9,28.4,36.4,29.6z"/>
</svg>
