<?xml version="1.0" encoding="utf-8"?>
<!-- Generator: Adobe Illustrator 22.1.0, SVG Export Plug-In . SVG Version: 6.00 Build 0)  -->
<svg version="1.1" id="Layer_1" xmlns="http://www.w3.org/2000/svg" xmlns:xlink="http://www.w3.org/1999/xlink" x="0px" y="0px"
	 viewBox="0 0 45 45" style="enable-background:new 0 0 45 45;" xml:space="preserve">
<style type="text/css">
	.st0{fill:none;stroke:#585858;stroke-width:1.4;stroke-linecap:round;stroke-linejoin:round;stroke-miterlimit:10;}
	.st1{fill:#FFFFFF;}
	.st2{fill:#585858;}
	.st3{fill:#F58228;}
	.st4{fill:#59595B;}
	.st5{fill:#F58228;stroke:#F58228;stroke-width:0.5;stroke-miterlimit:10;}
	.st6{fill:#585858;stroke:#585858;stroke-width:0.5;stroke-miterlimit:10;}
	.st7{fill:#F58228;stroke:#F58228;stroke-width:0.2269;stroke-miterlimit:10;}
	.st8{fill:#585858;stroke:#FFFFFF;stroke-width:0.3256;stroke-miterlimit:10;}
	.st9{fill:#F58228;stroke:#FFFFFF;stroke-width:0.3256;stroke-miterlimit:10;}
	.st10{fill:#585858;stroke:#FFFFFF;stroke-width:0.5;stroke-miterlimit:10;}
	.st11{fill:none;stroke:#F58228;stroke-linecap:round;stroke-linejoin:round;stroke-miterlimit:22.9256;}
	.st12{fill:none;stroke:#585858;stroke-linecap:round;stroke-linejoin:round;stroke-miterlimit:22.9256;}
	.st13{fill:#585858;stroke:#FFFFFF;stroke-width:0.3454;stroke-miterlimit:10;}
	.st14{fill:#F58228;stroke:#FFFFFF;stroke-width:0.3454;stroke-miterlimit:10;}
	.st15{fill:#595A5C;}
	.st16{fill:none;stroke:#F58228;stroke-miterlimit:10;}
	.st17{fill:none;stroke:#FFFFFF;stroke-width:1.144;stroke-miterlimit:10;}
	.st18{fill:none;stroke:#FFFFFF;stroke-width:1.2222;stroke-miterlimit:10;}
	.st19{fill:none;stroke:#FFFFFF;stroke-width:1.2222;stroke-miterlimit:10;stroke-dasharray:1.3537,1.3537;}
	.st20{fill:none;stroke:#585858;stroke-width:1.144;stroke-miterlimit:10;}
	.st21{fill:none;stroke:#F58228;stroke-width:1.144;stroke-miterlimit:10;}
	.st22{fill:none;stroke:#585858;stroke-width:1.2222;stroke-miterlimit:10;}
	.st23{fill:none;stroke:#F58228;stroke-width:1.2222;stroke-miterlimit:10;}
	.st24{fill:none;stroke:#585858;stroke-width:1.2222;stroke-miterlimit:10;stroke-dasharray:1.3537,1.3537;}
</style>
<g>
	<path class="st22" d="M33.2,40.8l-1.7-10.3l2.9-9.4c0.4-1.3,0.7-2.7,0.7-4.2c0-7.1-5.7-12.8-12.8-12.8C15.1,4.1,9.4,9.9,9.4,17
		l0,1.5l-2.8,8.3h3.3l0.6,8.1l6.4-0.6l0.8,6.5"/>
	<g>
		<path class="st23" d="M27.1,17c0,2.7-2.2,4.8-4.8,4.8c-2.7,0-4.8-2.2-4.8-4.8c0-2.7,2.2-4.8,4.8-4.8C24.9,12.1,27.1,14.3,27.1,17z
			"/>
		<circle class="st23" cx="22.2" cy="17" r="1.8"/>
		<g>
			<line class="st23" x1="22.2" y1="12.1" x2="22.2" y2="10.2"/>
			<line class="st23" x1="19.8" y1="12.8" x2="18.8" y2="11.1"/>
			<line class="st23" x1="18" y1="14.5" x2="16.3" y2="13.6"/>
			<line class="st23" x1="17.4" y1="17" x2="15.4" y2="17"/>
			<line class="st23" x1="18" y1="19.4" x2="16.3" y2="20.4"/>
			<line class="st23" x1="19.8" y1="21.2" x2="18.8" y2="22.8"/>
			<line class="st23" x1="22.2" y1="21.8" x2="22.2" y2="23.8"/>
			<line class="st23" x1="24.6" y1="21.2" x2="25.6" y2="22.8"/>
			<line class="st23" x1="26.4" y1="19.4" x2="28.1" y2="20.4"/>
			<line class="st23" x1="27.1" y1="17" x2="29" y2="17"/>
			<line class="st23" x1="26.4" y1="14.5" x2="28.1" y2="13.6"/>
			<line class="st23" x1="24.6" y1="12.8" x2="25.6" y2="11.1"/>
		</g>
	</g>
	<g>
		<circle class="st24" cx="22.2" cy="17" r="9.9"/>
	</g>
</g>
</svg>
