<svg id="Layer_1" data-name="Layer 1" xmlns="http://www.w3.org/2000/svg" viewBox="0 0 45 45">
  <defs>
    <style>
      .cls-1 {
        fill: #fff;
      }
    </style>
  </defs>
  <title>cyber-security-w</title>
  <g>
    <g>
      <polygon class="cls-1" points="39.1 37.34 32.36 37.34 32.36 36.3 38.06 36.3 38.06 7.24 6.93 7.24 6.93 36.3 12.64 36.3 12.64 37.34 5.9 37.34 5.9 6.21 39.1 6.21 39.1 37.34"/>
      <rect class="cls-1" x="6.42" y="10.36" width="32.17" height="1.04"/>
      <rect class="cls-1" x="7.97" y="8.28" width="1.04" height="1.04"/>
      <rect class="cls-1" x="10.05" y="8.28" width="1.04" height="1.04"/>
      <rect class="cls-1" x="12.12" y="8.28" width="1.04" height="1.04"/>
      <rect class="cls-1" x="14.2" y="6.73" width="1.04" height="4.15"/>
      <rect class="cls-1" x="16.27" y="8.28" width="20.75" height="1.04"/>
      <polygon class="cls-1" points="37.03 35.26 32.36 35.26 32.36 34.22 35.99 34.22 35.99 13.47 9.01 13.47 9.01 34.22 12.64 34.22 12.64 35.26 7.97 35.26 7.97 12.43 37.03 12.43 37.03 35.26"/>
    </g>
    <g>
      <path class="cls-1" d="M29.24,39.41H15.76a2.08,2.08,0,0,1-2.08-2.07V27a2.08,2.08,0,0,1,2.08-2.08H29.24A2.08,2.08,0,0,1,31.32,27V37.34A2.08,2.08,0,0,1,29.24,39.41ZM15.76,25.92a1,1,0,0,0-1,1V37.34a1,1,0,0,0,1,1H29.24a1,1,0,0,0,1-1V27a1,1,0,0,0-1-1Z"/>
      <path class="cls-1" d="M25.61,25.4h-1V21.77a2.08,2.08,0,0,0-4.16,0V25.4h-1V21.77a3.11,3.11,0,1,1,6.22,0Z"/>
      <path class="cls-1" d="M28.73,25.4h-1V21.77a5.19,5.19,0,1,0-10.38,0V25.4h-1V21.77a6.23,6.23,0,0,1,12.46,0Z"/>
    </g>
    <rect class="cls-1" x="15.76" y="36.3" width="13.49" height="1.04"/>
    <path class="cls-1" d="M22.5,32.15a2.08,2.08,0,1,1,2.08-2.08A2.08,2.08,0,0,1,22.5,32.15Zm0-3.11a1,1,0,1,0,1,1A1,1,0,0,0,22.5,29Z"/>
    <rect class="cls-1" x="21.98" y="31.63" width="1.04" height="2.59"/>
  </g>
</svg>
