<svg id="Layer_1" data-name="Layer 1" xmlns="http://www.w3.org/2000/svg" viewBox="0 0 45 45">
  <defs>
    <style>
      .cls-1 {
        fill: #fff;
      }
    </style>
  </defs>
  <title>data-security-w-</title>
  <g>
    <path class="cls-1" d="M19.57,15.44c-6,0-12.28-1.44-12.28-4.1s6.32-4.09,12.28-4.09,12.28,1.43,12.28,4.09S25.52,15.44,19.57,15.44Zm0-7.17c-7,0-11.26,1.79-11.26,3.07s4.28,3.07,11.26,3.07,11.25-1.78,11.25-3.07S26.54,8.27,19.57,8.27Z"/>
    <path class="cls-1" d="M19.57,21.58c-6,0-12.28-1.44-12.28-4.1V11.34h1v6.14c0,1.29,4.28,3.07,11.26,3.07Z"/>
    <rect class="cls-1" x="30.82" y="11.34" width="1.02" height="5.12"/>
    <path class="cls-1" d="M19.57,27.72c-6,0-12.28-1.44-12.28-4.1V20h1v3.58c0,1.29,4.28,3.08,11.26,3.08Z"/>
    <path class="cls-1" d="M19.57,33.86c-6,0-12.28-1.44-12.28-4.09V26.18h1v3.59c0,1.28,4.28,3.07,11.26,3.07Z"/>
    <path class="cls-1" d="M19.57,40c-6,0-12.28-1.43-12.28-4.09V32.32h1v3.59c0,1.28,4.28,3.07,11.26,3.07a33.4,33.4,0,0,0,6-.52l.19,1A34.62,34.62,0,0,1,19.57,40Z"/>
    <rect class="cls-1" x="19.57" y="20.55" width="1.02" height="1.02"/>
    <rect class="cls-1" x="19.57" y="26.7" width="1.02" height="1.02"/>
    <rect class="cls-1" x="19.57" y="32.84" width="1.02" height="1.02"/>
    <g>
      <path class="cls-1" d="M29.8,40a.54.54,0,0,1-.32-.11l-7.67-6.14a.51.51,0,0,1-.2-.4V18a.52.52,0,0,1,.22-.42.5.5,0,0,1,.47-.06l3.79,1.42,1.3-1.31a.55.55,0,0,1,.36-.15h4.1a.55.55,0,0,1,.36.15l1.3,1.31,3.79-1.42A.51.51,0,0,1,38,18V33.35a.53.53,0,0,1-.19.4l-7.68,6.14A.54.54,0,0,1,29.8,40Zm-7.16-6.9,7.16,5.73L37,33.1V18.73L33.56,20a.52.52,0,0,1-.54-.12l-1.38-1.38H28l-1.39,1.38A.51.51,0,0,1,26,20l-3.4-1.28Z"/>
      <rect class="cls-1" x="32.87" y="23.63" width="1.02" height="1.02"/>
      <rect class="cls-1" x="32.87" y="29.77" width="1.02" height="1.02"/>
      <rect class="cls-1" x="30.82" y="23.63" width="1.02" height="1.02"/>
      <rect class="cls-1" x="30.82" y="25.67" width="1.02" height="1.02"/>
      <rect class="cls-1" x="30.82" y="29.77" width="1.02" height="1.02"/>
      <rect class="cls-1" x="30.82" y="31.81" width="1.02" height="1.02"/>
      <rect class="cls-1" x="32.87" y="25.67" width="1.02" height="1.02"/>
      <rect class="cls-1" x="25.71" y="23.63" width="1.02" height="1.02"/>
      <rect class="cls-1" x="25.71" y="29.77" width="1.02" height="1.02"/>
      <rect class="cls-1" x="27.75" y="23.63" width="1.02" height="1.02"/>
      <rect class="cls-1" x="27.75" y="25.67" width="1.02" height="1.02"/>
      <rect class="cls-1" x="27.75" y="29.77" width="1.02" height="1.02"/>
      <rect class="cls-1" x="27.75" y="31.81" width="1.02" height="1.02"/>
      <rect class="cls-1" x="25.71" y="25.67" width="1.02" height="1.02"/>
      <rect class="cls-1" x="30.82" y="27.72" width="1.02" height="1.02"/>
      <rect class="cls-1" x="32.87" y="27.72" width="1.02" height="1.02"/>
      <rect class="cls-1" x="27.75" y="27.72" width="1.02" height="1.02"/>
      <rect class="cls-1" x="25.71" y="27.72" width="1.02" height="1.02"/>
      <rect class="cls-1" x="25.71" y="19.53" width="1.02" height="2.05"/>
      <rect class="cls-1" x="32.87" y="19.53" width="1.02" height="2.05"/>
    </g>
    <rect class="cls-1" x="19.05" y="17.48" width="1.02" height="1.02"/>
    <rect class="cls-1" x="19.05" y="23.63" width="1.02" height="1.02"/>
    <rect class="cls-1" x="19.05" y="29.77" width="1.02" height="1.02"/>
    <rect class="cls-1" x="19.05" y="35.91" width="1.02" height="1.02"/>
  </g>
</svg>
