<svg id="Layer_1" data-name="Layer 1" xmlns="http://www.w3.org/2000/svg" viewBox="0 0 45 45">
  <defs>
    <style>
      .cls-1 {
        fill: #fff;
      }
    </style>
  </defs>
  <title>data-science-w-</title>
  <g id="data">
    <g>
      <path class="cls-1" d="M23.85,41.18c-4.93,0-8.79-7.72-8.79-17.57S18.92,6.05,23.85,6.05s8.78,7.71,8.78,17.56S28.77,41.18,23.85,41.18Zm0-34c-4.17,0-7.69,7.54-7.69,16.47s3.52,16.47,7.69,16.47,7.68-7.54,7.68-16.47S28,7.14,23.85,7.14Z"/>
      <path class="cls-1" d="M23.85,32.39c-9.85,0-17.57-3.85-17.57-8.78S14,14.83,23.85,14.83s17.56,3.86,17.56,8.78S33.69,32.39,23.85,32.39Zm0-16.46c-8.93,0-16.47,3.52-16.47,7.68s7.54,7.69,16.47,7.69,16.46-3.52,16.46-7.69S32.77,15.93,23.85,15.93Z"/>
      <path class="cls-1" d="M15.54,37.53A5.54,5.54,0,0,1,11.43,36c-1.72-1.71-2-4.63-.73-8.21A28.78,28.78,0,0,1,17.64,17.4C22.39,12.65,28,9.69,32.15,9.69a5.58,5.58,0,0,1,4.11,1.5c1.72,1.71,2,4.63.73,8.21a28.78,28.78,0,0,1-6.94,10.42C25.3,34.58,19.74,37.53,15.54,37.53ZM32.15,10.79c-3.86,0-9.25,2.9-13.74,7.39a27.88,27.88,0,0,0-6.67,10c-1.1,3.16-.94,5.68.46,7.07a4.51,4.51,0,0,0,3.34,1.18c3.86,0,9.25-2.9,13.74-7.39A27.75,27.75,0,0,0,36,19c1.1-3.16.94-5.67-.46-7.07A4.55,4.55,0,0,0,32.15,10.79Z"/>
      <path class="cls-1" d="M32.15,37.53c-4.2,0-9.76-3-14.51-7.71A28.78,28.78,0,0,1,10.7,19.4c-1.24-3.58-1-6.5.73-8.21a5.65,5.65,0,0,1,4.11-1.5c4.2,0,9.76,3,14.51,7.71A28.78,28.78,0,0,1,37,27.82c1.24,3.58,1,6.5-.73,8.21A5.65,5.65,0,0,1,32.15,37.53ZM15.54,10.79A4.55,4.55,0,0,0,12.2,12c-1.4,1.4-1.56,3.91-.46,7.07a27.88,27.88,0,0,0,6.67,10c4.49,4.49,9.88,7.39,13.74,7.39a4.51,4.51,0,0,0,3.34-1.18c1.4-1.39,1.56-3.91.46-7.07a27.75,27.75,0,0,0-6.67-10C24.79,13.69,19.4,10.79,15.54,10.79Z"/>
      <path class="cls-1" d="M23.85,22.51c-2.19,0-4.4-.75-4.4-2.19s2.21-2.2,4.4-2.2,4.39.76,4.39,2.2S26,22.51,23.85,22.51Zm0-3.29c-2.05,0-3.3.71-3.3,1.1s1.25,1.1,3.3,1.1,3.29-.72,3.29-1.1S25.89,19.22,23.85,19.22Z"/>
      <path class="cls-1" d="M23.85,24.71c-2.19,0-4.4-.76-4.4-2.2h1.1c0,.39,1.25,1.1,3.3,1.1s3.29-.71,3.29-1.1h1.1C28.24,24,26,24.71,23.85,24.71Z"/>
      <path class="cls-1" d="M23.85,26.9c-2.19,0-4.4-.75-4.4-2.19h1.1c0,.39,1.25,1.1,3.3,1.1s3.29-.71,3.29-1.1h1.1C28.24,26.15,26,26.9,23.85,26.9Z"/>
      <path class="cls-1" d="M23.85,29.1c-2.19,0-4.4-.75-4.4-2.2V20.32h1.1V26.9c0,.39,1.25,1.1,3.3,1.1s3.29-.71,3.29-1.1V20.32h1.1V26.9C28.24,28.35,26,29.1,23.85,29.1Z"/>
      <rect class="cls-1" x="33.18" y="13.18" width="1.1" height="1.1"/>
      <rect class="cls-1" x="33.18" y="32.94" width="1.1" height="1.1"/>
      <rect class="cls-1" x="13.42" y="32.94" width="1.1" height="1.1"/>
      <rect class="cls-1" x="13.42" y="13.18" width="1.1" height="1.1"/>
    </g>
  </g>
</svg>
