<svg id="Layer_1" data-name="Layer 1" xmlns="http://www.w3.org/2000/svg" viewBox="0 0 45 45">
  <defs>
    <style>
      .cls-1 {
        fill: #666766;
      }

      .cls-2 {
        fill: #f58220;
      }
    </style>
  </defs>
  <title>data-science-</title>
  <g id="data">
    <g>
      <path class="cls-1" d="M21.56,41.18c-4.92,0-8.78-7.72-8.78-17.57S16.64,6.05,21.56,6.05s8.79,7.71,8.79,17.56S26.49,41.18,21.56,41.18Zm0-34c-4.16,0-7.68,7.54-7.68,16.47s3.52,16.47,7.68,16.47,7.69-7.54,7.69-16.47S25.73,7.14,21.56,7.14Z"/>
      <path class="cls-1" d="M21.56,32.39C11.71,32.39,4,28.54,4,23.61s7.71-8.78,17.56-8.78,17.57,3.86,17.57,8.78S31.41,32.39,21.56,32.39Zm0-16.46c-8.92,0-16.46,3.52-16.46,7.68s7.54,7.69,16.46,7.69S38,27.78,38,23.61,30.49,15.93,21.56,15.93Z"/>
      <path class="cls-1" d="M13.26,37.53A5.58,5.58,0,0,1,9.14,36c-1.71-1.71-2-4.63-.72-8.21A28.87,28.87,0,0,1,15.35,17.4c4.76-4.75,10.32-7.71,14.52-7.71A5.59,5.59,0,0,1,34,11.19c1.71,1.71,2,4.63.73,8.21a28.91,28.91,0,0,1-6.94,10.42C23,34.58,17.46,37.53,13.26,37.53ZM29.87,10.79c-3.86,0-9.25,2.9-13.74,7.39a27.62,27.62,0,0,0-6.67,10c-1.1,3.16-.94,5.68.46,7.07a4.49,4.49,0,0,0,3.34,1.18c3.86,0,9.25-2.9,13.74-7.39a27.88,27.88,0,0,0,6.67-10c1.1-3.16.93-5.67-.46-7.07A4.55,4.55,0,0,0,29.87,10.79Z"/>
      <path class="cls-1" d="M29.87,37.53c-4.2,0-9.76-3-14.52-7.71A28.87,28.87,0,0,1,8.42,19.4c-1.25-3.58-1-6.5.72-8.21a5.68,5.68,0,0,1,4.12-1.5c4.2,0,9.76,3,14.51,7.71a28.91,28.91,0,0,1,6.94,10.42c1.24,3.58,1,6.5-.73,8.21A5.65,5.65,0,0,1,29.87,37.53ZM13.26,10.79A4.53,4.53,0,0,0,9.92,12c-1.4,1.4-1.56,3.91-.46,7.07a27.62,27.62,0,0,0,6.67,10c4.49,4.49,9.88,7.39,13.74,7.39a4.51,4.51,0,0,0,3.34-1.18c1.39-1.39,1.56-3.91.46-7.07a27.88,27.88,0,0,0-6.67-10C22.51,13.69,17.12,10.79,13.26,10.79Z"/>
      <path class="cls-2" d="M21.56,22.51c-2.18,0-4.39-.75-4.39-2.19s2.21-2.2,4.39-2.2,4.39.76,4.39,2.2S23.75,22.51,21.56,22.51Zm0-3.29c-2,0-3.29.71-3.29,1.1s1.25,1.1,3.29,1.1,3.3-.72,3.3-1.1S23.61,19.22,21.56,19.22Z"/>
      <path class="cls-2" d="M21.56,24.71c-2.18,0-4.39-.76-4.39-2.2h1.1c0,.39,1.25,1.1,3.29,1.1s3.3-.71,3.3-1.1H26C26,24,23.75,24.71,21.56,24.71Z"/>
      <path class="cls-2" d="M21.56,26.9c-2.18,0-4.39-.75-4.39-2.19h1.1c0,.39,1.25,1.1,3.29,1.1s3.3-.71,3.3-1.1H26C26,26.15,23.75,26.9,21.56,26.9Z"/>
      <path class="cls-2" d="M21.56,29.1c-2.18,0-4.39-.75-4.39-2.2V20.32h1.1V26.9c0,.39,1.25,1.1,3.29,1.1s3.3-.71,3.3-1.1V20.32H26V26.9C26,28.35,23.75,29.1,21.56,29.1Z"/>
      <rect class="cls-2" x="30.89" y="13.18" width="1.1" height="1.1"/>
      <rect class="cls-2" x="30.89" y="32.94" width="1.1" height="1.1"/>
      <rect class="cls-2" x="11.13" y="32.94" width="1.1" height="1.1"/>
      <rect class="cls-2" x="11.13" y="13.18" width="1.1" height="1.1"/>
    </g>
  </g>
</svg>
