<svg id="Layer_1" data-name="Layer 1" xmlns="http://www.w3.org/2000/svg" viewBox="0 0 45 45"><defs><style>.cls-1{fill:#f48220;}.cls-2{fill:#595a5c;}</style></defs><title>DMP</title><path class="cls-1" d="M26.49,17.91a.26.26,0,0,1-.29.23.3.3,0,0,1-.21-.07.21.21,0,0,1-.08-.16V16.75a.26.26,0,0,1,.29-.23.32.32,0,0,1,.2.06.26.26,0,0,1,.09.17Z"/><path class="cls-1" d="M26.6,15.89a.71.71,0,0,1-.48.18.63.63,0,0,1-.66-.59V14.9a.57.57,0,0,1,.19-.42.75.75,0,0,1,.47-.17.63.63,0,0,1,.67.59v.58A.53.53,0,0,1,26.6,15.89ZM26.36,15a.26.26,0,0,0-.24-.29.19.19,0,0,0-.16.09.28.28,0,0,0-.08.2v.29a.27.27,0,0,0,.24.3.2.2,0,0,0,.17-.09.3.3,0,0,0,.07-.21Z"/><path class="cls-1" d="M24.53,14.37a.27.27,0,0,1,.29.24v1.15a.2.2,0,0,1-.09.17.32.32,0,0,1-.2.07.27.27,0,0,1-.29-.24V14.61a.21.21,0,0,1,.08-.17A.38.38,0,0,1,24.53,14.37Z"/><path class="cls-1" d="M24.51,18.77a.27.27,0,0,1,.29.24v1.16a.21.21,0,0,1-.08.16.31.31,0,0,1-.21.07.26.26,0,0,1-.29-.23V19a.22.22,0,0,1,.09-.17A.32.32,0,0,1,24.51,18.77Z"/><path class="cls-1" d="M24.62,12.05a.75.75,0,0,1,.47.17.58.58,0,0,1,.2.42v.58a.64.64,0,0,1-.67.59.73.73,0,0,1-.47-.17.55.55,0,0,1-.2-.42v-.58A.64.64,0,0,1,24.62,12.05Zm0,1.32a.27.27,0,0,0,.24-.3v-.29a.32.32,0,0,0-.07-.2.22.22,0,0,0-.17-.09.26.26,0,0,0-.24.29v.29a.33.33,0,0,0,.07.21A.2.2,0,0,0,24.62,13.37Z"/><path class="cls-1" d="M24.6,16.45a.73.73,0,0,1,.48.18.53.53,0,0,1,.19.41v.58a.63.63,0,0,1-.67.59.75.75,0,0,1-.47-.17.58.58,0,0,1-.2-.42V17A.64.64,0,0,1,24.6,16.45Zm0,1.32a.26.26,0,0,0,.24-.29v-.29a.35.35,0,0,0-.07-.21.22.22,0,0,0-.17-.09.27.27,0,0,0-.24.3v.29a.32.32,0,0,0,.07.2A.22.22,0,0,0,24.6,17.77Z"/><path class="cls-1" d="M23,12.11a.38.38,0,0,1,.21.07.21.21,0,0,1,.08.17V13.5a.26.26,0,0,1-.29.24.32.32,0,0,1-.2-.07.2.2,0,0,1-.09-.17V12.35A.27.27,0,0,1,23,12.11Z"/><path class="cls-1" d="M23,16.52a.32.32,0,0,1,.2.06.26.26,0,0,1,.09.17v1.16a.26.26,0,0,1-.29.23.3.3,0,0,1-.21-.07.21.21,0,0,1-.08-.16V16.75A.26.26,0,0,1,23,16.52Z"/><path class="cls-1" d="M22.9,14.31a.63.63,0,0,1,.67.59v.58a.54.54,0,0,1-.2.41.7.7,0,0,1-.47.18.64.64,0,0,1-.67-.59V14.9a.57.57,0,0,1,.19-.42A.76.76,0,0,1,22.9,14.31Zm.17,1.23a.35.35,0,0,0,.07-.21V15a.27.27,0,0,0-.24-.29.2.2,0,0,0-.17.09.27.27,0,0,0-.07.2v.29c0,.17.1.3.24.3A.22.22,0,0,0,23.07,15.54Z"/><path class="cls-1" d="M22.88,18.71a.64.64,0,0,1,.67.59v.58a.55.55,0,0,1-.2.42.75.75,0,0,1-.47.17.63.63,0,0,1-.67-.59V19.3a.58.58,0,0,1,.2-.42A.75.75,0,0,1,22.88,18.71Zm.17,1.23a.32.32,0,0,0,.07-.2v-.29a.27.27,0,0,0-.24-.3.2.2,0,0,0-.17.09.35.35,0,0,0-.07.21v.29a.27.27,0,0,0,.24.29A.2.2,0,0,0,23.05,19.94Z"/><path class="cls-1" d="M21.3,14.37a.27.27,0,0,1,.29.24v1.15a.21.21,0,0,1-.08.17.38.38,0,0,1-.21.07.27.27,0,0,1-.29-.24V14.61a.2.2,0,0,1,.09-.17A.32.32,0,0,1,21.3,14.37Z"/><path class="cls-1" d="M21.29,18.77a.27.27,0,0,1,.29.24v1.16a.22.22,0,0,1-.09.16.27.27,0,0,1-.2.07.26.26,0,0,1-.29-.23V19a.21.21,0,0,1,.08-.17A.35.35,0,0,1,21.29,18.77Z"/><path class="cls-1" d="M21.39,13.37a.27.27,0,0,0,.24-.3v-.29a.32.32,0,0,0-.07-.2.22.22,0,0,0-.17-.09.27.27,0,0,0-.24.29v.29a.33.33,0,0,0,.07.21A.2.2,0,0,0,21.39,13.37Zm.67-.15a.64.64,0,0,1-.67.59.78.78,0,0,1-.48-.17.57.57,0,0,1-.19-.42v-.58a.64.64,0,0,1,.67-.59.75.75,0,0,1,.47.17.58.58,0,0,1,.2.42Z"/><path class="cls-1" d="M21.61,17.19a.35.35,0,0,0-.07-.21.22.22,0,0,0-.17-.09.27.27,0,0,0-.24.3v.29a.32.32,0,0,0,.07.2.22.22,0,0,0,.17.09.27.27,0,0,0,.24-.29Zm-.24-.74a.68.68,0,0,1,.47.18A.51.51,0,0,1,22,17v.58a.63.63,0,0,1-.67.59A.75.75,0,0,1,20.9,18a.58.58,0,0,1-.2-.42V17A.64.64,0,0,1,21.37,16.45Z"/><path class="cls-1" d="M19.75,12.11a.35.35,0,0,1,.21.07.22.22,0,0,1,.09.17V13.5a.27.27,0,0,1-.3.24.32.32,0,0,1-.2-.07.21.21,0,0,1-.08-.17V12.35A.27.27,0,0,1,19.75,12.11Z"/><path class="cls-1" d="M20,17.91a.26.26,0,0,1-.29.23.31.31,0,0,1-.21-.07.21.21,0,0,1-.08-.16V16.75a.26.26,0,0,1,.29-.23.32.32,0,0,1,.2.06.22.22,0,0,1,.09.17Z"/><path class="cls-1" d="M19.84,15.54a.35.35,0,0,0,.07-.21V15a.27.27,0,0,0-.24-.29.2.2,0,0,0-.17.09.27.27,0,0,0-.07.2v.29c0,.17.1.3.24.3A.22.22,0,0,0,19.84,15.54Zm.3.35a.7.7,0,0,1-.47.18.64.64,0,0,1-.67-.59V14.9a.57.57,0,0,1,.19-.42.76.76,0,0,1,.48-.17.63.63,0,0,1,.67.59v.58A.54.54,0,0,1,20.14,15.89Z"/><path class="cls-1" d="M19.82,19.94a.32.32,0,0,0,.07-.2v-.29a.27.27,0,0,0-.24-.3.2.2,0,0,0-.17.09.35.35,0,0,0-.07.21v.29a.27.27,0,0,0,.24.29A.2.2,0,0,0,19.82,19.94Zm.3.36a.75.75,0,0,1-.47.17.63.63,0,0,1-.67-.59V19.3a.58.58,0,0,1,.2-.42.75.75,0,0,1,.47-.17.64.64,0,0,1,.67.59v.58A.58.58,0,0,1,20.12,20.3Z"/><path class="cls-1" d="M18.28,15.93a.38.38,0,0,1-.21.07.27.27,0,0,1-.29-.24V14.61a.2.2,0,0,1,.09-.17.32.32,0,0,1,.2-.07.27.27,0,0,1,.29.24v1.15A.21.21,0,0,1,18.28,15.93Z"/><path class="cls-1" d="M18.14,16.45a.71.71,0,0,1,.48.18.53.53,0,0,1,.19.41v.58a.63.63,0,0,1-.67.59.75.75,0,0,1-.47-.17.58.58,0,0,1-.2-.42V17A.64.64,0,0,1,18.14,16.45Zm0,1.32a.26.26,0,0,0,.24-.29v-.29a.3.3,0,0,0-.07-.21.22.22,0,0,0-.17-.09.27.27,0,0,0-.24.3v.29a.32.32,0,0,0,.07.2A.22.22,0,0,0,18.14,17.77Z"/><path class="cls-2" d="M34.08,19.68l-.61-.34L24.1,24.62a4,4,0,0,1-3.42,0l-9.37-5.28-.61.34A1.62,1.62,0,0,0,9.76,21a1.61,1.61,0,0,0,.94,1.36l9.74,5.48a4.36,4.36,0,0,0,3.9,0l9.74-5.48A1.62,1.62,0,0,0,35,21,1.63,1.63,0,0,0,34.08,19.68Zm-.43,1.95L23.9,27.11a3.18,3.18,0,0,1-1.51.35,3.22,3.22,0,0,1-1.52-.35l-9.73-5.48c-.32-.17-.5-.39-.5-.59s.18-.41.49-.58l.18-.1,0,0,8.9,5a4.81,4.81,0,0,0,4.28,0l8.94-5,.18.1c.31.17.49.38.49.58S34,21.46,33.65,21.63Z"/><path class="cls-2" d="M34.08,15.38,24.34,9.9a4.36,4.36,0,0,0-3.9,0L10.7,15.38a1.62,1.62,0,0,0-.94,1.36,1.62,1.62,0,0,0,.94,1.36l9.74,5.48a4.36,4.36,0,0,0,3.9,0l9.74-5.48a1.63,1.63,0,0,0,1-1.36A1.63,1.63,0,0,0,34.08,15.38Zm-.43,1.95L23.9,22.81a3.18,3.18,0,0,1-1.51.35,3.22,3.22,0,0,1-1.52-.35l-9.74-5.48c-.31-.18-.49-.39-.49-.59s.18-.41.49-.59l9.74-5.48a3.22,3.22,0,0,1,1.52-.35,3.18,3.18,0,0,1,1.51.35l9.75,5.48c.31.18.49.39.49.59S34,17.15,33.65,17.33Z"/><path class="cls-2" d="M34.08,23.92l-.61-.34L24.1,28.86a4,4,0,0,1-3.42,0l-9.37-5.28-.61.34a1.45,1.45,0,0,0,0,2.72l9.74,5.48a4.36,4.36,0,0,0,3.9,0l9.74-5.48a1.45,1.45,0,0,0,0-2.72Zm-.43,1.95L23.9,31.35a3.18,3.18,0,0,1-1.51.35,3.22,3.22,0,0,1-1.52-.35l-9.73-5.48c-.32-.17-.5-.39-.5-.59s.18-.41.49-.58l.18-.1,8.94,5a4.81,4.81,0,0,0,4.28,0l8.94-5,.18.09c.31.18.49.39.49.59S34,25.7,33.65,25.87Z"/><path class="cls-2" d="M34.08,28.13l-.61-.34L24.1,33.06a3.94,3.94,0,0,1-3.42,0l-9.37-5.27-.61.34a1.45,1.45,0,0,0,0,2.72l9.74,5.48a4.36,4.36,0,0,0,3.9,0l9.74-5.48a1.45,1.45,0,0,0,0-2.72Zm-.43,1.95L23.9,35.56a3.18,3.18,0,0,1-1.51.35,3.22,3.22,0,0,1-1.52-.35l-9.73-5.48c-.32-.18-.5-.39-.5-.59s.18-.41.49-.59l.18-.09,0,0,8.9,5a4.74,4.74,0,0,0,4.28,0l8.94-5,.18.09c.31.18.49.39.49.59S34,29.9,33.65,30.08Z"/><path class="cls-1" d="M7,17.74a.41.41,0,0,0-.21,0,.49.49,0,0,0-.3.1L1.16,22a.48.48,0,0,0-.19.35.51.51,0,0,0,.15.36l5.37,5.38a.5.5,0,0,0,.52.1.48.48,0,0,0,.3-.44v-9.6A.47.47,0,0,0,7,17.74Zm-.69,8.87L2.18,22.43l4.17-3.27Z"/><path class="cls-1" d="M36.69,18.17v9.6a.47.47,0,0,0,.29.44.51.51,0,0,0,.53-.1l5.37-5.38a.46.46,0,0,0,.14-.36.44.44,0,0,0-.18-.35l-5.38-4.23a.45.45,0,0,0-.29-.1.38.38,0,0,0-.21,0A.45.45,0,0,0,36.69,18.17Zm1,1,4.17,3.27-4.17,4.18Z"/></svg>