<svg id="Layer_1" data-name="Layer 1" xmlns="http://www.w3.org/2000/svg" viewBox="0 0 45 45"><defs><style>.cls-1{fill:#fff;}</style></defs><title>education</title><path class="cls-1" d="M23.29,28.08a.69.69,0,0,1-.2,0L11.28,24.13l.4-1.18,11.6,3.85L40.1,20.91,23.29,14.75l-17,6.14,1.1.49-.5,1.14L4.37,21.4A.61.61,0,0,1,4,20.81a.63.63,0,0,1,.41-.57L23.08,13.5a.61.61,0,0,1,.42,0l18.67,6.84a.63.63,0,0,1,.41.59.61.61,0,0,1-.42.58L23.49,28.05A.64.64,0,0,1,23.29,28.08Z"/><path class="cls-1" d="M23.9,37c-7.32,0-12.53-3.59-12.69-4.83A47.83,47.83,0,0,1,11.12,26a.62.62,0,0,1,.83-.56l11.16,3.85,11-4a.61.61,0,0,1,.57.07.62.62,0,0,1,.27.5s.09,4.29.09,5.89S31.71,37,23.9,37ZM12.44,32c.47.72,4.72,3.82,11.46,3.82,7.07,0,9.85-3.35,9.88-4,0-1.14-.05-3.65-.07-5L23.33,30.57a.67.67,0,0,1-.42,0L12.34,26.93A40.72,40.72,0,0,0,12.44,32Zm0,.07Zm0-.1"/><path class="cls-1" d="M25.2,20c0,.36-.72.66-1.61.66S22,20.35,22,20s.36-.48.9-.59a3.8,3.8,0,0,1,.7-.06C24.48,19.34,25.2,19.63,25.2,20Z"/><path class="cls-1" d="M8.53,21.86l14.85-1.77L9.57,22.7s-.09,8.12-.35,8.87-.69,1.12-1.91,1.12S5.49,31.94,5.58,31,8.53,21.86,8.53,21.86Z"/></svg>