<svg id="Layer_1" data-name="Layer 1" xmlns="http://www.w3.org/2000/svg" viewBox="0 0 45 45">
  <defs>
    <style>
      .cls-1 {
        fill: #fff;
      }
    </style>
  </defs>
  <title>entertainmen_wh</title>
  <g>
    <path class="cls-1" d="M28.07,22.11,20.46,16.7a1,1,0,0,0-.95-.07.91.91,0,0,0-.5.81V28.25a.88.88,0,0,0,.5.8.86.86,0,0,0,.41.1,1,1,0,0,0,.54-.17l7.61-5.41a.89.89,0,0,0,0-1.46Zm-7.43,4.76V18.81l5.67,4Z"/>
    <path class="cls-1" d="M40,7.75H6.11a.68.68,0,0,0-.69.67V37.26a.68.68,0,0,0,.69.68H40a.68.68,0,0,0,.69-.68V8.42A.67.67,0,0,0,40,7.75Zm-.69,28.84H6.8V32.37H39.27Zm0-5.57H6.8V14.67H39.27Zm0-17.7H6.8V9.1H39.27Z"/>
  </g>
</svg>
