<svg id="Layer_1" data-name="Layer 1" xmlns="http://www.w3.org/2000/svg" viewBox="0 0 95 82">
  <defs>
    <style>
      .cls-1 {
        fill: #fff;
      }
    </style>
  </defs>
  <title>family-w</title>
  <g>
    <path class="cls-1" d="M47,21.43a8.23,8.23,0,0,0,8.51-8.52V9.51A8.23,8.23,0,0,0,47,1a8.23,8.23,0,0,0-8.51,8.51v3.4A8.23,8.23,0,0,0,47,21.43ZM41.89,9.51A4.84,4.84,0,0,1,47,4.4a4.84,4.84,0,0,1,5.11,5.11v3.4A4.84,4.84,0,0,1,47,18a4.84,4.84,0,0,1-5.11-5.11Z"/>
    <rect class="cls-1" x="45.3" y="53.77" width="3.4" height="27.23"/>
    <path class="cls-1" d="M69.13,26.53A8.23,8.23,0,0,0,77.64,18v-3.4a8.51,8.51,0,0,0-17,0V18A8.23,8.23,0,0,0,69.13,26.53ZM64,14.62a5.11,5.11,0,1,1,10.21,0V18A5.11,5.11,0,1,1,64,18Z"/>
    <path class="cls-1" d="M24.87,26.53A8.23,8.23,0,0,0,33.38,18v-3.4a8.23,8.23,0,0,0-8.51-8.51,8.23,8.23,0,0,0-8.51,8.51V18A8.23,8.23,0,0,0,24.87,26.53Zm-5.1-11.91a4.83,4.83,0,0,1,5.1-5.11A4.83,4.83,0,0,1,30,14.62V18a4.83,4.83,0,0,1-5.11,5.11A4.83,4.83,0,0,1,19.77,18Z"/>
    <path class="cls-1" d="M87.85,16.32H81a1.7,1.7,0,0,0-1.7,1.7v8c-2-.4-4.77-.54-6.31,1l2.41,2.41c.48-.48,3-.28,5.07.41a1.7,1.7,0,0,0,2.23-1.62V19.72h3.41V30.86l-11.32,9.7-.6,1.29V81h3.41V42.63L89,32.93a1.67,1.67,0,0,0,.59-1.29V18A1.7,1.7,0,0,0,87.85,16.32Z"/>
    <path class="cls-1" d="M12,29.61a1.7,1.7,0,0,0,1.53.24c2.08-.69,4.59-.89,5.07-.41L21,27c-1.54-1.54-4.27-1.4-6.31-1V18a1.7,1.7,0,0,0-1.7-1.7H6.15A1.7,1.7,0,0,0,4.45,18V31.64A1.67,1.67,0,0,0,5,32.93l11.32,9.7V81h3.41V41.85l-.6-1.29L7.85,30.86V19.72h3.41v8.51A1.7,1.7,0,0,0,12,29.61Z"/>
    <path class="cls-1" d="M65.72,33.06C65.4,26.13,53.24,23.13,47,23.13s-18.4,3-18.72,9.93L21.54,55a1.7,1.7,0,0,0,1.09,2.11l5.11,1.7a1.7,1.7,0,0,0,2.11-1l5.24-12.58V81h3.4V36.74h0a1.7,1.7,0,0,0-3.27-.65l-7.91,19-2-.68,6.32-20.54a1.68,1.68,0,0,0,.07-.5c0-3.88,9.29-6.81,15.32-6.81s15.32,2.93,15.32,6.81a1.68,1.68,0,0,0,.07.5l6.32,20.54-2,.68-7.91-19a1.7,1.7,0,0,0-3.27.65h0V81h3.4V45.25l5.24,12.58a1.7,1.7,0,0,0,2.11,1l5.11-1.7A1.7,1.7,0,0,0,72.46,55Z"/>
  </g>
</svg>
