<svg id="Layer_1" data-name="Layer 1" xmlns="http://www.w3.org/2000/svg" viewBox="0 0 45 45">
  <defs>
    <style>
      .cls-1 {
        fill: #f47822;
      }

      .cls-2 {
        fill: #515151;
      }
    </style>
  </defs>
  <title>family</title>
  <g>
    <path class="cls-1" d="M22,14.34a3.31,3.31,0,0,0,3.43-3.43V9.54A3.31,3.31,0,0,0,22,6.11a3.31,3.31,0,0,0-3.43,3.43v1.37A3.31,3.31,0,0,0,22,14.34Zm-2.06-4.8A2,2,0,0,1,22,7.48a2,2,0,0,1,2.06,2.06v1.37A2,2,0,0,1,22,13a2,2,0,0,1-2.06-2.06Z"/>
    <rect class="cls-1" x="21.31" y="27.37" width="1.37" height="10.98"/>
    <path class="cls-2" d="M30.92,16.4A3.32,3.32,0,0,0,34.35,13V11.6a3.43,3.43,0,1,0-6.86,0V13A3.31,3.31,0,0,0,30.92,16.4Zm-2.06-4.8a2.06,2.06,0,1,1,4.12,0V13a2.06,2.06,0,1,1-4.12,0Z"/>
    <path class="cls-2" d="M13.08,16.4A3.31,3.31,0,0,0,16.51,13V11.6a3.31,3.31,0,0,0-3.43-3.43A3.32,3.32,0,0,0,9.65,11.6V13A3.32,3.32,0,0,0,13.08,16.4ZM11,11.6a2,2,0,0,1,2.06-2.06,2,2,0,0,1,2.06,2.06V13A2,2,0,0,1,13.08,15,2,2,0,0,1,11,13Z"/>
    <path class="cls-2" d="M38.46,12.28H35.72A.69.69,0,0,0,35,13V16.2a2.9,2.9,0,0,0-2.54.4l1,1a3.24,3.24,0,0,1,2,.17.69.69,0,0,0,.62-.1.68.68,0,0,0,.29-.55V13.66h1.37v4.48l-4.56,3.91-.24.52V38.35h1.37V22.89L38.91,19a.69.69,0,0,0,.24-.52V13A.69.69,0,0,0,38.46,12.28Z"/>
    <path class="cls-2" d="M7.88,17.64a.72.72,0,0,0,.62.1,3.24,3.24,0,0,1,2-.17l1-1A2.9,2.9,0,0,0,9,16.2V13a.69.69,0,0,0-.69-.69H5.54a.69.69,0,0,0-.69.69v5.49a.69.69,0,0,0,.24.52l4.56,3.91V38.35H11V22.57l-.23-.52L6.22,18.14V13.66H7.59v3.43A.68.68,0,0,0,7.88,17.64Z"/>
    <path class="cls-1" d="M29.54,19c-.12-2.79-5-4-7.54-4s-7.42,1.21-7.54,4l-2.72,8.83a.69.69,0,0,0,.44.85l2.06.69a.76.76,0,0,0,.21,0,.7.7,0,0,0,.64-.42l2.11-5.07V38.35h1.37V20.52h0a.69.69,0,0,0-1.32-.27l-3.18,7.64-.82-.27,2.55-8.28a.64.64,0,0,0,0-.2c0-1.56,3.74-2.74,6.17-2.74s6.17,1.18,6.17,2.74a.64.64,0,0,0,0,.2l2.55,8.28-.82.27-3.18-7.64a.69.69,0,0,0-1.32.27h0V38.35H26.8V23.94L28.91,29a.7.7,0,0,0,.64.42.76.76,0,0,0,.21,0l2.06-.69a.69.69,0,0,0,.44-.85Z"/>
  </g>
</svg>
