<svg id="Layer_1" data-name="Layer 1" xmlns="http://www.w3.org/2000/svg" viewBox="0 0 45 45">
  <defs>
    <style>
      .cls-1 {
        fill: #fff;
      }
    </style>
  </defs>
  <title>family-w</title>
  <g>
    <path class="cls-1" d="M22,13.93a3.31,3.31,0,0,0,3.43-3.43V9.13A3.31,3.31,0,0,0,22,5.7a3.31,3.31,0,0,0-3.43,3.43V10.5A3.31,3.31,0,0,0,22,13.93Zm-2.06-4.8A2,2,0,0,1,22,7.07a2,2,0,0,1,2.06,2.06V10.5A2,2,0,0,1,22,12.56a2,2,0,0,1-2.06-2.06Z"/>
    <rect class="cls-1" x="21.31" y="26.96" width="1.37" height="10.98"/>
    <path class="cls-1" d="M30.92,16a3.32,3.32,0,0,0,3.43-3.43V11.19a3.43,3.43,0,1,0-6.86,0v1.37A3.31,3.31,0,0,0,30.92,16Zm-2.06-4.8a2.06,2.06,0,1,1,4.12,0v1.37a2.06,2.06,0,1,1-4.12,0Z"/>
    <path class="cls-1" d="M13.08,16a3.31,3.31,0,0,0,3.43-3.43V11.19a3.31,3.31,0,0,0-3.43-3.43,3.32,3.32,0,0,0-3.43,3.43v1.37A3.32,3.32,0,0,0,13.08,16ZM11,11.19a2,2,0,0,1,2.06-2.06,2,2,0,0,1,2.06,2.06v1.37a2,2,0,0,1-2.06,2.06A2,2,0,0,1,11,12.56Z"/>
    <path class="cls-1" d="M38.46,11.87H35.72a.69.69,0,0,0-.69.69v3.23a2.9,2.9,0,0,0-2.54.4l1,1a3.24,3.24,0,0,1,2,.17.69.69,0,0,0,.62-.1.68.68,0,0,0,.29-.55V13.25h1.37v4.48l-4.56,3.91-.24.52V37.94h1.37V22.48l4.56-3.91a.69.69,0,0,0,.24-.52V12.56A.69.69,0,0,0,38.46,11.87Z"/>
    <path class="cls-1" d="M7.88,17.23a.72.72,0,0,0,.62.1,3.24,3.24,0,0,1,2-.17l1-1A2.9,2.9,0,0,0,9,15.79V12.56a.69.69,0,0,0-.69-.69H5.54a.69.69,0,0,0-.69.69v5.49a.69.69,0,0,0,.24.52l4.56,3.91V37.94H11V22.16l-.23-.52L6.22,17.73V13.25H7.59v3.43A.68.68,0,0,0,7.88,17.23Z"/>
    <path class="cls-1" d="M29.54,18.62c-.12-2.79-5-4-7.54-4s-7.42,1.21-7.54,4l-2.72,8.83a.69.69,0,0,0,.44.85l2.06.69a.76.76,0,0,0,.21,0,.7.7,0,0,0,.64-.42l2.11-5.07V37.94h1.37V20.11h0a.69.69,0,0,0-1.32-.27l-3.18,7.64-.82-.27,2.55-8.28a.64.64,0,0,0,0-.2C15.83,17.17,19.57,16,22,16s6.17,1.18,6.17,2.74a.64.64,0,0,0,0,.2l2.55,8.28-.82.27-3.18-7.64a.69.69,0,0,0-1.32.27h0V37.94H26.8V23.53l2.11,5.07a.7.7,0,0,0,.64.42.76.76,0,0,0,.21,0l2.06-.69a.69.69,0,0,0,.44-.85Z"/>
  </g>
</svg>
