<?xml version="1.0" encoding="utf-8"?>
<!-- Generator: Adobe Illustrator 22.1.0, SVG Export Plug-In . SVG Version: 6.00 Build 0)  -->
<svg version="1.1" id="Layer_1" xmlns="http://www.w3.org/2000/svg" xmlns:xlink="http://www.w3.org/1999/xlink" x="0px" y="0px"
	 viewBox="0 0 45 45" style="enable-background:new 0 0 45 45;" xml:space="preserve">
<style type="text/css">
	.st0{fill:none;stroke:#585858;stroke-width:1.4;stroke-linecap:round;stroke-linejoin:round;stroke-miterlimit:10;}
	.st1{fill:#FFFFFF;}
	.st2{fill:#585858;}
	.st3{fill:#F58228;}
	.st4{fill:#59595B;}
	.st5{fill:#F58228;stroke:#F58228;stroke-width:0.5;stroke-miterlimit:10;}
	.st6{fill:#585858;stroke:#585858;stroke-width:0.5;stroke-miterlimit:10;}
	.st7{fill:#F58228;stroke:#F58228;stroke-width:0.2269;stroke-miterlimit:10;}
	.st8{fill:#585858;stroke:#FFFFFF;stroke-width:0.3256;stroke-miterlimit:10;}
	.st9{fill:#F58228;stroke:#FFFFFF;stroke-width:0.3256;stroke-miterlimit:10;}
	.st10{fill:#585858;stroke:#FFFFFF;stroke-width:0.5;stroke-miterlimit:10;}
	.st11{fill:none;stroke:#F58228;stroke-linecap:round;stroke-linejoin:round;stroke-miterlimit:22.9256;}
	.st12{fill:none;stroke:#585858;stroke-linecap:round;stroke-linejoin:round;stroke-miterlimit:22.9256;}
	.st13{fill:#585858;stroke:#FFFFFF;stroke-width:0.3454;stroke-miterlimit:10;}
	.st14{fill:#F58228;stroke:#FFFFFF;stroke-width:0.3454;stroke-miterlimit:10;}
	.st15{fill:#595A5C;}
	.st16{fill:none;stroke:#F58228;stroke-miterlimit:10;}
	.st17{fill:none;stroke:#FFFFFF;stroke-width:1.144;stroke-miterlimit:10;}
	.st18{fill:none;stroke:#FFFFFF;stroke-width:1.2222;stroke-miterlimit:10;}
	.st19{fill:none;stroke:#FFFFFF;stroke-width:1.2222;stroke-miterlimit:10;stroke-dasharray:1.3537,1.3537;}
	.st20{fill:none;stroke:#585858;stroke-width:1.144;stroke-miterlimit:10;}
	.st21{fill:none;stroke:#F58228;stroke-width:1.144;stroke-miterlimit:10;}
	.st22{fill:none;stroke:#585858;stroke-width:1.2222;stroke-miterlimit:10;}
	.st23{fill:none;stroke:#F58228;stroke-width:1.2222;stroke-miterlimit:10;}
	.st24{fill:none;stroke:#585858;stroke-width:1.2222;stroke-miterlimit:10;stroke-dasharray:1.3537,1.3537;}
</style>
<g>
	<path class="st2" d="M39.6,14.6L25.1,5.8c-0.7-0.4-1.6-0.7-2.6-0.7c-1,0-1.9,0.2-2.6,0.7L5.4,14.6c-0.9,0.6-1.3,1.2-1.1,1.8
		c0.2,0.6,0.8,1,1.9,1h32.6c1.1,0,1.8-0.3,1.9-1C40.9,15.8,40.5,15.2,39.6,14.6z M6.4,15.9l14.3-8.7c0.4-0.3,1.1-0.4,1.8-0.4
		s1.3,0.2,1.8,0.4l14.3,8.7H6.4z"/>
	<g>
		<g>
			<path class="st3" d="M8.4,18.2c-0.4,0-0.8,0.4-0.8,0.8v10c0,0.4,0.4,0.8,0.8,0.8s0.8-0.4,0.8-0.8V19C9.2,18.6,8.9,18.2,8.4,18.2z
				"/>
			<path class="st3" d="M12.2,18.2c-0.4,0-0.8,0.4-0.8,0.8v10c0,0.4,0.4,0.8,0.8,0.8s0.8-0.4,0.8-0.8V19
				C12.9,18.6,12.6,18.2,12.2,18.2z"/>
		</g>
		<g>
			<path class="st3" d="M20.6,18.3c-0.4,0-0.8,0.4-0.8,0.8v9.8c0,0.4,0.4,0.8,0.8,0.8s0.8-0.4,0.8-0.8v-9.8
				C21.4,18.7,21.1,18.3,20.6,18.3z"/>
			<path class="st3" d="M24.4,18.3c-0.4,0-0.8,0.4-0.8,0.8v9.8c0,0.4,0.4,0.8,0.8,0.8s0.8-0.4,0.8-0.8v-9.8
				C25.1,18.7,24.8,18.3,24.4,18.3z"/>
		</g>
		<g>
			<path class="st3" d="M32.8,18.4c-0.4,0-0.8,0.4-0.8,0.8v9.8c0,0.4,0.4,0.8,0.8,0.8s0.8-0.4,0.8-0.8v-9.8
				C33.6,18.8,33.3,18.4,32.8,18.4z"/>
			<path class="st3" d="M36.6,18.4c-0.4,0-0.8,0.4-0.8,0.8v9.8c0,0.4,0.4,0.8,0.8,0.8c0.4,0,0.8-0.4,0.8-0.8v-9.8
				C37.3,18.8,37,18.4,36.6,18.4z"/>
		</g>
	</g>
	<path class="st2" d="M36.6,30.9H8.4c-0.4,0-0.8,0.4-0.8,0.8c0,0.4,0.4,0.8,0.8,0.8h28.1c0.4,0,0.8-0.4,0.8-0.8
		C37.3,31.3,37,30.9,36.6,30.9z"/>
	<path class="st2" d="M39.5,34.7H5.5c-0.4,0-0.8,0.4-0.8,0.8c0,0.4,0.4,0.8,0.8,0.8h34.1c0.4,0,0.8-0.4,0.8-0.8
		C40.3,35.1,40,34.7,39.5,34.7z"/>
	<path class="st2" d="M41.6,38.3H3.4c-0.4,0-0.8,0.4-0.8,0.8s0.4,0.8,0.8,0.8h38.1c0.4,0,0.8-0.4,0.8-0.8S42,38.3,41.6,38.3z"/>
</g>
</svg>
