<svg id="Layer_1" data-name="Layer 1" xmlns="http://www.w3.org/2000/svg" viewBox="0 0 45 45"><defs><style>.cls-1{fill:#585858;}.cls-2{fill:#f58228;}</style></defs><title>finance color</title><g id="calculator"><path class="cls-1" d="M35.59,39.13H10.07V3.63H35.59ZM11.18,38h23.3V4.74H11.18Z"/><path class="cls-1" d="M33.37,12.51H12.29V5.85H33.37Zm-20-1.11H32.26V7H13.4Z"/><rect class="cls-2" x="30.04" y="8.63" width="1.11" height="1.11"/><rect class="cls-2" x="27.82" y="8.63" width="1.11" height="1.11"/><rect class="cls-2" x="25.61" y="8.63" width="1.11" height="1.11"/><rect class="cls-2" x="23.39" y="8.63" width="1.11" height="1.11"/><rect class="cls-2" x="21.17" y="8.63" width="1.11" height="1.11"/><path class="cls-2" d="M33.37,36.91H28.93v-10h4.44ZM30,35.81h2.22V28H30Z"/><path class="cls-1" d="M16.73,20.27H12.29V15.84h4.44ZM13.4,19.16h2.22V17H13.4Z"/><path class="cls-1" d="M22.28,20.27H17.84V15.84h4.44ZM19,19.16h2.22V17H19Z"/><path class="cls-1" d="M27.82,20.27H23.39V15.84h4.43ZM24.5,19.16h2.22V17H24.5Z"/><path class="cls-1" d="M33.37,20.27H28.93V15.84h4.44ZM30,19.16h2.22V17H30Z"/><path class="cls-1" d="M16.73,25.82H12.29V21.38h4.44ZM13.4,24.71h2.22V22.49H13.4Z"/><path class="cls-1" d="M22.28,25.82H17.84V21.38h4.44ZM19,24.71h2.22V22.49H19Z"/><path class="cls-1" d="M27.82,25.82H23.39V21.38h4.43ZM24.5,24.71h2.22V22.49H24.5Z"/><path class="cls-1" d="M33.37,25.82H28.93V21.38h4.44ZM30,24.71h2.22V22.49H30Z"/><path class="cls-1" d="M16.73,31.37H12.29V26.93h4.44ZM13.4,30.26h2.22V28H13.4Z"/><path class="cls-1" d="M22.28,31.37H17.84V26.93h4.44ZM19,30.26h2.22V28H19Z"/><path class="cls-1" d="M27.82,31.37H23.39V26.93h4.43ZM24.5,30.26h2.22V28H24.5Z"/><path class="cls-1" d="M16.73,36.91H12.29V32.48h4.44Zm-3.33-1.1h2.22V33.59H13.4Z"/><path class="cls-1" d="M22.28,36.91H17.84V32.48h4.44ZM19,35.81h2.22V33.59H19Z"/><path class="cls-1" d="M27.82,36.91H23.39V32.48h4.43Zm-3.32-1.1h2.22V33.59H24.5Z"/><rect class="cls-1" x="12.29" y="13.62" width="21.08" height="1.11"/></g></svg>