<?xml version="1.0" encoding="utf-8"?>
<!-- Generator: Adobe Illustrator 22.1.0, SVG Export Plug-In . SVG Version: 6.00 Build 0)  -->
<svg version="1.1" id="Layer_1" xmlns="http://www.w3.org/2000/svg" xmlns:xlink="http://www.w3.org/1999/xlink" x="0px" y="0px"
	 viewBox="0 0 82.6 82.5" style="enable-background:new 0 0 82.6 82.5;" xml:space="preserve">
<style type="text/css">
	.st0{fill:#585858;}
	.st1{fill:#F58228;}
</style>
<g id="target_2_">
	<path class="st0" d="M34.8,82.5c-8.8,0-17.8-3.4-24.6-10.2c-13.6-13.6-13.6-35.6,0-49.2c12.2-12.2,31.2-13.6,45-3.6
		c0.4,0.4,0.6,1,0.2,1.4c-0.4,0.4-1,0.6-1.4,0.2c-13-9.4-30.8-8-42.4,3.6c-12.8,12.8-12.8,33.4,0,46.2s33.4,12.8,46.2,0
		c11.4-11.4,12.8-29.2,3.4-42.4c-0.4-0.4-0.2-1,0.2-1.4c0.4-0.4,1-0.2,1.4,0.2c10.2,13.8,8.6,32.8-3.6,45
		C52.6,79.1,43.6,82.5,34.8,82.5z"/>
	<path class="st0" d="M34.8,73.3c-6.6,0-13-2.4-18-7.4c-10-10-10-26,0-36c8.4-8.4,21.8-9.8,31.8-3.4c0.4,0.4,0.6,1,0.4,1.4
		c-0.4,0.4-1,0.6-1.4,0.4c-9.2-5.8-21.4-4.6-29.2,3.2c-9.2,9.2-9.2,24,0,33.2s24,9.2,33.2,0c7.8-7.8,9-20,3.2-29.2
		c-0.4-0.4-0.2-1,0.4-1.4c0.4-0.4,1-0.2,1.4,0.4c6.4,10,5,23.4-3.4,31.8C47.8,70.7,41.4,73.3,34.8,73.3z"/>
	<path class="st0" d="M34.8,63.9c-4.2,0-8.2-1.6-11.4-4.8c-6.4-6.4-6.4-16.6,0-23c4.8-4.8,12.2-6,18.2-3.2c0.6,0.2,0.8,0.8,0.4,1.4
		c-0.2,0.6-0.8,0.8-1.4,0.4c-5.4-2.4-11.8-1.4-16,2.8c-5.6,5.6-5.6,14.6,0,20c5.6,5.6,14.6,5.6,20,0c4.2-4.2,5.4-10.6,2.8-16
		c-0.2-0.6,0-1.2,0.4-1.4c0.6-0.2,1.2,0,1.4,0.4c2.8,6.2,1.6,13.4-3.2,18.2C43,62.3,39,63.9,34.8,63.9z"/>
	<path class="st1" d="M34.8,54.7c-1.8,0-3.6-0.8-5-2c-2.8-2.8-2.8-7.2,0-9.8c0.8-0.8,1.8-1.4,2.8-1.8c0.6-0.2,1,0.2,1.2,0.6
		c0.2,0.6-0.2,1-0.6,1.2c-0.8,0.2-1.4,0.6-2,1.2c-2,2-2,5,0,7c1,1,2.2,1.4,3.4,1.4c1.4,0,2.6-0.6,3.4-1.4c0.6-0.6,1-1.2,1.2-2
		c0.2-0.6,0.8-0.8,1.2-0.6c0.6,0.2,0.8,0.8,0.6,1.2c-0.4,1-1,2-1.8,2.8C38.4,53.9,36.6,54.7,34.8,54.7z"/>
	<path class="st1" d="M35.2,48.5c-0.2,0-0.6,0-0.8-0.2c-0.4-0.4-0.4-1,0-1.4L76.6,4.7c0.4-0.4,1-0.4,1.4,0c0.4,0.4,0.4,1,0,1.4
		l-42,42C35.8,48.3,35.6,48.5,35.2,48.5z"/>
	<path class="st1" d="M71.6,25.1c-0.2,0-0.2,0-0.4,0l-8.6-2.6c-0.6-0.2-0.8-0.8-0.6-1.2c0.2-0.6,0.8-0.8,1.2-0.6l8,2.4l8.4-8.6
		l-7-2.2c-0.6-0.2-0.8-0.8-0.6-1.2c0.2-0.6,0.8-0.8,1.4-0.6l8.6,2.6c0.4,0.2,0.6,0.4,0.6,0.8s0,0.8-0.2,1l-10,10
		C72.2,24.9,71.8,25.1,71.6,25.1z"/>
	<path class="st1" d="M61.6,20.7c-0.4,0-0.8-0.2-1-0.8L58,11.3c-0.2-0.4,0-0.8,0.2-1l10-10c0.2-0.2,0.6-0.4,1-0.2
		c0.4,0,0.6,0.4,0.8,0.6l2.6,8.6c0.2,0.6-0.2,1-0.6,1.2c-0.6,0.2-1-0.2-1.2-0.6l-2.2-7l-8.4,8.4l2.4,8c0.2,0.6-0.2,1-0.6,1.2
		C61.8,20.7,61.6,20.7,61.6,20.7z"/>
</g>
</svg>
