<?xml version="1.0" encoding="utf-8"?>
<!-- Generator: Adobe Illustrator 22.1.0, SVG Export Plug-In . SVG Version: 6.00 Build 0)  -->
<svg version="1.1" id="Layer_1" xmlns="http://www.w3.org/2000/svg" xmlns:xlink="http://www.w3.org/1999/xlink" x="0px" y="0px"
	 viewBox="0 0 45 45" style="enable-background:new 0 0 45 45;" xml:space="preserve">
<style type="text/css">
	.st0{fill:none;stroke:#585858;stroke-width:1.4;stroke-linecap:round;stroke-linejoin:round;stroke-miterlimit:10;}
	.st1{fill:#FFFFFF;}
	.st2{fill:#585858;}
	.st3{fill:#F58228;}
	.st4{fill:#59595B;}
	.st5{fill:#F58228;stroke:#F58228;stroke-width:0.5;stroke-miterlimit:10;}
	.st6{fill:#585858;stroke:#585858;stroke-width:0.5;stroke-miterlimit:10;}
	.st7{fill:#F58228;stroke:#F58228;stroke-width:0.2269;stroke-miterlimit:10;}
	.st8{fill:#585858;stroke:#FFFFFF;stroke-width:0.3256;stroke-miterlimit:10;}
	.st9{fill:#F58228;stroke:#FFFFFF;stroke-width:0.3256;stroke-miterlimit:10;}
	.st10{fill:#585858;stroke:#FFFFFF;stroke-width:0.5;stroke-miterlimit:10;}
	.st11{fill:none;stroke:#F58228;stroke-linecap:round;stroke-linejoin:round;stroke-miterlimit:22.9256;}
	.st12{fill:none;stroke:#585858;stroke-linecap:round;stroke-linejoin:round;stroke-miterlimit:22.9256;}
	.st13{fill:#585858;stroke:#FFFFFF;stroke-width:0.3454;stroke-miterlimit:10;}
	.st14{fill:#F58228;stroke:#FFFFFF;stroke-width:0.3454;stroke-miterlimit:10;}
	.st15{fill:#595A5C;}
	.st16{fill:none;stroke:#F58228;stroke-miterlimit:10;}
	.st17{fill:none;stroke:#FFFFFF;stroke-width:1.144;stroke-miterlimit:10;}
	.st18{fill:none;stroke:#FFFFFF;stroke-width:1.2222;stroke-miterlimit:10;}
	.st19{fill:none;stroke:#FFFFFF;stroke-width:1.2222;stroke-miterlimit:10;stroke-dasharray:1.3537,1.3537;}
	.st20{fill:none;stroke:#585858;stroke-width:1.144;stroke-miterlimit:10;}
	.st21{fill:none;stroke:#F58228;stroke-width:1.144;stroke-miterlimit:10;}
	.st22{fill:none;stroke:#585858;stroke-width:1.2222;stroke-miterlimit:10;}
	.st23{fill:none;stroke:#F58228;stroke-width:1.2222;stroke-miterlimit:10;}
	.st24{fill:none;stroke:#585858;stroke-width:1.2222;stroke-miterlimit:10;stroke-dasharray:1.3537,1.3537;}
</style>
<g id="target_2_">
	<path class="st2" d="M19.8,43c-4.4,0-8.9-1.7-12.3-5.1c-6.8-6.8-6.8-17.8,0-24.6c6.1-6.1,15.6-6.8,22.5-1.8
		c0.2,0.2,0.3,0.5,0.1,0.7c-0.2,0.2-0.5,0.3-0.7,0.1C22.9,7.6,14,8.3,8.2,14.1c-6.4,6.4-6.4,16.7,0,23.1c6.4,6.4,16.7,6.4,23.1,0
		c5.7-5.7,6.4-14.6,1.7-21.2c-0.2-0.2-0.1-0.5,0.1-0.7c0.2-0.2,0.5-0.1,0.7,0.1c5.1,6.9,4.3,16.4-1.8,22.5
		C28.7,41.3,24.2,43,19.8,43z"/>
	<path class="st2" d="M19.8,38.4c-3.3,0-6.5-1.2-9-3.7c-5-5-5-13,0-18c4.2-4.2,10.9-4.9,15.9-1.7c0.2,0.2,0.3,0.5,0.2,0.7
		c-0.2,0.2-0.5,0.3-0.7,0.2c-4.6-2.9-10.7-2.3-14.6,1.6c-4.6,4.6-4.6,12,0,16.6c4.6,4.6,12,4.6,16.6,0c3.9-3.9,4.5-10,1.6-14.6
		c-0.2-0.2-0.1-0.5,0.2-0.7c0.2-0.2,0.5-0.1,0.7,0.2c3.2,5,2.5,11.7-1.7,15.9C26.3,37.1,23.1,38.4,19.8,38.4z"/>
	<path class="st2" d="M19.8,33.7c-2.1,0-4.1-0.8-5.7-2.4c-3.2-3.2-3.2-8.3,0-11.5c2.4-2.4,6.1-3,9.1-1.6c0.3,0.1,0.4,0.4,0.2,0.7
		c-0.1,0.3-0.4,0.4-0.7,0.2c-2.7-1.2-5.9-0.7-8,1.4c-2.8,2.8-2.8,7.3,0,10c2.8,2.8,7.3,2.8,10,0c2.1-2.1,2.7-5.3,1.4-8
		c-0.1-0.3,0-0.6,0.2-0.7c0.3-0.1,0.6,0,0.7,0.2c1.4,3.1,0.8,6.7-1.6,9.1C23.9,32.9,21.9,33.7,19.8,33.7z"/>
	<path class="st3" d="M19.8,29.1c-0.9,0-1.8-0.4-2.5-1c-1.4-1.4-1.4-3.6,0-4.9c0.4-0.4,0.9-0.7,1.4-0.9c0.3-0.1,0.5,0.1,0.6,0.3
		c0.1,0.3-0.1,0.5-0.3,0.6c-0.4,0.1-0.7,0.3-1,0.6c-1,1-1,2.5,0,3.5c0.5,0.5,1.1,0.7,1.7,0.7c0.7,0,1.3-0.3,1.7-0.7
		c0.3-0.3,0.5-0.6,0.6-1c0.1-0.3,0.4-0.4,0.6-0.3c0.3,0.1,0.4,0.4,0.3,0.6c-0.2,0.5-0.5,1-0.9,1.4C21.6,28.7,20.7,29.1,19.8,29.1z"
		/>
	<path class="st3" d="M20,26c-0.1,0-0.3,0-0.4-0.1c-0.2-0.2-0.2-0.5,0-0.7L40.7,4.1c0.2-0.2,0.5-0.2,0.7,0c0.2,0.2,0.2,0.5,0,0.7
		L20.4,25.8C20.3,25.9,20.2,26,20,26z"/>
	<path class="st3" d="M38.2,14.3c-0.1,0-0.1,0-0.2,0l-4.3-1.3c-0.3-0.1-0.4-0.4-0.3-0.6c0.1-0.3,0.4-0.4,0.6-0.3l4,1.2L42.2,9
		l-3.5-1.1c-0.3-0.1-0.4-0.4-0.3-0.6C38.5,7,38.8,6.9,39.1,7l4.3,1.3c0.2,0.1,0.3,0.2,0.3,0.4c0,0.2,0,0.4-0.1,0.5l-5,5
		C38.5,14.2,38.3,14.3,38.2,14.3z"/>
	<path class="st3" d="M33.2,12.1c-0.2,0-0.4-0.1-0.5-0.4l-1.3-4.3c-0.1-0.2,0-0.4,0.1-0.5l5-5c0.1-0.1,0.3-0.2,0.5-0.1
		c0.2,0,0.3,0.2,0.4,0.3l1.3,4.3c0.1,0.3-0.1,0.5-0.3,0.6c-0.3,0.1-0.5-0.1-0.6-0.3l-1.1-3.5l-4.2,4.2l1.2,4
		c0.1,0.3-0.1,0.5-0.3,0.6C33.3,12.1,33.2,12.1,33.2,12.1z"/>
</g>
</svg>
