<?xml version="1.0" encoding="utf-8"?>
<!-- Generator: Adobe Illustrator 22.1.0, SVG Export Plug-In . SVG Version: 6.00 Build 0)  -->
<svg version="1.1" id="Layer_1" xmlns="http://www.w3.org/2000/svg" xmlns:xlink="http://www.w3.org/1999/xlink" x="0px" y="0px"
	 viewBox="0 0 45 45" style="enable-background:new 0 0 45 45;" xml:space="preserve">
<style type="text/css">
	.st0{fill:none;stroke:#585858;stroke-width:1.4;stroke-linecap:round;stroke-linejoin:round;stroke-miterlimit:10;}
	.st1{fill:#FFFFFF;}
	.st2{fill:#585858;}
	.st3{fill:#F58228;}
	.st4{fill:#59595B;}
	.st5{fill:#F58228;stroke:#F58228;stroke-width:0.5;stroke-miterlimit:10;}
	.st6{fill:#585858;stroke:#585858;stroke-width:0.5;stroke-miterlimit:10;}
	.st7{fill:#F58228;stroke:#F58228;stroke-width:0.2269;stroke-miterlimit:10;}
	.st8{fill:#585858;stroke:#FFFFFF;stroke-width:0.3256;stroke-miterlimit:10;}
	.st9{fill:#F58228;stroke:#FFFFFF;stroke-width:0.3256;stroke-miterlimit:10;}
	.st10{fill:#585858;stroke:#FFFFFF;stroke-width:0.5;stroke-miterlimit:10;}
	.st11{fill:none;stroke:#F58228;stroke-linecap:round;stroke-linejoin:round;stroke-miterlimit:22.9256;}
	.st12{fill:none;stroke:#585858;stroke-linecap:round;stroke-linejoin:round;stroke-miterlimit:22.9256;}
	.st13{fill:#585858;stroke:#FFFFFF;stroke-width:0.3454;stroke-miterlimit:10;}
	.st14{fill:#F58228;stroke:#FFFFFF;stroke-width:0.3454;stroke-miterlimit:10;}
	.st15{fill:#595A5C;}
	.st16{fill:none;stroke:#F58228;stroke-miterlimit:10;}
	.st17{fill:none;stroke:#FFFFFF;stroke-width:1.144;stroke-miterlimit:10;}
	.st18{fill:none;stroke:#FFFFFF;stroke-width:1.2222;stroke-miterlimit:10;}
	.st19{fill:none;stroke:#FFFFFF;stroke-width:1.2222;stroke-miterlimit:10;stroke-dasharray:1.3537,1.3537;}
	.st20{fill:none;stroke:#585858;stroke-width:1.144;stroke-miterlimit:10;}
	.st21{fill:none;stroke:#F58228;stroke-width:1.144;stroke-miterlimit:10;}
	.st22{fill:none;stroke:#585858;stroke-width:1.2222;stroke-miterlimit:10;}
	.st23{fill:none;stroke:#F58228;stroke-width:1.2222;stroke-miterlimit:10;}
	.st24{fill:none;stroke:#585858;stroke-width:1.2222;stroke-miterlimit:10;stroke-dasharray:1.3537,1.3537;}
</style>
<g>
	<path class="st15" d="M22.8,3C13.3,3,5.5,10.8,5.5,20.3c0,9.5,7.7,17.2,17.2,17.2S40,29.8,40,20.3C40,10.8,32.3,3,22.8,3z
		 M22.8,4.7c2.7,0,5.2,3.2,6.5,8.3l0.1,0.2H16.2l0.1-0.2C17.6,7.9,20.1,4.7,22.8,4.7z M29.7,15l0,0.2c0.3,1.7,0.4,3.4,0.4,5.2
		c0,1.7-0.1,3.5-0.4,5.2l0,0.2H15.9l0-0.2c-0.3-1.7-0.4-3.4-0.4-5.2c0-1.7,0.1-3.5,0.4-5.2l0-0.2H29.7z M9,13c1.8-3.4,4.8-6,8.5-7.4
		l0.6-0.2L17.7,6c-1.4,1.8-2.5,4.3-3.2,7.2l0,0.2H8.9L9,13z M8.1,25.5c-0.6-1.7-0.9-3.4-0.9-5.2c0-1.7,0.3-3.5,0.9-5.2l0-0.1h6
		l0,0.2c-0.3,1.6-0.4,3.4-0.4,5.1c0,1.7,0.1,3.4,0.4,5.1l0,0.2h-6L8.1,25.5z M17.5,34.9c-3.6-1.3-6.7-3.9-8.5-7.4l-0.2-0.3h5.6
		l0,0.2c0.7,2.9,1.8,5.4,3.2,7.2l0.4,0.5L17.5,34.9z M22.8,35.8c-2.7,0-5.2-3.2-6.5-8.3l-0.1-0.2h13.1l-0.1,0.2
		C28,32.6,25.5,35.8,22.8,35.8z M36.5,27.5c-1.8,3.4-4.8,6-8.5,7.4l-0.6,0.2l0.4-0.5c1.4-1.8,2.5-4.3,3.2-7.2l0-0.2h5.6L36.5,27.5z
		 M37.4,15.1c0.6,1.7,0.9,3.4,0.9,5.2c0,1.7-0.3,3.5-0.9,5.2l0,0.1h-6l0-0.2c0.3-1.6,0.4-3.4,0.4-5.1c0-1.7-0.1-3.5-0.4-5.1l0-0.2h6
		L37.4,15.1z M36.7,13.3H31l0-0.2c-0.7-2.9-1.8-5.4-3.2-7.2l-0.4-0.5l0.6,0.2c3.6,1.3,6.7,3.9,8.5,7.4L36.7,13.3z"/>
</g>
<path class="st3" d="M21.9,21.1h1.7v-1.7h-1.7V21.1z"/>
<path class="st3" d="M26,21.1h1.7v-1.7H26V21.1z"/>
<path class="st3" d="M17.8,21.1h1.7v-1.7h-1.7V21.1z"/>
</svg>
