<svg id="Layer_1" data-name="Layer 1" xmlns="http://www.w3.org/2000/svg" viewBox="0 0 45 45">
  <defs>
    <style>
      .cls-1 {
        fill: #f47722;
      }

      .cls-2 {
        fill: #666766;
      }
    </style>
  </defs>
  <title>identity</title>
  <g>
    <path class="cls-1" d="M24.82,20.64h-1a1,1,0,0,0-2,0h-1a2,2,0,0,1,4,0Z"/>
    <path class="cls-1" d="M26.82,20.64h-1a3,3,0,0,0-3-3v-1A4,4,0,0,1,26.82,20.64Z"/>
    <path class="cls-1" d="M19.82,20.64h-1A4,4,0,0,1,20,17.84l.72.7A3,3,0,0,0,19.82,20.64Z"/>
    <path class="cls-1" d="M28.82,20.64h-1a5,5,0,0,0-10,0h-1a6,6,0,0,1,12,0Z"/>
    <path class="cls-1" d="M30.82,20.64h-1a7,7,0,0,0-2.33-5.22l.67-.75A8,8,0,0,1,30.82,20.64Z"/>
    <path class="cls-1" d="M15.82,20.64h-1a8,8,0,0,1,8-8v1A7,7,0,0,0,15.82,20.64Z"/>
    <path class="cls-1" d="M32.83,20.64h-1A9,9,0,0,0,20,12.09l-.32-.95a10.24,10.24,0,0,1,3.16-.5A10,10,0,0,1,32.83,20.64Z"/>
    <path class="cls-1" d="M13.82,20.64h-1a10,10,0,0,1,2.7-6.85l.73.69A9,9,0,0,0,13.82,20.64Z"/>
    <path class="cls-1" d="M34.83,20.64h-1A11,11,0,0,0,33,16.33l.92-.39A11.83,11.83,0,0,1,34.83,20.64Z"/>
    <path class="cls-1" d="M12.33,17.29l-.95-.3a12,12,0,0,1,21.35-3.14l-.83.57a11,11,0,0,0-19.57,2.87Z"/>
    <rect class="cls-2" x="10.81" y="28.64" width="1" height="3"/>
    <rect class="cls-2" x="10.81" y="25.64" width="1" height="2"/>
    <rect class="cls-2" x="14.82" y="27.64" width="1" height="3"/>
    <rect class="cls-2" x="14.82" y="31.65" width="1" height="3"/>
    <rect class="cls-1" x="14.82" y="24.64" width="1" height="1"/>
    <rect class="cls-1" x="12.82" y="30.65" width="1" height="1"/>
    <rect class="cls-2" x="12.82" y="26.64" width="1" height="3"/>
    <rect class="cls-2" x="12.82" y="23.14" width="1" height="2.5"/>
    <rect class="cls-2" x="12.82" y="32.65" width="1" height="3"/>
    <rect class="cls-1" x="10.81" y="32.65" width="1" height="1"/>
    <rect class="cls-1" x="18.82" y="32.65" width="1" height="1"/>
    <rect class="cls-1" x="16.82" y="34.65" width="1" height="1"/>
    <rect class="cls-2" x="18.82" y="24.64" width="1" height="2"/>
    <rect class="cls-2" x="18.82" y="27.64" width="1" height="3"/>
    <rect class="cls-2" x="16.82" y="26.64" width="1" height="2"/>
    <rect class="cls-2" x="16.82" y="23.14" width="1" height="2.5"/>
    <rect class="cls-2" x="16.82" y="29.64" width="1" height="4"/>
    <rect class="cls-1" x="27.82" y="27.64" width="1" height="1"/>
    <rect class="cls-1" x="27.82" y="32.65" width="1" height="1"/>
    <rect class="cls-2" x="27.82" y="23.14" width="1" height="3.5"/>
    <rect class="cls-2" x="27.82" y="29.64" width="1" height="2"/>
    <rect class="cls-1" x="23.82" y="34.65" width="1" height="1"/>
    <rect class="cls-1" x="25.82" y="30.65" width="1" height="1"/>
    <rect class="cls-2" x="25.82" y="25.64" width="1" height="4"/>
    <rect class="cls-2" x="25.82" y="32.65" width="1" height="3"/>
    <rect class="cls-2" x="31.82" y="33.65" width="1" height="2"/>
    <rect class="cls-2" x="31.82" y="24.64" width="1" height="4"/>
    <rect class="cls-2" x="31.82" y="29.64" width="1" height="3"/>
    <rect class="cls-2" x="29.82" y="24.64" width="1" height="4"/>
    <rect class="cls-2" x="29.82" y="30.65" width="1" height="3"/>
    <rect class="cls-2" x="33.83" y="23.14" width="1" height="3.5"/>
    <rect class="cls-1" x="33.83" y="30.65" width="1" height="1"/>
    <rect class="cls-1" x="33.83" y="33.65" width="1" height="1"/>
    <rect class="cls-2" x="33.83" y="27.64" width="1" height="2"/>
    <rect class="cls-1" x="23.82" y="29.64" width="1" height="1"/>
    <rect class="cls-2" x="23.82" y="24.64" width="1" height="4"/>
    <rect class="cls-2" x="23.82" y="31.65" width="1" height="2"/>
    <rect class="cls-1" x="20.82" y="30.65" width="1" height="1"/>
    <rect class="cls-1" x="20.82" y="28.64" width="1" height="1"/>
    <rect class="cls-2" x="20.82" y="23.14" width="1" height="4.5"/>
    <rect class="cls-2" x="20.82" y="32.65" width="1" height="2"/>
    <rect class="cls-1" x="33.83" y="20.64" width="1" height="2.5"/>
    <rect class="cls-1" x="31.82" y="20.64" width="1" height="2.5"/>
    <rect class="cls-1" x="27.82" y="20.64" width="1" height="1"/>
    <rect class="cls-1" x="23.82" y="20.64" width="1" height="1"/>
    <rect class="cls-1" x="20.82" y="20.64" width="1" height="2.5"/>
    <rect class="cls-1" x="18.82" y="20.64" width="1" height="2.5"/>
    <rect class="cls-1" x="16.82" y="20.64" width="1" height="1"/>
    <rect class="cls-1" x="10.81" y="20.64" width="1" height="3"/>
    <rect class="cls-1" x="14.82" y="20.64" width="1" height="2.5"/>
    <rect class="cls-1" x="25.82" y="20.64" width="1" height="2.5"/>
    <rect class="cls-1" x="12.82" y="20.64" width="1" height="1"/>
    <rect class="cls-2" x="25.82" y="23.14" width="1" height="1.5"/>
    <path class="cls-2" d="M38.33,38.65h-4.5v-1h4v-4h1v4.5A.5.5,0,0,1,38.33,38.65Z"/>
    <path class="cls-2" d="M11.82,38.65H7.31a.5.5,0,0,1-.5-.5v-4.5h1v4h4Z"/>
    <path class="cls-2" d="M7.81,11.64h-1V7.13a.51.51,0,0,1,.5-.5h4.51v1h-4Z"/>
    <path class="cls-2" d="M38.83,11.64h-1v-4h-4v-1h4.5a.51.51,0,0,1,.5.5Z"/>
    <rect class="cls-1" x="8.81" y="8.63" width="1" height="1"/>
    <rect class="cls-1" x="35.83" y="8.63" width="1" height="1"/>
    <rect class="cls-1" x="8.81" y="35.65" width="1" height="1"/>
    <rect class="cls-1" x="35.83" y="35.65" width="1" height="1"/>
    <rect class="cls-2" x="6.81" y="22.64" width="32.02" height="1"/>
  </g>
</svg>
