<svg id="Layer_1" data-name="Layer 1" xmlns="http://www.w3.org/2000/svg" viewBox="0 0 45 45"><defs><style>.cls-1{fill:#585858;}.cls-2{fill:#f58228;}</style></defs><title>infinive_site_icons</title><path class="cls-1" d="M21.61,22.45H15V21.13l.26-.14a2.41,2.41,0,0,0,1.28-2.12,2.56,2.56,0,1,0-5.12,0A2.39,2.39,0,0,0,12.66,21l.25.14v1.32H5.75V8.64A2.05,2.05,0,0,1,7.8,6.59H21.61v1H7.8a1,1,0,0,0-1,1V21.43h4.76a3.33,3.33,0,0,1-1.17-2.56,3.58,3.58,0,1,1,7.16,0,3.36,3.36,0,0,1-1.17,2.56h5.26Z"/><path class="cls-2" d="M21.61,39.34H7.8a2.05,2.05,0,0,1-2-2.05V23.48h1V37.29a1,1,0,0,0,1,1H20.59V33.56A3.33,3.33,0,0,1,18,34.73a3.58,3.58,0,0,1,0-7.16,3.36,3.36,0,0,1,2.56,1.17V23.48h1v6.65H20.29l-.14-.26A2.41,2.41,0,0,0,18,28.59a2.56,2.56,0,0,0,0,5.12,2.39,2.39,0,0,0,2.12-1.28l.14-.25h1.32Z"/><path class="cls-1" d="M36.45,39.34H22.64v-1H36.45a1,1,0,0,0,1-1V24.5H32.76a3.24,3.24,0,0,1,1.13,2.56,3.58,3.58,0,0,1-7.16,0,3.27,3.27,0,0,1,1.13-2.56H22.64v-1h6.65v1.33L29,25a2.24,2.24,0,0,0-1.26,2.11,2.56,2.56,0,0,0,5.12,0A2.22,2.22,0,0,0,31.61,25l-.27-.14V23.48H38.5V37.29A2.05,2.05,0,0,1,36.45,39.34Z"/><path class="cls-2" d="M38.5,22.45h-1V8.64a1,1,0,0,0-1-1H23.66v4.76a3.33,3.33,0,0,1,2.56-1.17,3.58,3.58,0,1,1,0,7.16,3.36,3.36,0,0,1-2.56-1.17v5.26h-1V15.8H24l.14.26a2.41,2.41,0,0,0,2.12,1.28,2.56,2.56,0,1,0,0-5.12A2.39,2.39,0,0,0,24.1,13.5l-.14.25H22.64V6.59H36.45a2.05,2.05,0,0,1,2,2.05Z"/><rect class="cls-1" x="20.59" y="8.64" width="1.02" height="1.02"/><rect class="cls-1" x="18.54" y="8.64" width="1.02" height="1.02"/><rect class="cls-1" x="16.5" y="8.64" width="1.02" height="1.02"/><rect class="cls-1" x="26.73" y="36.27" width="1.02" height="1.02"/><rect class="cls-1" x="24.68" y="36.27" width="1.02" height="1.02"/><rect class="cls-1" x="22.64" y="36.27" width="1.02" height="1.02"/><rect class="cls-1" x="7.8" y="23.48" width="1.02" height="1.02"/><rect class="cls-2" x="7.8" y="25.52" width="1.02" height="1.02"/><rect class="cls-2" x="7.8" y="27.57" width="1.02" height="1.02"/><rect class="cls-2" x="35.43" y="17.34" width="1.02" height="1.02"/><rect class="cls-2" x="35.43" y="19.38" width="1.02" height="1.02"/><rect class="cls-2" x="35.43" y="21.43" width="1.02" height="1.02"/></svg>