<svg id="Layer_1" data-name="Layer 1" xmlns="http://www.w3.org/2000/svg" viewBox="0 0 45 45"><defs><style>.cls-1{fill:#fff;}</style></defs><title>infinive_site_icons</title><path class="cls-1" d="M21.61,21.79H15V20.47l.26-.15A2.41,2.41,0,0,0,16.5,18.2a2.56,2.56,0,0,0-5.12,0,2.39,2.39,0,0,0,1.28,2.12l.25.15v1.32H5.75V8a2.05,2.05,0,0,1,2.05-2H21.61V7H7.8a1,1,0,0,0-1,1V20.76h4.76a3.33,3.33,0,0,1-1.17-2.56,3.58,3.58,0,0,1,7.16,0,3.36,3.36,0,0,1-1.17,2.56h5.26Z"/><path class="cls-1" d="M21.61,38.67H7.8a2.05,2.05,0,0,1-2-2V22.81h1V36.63a1,1,0,0,0,1,1H20.59V32.9A3.36,3.36,0,0,1,18,34.07a3.59,3.59,0,0,1,0-7.17,3.36,3.36,0,0,1,2.56,1.17V22.81h1v6.65H20.29l-.14-.25A2.39,2.39,0,0,0,18,27.93,2.56,2.56,0,1,0,18,33a2.39,2.39,0,0,0,2.12-1.28l.14-.25h1.32Z"/><path class="cls-1" d="M36.45,38.67H22.64v-1H36.45a1,1,0,0,0,1-1V23.83H32.76a3.24,3.24,0,0,1,1.13,2.56,3.58,3.58,0,0,1-7.16,0,3.27,3.27,0,0,1,1.13-2.56H22.64v-1h6.65v1.33l-.28.15a2.22,2.22,0,0,0-1.26,2.1,2.56,2.56,0,1,0,5.12,0,2.2,2.2,0,0,0-1.26-2.1l-.27-.15V22.81H38.5V36.63A2.05,2.05,0,0,1,36.45,38.67Z"/><path class="cls-1" d="M38.5,21.79h-1V8a1,1,0,0,0-1-1H23.66V11.7a3.36,3.36,0,0,1,2.56-1.17,3.58,3.58,0,1,1,0,7.16,3.36,3.36,0,0,1-2.56-1.17v5.27h-1V15.13H24l.14.26a2.41,2.41,0,0,0,2.12,1.28,2.56,2.56,0,1,0,0-5.12,2.41,2.41,0,0,0-2.12,1.28l-.14.26H22.64V5.92H36.45A2.05,2.05,0,0,1,38.5,8Z"/><rect class="cls-1" x="20.59" y="7.97" width="1.02" height="1.02"/><rect class="cls-1" x="18.54" y="7.97" width="1.02" height="1.02"/><rect class="cls-1" x="16.5" y="7.97" width="1.02" height="1.02"/><rect class="cls-1" x="26.73" y="35.6" width="1.02" height="1.02"/><rect class="cls-1" x="24.68" y="35.6" width="1.02" height="1.02"/><rect class="cls-1" x="22.64" y="35.6" width="1.02" height="1.02"/><rect class="cls-1" x="7.8" y="22.81" width="1.02" height="1.02"/><rect class="cls-1" x="7.8" y="24.86" width="1.02" height="1.02"/><rect class="cls-1" x="7.8" y="26.9" width="1.02" height="1.02"/><rect class="cls-1" x="35.43" y="16.67" width="1.02" height="1.02"/><rect class="cls-1" x="35.43" y="18.72" width="1.02" height="1.02"/><rect class="cls-1" x="35.43" y="20.76" width="1.02" height="1.02"/></svg>