<svg id="Layer_1" data-name="Layer 1" xmlns="http://www.w3.org/2000/svg" viewBox="0 0 45 45"><defs><style>.cls-1{fill:#fff;}</style></defs><title>infinive_site_icons</title><path class="cls-1" d="M36.64,6.61a8.36,8.36,0,0,0-5.09-1.7,20.29,20.29,0,0,0-6.76,1.65,19.55,19.55,0,0,1-6.49,1.6,7.52,7.52,0,0,1-4.62-1.55.38.38,0,0,0-.41,0,.4.4,0,0,0-.22.35V21.75a.39.39,0,0,0,.16.32,8.31,8.31,0,0,0,5.09,1.71h0a20,20,0,0,0,6.76-1.66,19.86,19.86,0,0,1,6.49-1.6,7.54,7.54,0,0,1,4.62,1.55.4.4,0,0,0,.41,0,.4.4,0,0,0,.22-.36V6.93A.4.4,0,0,0,36.64,6.61ZM36,21a8.18,8.18,0,0,0-4.46-1.28,20.07,20.07,0,0,0-6.76,1.66A19.8,19.8,0,0,1,18.3,23h0a7.49,7.49,0,0,1-4.46-1.44V7.67A8.21,8.21,0,0,0,18.3,9,20.18,20.18,0,0,0,25.06,7.3a19.61,19.61,0,0,1,6.49-1.6A7.55,7.55,0,0,1,36,7.13Z"/><path class="cls-1" d="M11.4,1.88A1.9,1.9,0,0,0,11,5.65v36h.79v-36a1.91,1.91,0,0,0-.4-3.77Zm0,3a1.12,1.12,0,1,1,1.12-1.12A1.12,1.12,0,0,1,11.4,4.91Z"/><g id="Logo_Bug" data-name="Logo Bug"><path class="cls-1" d="M25,9.17a2,2,0,1,0,2,2A2,2,0,0,0,25,9.17ZM25,12a.84.84,0,0,1,0-1.68A.84.84,0,0,1,25,12Z"/><path class="cls-1" d="M25,15.38a2,2,0,1,0,2,2A2,2,0,0,0,25,15.38Zm0,2.82a.85.85,0,0,1-.84-.84.84.84,0,0,1,.84-.83.83.83,0,0,1,.83.83A.84.84,0,0,1,25,18.2Z"/><path class="cls-1" d="M28.09,12.27a2,2,0,0,0-1.42.61l-.13.13a2.15,2.15,0,0,1-3.1,0l-.13-.13a2,2,0,1,0-1.43,3.36,1.94,1.94,0,0,0,1.43-.61l.13-.12a2.15,2.15,0,0,1,3.1,0l.13.13a2,2,0,0,0,1.42.6,2,2,0,1,0,0-4Zm-6.21,2.82a.83.83,0,0,1-.83-.83.84.84,0,0,1,.83-.84.85.85,0,0,1,.84.84A.84.84,0,0,1,21.88,15.09Zm6.21,0a.83.83,0,0,1-.83-.83.84.84,0,1,1,.83.83Z"/></g></svg>