<svg id="Layer_1" data-name="Layer 1" xmlns="http://www.w3.org/2000/svg" viewBox="0 0 45 45">
  <defs>
    <style>
      .cls-1 {
        fill: #585858;
      }

      .cls-2 {
        fill: #f58228;
      }
    </style>
  </defs>
  <title>independence</title>
  <g>
    <path class="cls-1" d="M37.05,6.51a8.45,8.45,0,0,0-5.16-1.72,20.28,20.28,0,0,0-6.82,1.66A19.5,19.5,0,0,1,18.63,8a7.4,7.4,0,0,1-4.54-1.53.53.53,0,0,0-.54,0,.51.51,0,0,0-.29.46V21.76a.51.51,0,0,0,.21.41,8.4,8.4,0,0,0,5.16,1.73,20.12,20.12,0,0,0,6.81-1.66,19.62,19.62,0,0,1,6.45-1.59,7.45,7.45,0,0,1,4.54,1.52.51.51,0,0,0,.54,0,.52.52,0,0,0,.29-.46V6.93A.54.54,0,0,0,37.05,6.51Zm-.83.69V20.79a8.32,8.32,0,0,0-4.33-1.18,20.23,20.23,0,0,0-6.81,1.66,19.62,19.62,0,0,1-6.45,1.59,7.4,7.4,0,0,1-4.33-1.37V7.9a8.32,8.32,0,0,0,4.33,1.18,20.24,20.24,0,0,0,6.82-1.67,19.56,19.56,0,0,1,6.44-1.59A7.34,7.34,0,0,1,36.22,7.2Z"/>
    <path class="cls-1" d="M11.74,1.63a2.16,2.16,0,0,0-.65,4.22v36h1.29v-36a2.16,2.16,0,0,0-.64-4.22Zm.87,2.16a.87.87,0,1,1-.87-.87A.88.88,0,0,1,12.61,3.79Z"/>
  </g>
  <g id="Logo_Bug" data-name="Logo Bug">
    <g>
      <path class="cls-2" d="M25.32,9.17a2,2,0,1,0,2,2A2,2,0,0,0,25.32,9.17Zm0,2.82a.84.84,0,0,1,0-1.68.84.84,0,0,1,0,1.68Z"/>
      <path class="cls-2" d="M25.32,15.38a2,2,0,1,0,2,2A2,2,0,0,0,25.32,15.38Zm0,2.82a.84.84,0,0,1-.83-.84.83.83,0,0,1,.83-.83.84.84,0,0,1,.84.83A.85.85,0,0,1,25.32,18.2Z"/>
      <path class="cls-2" d="M28.43,12.27a2,2,0,0,0-1.43.61l-.13.13a2.15,2.15,0,0,1-3.1,0l-.13-.13a2,2,0,0,0-1.42-.61,2,2,0,1,0,0,4,1.93,1.93,0,0,0,1.42-.61l.13-.12a2.15,2.15,0,0,1,3.1,0l.13.13a2,2,0,1,0,1.43-3.37Zm-6.21,2.82a.84.84,0,0,1-.84-.83.85.85,0,0,1,.84-.84.84.84,0,0,1,.83.84A.83.83,0,0,1,22.22,15.09Zm6.21,0a.84.84,0,0,1-.84-.83.85.85,0,0,1,.84-.84.84.84,0,0,1,.83.84A.83.83,0,0,1,28.43,15.09Z"/>
    </g>
  </g>
</svg>
