<svg id="Layer_1" data-name="Layer 1" xmlns="http://www.w3.org/2000/svg" viewBox="0 0 45 45"><defs><style>.cls-1{fill:#585858;}.cls-2{fill:#f58228;}</style></defs><title>infinive_site_icons</title><path class="cls-1" d="M37,6.61a8.33,8.33,0,0,0-5.08-1.7,20.29,20.29,0,0,0-6.77,1.65,19.55,19.55,0,0,1-6.49,1.6A7.47,7.47,0,0,1,14,6.61a.4.4,0,0,0-.42,0,.39.39,0,0,0-.21.35V21.75a.39.39,0,0,0,.16.32,8.28,8.28,0,0,0,5.08,1.71h0a20.07,20.07,0,0,0,6.77-1.66,19.8,19.8,0,0,1,6.49-1.6,7.58,7.58,0,0,1,4.62,1.55.38.38,0,0,0,.62-.32V6.93A.4.4,0,0,0,37,6.61ZM36.35,21a8.21,8.21,0,0,0-4.46-1.28,20.07,20.07,0,0,0-6.77,1.66A19.8,19.8,0,0,1,18.63,23h0a7.48,7.48,0,0,1-4.45-1.44V7.67A8.17,8.17,0,0,0,18.63,9,20.29,20.29,0,0,0,25.4,7.3a19.55,19.55,0,0,1,6.49-1.6,7.55,7.55,0,0,1,4.46,1.43Z"/><path class="cls-1" d="M11.74,1.88a1.91,1.91,0,0,0-.4,3.77v36h.79v-36a1.91,1.91,0,0,0-.39-3.77Zm0,3a1.12,1.12,0,1,1,1.12-1.12A1.12,1.12,0,0,1,11.74,4.91Z"/><g id="Logo_Bug" data-name="Logo Bug"><path class="cls-2" d="M25.32,9.17a2,2,0,1,0,2,2A2,2,0,0,0,25.32,9.17Zm0,2.82a.84.84,0,0,1,0-1.68.84.84,0,0,1,0,1.68Z"/><path class="cls-2" d="M25.32,15.38a2,2,0,1,0,2,2A2,2,0,0,0,25.32,15.38Zm0,2.82a.84.84,0,0,1-.83-.84.83.83,0,0,1,.83-.83.84.84,0,0,1,.84.83A.85.85,0,0,1,25.32,18.2Z"/><path class="cls-2" d="M28.43,12.27a2,2,0,0,0-1.43.61l-.13.13a2.15,2.15,0,0,1-3.1,0l-.13-.13a2,2,0,0,0-1.42-.61,2,2,0,1,0,0,4,1.93,1.93,0,0,0,1.42-.61l.13-.12a2.15,2.15,0,0,1,3.1,0l.13.13a2,2,0,1,0,1.43-3.37Zm-6.21,2.82a.84.84,0,0,1-.84-.83.85.85,0,0,1,.84-.84.84.84,0,0,1,.83.84A.83.83,0,0,1,22.22,15.09Zm6.21,0a.84.84,0,0,1-.84-.83.85.85,0,0,1,.84-.84.84.84,0,0,1,.83.84A.83.83,0,0,1,28.43,15.09Z"/></g></svg>