<svg id="Layer_1" data-name="Layer 1" xmlns="http://www.w3.org/2000/svg" viewBox="0 0 45 45">
  <defs>
    <style>
      .cls-1 {
        fill: #fff;
      }
    </style>
  </defs>
  <title>independence white</title>
  <g>
    <path class="cls-1" d="M37.42,6.51a8.43,8.43,0,0,0-5.16-1.72,20.23,20.23,0,0,0-6.81,1.66A19.62,19.62,0,0,1,19,8a7.43,7.43,0,0,1-4.55-1.53.52.52,0,0,0-.54,0,.52.52,0,0,0-.28.46V21.76a.51.51,0,0,0,.21.41A8.38,8.38,0,0,0,19,23.9a20.12,20.12,0,0,0,6.8-1.66,19.62,19.62,0,0,1,6.45-1.59,7.48,7.48,0,0,1,4.55,1.52.5.5,0,0,0,.54,0,.53.53,0,0,0,.28-.46V6.93A.54.54,0,0,0,37.42,6.51Zm-.82.69V20.79a8.38,8.38,0,0,0-4.34-1.18,20.12,20.12,0,0,0-6.8,1.66A19.62,19.62,0,0,1,19,22.86a7.4,7.4,0,0,1-4.33-1.37V7.9A8.32,8.32,0,0,0,19,9.08a20.25,20.25,0,0,0,6.81-1.67,19.62,19.62,0,0,1,6.44-1.59A7.37,7.37,0,0,1,36.6,7.2Z"/>
    <path class="cls-1" d="M12.11,1.63a2.16,2.16,0,0,0-.64,4.22v36h1.28v-36a2.16,2.16,0,0,0-.64-4.22ZM13,3.79a.87.87,0,1,1-.87-.87A.87.87,0,0,1,13,3.79Z"/>
  </g>
  <g id="Logo_Bug" data-name="Logo Bug">
    <g>
      <path class="cls-1" d="M25.7,9.17a2,2,0,1,0,2,2A2,2,0,0,0,25.7,9.17Zm0,2.82a.84.84,0,0,1,0-1.68.84.84,0,0,1,0,1.68Z"/>
      <path class="cls-1" d="M25.7,15.38a2,2,0,1,0,2,2A2,2,0,0,0,25.7,15.38Zm0,2.82a.85.85,0,0,1-.84-.84.84.84,0,0,1,.84-.83.83.83,0,0,1,.83.83A.84.84,0,0,1,25.7,18.2Z"/>
      <path class="cls-1" d="M28.8,12.27a2,2,0,0,0-1.42.61l-.13.13a2.15,2.15,0,0,1-3.1,0L24,12.88a2,2,0,1,0-1.43,3.36A2,2,0,0,0,24,15.63l.13-.12a2.15,2.15,0,0,1,3.1,0l.13.13a1.94,1.94,0,0,0,1.42.6,2,2,0,1,0,0-4Zm-6.21,2.82a.84.84,0,0,1-.84-.83.84.84,0,1,1,1.68,0A.84.84,0,0,1,22.59,15.09Zm6.21,0a.83.83,0,0,1-.83-.83.84.84,0,1,1,.83.83Z"/>
    </g>
  </g>
</svg>
