<svg id="Layer_1" data-name="Layer 1" xmlns="http://www.w3.org/2000/svg" viewBox="0 0 45 45">
  <defs>
    <style>
      .cls-1 {
        fill: #666766;
      }

      .cls-2 {
        fill: #f47722;
      }
    </style>
  </defs>
  <title>insider-threat</title>
  <g>
    <path class="cls-1" d="M25.17,11.58a8.41,8.41,0,0,0-8.4,8.13,3.32,3.32,0,0,1,.95.82c0-.18,0-.36,0-.54a7.49,7.49,0,1,1,1.09,3.89,6.27,6.27,0,0,1,0,.75,7.38,7.38,0,0,1,0,.82,8.37,8.37,0,0,0,9.67,2.29,6,6,0,0,0,.94-.48,8.4,8.4,0,0,0-4.22-15.68Z"/>
    <g>
      <polygon class="cls-1" points="21.9 32.19 20.96 31.55 20.96 29.35 21.9 29.35 21.9 32.19"/>
      <path class="cls-1" d="M29.39,27V37.3a.47.47,0,0,1-.48.46H21.43a.44.44,0,0,1-.36-.18,3,3,0,0,0,.83-1.12v.37h6.55V27Z"/>
    </g>
    <path class="cls-2" d="M31,35.36l-.49-.8L36.4,31V21.87h.93v9.35a.47.47,0,0,1-.22.4Z"/>
    <path class="cls-2" d="M36.86,17.66a2.33,2.33,0,0,0-.47,4.62,1.78,1.78,0,0,0,.47,0,1.91,1.91,0,0,0,.48,0,2.33,2.33,0,0,0-.48-4.62Zm0,3.74a1.41,1.41,0,0,1,0-2.81,1.41,1.41,0,1,1,0,2.81Z"/>
    <rect class="cls-2" x="30.64" y="30.28" width="6.36" height="0.93" transform="translate(-7.55 11.3) rotate(-17.1)"/>
    <path class="cls-1" d="M30.78,36.83H28.91v-.94h1.41V30.28H28.91v-.93h1.87a.47.47,0,0,1,.47.47v6.54A.47.47,0,0,1,30.78,36.83Z"/>
    <rect class="cls-1" x="22.84" y="30.28" width="0.94" height="0.94"/>
    <rect class="cls-1" x="24.71" y="30.28" width="0.94" height="0.94"/>
    <rect class="cls-1" x="26.58" y="30.28" width="0.94" height="0.94"/>
    <rect class="cls-1" x="22.84" y="32.15" width="0.94" height="0.94"/>
    <rect class="cls-1" x="24.71" y="32.15" width="0.94" height="0.94"/>
    <rect class="cls-1" x="26.58" y="32.15" width="0.94" height="0.94"/>
    <rect class="cls-1" x="22.84" y="34.02" width="0.94" height="0.94"/>
    <rect class="cls-1" x="24.71" y="34.02" width="0.94" height="0.94"/>
    <rect class="cls-1" x="26.58" y="34.02" width="0.94" height="0.94"/>
    <path class="cls-1" d="M25.17,18.12A1.88,1.88,0,1,0,27,20,1.88,1.88,0,0,0,25.17,18.12Zm0,2.82a1,1,0,0,1-.93-1,.94.94,0,0,1,1.87,0A1,1,0,0,1,25.17,20.94Z"/>
    <path class="cls-1" d="M25.17,26.54v-.93A5.61,5.61,0,0,0,30.78,20h.94A6.55,6.55,0,0,1,25.17,26.54Z"/>
    <path class="cls-1" d="M19.56,20h-.93a6.55,6.55,0,0,1,6.54-6.55v.93A5.62,5.62,0,0,0,19.56,20Z"/>
    <rect class="cls-2" x="24.71" y="7.84" width="0.94" height="2.81"/>
    <rect class="cls-2" x="15.12" y="12.78" width="0.93" height="2.72" transform="translate(-4.53 20.33) rotate(-59.32)"/>
    <rect class="cls-2" x="19.3" y="9.06" width="0.94" height="2.69" transform="translate(-2.56 11.18) rotate(-29.74)"/>
    <rect class="cls-2" x="33.33" y="13.68" width="2.72" height="0.93" transform="translate(-2.36 19.67) rotate(-30.66)"/>
    <rect class="cls-2" x="29.17" y="9.94" width="2.69" height="0.94" transform="translate(6.34 31.74) rotate(-60.26)"/>
  </g>
  <path class="cls-2" d="M17.47,29.58l-.26-.16L17,29.25a1.43,1.43,0,0,0,.19-.24,2,2,0,0,0,.18-.25,7.21,7.21,0,0,0,1.19-4.12c0-2.66-.58-5.38-4.93-5.38S8.65,22,8.65,24.64a7.21,7.21,0,0,0,1.19,4.12A2,2,0,0,0,10,29a1.43,1.43,0,0,0,.19.24l-.25.17-.26.16-4.53,3v2c0,1.73,1.06,3.18,2.31,3.18H19.69c1.25,0,2.31-1.45,2.31-3.18v-2ZM9.8,24.64c0-3.13,1-4.22,3.79-4.22s3.77,1.09,3.77,4.22c0,2.46-1.32,5.09-3.77,5.09S9.8,27.1,9.8,24.64Zm11.05,10c0,1.18-.7,2-1.16,2H7.48c-.46,0-1.16-.86-1.16-2V33.22l4.23-2.81.26-.18.22-.16L11,30a2.47,2.47,0,0,0,.38.28l.29.16a4.22,4.22,0,0,0,3.91,0l.29-.16c.13-.08.23-.16.35-.25l-.06.09.24.16.26.18,4.23,2.81Z"/>
</svg>
