<svg id="Layer_1" data-name="Layer 1" xmlns="http://www.w3.org/2000/svg" viewBox="0 0 45 45">
  <defs>
    <style>
      .cls-1 {
        fill: #fff;
      }
    </style>
  </defs>
  <title>insider-threat-w</title>
  <g>
    <path class="cls-1" d="M26,11.58a8.41,8.41,0,0,0-8.4,8.13,3.5,3.5,0,0,1,1,.82,4.89,4.89,0,0,1,0-.54,7.51,7.51,0,1,1,1.1,3.89c0,.25,0,.5,0,.75s0,.56,0,.82a8.36,8.36,0,0,0,9.66,2.29,6,6,0,0,0,.94-.48A8.4,8.4,0,0,0,26,11.58Z"/>
    <g>
      <polygon class="cls-1" points="22.69 32.19 21.75 31.55 21.75 29.35 22.69 29.35 22.69 32.19"/>
      <path class="cls-1" d="M30.17,27V37.3a.46.46,0,0,1-.47.46H22.21a.47.47,0,0,1-.36-.18,2.91,2.91,0,0,0,.84-1.12v.37h6.54V27Z"/>
    </g>
    <path class="cls-1" d="M31.81,35.36l-.49-.8L37.18,31V21.87h.93v9.35a.47.47,0,0,1-.22.4Z"/>
    <path class="cls-1" d="M37.64,17.66a2.33,2.33,0,0,0-.46,4.62,1.71,1.71,0,0,0,.46,0,1.86,1.86,0,0,0,.48,0,2.33,2.33,0,0,0-.48-4.62Zm0,3.74A1.41,1.41,0,1,1,39.05,20,1.4,1.4,0,0,1,37.64,21.4Z"/>
    <rect class="cls-1" x="31.43" y="30.28" width="6.36" height="0.93" transform="translate(-7.51 11.53) rotate(-17.1)"/>
    <path class="cls-1" d="M31.57,36.83H29.7v-.94h1.4V30.28H29.7v-.93h1.87a.47.47,0,0,1,.47.47v6.54A.47.47,0,0,1,31.57,36.83Z"/>
    <rect class="cls-1" x="23.62" y="30.28" width="0.94" height="0.94"/>
    <rect class="cls-1" x="25.49" y="30.28" width="0.94" height="0.94"/>
    <rect class="cls-1" x="27.36" y="30.28" width="0.94" height="0.94"/>
    <rect class="cls-1" x="23.62" y="32.15" width="0.94" height="0.94"/>
    <rect class="cls-1" x="25.49" y="32.15" width="0.94" height="0.94"/>
    <rect class="cls-1" x="27.36" y="32.15" width="0.94" height="0.94"/>
    <rect class="cls-1" x="23.62" y="34.02" width="0.94" height="0.94"/>
    <rect class="cls-1" x="25.49" y="34.02" width="0.94" height="0.94"/>
    <rect class="cls-1" x="27.36" y="34.02" width="0.94" height="0.94"/>
    <path class="cls-1" d="M26,18.12A1.88,1.88,0,1,0,27.82,20,1.89,1.89,0,0,0,26,18.12Zm0,2.82A1,1,0,0,1,25,20a.94.94,0,1,1,.93,1Z"/>
    <path class="cls-1" d="M26,26.54v-.93A5.62,5.62,0,0,0,31.57,20h.93A6.54,6.54,0,0,1,26,26.54Z"/>
    <path class="cls-1" d="M20.35,20h-.94A6.56,6.56,0,0,1,26,13.45v.93A5.62,5.62,0,0,0,20.35,20Z"/>
    <rect class="cls-1" x="25.49" y="7.84" width="0.94" height="2.81"/>
    <rect class="cls-1" x="15.91" y="12.78" width="0.93" height="2.72" transform="translate(-4.14 21.01) rotate(-59.32)"/>
    <rect class="cls-1" x="20.08" y="9.06" width="0.94" height="2.69" transform="translate(-2.46 11.57) rotate(-29.74)"/>
    <rect class="cls-1" x="34.12" y="13.68" width="2.72" height="0.93" transform="translate(-2.25 20.07) rotate(-30.66)"/>
    <rect class="cls-1" x="29.96" y="9.94" width="2.69" height="0.94" transform="translate(6.73 32.42) rotate(-60.26)"/>
  </g>
  <path class="cls-1" d="M18.25,29.58,18,29.42l-.25-.17a1.06,1.06,0,0,0,.19-.24,2,2,0,0,0,.18-.25,7.21,7.21,0,0,0,1.19-4.12c0-2.66-.58-5.38-4.93-5.38S9.44,22,9.44,24.64a7.21,7.21,0,0,0,1.19,4.12,2,2,0,0,0,.18.25,1.06,1.06,0,0,0,.19.24l-.25.17-.27.16L6,32.61v2C6,36.39,7,37.84,8.27,37.84h12.2c1.25,0,2.31-1.45,2.31-3.18v-2Zm-7.67-4.94c0-3.13,1-4.22,3.79-4.22s3.78,1.09,3.78,4.22c0,2.46-1.33,5.09-3.78,5.09S10.58,27.1,10.58,24.64Zm11.06,10c0,1.18-.7,2-1.17,2H8.27c-.47,0-1.17-.86-1.17-2V33.22l4.23-2.81.26-.18.23-.16L11.75,30a2.47,2.47,0,0,0,.38.28,1.64,1.64,0,0,0,.29.16,4.2,4.2,0,0,0,3.9,0,2.09,2.09,0,0,0,.29-.16c.13-.08.24-.16.36-.25l-.06.09.24.16.26.18,4.23,2.81Z"/>
</svg>
