<svg id="Layer_1" data-name="Layer 1" xmlns="http://www.w3.org/2000/svg" viewBox="0 0 45 45">
  <defs>
    <style>
      .cls-1 {
        fill: #fff;
      }
    </style>
  </defs>
  <title>IT-wh</title>
  <g>
    <path class="cls-1" d="M40.21,17.54a.43.43,0,0,0,.43-.43.44.44,0,0,0-.43-.44H38.49V15.39h1.72a.44.44,0,0,0,0-.87H36.34V10.65a.44.44,0,0,0-.44-.44H32V6.35a.44.44,0,0,0-.88,0V8.06H29.89V6.35a.44.44,0,1,0-.88,0V8.06H27.74V6.35a.44.44,0,0,0-.88,0V8.06H25.58V6.35a.44.44,0,1,0-.87,0V8.06H23.43V6.35a.44.44,0,1,0-.87,0V8.06H21.28V6.35a.44.44,0,0,0-.44-.44.44.44,0,0,0-.43.44V8.06H19.13V6.35a.44.44,0,1,0-.88,0V8.06H17V6.35a.44.44,0,0,0-.88,0V8.06H14.83V6.35a.44.44,0,1,0-.88,0v3.86H10.08a.44.44,0,0,0-.43.44v3.87H5.78a.44.44,0,1,0,0,.87H7.56v1.28H5.78a.44.44,0,0,0-.44.44.44.44,0,0,0,.44.43H7.56v1.28H5.78a.44.44,0,1,0,0,.88H7.56V21H5.78a.44.44,0,0,0,0,.88H7.56v1.27H5.78a.44.44,0,0,0,0,.88H7.56v1.27H5.78a.44.44,0,1,0,0,.88H7.56v1.27H5.78a.44.44,0,0,0-.44.44.44.44,0,0,0,.44.44H7.56v1.28H5.78a.44.44,0,1,0,0,.87H7.56v1.28H5.78a.44.44,0,0,0-.44.44.44.44,0,0,0,.44.43H9.65v3.87a.44.44,0,0,0,.43.44H14v3.86a.44.44,0,0,0,.88,0V39.06H16.1v1.71a.44.44,0,0,0,.88,0V39.06h1.27v1.71a.44.44,0,1,0,.88,0V39.06h1.28v1.71a.44.44,0,0,0,.43.44.44.44,0,0,0,.44-.44V39.06h1.28v1.71a.44.44,0,1,0,.87,0V39.06h1.28v1.71a.44.44,0,1,0,.87,0V39.06h1.28v1.71a.44.44,0,0,0,.88,0V39.06H29v1.71a.44.44,0,0,0,.88,0V39.06h1.27v1.71a.44.44,0,0,0,.88,0V36.91H35.9a.44.44,0,0,0,.44-.44V32.6h3.87a.43.43,0,0,0,.43-.43.44.44,0,0,0-.43-.44H38.49V30.45h1.72a.44.44,0,0,0,0-.87H38.49V28.3h1.72a.43.43,0,0,0,.43-.44.44.44,0,0,0-.43-.44H38.49V26.15h1.72a.44.44,0,0,0,0-.88H38.49V24h1.72a.44.44,0,0,0,0-.88H38.49V21.85h1.72a.44.44,0,0,0,0-.88H38.49V19.7h1.72a.44.44,0,0,0,0-.88H38.49V17.54ZM9.65,31.73H8.44V15.39H9.65ZM14.93,9H31.06v1.07H14.93Zm-4.41,2.05h2.81L10.52,13.9Zm0,24.94V33.22L13.33,36Zm20.64,2.15H14.83V36.91H31.16Zm.22-2.25H14.61L10.69,32V15.11l3.92-3.92H31.38l4,4V31.94Zm4.09.1H32.66l2.81-2.81Zm0-22.13-2.81-2.81h2.81Zm2.15,17.83H36.34V15.39h1.28Z"/>
    <path class="cls-1" d="M20.84,15.49H31.6a.54.54,0,1,0,0-1.07H20.84a.54.54,0,1,0,0,1.07Z"/>
    <path class="cls-1" d="M20.84,19.8H31.6a.54.54,0,0,0,.54-.54.54.54,0,0,0-.54-.54H20.84a.54.54,0,0,0-.54.54A.55.55,0,0,0,20.84,19.8Z"/>
    <path class="cls-1" d="M20.84,17.64H31.6a.54.54,0,1,0,0-1.07H20.84a.54.54,0,1,0,0,1.07Z"/>
    <path class="cls-1" d="M25.15,27.33H14.39a.54.54,0,1,0,0,1.07H25.15a.54.54,0,0,0,0-1.07Z"/>
    <path class="cls-1" d="M25.15,31.63H14.39a.54.54,0,1,0,0,1.07H25.15a.54.54,0,0,0,0-1.07Z"/>
    <path class="cls-1" d="M25.15,29.48H14.39a.54.54,0,1,0,0,1.07H25.15a.54.54,0,0,0,0-1.07Z"/>
    <path class="cls-1" d="M22.46,23.56A.54.54,0,1,0,23,23,.54.54,0,0,0,22.46,23.56Z"/>
    <path class="cls-1" d="M31.6,23a.54.54,0,1,0,.54.54A.54.54,0,0,0,31.6,23Z"/>
    <path class="cls-1" d="M28.91,23.56a.54.54,0,0,0,.54.54.54.54,0,0,0,0-1.08A.54.54,0,0,0,28.91,23.56Z"/>
    <path class="cls-1" d="M20.84,24.1a.54.54,0,1,0,0-1.08.54.54,0,0,0,0,1.08Z"/>
    <path class="cls-1" d="M25.15,23a.54.54,0,1,0,.53.54A.54.54,0,0,0,25.15,23Z"/>
    <path class="cls-1" d="M27.3,23a.54.54,0,0,0,0,1.08.54.54,0,1,0,0-1.08Z"/>
    <path class="cls-1" d="M14.39,24.1a.54.54,0,1,0,0-1.08.54.54,0,1,0,0,1.08Z"/>
    <path class="cls-1" d="M16,23.56a.54.54,0,1,0,.54-.54A.54.54,0,0,0,16,23.56Z"/>
    <path class="cls-1" d="M18.69,23a.54.54,0,1,0,.54.54A.54.54,0,0,0,18.69,23Z"/>
    <path class="cls-1" d="M32.52,27.7H28.21a.44.44,0,0,0-.43.44v4.3a.44.44,0,0,0,.43.44h4.31a.44.44,0,0,0,.43-.44v-4.3A.44.44,0,0,0,32.52,27.7ZM32.08,32H28.65V28.58h3.43Z"/>
    <path class="cls-1" d="M14.39,19.7h4.3a.44.44,0,0,0,.44-.44V15a.44.44,0,0,0-.44-.43h-4.3A.44.44,0,0,0,14,15v4.31A.44.44,0,0,0,14.39,19.7Zm.44-4.31h3.42v3.43H14.83Z"/>
  </g>
</svg>
