<svg id="Layer_1" data-name="Layer 1" xmlns="http://www.w3.org/2000/svg" viewBox="0 0 45 45"><defs><style>.cls-1{fill:#fff;}</style></defs><title>IT</title><path class="cls-1" d="M39.56,17.64a.54.54,0,1,0,0-1.07H38V15.49h1.61a.54.54,0,1,0,0-1.07H35.79V10.65a.54.54,0,0,0-.53-.54H31.49V8.5h0V6.35a.54.54,0,1,0-1.07,0V8H29.34V6.35a.54.54,0,0,0-.54-.54.54.54,0,0,0-.54.54V8H27.19V6.35a.54.54,0,1,0-1.08,0V8H25V6.35a.54.54,0,1,0-1.08,0V8H22.89V6.35a.54.54,0,0,0-.54-.54.54.54,0,0,0-.54.54V8H20.73V6.35a.54.54,0,1,0-1.07,0V8H18.58V6.35a.54.54,0,1,0-1.07,0V8H16.43V6.35a.54.54,0,1,0-1.07,0V8H14.28V6.35a.54.54,0,1,0-1.08,0V8.5h0v1.61H9.44a.54.54,0,0,0-.54.54v3.77H5.14a.54.54,0,1,0,0,1.07H6.81v1.08H5.14a.54.54,0,1,0,0,1.07H6.81v1.08H5.14a.54.54,0,0,0-.54.54.54.54,0,0,0,.54.54H6.81v1.07H5.14a.54.54,0,0,0,0,1.08H6.81V23H5.14a.54.54,0,0,0,0,1.08H6.81v1.07H5.14a.54.54,0,0,0,0,1.08H6.81v1.08H5.14a.54.54,0,1,0,0,1.07H6.81v1.08H5.14a.54.54,0,1,0,0,1.07H6.81v1.08H5.14a.54.54,0,1,0,0,1.07H8.9v3.77a.54.54,0,0,0,.54.54H13.2v1.61h0v2.15a.54.54,0,1,0,1.08,0V39.16h1.08v1.61a.54.54,0,1,0,1.07,0V39.16h1.08v1.61a.54.54,0,1,0,1.07,0V39.16h1.08v1.61a.54.54,0,1,0,1.07,0V39.16h1.08v1.61a.54.54,0,0,0,.54.54.54.54,0,0,0,.54-.54V39.16H24v1.61a.54.54,0,1,0,1.08,0V39.16h1.07v1.61a.54.54,0,1,0,1.08,0V39.16h1.07v1.61a.54.54,0,0,0,.54.54.54.54,0,0,0,.54-.54V39.16h1.08v1.61a.54.54,0,1,0,1.07,0V38.62h0V37h3.77a.54.54,0,0,0,.53-.54V32.7h3.77a.54.54,0,1,0,0-1.07H38V30.55h1.61a.54.54,0,1,0,0-1.07H38V28.4h1.61a.54.54,0,1,0,0-1.07H38V26.25h1.61a.54.54,0,0,0,0-1.08H38V24.1h1.61a.54.54,0,1,0,0-1.08H38V22h1.61a.54.54,0,0,0,0-1.08H38V19.8h1.61a.54.54,0,0,0,.54-.54.54.54,0,0,0-.54-.54H38V17.64ZM30.73,35.93H14L10,32V15.11L14,11.19H30.73l4,4V31.94ZM7.89,15.49h1V31.63h-1Zm27.9,0h1.08V31.63H35.79Zm-1.07-1.83-2.47-2.47h2.47ZM14.28,9H30.42v1.07H14.28Zm-1.84,2.15L10,13.66V11.19ZM10,33.47l2.46,2.46H10ZM14.28,37H30.42v1.07H14.28Zm18-1.08,2.47-2.46v2.46Z"/><path class="cls-1" d="M20.2,15.49H31a.54.54,0,1,0,0-1.07H20.2a.54.54,0,1,0,0,1.07Z"/><path class="cls-1" d="M20.2,19.8H31a.54.54,0,0,0,.54-.54.54.54,0,0,0-.54-.54H20.2a.54.54,0,0,0-.54.54A.54.54,0,0,0,20.2,19.8Z"/><path class="cls-1" d="M20.2,17.64H31a.54.54,0,1,0,0-1.07H20.2a.54.54,0,1,0,0,1.07Z"/><path class="cls-1" d="M24.5,27.33H13.74a.54.54,0,1,0,0,1.07H24.5a.54.54,0,1,0,0-1.07Z"/><path class="cls-1" d="M24.5,31.63H13.74a.54.54,0,1,0,0,1.07H24.5a.54.54,0,1,0,0-1.07Z"/><path class="cls-1" d="M24.5,29.48H13.74a.54.54,0,1,0,0,1.07H24.5a.54.54,0,1,0,0-1.07Z"/><path class="cls-1" d="M21.81,23.56a.54.54,0,0,0,.54.54.54.54,0,0,0,0-1.08A.54.54,0,0,0,21.81,23.56Z"/><path class="cls-1" d="M31,23a.54.54,0,1,0,.54.54A.54.54,0,0,0,31,23Z"/><path class="cls-1" d="M28.26,23.56a.54.54,0,0,0,.54.54.54.54,0,0,0,0-1.08A.54.54,0,0,0,28.26,23.56Z"/><path class="cls-1" d="M20.2,24.1a.54.54,0,1,0-.54-.54A.54.54,0,0,0,20.2,24.1Z"/><path class="cls-1" d="M24.5,23a.54.54,0,0,0,0,1.08.54.54,0,1,0,0-1.08Z"/><path class="cls-1" d="M27.19,23.56a.54.54,0,1,0-.54.54A.54.54,0,0,0,27.19,23.56Z"/><path class="cls-1" d="M13.74,24.1a.54.54,0,0,0,0-1.08.54.54,0,1,0,0,1.08Z"/><path class="cls-1" d="M15.36,23.56a.54.54,0,1,0,.53-.54A.54.54,0,0,0,15.36,23.56Z"/><path class="cls-1" d="M18,23a.54.54,0,1,0,.54.54A.54.54,0,0,0,18,23Z"/><path class="cls-1" d="M31.87,27.6h-4.3a.54.54,0,0,0-.54.54v4.3a.54.54,0,0,0,.54.54h4.3a.54.54,0,0,0,.54-.54v-4.3A.54.54,0,0,0,31.87,27.6Zm-.54,4.3H28.1V28.68h3.23Z"/><path class="cls-1" d="M13.74,19.8H18a.54.54,0,0,0,.54-.54V15a.54.54,0,0,0-.54-.53h-4.3a.54.54,0,0,0-.54.53v4.31A.54.54,0,0,0,13.74,19.8Zm.54-4.31h3.23v3.23H14.28Z"/></svg>