<svg id="Layer_1" data-name="Layer 1" xmlns="http://www.w3.org/2000/svg" viewBox="0 0 45 45"><defs><style>.cls-1{fill:#585858;}.cls-1,.cls-2{stroke:#fff;stroke-miterlimit:10;stroke-width:0.2px;}.cls-2{fill:#f58228;}</style></defs><title>IT color</title><path class="cls-1" d="M40.21,17.64a.54.54,0,0,0,0-1.07H38.59V15.49h1.62a.54.54,0,0,0,0-1.07H36.44V10.65a.54.54,0,0,0-.54-.54H32.14V8.5h0V6.35a.54.54,0,1,0-1.08,0V8H30V6.35a.54.54,0,1,0-1.08,0V8H27.83V6.35a.54.54,0,1,0-1.07,0V8H25.68V6.35a.54.54,0,1,0-1.07,0V8H23.53V6.35a.54.54,0,1,0-1.07,0V8H21.38V6.35a.54.54,0,1,0-1.07,0V8H19.23V6.35a.54.54,0,1,0-1.08,0V8H17.08V6.35a.54.54,0,1,0-1.08,0V8H14.93V6.35a.54.54,0,1,0-1.08,0V8.5h0v1.61H10.08a.54.54,0,0,0-.53.54v3.77H5.78a.54.54,0,1,0,0,1.07H7.46v1.08H5.78a.54.54,0,1,0,0,1.07H7.46v1.08H5.78a.54.54,0,0,0-.54.54.54.54,0,0,0,.54.54H7.46v1.07H5.78a.54.54,0,0,0,0,1.08H7.46V23H5.78a.54.54,0,0,0,0,1.08H7.46v1.07H5.78a.54.54,0,0,0,0,1.08H7.46v1.08H5.78a.54.54,0,1,0,0,1.07H7.46v1.08H5.78a.54.54,0,1,0,0,1.07H7.46v1.08H5.78a.54.54,0,1,0,0,1.07H9.55v3.77a.54.54,0,0,0,.53.54h3.77v1.61h0v2.15a.54.54,0,1,0,1.08,0V39.16H16v1.61a.54.54,0,0,0,1.08,0V39.16h1.07v1.61a.54.54,0,1,0,1.08,0V39.16h1.08v1.61a.54.54,0,1,0,1.07,0V39.16h1.08v1.61a.54.54,0,1,0,1.07,0V39.16h1.08v1.61a.54.54,0,1,0,1.07,0V39.16h1.08v1.61a.54.54,0,1,0,1.07,0V39.16h1.08v1.61a.54.54,0,0,0,1.08,0V39.16h1.07v1.61a.54.54,0,1,0,1.08,0V38.62h0V37H35.9a.54.54,0,0,0,.54-.54V32.7h3.77a.54.54,0,0,0,0-1.07H38.59V30.55h1.62a.54.54,0,0,0,0-1.07H38.59V28.4h1.62a.54.54,0,0,0,0-1.07H38.59V26.25h1.62a.54.54,0,0,0,0-1.08H38.59V24.1h1.62a.54.54,0,0,0,0-1.08H38.59V22h1.62a.54.54,0,0,0,0-1.08H38.59V19.8h1.62a.54.54,0,0,0,.53-.54.54.54,0,0,0-.53-.54H38.59V17.64ZM31.38,35.93H14.61L10.69,32V15.11l3.92-3.92H31.38l4,4V31.94ZM8.54,15.49h1V31.63h-1Zm27.9,0h1.08V31.63H36.44Zm-1.07-1.83L32.9,11.19h2.47ZM14.93,9H31.06v1.07H14.93Zm-1.84,2.15-2.47,2.47V11.19ZM10.62,33.47l2.47,2.46H10.62ZM14.93,37H31.06v1.07H14.93Zm18-1.08,2.47-2.46v2.46Z"/><path class="cls-1" d="M20.84,15.49H31.6a.54.54,0,1,0,0-1.07H20.84a.54.54,0,1,0,0,1.07Z"/><path class="cls-1" d="M20.84,19.8H31.6a.54.54,0,0,0,.54-.54.54.54,0,0,0-.54-.54H20.84a.54.54,0,0,0-.54.54A.55.55,0,0,0,20.84,19.8Z"/><path class="cls-1" d="M20.84,17.64H31.6a.54.54,0,1,0,0-1.07H20.84a.54.54,0,1,0,0,1.07Z"/><path class="cls-1" d="M25.15,27.33H14.39a.54.54,0,1,0,0,1.07H25.15a.54.54,0,0,0,0-1.07Z"/><path class="cls-1" d="M25.15,31.63H14.39a.54.54,0,1,0,0,1.07H25.15a.54.54,0,0,0,0-1.07Z"/><path class="cls-1" d="M25.15,29.48H14.39a.54.54,0,1,0,0,1.07H25.15a.54.54,0,0,0,0-1.07Z"/><path class="cls-1" d="M22.46,23.56A.54.54,0,1,0,23,23,.54.54,0,0,0,22.46,23.56Z"/><path class="cls-1" d="M31.6,23a.54.54,0,1,0,.54.54A.54.54,0,0,0,31.6,23Z"/><path class="cls-1" d="M28.91,23.56a.54.54,0,0,0,.54.54.54.54,0,0,0,0-1.08A.54.54,0,0,0,28.91,23.56Z"/><path class="cls-1" d="M20.84,24.1a.54.54,0,1,0,0-1.08.54.54,0,0,0,0,1.08Z"/><path class="cls-1" d="M25.15,23a.54.54,0,1,0,.53.54A.54.54,0,0,0,25.15,23Z"/><path class="cls-1" d="M27.84,23.56A.54.54,0,0,0,27.3,23a.54.54,0,0,0,0,1.08A.54.54,0,0,0,27.84,23.56Z"/><path class="cls-1" d="M14.39,24.1a.54.54,0,1,0,0-1.08.54.54,0,1,0,0,1.08Z"/><path class="cls-1" d="M16,23.56a.54.54,0,1,0,.54-.54A.54.54,0,0,0,16,23.56Z"/><path class="cls-1" d="M18.69,23a.54.54,0,1,0,.54.54A.54.54,0,0,0,18.69,23Z"/><path class="cls-2" d="M32.52,27.6H28.21a.54.54,0,0,0-.53.54v4.3a.54.54,0,0,0,.53.54h4.31a.54.54,0,0,0,.53-.54v-4.3A.54.54,0,0,0,32.52,27.6ZM32,31.9H28.75V28.68H32Z"/><path class="cls-2" d="M14.39,19.8h4.3a.54.54,0,0,0,.54-.54V15a.54.54,0,0,0-.54-.53h-4.3a.54.54,0,0,0-.54.53v4.31A.54.54,0,0,0,14.39,19.8Zm.54-4.31h3.22v3.23H14.93Z"/></svg>