<svg id="Layer_1" data-name="Layer 1" xmlns="http://www.w3.org/2000/svg" viewBox="0 0 45 45">
  <defs>
    <style>
      .cls-1 {
        fill: #fff;
      }
    </style>
  </defs>
  <title>lightbulb-w</title>
  <polygon class="cls-1" points="21.86 12.47 20.84 12.47 20.84 13.5 19.82 13.5 19.82 15.85 21.86 16.87 21.86 17.58 19.82 17.58 19.82 18.6 20.84 18.6 20.84 19.62 21.86 19.62 21.86 18.6 22.88 18.6 22.88 16.24 20.84 15.22 20.84 14.52 22.88 14.52 22.88 13.5 21.86 13.5 21.86 12.47"/>
  <g>
    <path class="cls-1" d="M30.54,16.05a9.19,9.19,0,1,0-9.7,9.17v2.06h1V24.22h-.51a8.18,8.18,0,1,1,3.54-.81l.44.92a9.24,9.24,0,0,0,5.21-8.28"/>
    <path class="cls-1" d="M24.93,36.46v-1h1v-2h1v-1H26v-1h1v-1H26v-1h.51l.49-.39.94-3.76a11.24,11.24,0,1,0-13.08,0l.94,3.77.5.39h.51v1h-1v1h1v1h-1v1h1v2h1v1H14.72v1h6.12v-1h-2v-1h1v-1h-2v-1h2v-1h-2v-1h2v-1h-2v-1h7.15v1H20.84v1h4.09v1H20.84v1h4.09v1H20.84v1H23.9v2.05h4.25v-1ZM16.06,26l.48.25.44-.93a10.21,10.21,0,1,1,8.75,0l.44.93.48-.25-.59,2.35H16.65Z"/>
    <rect class="cls-1" x="21.86" y="36.46" width="1.02" height="1.02"/>
    <rect class="cls-1" x="27.99" y="32.38" width="1.02" height="1.02"/>
    <rect class="cls-1" x="27.99" y="30.34" width="1.02" height="1.02"/>
    <rect class="cls-1" x="13.7" y="30.34" width="1.02" height="1.02"/>
    <rect class="cls-1" x="13.7" y="32.38" width="1.02" height="1.02"/>
    <rect class="cls-1" x="17.78" y="17.58" width="1.02" height="1.02"/>
    <rect class="cls-1" x="23.9" y="13.5" width="1.02" height="1.02"/>
    <rect class="cls-1" x="23.9" y="15.54" width="1.02" height="1.02"/>
    <rect class="cls-1" x="17.78" y="15.54" width="1.02" height="1.02"/>
    <rect class="cls-1" x="25.95" y="13.5" width="1.02" height="1.02"/>
    <rect class="cls-1" x="15.74" y="17.58" width="1.02" height="1.02"/>
  </g>
</svg>
