<svg id="Layer_1" data-name="Layer 1" xmlns="http://www.w3.org/2000/svg" viewBox="0 0 45 45">
  <defs>
    <style>
      .cls-1 {
        fill: #fff;
      }
    </style>
  </defs>
  <title>lightbulb-w</title>
  <polygon class="cls-1" points="21.95 11.84 20.75 11.84 20.75 13.04 19.56 13.04 19.56 15.8 21.95 17 21.95 17.83 19.56 17.83 19.56 19.03 20.75 19.03 20.75 20.22 21.95 20.22 21.95 19.03 23.15 19.03 23.15 16.26 20.75 15.06 20.75 14.23 23.15 14.23 23.15 13.04 21.95 13.04 21.95 11.84"/>
  <g>
    <path class="cls-1" d="M32.13,16A10.78,10.78,0,1,0,20.75,26.8v2.41H22v-3.6h-.6a9.58,9.58,0,1,1,4.15-.94L26,25.75A10.84,10.84,0,0,0,32.13,16"/>
    <path class="cls-1" d="M25.55,40v-1.2h1.19v-2.4h1.2V35.2h-1.2V34h1.2V32.8h-1.2V31.6h.6l.58-.45L29,26.73a13.18,13.18,0,1,0-15.35,0l1.1,4.42.58.45H16v1.2h-1.2V34H16v1.2h-1.2v1.19H16v2.4h1.2V40H13.57v1.2h7.18V40H18.36v-1.2h1.2v-1.2h-2.4v-1.2h2.4V35.2h-2.4V34h2.4V32.8h-2.4V31.6h8.39v1.2h-4.8V34h4.8v1.2h-4.8v1.19h4.8v1.2h-4.8v1.2h3.6v2.4h5V40ZM15.14,27.65l.56.29.52-1.08a12,12,0,1,1,10.27,0L27,27.94l.56-.29-.69,2.76h-11Z"/>
    <rect class="cls-1" x="21.95" y="39.99" width="1.2" height="1.2"/>
    <rect class="cls-1" x="29.14" y="35.2" width="1.2" height="1.2"/>
    <rect class="cls-1" x="29.14" y="32.8" width="1.2" height="1.2"/>
    <rect class="cls-1" x="12.37" y="32.8" width="1.2" height="1.2"/>
    <rect class="cls-1" x="12.37" y="35.2" width="1.2" height="1.2"/>
    <rect class="cls-1" x="17.16" y="17.83" width="1.2" height="1.2"/>
    <rect class="cls-1" x="24.35" y="13.04" width="1.2" height="1.2"/>
    <rect class="cls-1" x="24.35" y="15.43" width="1.2" height="1.2"/>
    <rect class="cls-1" x="17.16" y="15.43" width="1.2" height="1.2"/>
    <rect class="cls-1" x="26.74" y="13.04" width="1.2" height="1.2"/>
    <rect class="cls-1" x="14.76" y="17.83" width="1.2" height="1.2"/>
  </g>
</svg>
