<svg id="Layer_1" data-name="Layer 1" xmlns="http://www.w3.org/2000/svg" viewBox="0 0 45 45">
  <defs>
    <style>
      .cls-1 {
        fill: #f47722;
      }

      .cls-2 {
        fill: #585858;
      }
    </style>
  </defs>
  <title>lightbulb</title>
  <polygon class="cls-1" points="21.86 13.17 20.84 13.17 20.84 14.19 19.82 14.19 19.82 16.55 21.86 17.57 21.86 18.27 19.82 18.27 19.82 19.3 20.84 19.3 20.84 20.32 21.86 20.32 21.86 19.3 22.88 19.3 22.88 16.94 20.84 15.92 20.84 15.21 22.88 15.21 22.88 14.19 21.86 14.19 21.86 13.17"/>
  <g>
    <path class="cls-2" d="M30.54,16.74a9.19,9.19,0,1,0-9.7,9.18v2h1V24.91h-.51a8.15,8.15,0,1,1,3.54-.8l.44.92a9.26,9.26,0,0,0,5.21-8.29"/>
    <path class="cls-2" d="M24.93,37.16v-1h1v-2h1v-1H26v-1h1V31H26V30h.51l.49-.38.94-3.77a11.23,11.23,0,1,0-13.08,0l.94,3.77.5.38h.51v1h-1v1h1v1h-1v1h1v2h1v1H14.72v1h6.12v-1h-2v-1h1v-1h-2v-1h2v-1h-2v-1h2V31h-2V30h7.15v1H20.84v1h4.09v1H20.84v1h4.09v1H20.84v1H23.9v2h4.25v-1ZM16.06,26.64l.48.25L17,26a10.21,10.21,0,1,1,8.75,0l.44.92.48-.25L26.06,29H16.65Z"/>
    <rect class="cls-1" x="21.86" y="37.16" width="1.02" height="1.02"/>
    <rect class="cls-2" x="27.99" y="33.08" width="1.02" height="1.02"/>
    <rect class="cls-1" x="27.99" y="31.03" width="1.02" height="1.02"/>
    <rect class="cls-2" x="13.7" y="31.03" width="1.02" height="1.02"/>
    <rect class="cls-1" x="13.7" y="33.08" width="1.02" height="1.02"/>
    <rect class="cls-2" x="17.78" y="18.27" width="1.02" height="1.02"/>
    <rect class="cls-2" x="23.9" y="14.19" width="1.02" height="1.02"/>
    <rect class="cls-1" x="23.9" y="16.23" width="1.02" height="1.02"/>
    <rect class="cls-1" x="17.78" y="16.23" width="1.02" height="1.02"/>
    <rect class="cls-1" x="25.95" y="14.19" width="1.02" height="1.02"/>
    <rect class="cls-1" x="15.74" y="18.27" width="1.02" height="1.02"/>
  </g>
</svg>
