<svg id="Layer_1" data-name="Layer 1" xmlns="http://www.w3.org/2000/svg" viewBox="0 0 45 45">
  <defs>
    <style>
      .cls-1 {
        fill: #f47722;
      }

      .cls-2 {
        fill: #585858;
      }
    </style>
  </defs>
  <title>lightbulb</title>
  <polygon class="cls-1" points="21.95 11.66 20.75 11.66 20.75 12.86 19.56 12.86 19.56 15.63 21.95 16.83 21.95 17.65 19.56 17.65 19.56 18.85 20.75 18.85 20.75 20.05 21.95 20.05 21.95 18.85 23.15 18.85 23.15 16.09 20.75 14.89 20.75 14.06 23.15 14.06 23.15 12.86 21.95 12.86 21.95 11.66"/>
  <g>
    <path class="cls-2" d="M32.13,15.86A10.78,10.78,0,1,0,20.75,26.62V29H22V25.44h-.6a9.58,9.58,0,1,1,4.15-.94L26,25.58a10.85,10.85,0,0,0,6.11-9.72"/>
    <path class="cls-2" d="M25.55,39.81V38.62h1.19v-2.4h1.2V35h-1.2V33.83h1.2v-1.2h-1.2v-1.2h.6l.58-.45L29,26.56a13.18,13.18,0,1,0-15.35,0L14.78,31l.58.45H16v1.2h-1.2v1.2H16V35h-1.2v1.2H16v2.4h1.2v1.19H13.57V41h7.18v-1.2H18.36V38.62h1.2v-1.2h-2.4v-1.2h2.4V35h-2.4V33.83h2.4v-1.2h-2.4v-1.2h8.39v1.2h-4.8v1.2h4.8V35h-4.8v1.2h4.8v1.2h-4.8v1.2h3.6V41h5v-1.2ZM15.14,27.47l.56.29.52-1.08a12,12,0,1,1,10.27,0L27,27.77c.19-.09.38-.2.56-.3l-.69,2.76h-11Z"/>
    <rect class="cls-1" x="21.95" y="39.82" width="1.2" height="1.2"/>
    <rect class="cls-2" x="29.14" y="35.02" width="1.2" height="1.2"/>
    <rect class="cls-1" x="29.14" y="32.63" width="1.2" height="1.2"/>
    <rect class="cls-2" x="12.37" y="32.63" width="1.2" height="1.2"/>
    <rect class="cls-1" x="12.37" y="35.02" width="1.2" height="1.2"/>
    <rect class="cls-2" x="17.16" y="17.65" width="1.2" height="1.2"/>
    <rect class="cls-2" x="24.35" y="12.86" width="1.2" height="1.2"/>
    <rect class="cls-1" x="24.35" y="15.26" width="1.2" height="1.2"/>
    <rect class="cls-1" x="17.16" y="15.26" width="1.2" height="1.2"/>
    <rect class="cls-1" x="26.74" y="12.86" width="1.2" height="1.2"/>
    <rect class="cls-1" x="14.76" y="17.65" width="1.2" height="1.2"/>
  </g>
</svg>
