<svg id="Layer_1" data-name="Layer 1" xmlns="http://www.w3.org/2000/svg" viewBox="0 0 45 45">
  <defs>
    <style>
      .cls-1 {
        fill: #f58228;
      }

      .cls-2 {
        fill: #585858;
      }
    </style>
  </defs>
  <title>managed services</title>
  <g>
    <polygon class="cls-1" points="23.42 27.15 11.99 38.58 11.32 38.58 7.65 34.92 7.65 34.25 19.09 22.81 23.42 27.15"/>
    <g>
      <path class="cls-2" d="M39.21,5.3,34,7.93V9.76L24.8,18.91l-5.14-5.15v-.33c0-5.39-2.43-8-7.44-8h-.13l-2,1L13.7,10l-2.62,2.62L7.49,9l-1,2v.14c0,5,2.62,7.43,8,7.43h.34L18.28,22,6.51,33.77v1.62l4.33,4.34h1.62L24.23,28l.41-.4h0a.58.58,0,0,0,0-.8h0l-.45-.44,2-2-.85-.85,1.19-1.2.41-.4.4-.41,9.15-9.15h1.83L40.94,7ZM15.32,17.43h-.81c-4.69,0-6.82-1.9-6.86-6.16L7.81,11l3.27,3.27L15.32,10,12.05,6.72l.31-.15c4.25,0,6.15,2.16,6.15,6.86v.8L24,19.72l-1.2,1.19-.86-.86-2,2-.46-.45-.09-.08ZM12,38.58h-.67L7.65,34.92v-.67L19.09,22.81l4.33,4.34Zm11.27-13L20.64,23l.11-.12,1.19-1.19,2.63,2.62ZM37.6,11.14H36l-9.48,9.48-.4.41-.41.4-1.19,1.2-.12.11-.91-.91.12-.11,1.19-1.2.41-.4.4-.41,9.49-9.48V8.63L39,6.69l.56.56Z"/>
      <path class="cls-2" d="M40.81,34v.13l-1,2-3.59-3.59-2.62,2.62,3.58,3.59-2,1H35.1c-5,0-7.44-2.62-7.44-8v-.33L24.23,28l.41-.4h0a.58.58,0,0,0,0-.8l4.16,4.16v.81c0,4.7,1.9,6.82,6.15,6.86l.31-.15L32,35.15l4.24-4.24,3.27,3.28.16-.31c0-4.26-2.17-6.16-6.86-6.16H32l-5.48-5.48.41-.4.4-.41,5.14,5.15h.34C38.2,26.58,40.81,29,40.81,34Z"/>
    </g>
    <path class="cls-2" d="M9.94,35.15A.59.59,0,0,1,9.53,35a.58.58,0,0,1,0-.81L18.68,25a.57.57,0,0,1,.81.81L10.34,35A.57.57,0,0,1,9.94,35.15Z"/>
    <path class="cls-2" d="M11.65,36.87a.58.58,0,0,1-.4-1l9.15-9.15a.57.57,0,0,1,.81.81L12.06,36.7A.58.58,0,0,1,11.65,36.87Z"/>
  </g>
  <polygon class="cls-1" points="23.26 25.6 20.64 22.98 20.75 22.86 21.94 21.67 24.57 24.29 23.26 25.6"/>
</svg>
