<svg id="Layer_1" data-name="Layer 1" xmlns="http://www.w3.org/2000/svg" viewBox="0 0 45 45"><defs><style>.cls-1{fill:#fff;}</style></defs><title>infinive_site_icons</title><path class="cls-1" d="M32.81,26.17h-.34l-5.25-5.25a1.58,1.58,0,0,1-.75.86L32,27.31h.81c4.7,0,6.82,1.9,6.86,6.16l-.16.31L36.24,30.5,32,34.74,35.27,38l-.31.15c-4.25,0-6.15-2.16-6.15-6.86V30.5L15.32,17h-.81c-4.69,0-6.82-1.9-6.86-6.16l.16-.31,3.27,3.27,4.24-4.23L12.05,6.31l.31-.15c4.25,0,6.15,2.16,6.15,6.86v.8l5.64,5.64a1.53,1.53,0,0,1,.79-.83l-5.28-5.28V13c0-5.39-2.43-8-7.44-8h-.13l-2,1L13.7,9.59l-2.62,2.62L7.49,8.62l-1,2v.14c0,5,2.62,7.43,8,7.43h.34L27.66,31v.33c0,5.39,2.43,8,7.44,8h.13l2-1-3.58-3.59,2.62-2.62,3.59,3.59,1-2V33.6C40.81,28.6,38.2,26.17,32.81,26.17Z"/><path class="cls-1" d="M12.46,39.32H10.84L6.51,35V33.36L18.68,21.19a.56.56,0,0,1,.81,0,.58.58,0,0,1,0,.81L7.65,33.84v.67l3.67,3.66H12L23.83,26.33a.57.57,0,0,1,.81.81Z"/><path class="cls-1" d="M23.66,26.17a.58.58,0,0,1-.4-1l1.31-1.31-2.63-2.62-1.31,1.31a.57.57,0,0,1-.8,0,.56.56,0,0,1,0-.81l2.11-2.12,4.24,4.24L24.06,26A.56.56,0,0,1,23.66,26.17Z"/><path class="cls-1" d="M24.8,23.31a.58.58,0,0,1-.4-1L36,10.73h1.6l1.95-3.89L39,6.28,35.1,8.22v1.6L23.49,21.42a.56.56,0,0,1-.81,0,.57.57,0,0,1,0-.8L34,9.35V7.52l5.26-2.63,1.73,1.72-2.63,5.26H36.48L25.21,23.14A.58.58,0,0,1,24.8,23.31Z"/><path class="cls-1" d="M9.94,34.74a.59.59,0,0,1-.41-.16.58.58,0,0,1,0-.81l9.15-9.15a.57.57,0,1,1,.81.81l-9.15,9.15A.57.57,0,0,1,9.94,34.74Z"/><path class="cls-1" d="M11.65,36.46a.58.58,0,0,1-.4-1l9.15-9.15a.57.57,0,0,1,.81.81l-9.15,9.15A.58.58,0,0,1,11.65,36.46Z"/></svg>