<svg id="Layer_1" data-name="Layer 1" xmlns="http://www.w3.org/2000/svg" viewBox="0 0 45 45"><defs><style>.cls-1{fill:#f58228;}.cls-2{fill:#fff;}.cls-3{fill:#585858;}</style></defs><title>infinive_site_icons</title><polygon class="cls-1" points="19.09 22 7.08 34.01 7.08 35.15 11.08 39.16 12.22 39.16 24.23 27.15 19.09 22"/><path class="cls-2" d="M32.24,27.15,19.09,14v-.57C19.09,8.28,16.8,6,12.22,6l-1.14.57L14.51,10l-3.43,3.43L7.65,10l-.57,1.14c0,4.57,2.29,6.86,7.43,6.86h.57L28.23,31.15v.57c0,5.15,2.29,7.44,6.87,7.44l1.14-.58-3.43-3.43,3.43-3.43,3.43,3.43L40.24,34c0-4.57-2.29-6.86-7.43-6.86Z"/><path class="cls-3" d="M35.23,39.73H35.1c-5,0-7.44-2.62-7.44-8v-.33L14.85,18.57h-.34c-5.38,0-8-2.43-8-7.43V11l1-2,3.59,3.59L13.7,10,10.12,6.41l2-1h.13c5,0,7.44,2.62,7.44,8v.33L32.47,26.58h.34c5.39,0,8,2.43,8,7.43v.13l-1,2-3.59-3.59-2.62,2.62,3.58,3.59ZM7.65,11.27c0,4.26,2.17,6.16,6.86,6.16h.81L28.81,30.91v.81c0,4.7,1.9,6.82,6.15,6.86l.31-.15L32,35.15l4.24-4.24,3.27,3.28.16-.31c0-4.26-2.17-6.16-6.86-6.16H32L18.51,14.23v-.8c0-4.7-1.9-6.82-6.15-6.86l-.31.15L15.32,10l-4.24,4.23L7.81,11Z"/><path class="cls-3" d="M12.46,39.73H10.84L6.51,35.39V33.77L18.68,21.6a.56.56,0,0,1,.81,0,.58.58,0,0,1,0,.81L7.65,34.25v.67l3.67,3.66H12L23.83,26.74a.57.57,0,0,1,.81.81Z"/><rect class="cls-1" x="21.59" y="21.01" width="2.43" height="4.85" transform="translate(-9.89 22.99) rotate(-45)"/><path class="cls-3" d="M23.66,26.58a.58.58,0,0,1-.4-1l1.31-1.31-2.63-2.62L20.63,23a.57.57,0,0,1-.8,0,.56.56,0,0,1,0-.81l2.11-2.12,4.24,4.24-2.12,2.12A.56.56,0,0,1,23.66,26.58Z"/><polygon class="cls-2" points="23.09 21.43 34.52 9.99 34.52 8.28 39.1 5.99 40.24 7.14 37.95 11.71 36.24 11.71 24.8 23.15 23.09 21.43"/><path class="cls-3" d="M24.8,23.72a.58.58,0,0,1-.4-1L36,11.14h1.6l1.95-3.89L39,6.69,35.1,8.63v1.6L23.49,21.83a.56.56,0,0,1-.81,0,.57.57,0,0,1,0-.8L34,9.76V7.93L39.21,5.3,40.94,7l-2.63,5.26H36.48L25.21,23.55A.58.58,0,0,1,24.8,23.72Z"/><path class="cls-3" d="M9.94,35.15A.59.59,0,0,1,9.53,35a.58.58,0,0,1,0-.81L18.68,25a.57.57,0,0,1,.81.81L10.34,35A.57.57,0,0,1,9.94,35.15Z"/><path class="cls-3" d="M11.65,36.87a.58.58,0,0,1-.4-1l9.15-9.15a.57.57,0,0,1,.81.81L12.06,36.7A.58.58,0,0,1,11.65,36.87Z"/></svg>