<svg id="Layer_1" data-name="Layer 1" xmlns="http://www.w3.org/2000/svg" viewBox="0 0 45 45">
  <defs>
    <style>
      .cls-1 {
        fill: #fff;
      }
    </style>
  </defs>
  <title>marketing</title>
  <g>
    <path class="cls-1" d="M41.32,5.71H39.14a.5.5,0,0,0-.5.5v.08L20.83,14s-.07.07-.11.1h-13a.5.5,0,0,0-.5.5v.34h-2a.5.5,0,0,0-.5.5V25.83a.5.5,0,0,0,.5.5h2v.34a.5.5,0,0,0,.5.5H9.61L13.33,39a.5.5,0,0,0,.48.35h7.3a.49.49,0,0,0,.4-.21.5.5,0,0,0,.08-.44l-2.2-7h1.8a.51.51,0,0,0,.4-.2.52.52,0,0,0,.07-.45l-1.22-3.91h.28a.87.87,0,0,0,.11.09l17.81,7.67V35a.5.5,0,0,0,.5.5h2.18a.5.5,0,0,0,.5-.5V6.21A.5.5,0,0,0,41.32,5.71ZM38.6,7.4V33.83L21.53,26.47V14.75ZM5.76,25.33V15.9H7.23v9.43Zm8.41,13.06L10.65,27.17h6.26l3.52,11.22Zm6.34-7.66H19.07L18,27.17h1.43Zm-.07-4.56H8.23V15.06H20.44Zm20.38,8.34H39.64V19.59h1.18Zm0-15.92H39.64V6.71h1.18Z"/>
    <path class="cls-1" d="M9.23,17.48h8.54a.5.5,0,0,0,0-1H9.23a.5.5,0,0,0,0,1Z"/>
  </g>
</svg>
