<svg id="Layer_1" data-name="Layer 1" xmlns="http://www.w3.org/2000/svg" viewBox="0 0 45 45"><defs><style>.cls-1{fill:none;stroke:#fff;stroke-linecap:round;stroke-linejoin:round;stroke-width:0.75px;}</style></defs><title>marketing</title><g id="megaphone"><polyline class="cls-1" points="19.78 26.53 21.19 31.01 18.94 31.01"/><polyline class="cls-1" points="17.31 26.56 21.11 38.67 13.81 38.67 10.01 26.56"/><polygon class="cls-1" points="21.03 14.21 21.03 26.59 39.1 34.38 39.1 6.42 21.03 14.21"/><polyline class="cls-1" points="7.56 15.19 5.26 15.19 5.26 25.61 7.56 25.61"/><rect class="cls-1" x="7.73" y="14.34" width="13.22" height="12.11"/><rect class="cls-1" x="39.14" y="6" width="2.18" height="28.8"/><rect class="cls-1" x="39.14" y="18.88" width="2.18" height="15.92"/><rect class="cls-1" x="39.14" y="6" width="2.18" height="28.8"/><polygon class="cls-1" points="21.03 14.21 21.03 26.59 39.1 34.38 39.1 6.42 21.03 14.21"/><rect class="cls-1" x="7.73" y="14.34" width="13.22" height="12.11"/><line class="cls-1" x1="9.23" y1="16.77" x2="17.77" y2="16.77"/></g></svg>