<svg id="Layer_1" data-name="Layer 1" xmlns="http://www.w3.org/2000/svg" viewBox="0 0 45 45">
  <defs>
    <style>
      .cls-1 {
        fill: #f58228;
      }

      .cls-2 {
        fill: #585858;
      }
    </style>
  </defs>
  <title>marketing_color</title>
  <g id="megaphone">
    <g>
      <path class="cls-1" d="M21.19,31.51H18.94a.5.5,0,0,1-.5-.5.5.5,0,0,1,.5-.5h1.57L19.3,26.68a.5.5,0,1,1,1-.3l1.4,4.48a.51.51,0,0,1-.07.45A.48.48,0,0,1,21.19,31.51Z"/>
      <path class="cls-2" d="M39.1,34.87a.43.43,0,0,1-.19,0L20.83,27.05a.51.51,0,0,1-.3-.46V14.21a.51.51,0,0,1,.3-.46L38.91,6a.52.52,0,0,1,.47,0,.51.51,0,0,1,.22.42V34.37a.5.5,0,0,1-.22.42A.46.46,0,0,1,39.1,34.87ZM21.53,26.26,38.6,33.61V7.18L21.53,14.54Z"/>
      <g>
        <path class="cls-1" d="M21.59,38.52,17.78,26.41a.5.5,0,1,0-1,.3l3.6,11.46H14.17L10.48,26.41a.5.5,0,1,0-1,.3l3.8,12.11a.5.5,0,0,0,.48.35h7.3a.48.48,0,0,0,.4-.2A.52.52,0,0,0,21.59,38.52Z"/>
        <path class="cls-1" d="M7.56,15.69a.5.5,0,0,0,.5-.5.5.5,0,0,0-.5-.5H5.26a.5.5,0,0,0-.5.5V25.61a.5.5,0,0,0,.5.5h2.3a.5.5,0,1,0,0-1H5.76V15.69Z"/>
      </g>
      <path class="cls-2" d="M20.94,27H7.73a.5.5,0,0,1-.5-.5V14.34a.5.5,0,0,1,.5-.5H20.94a.5.5,0,0,1,.5.5V26.45A.5.5,0,0,1,20.94,27ZM8.23,26H20.44V14.84H8.23Z"/>
      <path class="cls-2" d="M41.32,35.3H39.14a.5.5,0,0,1-.5-.5V6a.5.5,0,0,1,.5-.5h2.18a.5.5,0,0,1,.5.5V34.8A.5.5,0,0,1,41.32,35.3Zm-1.68-1h1.18V6.5H39.64Z"/>
      <g>
        <path class="cls-2" d="M41.32,5.5H39.14a.5.5,0,0,0-.5.5v.08L20.83,13.75a.87.87,0,0,0-.11.09h-13a.5.5,0,0,0-.5.5V26.45a.5.5,0,0,0,.5.5h13a.5.5,0,0,0,.11.1l17.81,7.67v.08a.5.5,0,0,0,.5.5h2.18a.5.5,0,0,0,.5-.5V6A.5.5,0,0,0,41.32,5.5Zm-.5,1V18.38H39.64V6.5ZM20.44,26H8.23V14.84H20.44ZM38.6,33.61,21.53,26.26V14.54L38.6,7.18Zm2.22.69H39.64V19.38h1.18Z"/>
        <path class="cls-2" d="M9.23,17.27h8.54a.5.5,0,0,0,.5-.5.5.5,0,0,0-.5-.5H9.23a.5.5,0,0,0-.5.5A.5.5,0,0,0,9.23,17.27Z"/>
      </g>
    </g>
  </g>
</svg>
