<?xml version="1.0" encoding="utf-8"?>
<!-- Generator: Adobe Illustrator 22.1.0, SVG Export Plug-In . SVG Version: 6.00 Build 0)  -->
<svg version="1.1" id="Layer_1" xmlns="http://www.w3.org/2000/svg" xmlns:xlink="http://www.w3.org/1999/xlink" x="0px" y="0px"
	 viewBox="0 0 45 45" style="enable-background:new 0 0 45 45;" xml:space="preserve">
<style type="text/css">
	.st0{fill:none;stroke:#585858;stroke-width:1.4;stroke-linecap:round;stroke-linejoin:round;stroke-miterlimit:10;}
	.st1{fill:#FFFFFF;}
	.st2{fill:#585858;}
	.st3{fill:#F58228;}
	.st4{fill:#59595B;}
	.st5{fill:#F58228;stroke:#F58228;stroke-width:0.5;stroke-miterlimit:10;}
	.st6{fill:#585858;stroke:#585858;stroke-width:0.5;stroke-miterlimit:10;}
	.st7{fill:#F58228;stroke:#F58228;stroke-width:0.2269;stroke-miterlimit:10;}
	.st8{fill:#585858;stroke:#FFFFFF;stroke-width:0.3256;stroke-miterlimit:10;}
	.st9{fill:#F58228;stroke:#FFFFFF;stroke-width:0.3256;stroke-miterlimit:10;}
	.st10{fill:#585858;stroke:#FFFFFF;stroke-width:0.5;stroke-miterlimit:10;}
	.st11{fill:none;stroke:#F58228;stroke-linecap:round;stroke-linejoin:round;stroke-miterlimit:22.9256;}
	.st12{fill:none;stroke:#585858;stroke-linecap:round;stroke-linejoin:round;stroke-miterlimit:22.9256;}
	.st13{fill:#585858;stroke:#FFFFFF;stroke-width:0.3454;stroke-miterlimit:10;}
	.st14{fill:#F58228;stroke:#FFFFFF;stroke-width:0.3454;stroke-miterlimit:10;}
	.st15{fill:#595A5C;}
	.st16{fill:none;stroke:#F58228;stroke-miterlimit:10;}
	.st17{fill:none;stroke:#FFFFFF;stroke-width:1.144;stroke-miterlimit:10;}
	.st18{fill:none;stroke:#FFFFFF;stroke-width:1.2222;stroke-miterlimit:10;}
	.st19{fill:none;stroke:#FFFFFF;stroke-width:1.2222;stroke-miterlimit:10;stroke-dasharray:1.3537,1.3537;}
	.st20{fill:none;stroke:#585858;stroke-width:1.144;stroke-miterlimit:10;}
	.st21{fill:none;stroke:#F58228;stroke-width:1.144;stroke-miterlimit:10;}
	.st22{fill:none;stroke:#585858;stroke-width:1.2222;stroke-miterlimit:10;}
	.st23{fill:none;stroke:#F58228;stroke-width:1.2222;stroke-miterlimit:10;}
	.st24{fill:none;stroke:#585858;stroke-width:1.2222;stroke-miterlimit:10;stroke-dasharray:1.3537,1.3537;}
</style>
<g>
	<g id="Logo_Bug_2_">
		<g>
			<path class="st3" d="M22.6,17.4c-1.1,0-2.1,0.9-2.1,2.1c0,1.1,0.9,2.1,2.1,2.1c1.1,0,2.1-0.9,2.1-2.1
				C24.7,18.4,23.7,17.4,22.6,17.4z M22.6,20.4c-0.5,0-0.9-0.4-0.9-0.9c0-0.5,0.4-0.9,0.9-0.9c0.5,0,0.9,0.4,0.9,0.9
				C23.5,20,23.1,20.4,22.6,20.4z"/>
			<path class="st3" d="M22.6,23.9c-1.1,0-2.1,0.9-2.1,2.1c0,1.1,0.9,2.1,2.1,2.1c1.1,0,2.1-0.9,2.1-2.1
				C24.7,24.8,23.7,23.9,22.6,23.9z M22.6,26.8c-0.5,0-0.9-0.4-0.9-0.9c0-0.5,0.4-0.9,0.9-0.9c0.5,0,0.9,0.4,0.9,0.9
				C23.5,26.4,23.1,26.8,22.6,26.8z"/>
			<path class="st3" d="M25.8,20.7c-0.6,0-1.1,0.2-1.5,0.6l-0.1,0.1c-0.4,0.4-1,0.7-1.6,0.7c-0.6,0-1.2-0.2-1.6-0.7l-0.1-0.1
				c-0.4-0.4-0.9-0.6-1.5-0.6c-1.1,0-2.1,0.9-2.1,2.1c0,1.1,0.9,2.1,2.1,2.1c0.6,0,1.1-0.2,1.5-0.6L21,24c0.4-0.4,1-0.7,1.6-0.7
				c0.6,0,1.2,0.2,1.6,0.7l0.1,0.1c0.4,0.4,0.9,0.6,1.5,0.6c1.1,0,2.1-0.9,2.1-2.1C27.9,21.6,27,20.7,25.8,20.7z M19.4,23.6
				c-0.5,0-0.9-0.4-0.9-0.9c0-0.5,0.4-0.9,0.9-0.9c0.5,0,0.9,0.4,0.9,0.9C20.2,23.2,19.9,23.6,19.4,23.6z M25.8,23.6
				c-0.5,0-0.9-0.4-0.9-0.9c0-0.5,0.4-0.9,0.9-0.9c0.5,0,0.9,0.4,0.9,0.9C26.7,23.2,26.3,23.6,25.8,23.6z"/>
		</g>
	</g>
	<g>
		<path class="st2" d="M7.9,31.4c-1.4-2.3-2.1-5-2.2-7.7h4.4c0.1,1.9,0.6,3.8,1.6,5.5l1-0.6c-0.9-1.5-1.4-3.2-1.4-5h4.4v-1.1H5.7
			C6,13.9,13,7,21.7,6.7v4.4c-4.7,0.2-8.8,3.1-10.6,7.5l1,0.4c1.6-4,5.4-6.6,9.6-6.8v2.2h1.1V6.7c5.7,0.2,10.6,3.2,13.5,7.8
			l-3.8,2.2c-1.9-3-4.9-4.9-8.4-5.5l-0.2,1.1c3.1,0.5,5.9,2.3,7.6,4.9l-3.8,2.2l0.6,1l8.6-5c1.2,2.3,2,5,2,7.8
			c0,2.9-0.8,5.8-2.2,8.3l1,0.6c1.5-2.7,2.4-5.7,2.4-8.8c0-3-0.8-5.8-2.1-8.3l0,0l-0.6-1l0,0c-3.1-5-8.6-8.4-15-8.4
			c-9.7,0-17.6,7.9-17.6,17.6c0,3.1,0.8,6.1,2.4,8.8L7.9,31.4z"/>
		<path class="st2" d="M32.7,29.2c1.1-1.8,1.6-3.9,1.6-6.1c0-1.4-0.2-2.8-0.7-4l-1,0.4c0.4,1.2,0.6,2.4,0.6,3.7
			c0,1.9-0.5,3.8-1.5,5.5L32.7,29.2z"/>
		<rect x="10.1" y="20.4" class="st2" width="1.1" height="1.1"/>
		<rect x="12.3" y="20.4" class="st2" width="1.1" height="1.1"/>
		<rect x="14.5" y="20.4" class="st2" width="1.1" height="1.1"/>
		<path class="st2" d="M29.4,38h1.1c0.2,0,0.4-0.1,0.5-0.3c0.1-0.2,0.1-0.4,0-0.6l-3.9-6.1c-0.2-0.3-0.7-0.3-0.9,0l-3.9,6.1
			c-0.1,0.2-0.1,0.4,0,0.6c0.1,0.2,0.3,0.3,0.5,0.3h1.1v2.8H25v-3.3c0-0.3-0.2-0.6-0.6-0.6h-0.6l2.9-4.5l2.9,4.5h-0.6h-2.8V38h2.2
			v2.2c0,0.3,0.2,0.6,0.6,0.6h11v-1.1H29.4V38z"/>
		<path class="st2" d="M18.3,26.7c-0.2-0.3-0.7-0.3-0.9,0l-3.9,6.1c-0.1,0.2-0.1,0.4,0,0.6c0.1,0.2,0.3,0.3,0.5,0.3h1.1v6.1H4.6v1.1
			h11c0.3,0,0.6-0.2,0.6-0.6v-7.2c0-0.3-0.2-0.6-0.6-0.6H15l2.9-4.5l2.9,4.5H20h-2.8v1.1h2.2v7.2h1.1v-7.2h1.1
			c0.2,0,0.4-0.1,0.5-0.3c0.1-0.2,0.1-0.4,0-0.6L18.3,26.7z"/>
	</g>
</g>
</svg>
