<?xml version="1.0" encoding="utf-8"?>
<!-- Generator: Adobe Illustrator 22.1.0, SVG Export Plug-In . SVG Version: 6.00 Build 0)  -->
<svg version="1.1" id="Layer_1" xmlns="http://www.w3.org/2000/svg" xmlns:xlink="http://www.w3.org/1999/xlink" x="0px" y="0px"
	 viewBox="0 0 45 45" style="enable-background:new 0 0 45 45;" xml:space="preserve">
<style type="text/css">
	.st0{fill:none;stroke:#585858;stroke-width:1.4;stroke-linecap:round;stroke-linejoin:round;stroke-miterlimit:10;}
	.st1{fill:#FFFFFF;}
	.st2{fill:#585858;}
	.st3{fill:#F58228;}
	.st4{fill:#59595B;}
	.st5{fill:#F58228;stroke:#F58228;stroke-width:0.5;stroke-miterlimit:10;}
	.st6{fill:#585858;stroke:#585858;stroke-width:0.5;stroke-miterlimit:10;}
	.st7{fill:#F58228;stroke:#F58228;stroke-width:0.2269;stroke-miterlimit:10;}
	.st8{fill:#585858;stroke:#FFFFFF;stroke-width:0.3256;stroke-miterlimit:10;}
	.st9{fill:#F58228;stroke:#FFFFFF;stroke-width:0.3256;stroke-miterlimit:10;}
	.st10{fill:#585858;stroke:#FFFFFF;stroke-width:0.5;stroke-miterlimit:10;}
	.st11{fill:none;stroke:#F58228;stroke-linecap:round;stroke-linejoin:round;stroke-miterlimit:22.9256;}
	.st12{fill:none;stroke:#585858;stroke-linecap:round;stroke-linejoin:round;stroke-miterlimit:22.9256;}
	.st13{fill:#585858;stroke:#FFFFFF;stroke-width:0.3454;stroke-miterlimit:10;}
	.st14{fill:#F58228;stroke:#FFFFFF;stroke-width:0.3454;stroke-miterlimit:10;}
	.st15{fill:#595A5C;}
	.st16{fill:none;stroke:#F58228;stroke-miterlimit:10;}
	.st17{fill:none;stroke:#FFFFFF;stroke-width:1.144;stroke-miterlimit:10;}
	.st18{fill:none;stroke:#FFFFFF;stroke-width:1.2222;stroke-miterlimit:10;}
	.st19{fill:none;stroke:#FFFFFF;stroke-width:1.2222;stroke-miterlimit:10;stroke-dasharray:1.3537,1.3537;}
	.st20{fill:none;stroke:#585858;stroke-width:1.144;stroke-miterlimit:10;}
	.st21{fill:none;stroke:#F58228;stroke-width:1.144;stroke-miterlimit:10;}
	.st22{fill:none;stroke:#585858;stroke-width:1.2222;stroke-miterlimit:10;}
	.st23{fill:none;stroke:#F58228;stroke-width:1.2222;stroke-miterlimit:10;}
	.st24{fill:none;stroke:#585858;stroke-width:1.2222;stroke-miterlimit:10;stroke-dasharray:1.3537,1.3537;}
</style>
<g>
	<path class="st10" d="M38.9,16.5H14.2l24-6.1c0.2-0.1,0.5-0.2,0.6-0.4c0.1-0.2,0.2-0.5,0.1-0.7l-1.5-6c-0.1-0.5-0.7-0.8-1.2-0.7
		L6.9,10c-0.5,0.1-0.8,0.7-0.7,1.2l1.5,6c0,0,0,0,0,0c0,0.1,0,0.2,0,0.3v6.1v16.8c0,0.5,0.4,1,1,1h30.2c0.5,0,1-0.4,1-1V23.6v-6.1
		C39.9,16.9,39.4,16.5,38.9,16.5z M8.3,11.6l3.9-1l2.3-0.6h0l10.4-2.6l2.3-0.6l8.5-2.2l1,4.1l-15,3.8l-3.1,0.8l-2.3,0.6l-7,1.8
		L8.3,11.6z M37.9,39.4H9.6V24.5h4.4c0,0,0,0,0,0c0,0,0,0,0,0h13.1c0,0,0,0,0,0c0,0,0,0,0,0h10.7V39.4z M38,22.6L38,22.6L38,22.6
		l-8.9,0l0,0h-2.4l0,0H16l0,0h-2.4l0,0h-4v0v-4.2h7.2h2.4h10.7h2.4h5.6H38V22.6z"/>
</g>
<polygon class="st3" points="17.2,18.1 19.9,18.1 16.3,22.9 13.6,22.9 "/>
<polygon class="st3" points="32.1,18.1 34.8,18.1 31.2,22.9 28.5,22.9 "/>
<polygon class="st3" points="27.9,6.4 25.3,7 29.9,10.8 32.4,10.2 "/>
<polygon class="st3" points="14,9.9 11.4,10.6 15.9,14.3 18.5,13.7 "/>
</svg>
