<svg id="Layer_1" data-name="Layer 1" xmlns="http://www.w3.org/2000/svg" viewBox="0 0 45 45">
  <defs>
    <style>
      .cls-1 {
        fill: #fff;
      }
    </style>
  </defs>
  <title>media wh</title>
  <path class="cls-1" d="M38.89,16.72H12.16l26-6.58a.7.7,0,0,0,.52-.86L37.15,3.33a.69.69,0,0,0-.32-.44.71.71,0,0,0-.37-.1l-.17,0L7,10.23a.71.71,0,0,0-.44.32.73.73,0,0,0-.07.54l1.52,6v.11a.76.76,0,0,0,0,.21v22.9a.71.71,0,0,0,.72.71H38.89a.71.71,0,0,0,.72-.71V17.43A.71.71,0,0,0,38.89,16.72ZM8,11.43,36,4.37,37.1,8.94,9.18,16ZM38.18,39.62H9.38V24.28h28.8Zm.06-16.77H9.38V18.14h28.8l.06.25Z"/>
  <polygon class="cls-1" points="19.95 18.14 16.38 22.83 13.66 22.83 17.22 18.14 19.95 18.14"/>
  <polygon class="cls-1" points="34.79 18.14 31.22 22.83 28.51 22.83 32.06 18.14 34.79 18.14"/>
  <polygon class="cls-1" points="31.11 10.47 29.94 10.75 25.42 7.03 27.98 6.39 32.45 10.12 31.11 10.47"/>
  <polygon class="cls-1" points="18.51 13.66 15.97 14.3 11.43 10.55 14.01 9.93 18.51 13.66"/>
  <line class="cls-1" x1="32.49" y1="10.13" x2="31.12" y2="10.47"/>
</svg>
