<svg id="Layer_1" data-name="Layer 1" xmlns="http://www.w3.org/2000/svg" viewBox="0 0 45 45">
  <defs>
    <style>
      .cls-1 {
        fill: #666766;
      }

      .cls-2 {
        fill: #f47722;
      }
    </style>
  </defs>
  <title>monitoring</title>
  <g>
    <path class="cls-1" d="M34.5,7.37a.48.48,0,0,0-.48,0L29.54,9.59l-1.24-2a.48.48,0,0,0-.42-.24H18.1a.48.48,0,0,0-.42.24L16.44,9.59,12,7.35a.49.49,0,0,0-.71.44v22a.47.47,0,0,0,.2.39L22.7,38.52a.5.5,0,0,0,.29.09.52.52,0,0,0,.29-.09L34.53,30.2a.47.47,0,0,0,.2-.39v-22A.5.5,0,0,0,34.5,7.37ZM34,21.66s-.1.11-.24.24v7.66L23,37.52l-10.77-8V21.9L12,21.66a1,1,0,0,1,0-1.32l.23-.25V8.58l2,1,2.23,1.11a.49.49,0,0,0,.64-.19l1.33-2.2H27.6l1.33,2.2a.49.49,0,0,0,.64.19L31.8,9.56l1.95-1V20.09l.24.25A1,1,0,0,1,34,21.66Z"/>
    <g>
      <path class="cls-1" d="M14.18,18.33c-.37.29-.69.58-1,.83V8.77h1Z"/>
      <path class="cls-1" d="M14.18,21.08,14.1,21a.6.6,0,0,1,.08-.08Z"/>
      <path class="cls-1" d="M31.88,21l-.08.08v-.16A.6.6,0,0,1,31.88,21Z"/>
      <path class="cls-1" d="M32.78,8.77V19.16c-.29-.25-.62-.54-1-.83V8.77Z"/>
      <path class="cls-1" d="M31.8,23.67c.36-.29.69-.58,1-.83v6a.48.48,0,0,1-.21.39l-9.29,6.85a.46.46,0,0,1-.29.1.45.45,0,0,1-.29-.1l-9.3-6.85a.5.5,0,0,1-.2-.39v-6c.29.25.61.54,1,.83v4.91L23,35.07l8.81-6.49Z"/>
    </g>
    <rect class="cls-1" x="16.14" y="10.23" width="0.98" height="2.45"/>
    <rect class="cls-1" x="28.86" y="10.23" width="0.98" height="2.45"/>
    <rect class="cls-2" x="22.5" y="10.72" width="0.98" height="0.98"/>
    <rect class="cls-2" x="20.54" y="10.72" width="0.98" height="0.98"/>
    <rect class="cls-2" x="24.46" y="10.72" width="0.98" height="0.98"/>
    <rect class="cls-2" x="22.5" y="29.32" width="0.98" height="0.98"/>
    <rect class="cls-2" x="20.54" y="29.32" width="0.98" height="0.98"/>
    <rect class="cls-2" x="24.46" y="29.32" width="0.98" height="0.98"/>
    <path class="cls-2" d="M23,26.87c-5.54,0-10.43-5.32-10.64-5.54a.49.49,0,0,1,0-.66c.21-.23,5.1-5.54,10.64-5.54s10.43,5.31,10.64,5.54a.49.49,0,0,1,0,.66C33.42,21.55,28.52,26.87,23,26.87ZM13.4,21c1.15,1.15,5.25,4.89,9.59,4.89s8.44-3.74,9.59-4.89c-1.15-1.15-5.25-4.89-9.59-4.89S14.55,19.85,13.4,21Z"/>
    <path class="cls-2" d="M23,26.87A5.87,5.87,0,0,1,17.12,21h1A4.89,4.89,0,1,0,23,16.11v-1a5.87,5.87,0,1,1,0,11.74Z"/>
    <path class="cls-2" d="M20.05,21h-1A3.93,3.93,0,0,1,23,17.08v1A2.94,2.94,0,0,0,20.05,21Z"/>
    <path class="cls-2" d="M23,24.91v-1A2.94,2.94,0,0,0,25.92,21h1A3.91,3.91,0,0,1,23,24.91Z"/>
    <path class="cls-2" d="M23,23a2,2,0,1,1,2-2A2,2,0,0,1,23,23ZM23,20a1,1,0,1,0,1,1A1,1,0,0,0,23,20Z"/>
  </g>
</svg>
