<svg id="Layer_1" data-name="Layer 1" xmlns="http://www.w3.org/2000/svg" viewBox="0 0 45 45">
  <defs>
    <style>
      .cls-1 {
        fill: #fff;
      }
    </style>
  </defs>
  <title>monitoring-w</title>
  <g>
    <path class="cls-1" d="M34.73,7.37a.48.48,0,0,0-.48,0L29.77,9.59l-1.24-2a.48.48,0,0,0-.42-.24H18.33a.48.48,0,0,0-.42.24L16.67,9.59,12.19,7.35a.48.48,0,0,0-.48,0,.5.5,0,0,0-.23.42v22a.47.47,0,0,0,.2.39l11.25,8.32a.52.52,0,0,0,.29.09.5.5,0,0,0,.29-.09L34.76,30.2a.47.47,0,0,0,.2-.39v-22A.48.48,0,0,0,34.73,7.37Zm-.51,14.29L34,21.9v7.66l-10.77,8-10.76-8V21.9c-.14-.13-.21-.22-.24-.24a1,1,0,0,1,0-1.32s.1-.11.24-.25V8.58l1.95,1,2.23,1.11a.49.49,0,0,0,.64-.19l1.33-2.2h9.22l1.33,2.2a.49.49,0,0,0,.64.19L32,9.56l2-1V20.09l.23.25A1,1,0,0,1,34.22,21.66Z"/>
    <g>
      <path class="cls-1" d="M14.41,18.33c-.36.29-.69.58-1,.83V8.77h1Z"/>
      <path class="cls-1" d="M14.41,21.08,14.33,21a.6.6,0,0,1,.08-.08Z"/>
      <path class="cls-1" d="M32.11,21l-.08.08v-.16A.6.6,0,0,1,32.11,21Z"/>
      <path class="cls-1" d="M33,8.77V19.16c-.29-.25-.61-.54-1-.83V8.77Z"/>
      <path class="cls-1" d="M32,23.67c.37-.29.69-.58,1-.83v6a.5.5,0,0,1-.2.39l-9.3,6.85a.45.45,0,0,1-.29.1.46.46,0,0,1-.29-.1l-9.29-6.85a.48.48,0,0,1-.21-.39v-6c.29.25.62.54,1,.83v4.91l8.81,6.49L32,28.58Z"/>
    </g>
    <rect class="cls-1" x="16.37" y="10.23" width="0.98" height="2.45"/>
    <rect class="cls-1" x="29.09" y="10.23" width="0.98" height="2.45"/>
    <rect class="cls-1" x="22.73" y="10.72" width="0.98" height="0.98"/>
    <rect class="cls-1" x="20.77" y="10.72" width="0.98" height="0.98"/>
    <rect class="cls-1" x="24.69" y="10.72" width="0.98" height="0.98"/>
    <rect class="cls-1" x="22.73" y="29.32" width="0.98" height="0.98"/>
    <rect class="cls-1" x="20.77" y="29.32" width="0.98" height="0.98"/>
    <rect class="cls-1" x="24.69" y="29.32" width="0.98" height="0.98"/>
    <path class="cls-1" d="M23.22,26.87c-5.53,0-10.43-5.32-10.64-5.54a.49.49,0,0,1,0-.66c.21-.23,5.11-5.54,10.64-5.54s10.43,5.31,10.64,5.54a.49.49,0,0,1,0,.66C33.65,21.55,28.76,26.87,23.22,26.87ZM13.63,21c1.15,1.15,5.25,4.89,9.59,4.89s8.44-3.74,9.59-4.89c-1.15-1.15-5.25-4.89-9.59-4.89S14.78,19.85,13.63,21Z"/>
    <path class="cls-1" d="M23.22,26.87A5.87,5.87,0,0,1,17.35,21h1a4.89,4.89,0,1,0,4.89-4.89v-1a5.87,5.87,0,1,1,0,11.74Z"/>
    <path class="cls-1" d="M20.28,21h-1a3.92,3.92,0,0,1,3.91-3.92v1A2.94,2.94,0,0,0,20.28,21Z"/>
    <path class="cls-1" d="M23.22,24.91v-1A2.94,2.94,0,0,0,26.16,21h1A3.91,3.91,0,0,1,23.22,24.91Z"/>
    <path class="cls-1" d="M23.22,23a2,2,0,1,1,2-2A2,2,0,0,1,23.22,23Zm0-2.94a1,1,0,1,0,1,1A1,1,0,0,0,23.22,20Z"/>
  </g>
</svg>
