<?xml version="1.0" encoding="utf-8"?>
<!-- Generator: Adobe Illustrator 22.1.0, SVG Export Plug-In . SVG Version: 6.00 Build 0)  -->
<svg version="1.1" id="Layer_1" xmlns="http://www.w3.org/2000/svg" xmlns:xlink="http://www.w3.org/1999/xlink" x="0px" y="0px"
	 viewBox="0 0 45 45" style="enable-background:new 0 0 45 45;" xml:space="preserve">
<style type="text/css">
	.st0{fill:none;stroke:#585858;stroke-width:1.4;stroke-linecap:round;stroke-linejoin:round;stroke-miterlimit:10;}
	.st1{fill:#FFFFFF;}
	.st2{fill:#585858;}
	.st3{fill:#F58228;}
	.st4{fill:#59595B;}
	.st5{fill:#F58228;stroke:#F58228;stroke-width:0.5;stroke-miterlimit:10;}
	.st6{fill:#585858;stroke:#585858;stroke-width:0.5;stroke-miterlimit:10;}
	.st7{fill:#F58228;stroke:#F58228;stroke-width:0.2269;stroke-miterlimit:10;}
	.st8{fill:#585858;stroke:#FFFFFF;stroke-width:0.3256;stroke-miterlimit:10;}
	.st9{fill:#F58228;stroke:#FFFFFF;stroke-width:0.3256;stroke-miterlimit:10;}
	.st10{fill:#585858;stroke:#FFFFFF;stroke-width:0.5;stroke-miterlimit:10;}
	.st11{fill:none;stroke:#F58228;stroke-linecap:round;stroke-linejoin:round;stroke-miterlimit:22.9256;}
	.st12{fill:none;stroke:#585858;stroke-linecap:round;stroke-linejoin:round;stroke-miterlimit:22.9256;}
	.st13{fill:#585858;stroke:#FFFFFF;stroke-width:0.3454;stroke-miterlimit:10;}
	.st14{fill:#F58228;stroke:#FFFFFF;stroke-width:0.3454;stroke-miterlimit:10;}
	.st15{fill:#595A5C;}
	.st16{fill:none;stroke:#F58228;stroke-miterlimit:10;}
	.st17{fill:none;stroke:#FFFFFF;stroke-width:1.144;stroke-miterlimit:10;}
	.st18{fill:none;stroke:#FFFFFF;stroke-width:1.2222;stroke-miterlimit:10;}
	.st19{fill:none;stroke:#FFFFFF;stroke-width:1.2222;stroke-miterlimit:10;stroke-dasharray:1.3537,1.3537;}
	.st20{fill:none;stroke:#585858;stroke-width:1.144;stroke-miterlimit:10;}
	.st21{fill:none;stroke:#F58228;stroke-width:1.144;stroke-miterlimit:10;}
	.st22{fill:none;stroke:#585858;stroke-width:1.2222;stroke-miterlimit:10;}
	.st23{fill:none;stroke:#F58228;stroke-width:1.2222;stroke-miterlimit:10;}
	.st24{fill:none;stroke:#585858;stroke-width:1.2222;stroke-miterlimit:10;stroke-dasharray:1.3537,1.3537;}
</style>
<polyline class="st0" points="7.8,41.3 7.8,20.1 1.8,20.1 20.3,3.7 38.7,20.1 32.7,20.1 32.7,41.3 16.3,41.3 16.3,27.8 24.6,27.8 
	24.6,37.3 "/>
<ellipse transform="matrix(0.1602 -0.9871 0.9871 0.1602 -1.9188 63.4669)" class="st1" cx="36.3" cy="32.9" rx="7.7" ry="7.7"/>
<g>
	<g id="YnauQQ.tif">
		<g>
			<path class="st3" d="M38.9,33.6c-0.4-0.8-1.4-1.2-2.7-1.2c0,0,0,0,0,0c-0.9,0-1.6-0.3-1.8-0.7c-0.1-0.2-0.1-0.4,0-0.7
				c0.2-0.4,0.9-0.7,2-0.6c0.5,0.1,1,0.2,1.7,0.4l0.1,0c0.3,0.1,0.5-0.1,0.6-0.3c0.1-0.3-0.1-0.5-0.3-0.6l-0.1,0
				c-0.6-0.2-1.1-0.4-1.6-0.5v-1.2c0-0.3-0.2-0.5-0.5-0.5s-0.5,0.2-0.5,0.5v1.2c-0.9,0.1-1.7,0.4-2.1,1c-0.4,0.5-0.4,1.1-0.1,1.7
				c0.4,0.8,1.4,1.2,2.7,1.2c0,0,0,0,0,0c0.9,0,1.6,0.3,1.8,0.7c0.1,0.2,0.1,0.5,0,0.7c-0.2,0.3-0.9,0.7-1.9,0.5
				c-0.5-0.1-1-0.2-1.7-0.4l-0.1,0c-0.3-0.1-0.5,0.1-0.6,0.3c-0.1,0.3,0.1,0.5,0.3,0.6l0.1,0c0.5,0.2,1.1,0.4,1.6,0.4v1.2
				c0,0.3,0.2,0.5,0.5,0.5s0.5-0.2,0.5-0.5v-1.2c0.9,0,1.7-0.4,2.1-1C39.2,34.8,39.2,34.1,38.9,33.6z"/>
		</g>
	</g>
</g>
<path class="st5" d="M36.3,39.5c-3.7,0-6.7-3-6.7-6.7s3-6.7,6.7-6.7c3.7,0,6.7,3,6.7,6.7S40,39.5,36.3,39.5z M36.3,27.1
	c-3.2,0-5.8,2.6-5.8,5.8s2.6,5.8,5.8,5.8s5.8-2.6,5.8-5.8S39.5,27.1,36.3,27.1z"/>
</svg>
