<svg id="Layer_1" data-name="Layer 1" xmlns="http://www.w3.org/2000/svg" viewBox="0 0 45 45">
  <defs>
    <style>
      .cls-1 {
        fill: #fff;
      }
    </style>
  </defs>
  <title>newspaper wh</title>
  <g>
    <path class="cls-1" d="M41.89,17.33H35.75V9.5A.79.79,0,0,0,35,8.71H3.27a.79.79,0,0,0-.79.79v22a4.26,4.26,0,0,0,4.25,4.25h31.7a4.26,4.26,0,0,0,4.25-4.25V18.12A.79.79,0,0,0,41.89,17.33Zm-35.16,17a2.84,2.84,0,0,1-2.84-2.84V10.12H34.35V31.48A4,4,0,0,0,35.26,34l.22.28Zm34.54-2.84a2.85,2.85,0,0,1-5.69,0V18.74h5.69Z"/>
    <path class="cls-1" d="M7.38,22.1h7.67a.61.61,0,0,0,.61-.62V13.82a.61.61,0,0,0-.61-.62H7.38a.62.62,0,0,0-.62.62v7.66A.62.62,0,0,0,7.38,22.1ZM8,14.43h6.44v6.44H8Z"/>
    <path class="cls-1" d="M30.6,15.86h.34a.79.79,0,0,0,0-1.58H30.6a.79.79,0,1,0,0,1.58Z"/>
    <path class="cls-1" d="M19.75,15.86h7.88a.79.79,0,0,0,0-1.57H19.75a.79.79,0,1,0,0,1.57Z"/>
    <path class="cls-1" d="M30.94,18H27.1a.79.79,0,1,0,0,1.57h3.84a.79.79,0,1,0,0-1.57Z"/>
    <path class="cls-1" d="M25.05,18.75a.79.79,0,0,0-.78-.79H19.75a.79.79,0,0,0,0,1.58h4.52A.78.78,0,0,0,25.05,18.75Z"/>
    <path class="cls-1" d="M17.28,27.42H6.82a.79.79,0,0,0,0,1.58H17.28a.79.79,0,0,0,0-1.58Z"/>
    <path class="cls-1" d="M17.28,30.32H6.82a.79.79,0,1,0,0,1.57H17.28a.79.79,0,1,0,0-1.57Z"/>
    <path class="cls-1" d="M31.41,24.53H21a.79.79,0,0,0,0,1.58H31.41a.79.79,0,0,0,0-1.58Z"/>
    <path class="cls-1" d="M6.83,26.11H17.28a.79.79,0,0,0,0-1.58H6.83a.79.79,0,0,0,0,1.58Z"/>
    <path class="cls-1" d="M31.41,27.42H21A.79.79,0,0,0,21,29H31.41a.79.79,0,0,0,0-1.58Z"/>
    <path class="cls-1" d="M31.41,30.32H21a.79.79,0,1,0,0,1.57H31.41a.79.79,0,1,0,0-1.57Z"/>
  </g>
</svg>
