<svg id="Layer_1" data-name="Layer 1" xmlns="http://www.w3.org/2000/svg" viewBox="0 0 45 45"><defs><style>.cls-1{fill:#585858;}.cls-1,.cls-2{stroke:#fff;stroke-miterlimit:10;stroke-width:0.35px;}.cls-2{fill:#f58228;}</style></defs><title>newspaper</title><g id="newspaper"><path class="cls-1" d="M43.13,17.13H36.91V9.19a.8.8,0,0,0-.8-.8H4a.8.8,0,0,0-.8.8V31.47a4.31,4.31,0,0,0,4.31,4.31H39.62a4.31,4.31,0,0,0,4.31-4.31V17.93A.8.8,0,0,0,43.13,17.13ZM4.78,31.47V10H35.31V31.47a4.29,4.29,0,0,0,1,2.71H7.49A2.71,2.71,0,0,1,4.78,31.47Zm34.84,2.71a2.71,2.71,0,0,1-2.71-2.71V18.73h5.42V31.47A2.71,2.71,0,0,1,39.62,34.18Z"/><path class="cls-2" d="M8.14,22.14h7.78a.8.8,0,0,0,.8-.8V13.57a.8.8,0,0,0-.8-.8H8.14a.8.8,0,0,0-.8.8v7.77A.8.8,0,0,0,8.14,22.14Zm.8-7.78h6.18v6.18H8.94Z"/><path class="cls-1" d="M31.68,15.64H32A.8.8,0,1,0,32,14h-.35a.8.8,0,0,0,0,1.6Z"/><path class="cls-1" d="M20.68,15.64h8a.8.8,0,1,0,0-1.6h-8a.8.8,0,0,0,0,1.6Z"/><path class="cls-1" d="M32,19.37a.8.8,0,1,0,0-1.6H28.14a.8.8,0,0,0,0,1.6Z"/><path class="cls-1" d="M20.68,19.37h4.58a.8.8,0,1,0,0-1.6H20.68a.8.8,0,0,0,0,1.6Z"/><path class="cls-1" d="M7.58,26h10.6a.8.8,0,0,0,0-1.6H7.58a.8.8,0,1,0,0,1.6Z"/><path class="cls-1" d="M7.58,29h10.6a.8.8,0,0,0,0-1.6H7.58a.8.8,0,1,0,0,1.6Z"/><path class="cls-1" d="M18.18,31.89a.8.8,0,1,0,0-1.59H7.58a.8.8,0,1,0,0,1.59Z"/><path class="cls-1" d="M21.91,24.43a.8.8,0,0,0,0,1.6h10.6a.8.8,0,0,0,0-1.6Z"/><path class="cls-1" d="M32.51,27.36H21.91a.8.8,0,0,0,0,1.6h10.6a.8.8,0,0,0,0-1.6Z"/><path class="cls-1" d="M32.51,30.3H21.91a.8.8,0,1,0,0,1.59h10.6a.8.8,0,1,0,0-1.59Z"/></g></svg>