<svg id="Layer_1" data-name="Layer 1" xmlns="http://www.w3.org/2000/svg" viewBox="0 0 45 45">
  <defs>
    <style>
      .cls-1 {
        fill: #595959;
      }

      .cls-2 {
        fill: #f28025;
      }
    </style>
  </defs>
  <title>newspaper</title>
  <g id="newspaper">
    <g>
      <path class="cls-1" d="M41.89,17.33H35.75V9.5A.79.79,0,0,0,35,8.71H3.27a.79.79,0,0,0-.79.79v22a4.26,4.26,0,0,0,4.25,4.25h31.7a4.26,4.26,0,0,0,4.25-4.25V18.12A.79.79,0,0,0,41.89,17.33Zm-35.16,17a2.84,2.84,0,0,1-2.84-2.84V10.12H34.35V31.48A4,4,0,0,0,35.26,34l.22.28Zm34.54-2.84a2.85,2.85,0,0,1-5.69,0V18.74h5.69Z"/>
      <path class="cls-2" d="M15.05,13.2H7.38a.62.62,0,0,0-.62.62v7.66a.62.62,0,0,0,.62.62h7.67a.61.61,0,0,0,.61-.62V13.82A.61.61,0,0,0,15.05,13.2Zm-.62,7.67H8V14.43h6.44Z"/>
      <path class="cls-1" d="M31.73,15.07a.79.79,0,0,1-.79.79H30.6a.79.79,0,1,1,0-1.58h.34A.8.8,0,0,1,31.73,15.07Z"/>
      <path class="cls-1" d="M19.75,15.86h7.88a.79.79,0,0,0,0-1.57H19.75a.79.79,0,1,0,0,1.57Z"/>
      <path class="cls-1" d="M31.73,18.75a.79.79,0,0,1-.79.79H27.1a.79.79,0,1,1,0-1.57h3.84A.79.79,0,0,1,31.73,18.75Z"/>
      <path class="cls-1" d="M19.75,19.54h4.52a.79.79,0,0,0,0-1.58H19.75a.79.79,0,0,0,0,1.58Z"/>
      <path class="cls-1" d="M18.07,28.21a.79.79,0,0,1-.79.79H6.82a.79.79,0,0,1,0-1.58H17.28A.8.8,0,0,1,18.07,28.21Z"/>
      <path class="cls-1" d="M18.07,31.1a.79.79,0,0,1-.79.79H6.82a.79.79,0,1,1,0-1.57H17.28A.79.79,0,0,1,18.07,31.1Z"/>
      <path class="cls-1" d="M32.2,25.32a.8.8,0,0,1-.79.79H21a.79.79,0,0,1,0-1.58H31.41A.79.79,0,0,1,32.2,25.32Z"/>
      <path class="cls-1" d="M18.07,25.32a.79.79,0,0,1-.79.79H6.83a.79.79,0,0,1,0-1.58H17.28A.79.79,0,0,1,18.07,25.32Z"/>
      <path class="cls-1" d="M32.2,28.21a.79.79,0,0,1-.79.79H21a.79.79,0,0,1,0-1.58H31.41A.8.8,0,0,1,32.2,28.21Z"/>
      <path class="cls-1" d="M32.2,31.1a.79.79,0,0,1-.79.79H21a.79.79,0,1,1,0-1.57H31.41A.79.79,0,0,1,32.2,31.1Z"/>
    </g>
  </g>
</svg>
