<?xml version="1.0" encoding="utf-8"?>
<!-- Generator: Adobe Illustrator 22.1.0, SVG Export Plug-In . SVG Version: 6.00 Build 0)  -->
<svg version="1.1" id="Layer_1" xmlns="http://www.w3.org/2000/svg" xmlns:xlink="http://www.w3.org/1999/xlink" x="0px" y="0px"
	 viewBox="0 0 45 45" style="enable-background:new 0 0 45 45;" xml:space="preserve">
<style type="text/css">
	.st0{fill:none;stroke:#585858;stroke-width:1.4;stroke-linecap:round;stroke-linejoin:round;stroke-miterlimit:10;}
	.st1{fill:#FFFFFF;}
	.st2{fill:#585858;}
	.st3{fill:#F58228;}
	.st4{fill:#59595B;}
	.st5{fill:#F58228;stroke:#F58228;stroke-width:0.5;stroke-miterlimit:10;}
	.st6{fill:#585858;stroke:#585858;stroke-width:0.5;stroke-miterlimit:10;}
	.st7{fill:#F58228;stroke:#F58228;stroke-width:0.2269;stroke-miterlimit:10;}
	.st8{fill:#585858;stroke:#FFFFFF;stroke-width:0.3256;stroke-miterlimit:10;}
	.st9{fill:#F58228;stroke:#FFFFFF;stroke-width:0.3256;stroke-miterlimit:10;}
	.st10{fill:#585858;stroke:#FFFFFF;stroke-width:0.5;stroke-miterlimit:10;}
	.st11{fill:none;stroke:#F58228;stroke-linecap:round;stroke-linejoin:round;stroke-miterlimit:22.9256;}
	.st12{fill:none;stroke:#585858;stroke-linecap:round;stroke-linejoin:round;stroke-miterlimit:22.9256;}
	.st13{fill:#585858;stroke:#FFFFFF;stroke-width:0.3454;stroke-miterlimit:10;}
	.st14{fill:#F58228;stroke:#FFFFFF;stroke-width:0.3454;stroke-miterlimit:10;}
	.st15{fill:#595A5C;}
	.st16{fill:none;stroke:#F58228;stroke-miterlimit:10;}
	.st17{fill:none;stroke:#FFFFFF;stroke-width:1.144;stroke-miterlimit:10;}
	.st18{fill:none;stroke:#FFFFFF;stroke-width:1.2222;stroke-miterlimit:10;}
	.st19{fill:none;stroke:#FFFFFF;stroke-width:1.2222;stroke-miterlimit:10;stroke-dasharray:1.3537,1.3537;}
	.st20{fill:none;stroke:#585858;stroke-width:1.144;stroke-miterlimit:10;}
	.st21{fill:none;stroke:#F58228;stroke-width:1.144;stroke-miterlimit:10;}
	.st22{fill:none;stroke:#585858;stroke-width:1.2222;stroke-miterlimit:10;}
	.st23{fill:none;stroke:#F58228;stroke-width:1.2222;stroke-miterlimit:10;}
	.st24{fill:none;stroke:#585858;stroke-width:1.2222;stroke-miterlimit:10;stroke-dasharray:1.3537,1.3537;}
</style>
<g id="newspaper_1_">
	<g>
		<path class="st13" d="M43.1,17.1h-6.2V9.2c0-0.4-0.4-0.8-0.8-0.8H4c-0.4,0-0.8,0.4-0.8,0.8v22.3c0,2.4,1.9,4.3,4.3,4.3h32.1
			c2.4,0,4.3-1.9,4.3-4.3V17.9C43.9,17.5,43.6,17.1,43.1,17.1z M4.8,31.5V10h30.5v21.5c0,1,0.4,2,1,2.7H7.5C6,34.2,4.8,33,4.8,31.5z
			 M39.6,34.2c-1.5,0-2.7-1.2-2.7-2.7V18.7h5.4v12.7C42.3,33,41.1,34.2,39.6,34.2z"/>
		<path class="st14" d="M8.1,22.1h7.8c0.4,0,0.8-0.4,0.8-0.8v-7.8c0-0.4-0.4-0.8-0.8-0.8H8.1c-0.4,0-0.8,0.4-0.8,0.8v7.8
			C7.3,21.8,7.7,22.1,8.1,22.1z M8.9,14.4h6.2v6.2H8.9V14.4z"/>
		<path class="st13" d="M31.7,15.6H32c0.4,0,0.8-0.4,0.8-0.8c0-0.4-0.4-0.8-0.8-0.8h-0.3c-0.4,0-0.8,0.4-0.8,0.8
			C30.9,15.3,31.2,15.6,31.7,15.6z"/>
		<path class="st13" d="M20.7,15.6h8c0.4,0,0.8-0.4,0.8-0.8c0-0.4-0.4-0.8-0.8-0.8h-8c-0.4,0-0.8,0.4-0.8,0.8
			C19.9,15.3,20.2,15.6,20.7,15.6z"/>
		<path class="st13" d="M32,19.4c0.4,0,0.8-0.4,0.8-0.8c0-0.4-0.4-0.8-0.8-0.8h-3.9c-0.4,0-0.8,0.4-0.8,0.8c0,0.4,0.4,0.8,0.8,0.8
			H32z"/>
		<path class="st13" d="M20.7,19.4h4.6c0.4,0,0.8-0.4,0.8-0.8c0-0.4-0.4-0.8-0.8-0.8h-4.6c-0.4,0-0.8,0.4-0.8,0.8
			C19.9,19,20.2,19.4,20.7,19.4z"/>
		<path class="st13" d="M7.6,26h10.6c0.4,0,0.8-0.4,0.8-0.8s-0.4-0.8-0.8-0.8H7.6c-0.4,0-0.8,0.4-0.8,0.8S7.1,26,7.6,26z"/>
		<path class="st13" d="M7.6,29h10.6c0.4,0,0.8-0.4,0.8-0.8c0-0.4-0.4-0.8-0.8-0.8H7.6c-0.4,0-0.8,0.4-0.8,0.8
			C6.8,28.6,7.1,29,7.6,29z"/>
		<path class="st13" d="M18.2,31.9c0.4,0,0.8-0.4,0.8-0.8s-0.4-0.8-0.8-0.8H7.6c-0.4,0-0.8,0.4-0.8,0.8s0.4,0.8,0.8,0.8H18.2z"/>
		<path class="st13" d="M21.9,24.4c-0.4,0-0.8,0.4-0.8,0.8s0.4,0.8,0.8,0.8h10.6c0.4,0,0.8-0.4,0.8-0.8s-0.4-0.8-0.8-0.8H21.9z"/>
		<path class="st13" d="M32.5,27.4H21.9c-0.4,0-0.8,0.4-0.8,0.8c0,0.4,0.4,0.8,0.8,0.8h10.6c0.4,0,0.8-0.4,0.8-0.8
			C33.3,27.7,32.9,27.4,32.5,27.4z"/>
		<path class="st13" d="M32.5,30.3H21.9c-0.4,0-0.8,0.4-0.8,0.8s0.4,0.8,0.8,0.8h10.6c0.4,0,0.8-0.4,0.8-0.8S32.9,30.3,32.5,30.3z"
			/>
	</g>
</g>
</svg>
