<svg id="Layer_1" data-name="Layer 1" xmlns="http://www.w3.org/2000/svg" viewBox="0 0 45 45"><defs><style>.cls-1{fill:#fff;}</style></defs><title>OMS white</title><rect class="cls-1" x="13.17" y="27.98" width="1.01" height="3.17"/><rect class="cls-1" x="3.73" y="27.98" width="1.01" height="3.17"/><path class="cls-1" d="M17.32,26.41v4.74h-1V26.41C16.31,24.28,11.55,23,9,23s-7.36,1.3-7.36,3.43v4.74h-1V26.41C.59,25,1.7,23.86,3.81,23A15,15,0,0,1,9,22a15,15,0,0,1,5.15,1C16.21,23.86,17.32,25,17.32,26.41Z"/><path class="cls-1" d="M9,20.62A3.53,3.53,0,0,1,5.3,17V15.4A3.53,3.53,0,0,1,9,11.75,3.52,3.52,0,0,1,12.6,15.4V17A3.52,3.52,0,0,1,9,20.62Zm0-7.86A2.5,2.5,0,0,0,6.31,15.4V17A2.5,2.5,0,0,0,9,19.61,2.51,2.51,0,0,0,11.6,17V15.4A2.51,2.51,0,0,0,9,12.76Z"/><path class="cls-1" d="M26.28,16.8l0-.05.58-2a.43.43,0,0,0-.14-.44,9.19,9.19,0,0,0-1.49-.95.41.41,0,0,0-.46,0l-1.55,1.34h-.06l-.59-2a.38.38,0,0,0-.35-.29,8.72,8.72,0,0,0-1.77,0,.41.41,0,0,0-.35.29l-.58,2h-.06l-1.55-1.34a.41.41,0,0,0-.46,0,9.19,9.19,0,0,0-1.49.95.43.43,0,0,0-.14.44l.58,2,0,.05-2-.29a.39.39,0,0,0-.41.2,7.56,7.56,0,0,0-.74,1.61.39.39,0,0,0,.12.44l1.55,1.34,0,.07L12.94,21a.39.39,0,0,0-.24.39,3,3,0,0,0,0,.52l.86.3c0-.2-.06-.39-.07-.58l1.81-.83a.38.38,0,0,0,.24-.33c0-.16.05-.32.07-.47a.38.38,0,0,0-.13-.38L14,18.32a6.92,6.92,0,0,1,.44-1l2,.28a.4.4,0,0,0,.38-.14,3.65,3.65,0,0,1,.31-.36.4.4,0,0,0,.09-.4l-.56-1.92a7.48,7.48,0,0,1,.89-.57l1.51,1.31a.42.42,0,0,0,.4.07l.46-.13a.39.39,0,0,0,.29-.28l.57-1.93a6.25,6.25,0,0,1,1.06,0l.56,1.93a.42.42,0,0,0,.3.28l.46.13a.42.42,0,0,0,.4-.07l1.51-1.31a7.48,7.48,0,0,1,.89.57l-.57,1.92a.42.42,0,0,0,.1.4,3.65,3.65,0,0,1,.31.36.46.46,0,0,0,.21.13v-.1l1.82-1Zm-1.68,9-.4.26a.42.42,0,0,0-.2.35v2a7,7,0,0,1-1,.29L21.9,27a.41.41,0,0,0-.35-.18h-.12a1.11,1.11,0,0,1-.26,0h-.11a.44.44,0,0,0-.36.19l-1.08,1.69c-.35-.08-.69-.18-1-.29v-2a.39.39,0,0,0-.2-.35l-.4-.26a.42.42,0,0,0-.21-.08c0,.78.09,2,.16,3.3a.24.24,0,0,0,.08.06,8.85,8.85,0,0,0,1.71.49.41.41,0,0,0,.42-.18l1.1-1.72h.08l1.1,1.72a.42.42,0,0,0,.35.19h.07a8.85,8.85,0,0,0,1.71-.49.43.43,0,0,0,.25-.38V26.61l.06,0,1.12.52v-.91l-1-.45A.4.4,0,0,0,24.6,25.77Z"/><path class="cls-1" d="M21.3,16.56a4.51,4.51,0,1,0,4.52,4.51A4.51,4.51,0,0,0,21.3,16.56Zm0,8.2A3.69,3.69,0,1,1,25,21.07,3.69,3.69,0,0,1,21.3,24.76Z"/><path class="cls-1" d="M21.3,19.43a1.64,1.64,0,1,0,1.64,1.64A1.64,1.64,0,0,0,21.3,19.43Zm0,2.46a.82.82,0,1,1,.82-.82A.82.82,0,0,1,21.3,21.89Z"/><polygon class="cls-1" points="35.68 24.02 35.68 13.89 35.19 13.89 35.19 24.02 27.01 28.35 27.23 28.78 35.44 24.44 43.64 28.78 43.87 28.35 35.68 24.02"/><path class="cls-1" d="M35.43,13.34l-8.81,4.57V28.77l8.81,4.57,8.82-4.57V17.91Zm0,.87L43,18.13l-7.57,3.93-7.57-3.93Zm-.38,18.06-7.66-4V18.76l7.66,4Zm8.43-4-7.66,4V22.72l7.66-4Z"/></svg>