<?xml version="1.0" encoding="utf-8"?>
<!-- Generator: Adobe Illustrator 22.1.0, SVG Export Plug-In . SVG Version: 6.00 Build 0)  -->
<svg version="1.1" id="Layer_1" xmlns="http://www.w3.org/2000/svg" xmlns:xlink="http://www.w3.org/1999/xlink" x="0px" y="0px"
	 viewBox="0 0 45 45" style="enable-background:new 0 0 45 45;" xml:space="preserve">
<style type="text/css">
	.st0{fill:none;stroke:#585858;stroke-width:1.4;stroke-linecap:round;stroke-linejoin:round;stroke-miterlimit:10;}
	.st1{fill:#FFFFFF;}
	.st2{fill:#585858;}
	.st3{fill:#F58228;}
	.st4{fill:#59595B;}
	.st5{fill:#F58228;stroke:#F58228;stroke-width:0.5;stroke-miterlimit:10;}
	.st6{fill:#585858;stroke:#585858;stroke-width:0.5;stroke-miterlimit:10;}
	.st7{fill:#F58228;stroke:#F58228;stroke-width:0.2269;stroke-miterlimit:10;}
	.st8{fill:#585858;stroke:#FFFFFF;stroke-width:0.3256;stroke-miterlimit:10;}
	.st9{fill:#F58228;stroke:#FFFFFF;stroke-width:0.3256;stroke-miterlimit:10;}
	.st10{fill:#585858;stroke:#FFFFFF;stroke-width:0.5;stroke-miterlimit:10;}
	.st11{fill:none;stroke:#F58228;stroke-linecap:round;stroke-linejoin:round;stroke-miterlimit:22.9256;}
	.st12{fill:none;stroke:#585858;stroke-linecap:round;stroke-linejoin:round;stroke-miterlimit:22.9256;}
	.st13{fill:#585858;stroke:#FFFFFF;stroke-width:0.3454;stroke-miterlimit:10;}
	.st14{fill:#F58228;stroke:#FFFFFF;stroke-width:0.3454;stroke-miterlimit:10;}
	.st15{fill:#595A5C;}
	.st16{fill:none;stroke:#F58228;stroke-miterlimit:10;}
	.st17{fill:none;stroke:#FFFFFF;stroke-width:1.144;stroke-miterlimit:10;}
	.st18{fill:none;stroke:#FFFFFF;stroke-width:1.2222;stroke-miterlimit:10;}
	.st19{fill:none;stroke:#FFFFFF;stroke-width:1.2222;stroke-miterlimit:10;stroke-dasharray:1.3537,1.3537;}
	.st20{fill:none;stroke:#585858;stroke-width:1.144;stroke-miterlimit:10;}
	.st21{fill:none;stroke:#F58228;stroke-width:1.144;stroke-miterlimit:10;}
	.st22{fill:none;stroke:#585858;stroke-width:1.2222;stroke-miterlimit:10;}
	.st23{fill:none;stroke:#F58228;stroke-width:1.2222;stroke-miterlimit:10;}
	.st24{fill:none;stroke:#585858;stroke-width:1.2222;stroke-miterlimit:10;stroke-dasharray:1.3537,1.3537;}
</style>
<g id="website_1_">
	<g>
		<path class="st8" d="M37.9,8.4H7c-1.9,0-3.5,1.6-3.5,3.5v27.6c0,0.4,0.4,0.8,0.8,0.8H9h11.2h4.5h11.2h4.7c0.4,0,0.8-0.4,0.8-0.8
			V11.9C41.4,9.9,39.8,8.4,37.9,8.4z M7,9.9h30.8c1.1,0,1.9,0.9,1.9,1.9v1.3H5.1v-1.3C5.1,10.8,6,9.9,7,9.9z M9.8,38.6v-8.2h9.6v8.2
			H9.8z M25.5,38.6v-8.2h9.6v8.2H25.5z M36.7,38.6v-9c0-0.4-0.4-0.8-0.8-0.8H24.7c-0.4,0-0.8,0.4-0.8,0.8v9H21v-9
			c0-0.4-0.4-0.8-0.8-0.8H9c-0.4,0-0.8,0.4-0.8,0.8v9H5.1V14.8h34.7v23.9H36.7z"/>
		<path class="st9" d="M36.2,12.3h1c0.4,0,0.8-0.4,0.8-0.8c0-0.4-0.4-0.8-0.8-0.8h-1c-0.4,0-0.8,0.4-0.8,0.8
			C35.4,12,35.7,12.3,36.2,12.3z"/>
		<path class="st9" d="M32.9,12.3h1c0.4,0,0.8-0.4,0.8-0.8c0-0.4-0.4-0.8-0.8-0.8h-1c-0.4,0-0.8,0.4-0.8,0.8
			C32.1,12,32.4,12.3,32.9,12.3z"/>
		<path class="st9" d="M29.6,12.3h1c0.4,0,0.8-0.4,0.8-0.8c0-0.4-0.4-0.8-0.8-0.8h-1c-0.4,0-0.8,0.4-0.8,0.8
			C28.8,12,29.1,12.3,29.6,12.3z"/>
		<path class="st9" d="M35.9,17.2H9c-0.4,0-0.8,0.4-0.8,0.8v7.7c0,0.4,0.4,0.8,0.8,0.8h26.8c0.4,0,0.8-0.4,0.8-0.8V18
			C36.7,17.5,36.3,17.2,35.9,17.2z M35.1,24.9H9.8v-6.1h25.3V24.9z"/>
	</g>
</g>
</svg>
