<svg id="Layer_1" data-name="Layer 1" xmlns="http://www.w3.org/2000/svg" viewBox="0 0 45 45">
  <defs>
    <style>
      .cls-1 {
        fill: #585858;
      }

      .cls-2 {
        fill: #f58228;
      }
    </style>
  </defs>
  <title>online publisher</title>
  <g id="website">
    <g>
      <path class="cls-1" d="M37.85,8.52H7a3.35,3.35,0,0,0-3.34,3.34V39.44a.63.63,0,0,0,.63.63H40.56a.63.63,0,0,0,.63-.63V11.86A3.35,3.35,0,0,0,37.85,8.52ZM19.56,38.81H9.65v-8.5h9.91Zm15.67,0H25.31v-8.5h9.92Zm4.7,0H36.49V29.68a.63.63,0,0,0-.63-.63H24.69a.63.63,0,0,0-.63.63v9.13H20.82V29.68a.63.63,0,0,0-.63-.63H9a.63.63,0,0,0-.63.63v9.13H5V14.62h35Zm0-25.45H5v-1.5A2.08,2.08,0,0,1,7,9.78H37.85a2.08,2.08,0,0,1,2.08,2.08Z"/>
      <path class="cls-2" d="M37.82,11.54a.63.63,0,0,1-.63.63h-1a.64.64,0,0,1-.63-.63.63.63,0,0,1,.63-.63h1A.63.63,0,0,1,37.82,11.54Z"/>
      <path class="cls-2" d="M34.53,11.54a.63.63,0,0,1-.63.63h-1a.64.64,0,0,1-.63-.63.63.63,0,0,1,.63-.63h1A.63.63,0,0,1,34.53,11.54Z"/>
      <path class="cls-2" d="M31.24,11.54a.63.63,0,0,1-.62.63h-1a.63.63,0,0,1-.62-.63.63.63,0,0,1,.62-.63h1A.63.63,0,0,1,31.24,11.54Z"/>
      <path class="cls-2" d="M35.86,17.32H9a.63.63,0,0,0-.63.63v7.72A.63.63,0,0,0,9,26.3H35.86a.63.63,0,0,0,.63-.63V18A.63.63,0,0,0,35.86,17.32ZM35.23,25H9.65V18.58H35.23Z"/>
    </g>
  </g>
</svg>
