<svg id="Layer_1" data-name="Layer 1" xmlns="http://www.w3.org/2000/svg" viewBox="0 0 45 45">
  <defs>
    <style>
      .cls-1 {
        fill: #fff;
      }
    </style>
  </defs>
  <title>online publisher wh</title>
  <g>
    <path class="cls-1" d="M37.85,8.52H7a3.35,3.35,0,0,0-3.34,3.34V39.44a.63.63,0,0,0,.63.63H40.56a.63.63,0,0,0,.63-.63V11.86A3.35,3.35,0,0,0,37.85,8.52ZM19.56,38.81H9.65v-8.5h9.91Zm15.67,0H25.31v-8.5h9.92Zm4.7,0H36.49V29.68a.63.63,0,0,0-.63-.63H24.69a.63.63,0,0,0-.63.63v9.13H20.82V29.68a.63.63,0,0,0-.63-.63H9a.63.63,0,0,0-.63.63v9.13H5V14.62h35Zm0-25.45H5v-1.5A2.08,2.08,0,0,1,7,9.78H37.85a2.08,2.08,0,0,1,2.08,2.08Z"/>
    <path class="cls-1" d="M37.19,10.91h-1a.63.63,0,0,0-.63.63.64.64,0,0,0,.63.63h1a.63.63,0,0,0,.63-.63A.63.63,0,0,0,37.19,10.91Z"/>
    <path class="cls-1" d="M33.9,10.91h-1a.63.63,0,0,0-.63.63.64.64,0,0,0,.63.63h1a.63.63,0,0,0,.63-.63A.63.63,0,0,0,33.9,10.91Z"/>
    <path class="cls-1" d="M30.62,10.91h-1a.63.63,0,0,0-.62.63.63.63,0,0,0,.62.63h1a.63.63,0,0,0,.62-.63A.63.63,0,0,0,30.62,10.91Z"/>
    <path class="cls-1" d="M9,26.3H35.86a.63.63,0,0,0,.63-.63V18a.63.63,0,0,0-.63-.63H9a.63.63,0,0,0-.63.63v7.72A.63.63,0,0,0,9,26.3Zm.63-7.72H35.23V25H9.65Z"/>
  </g>
</svg>
