<svg id="Layer_1" data-name="Layer 1" xmlns="http://www.w3.org/2000/svg" viewBox="0 0 45 45"><defs><style>.cls-1{fill:none;}.cls-2{fill:#585858;}.cls-3{fill:#f58228;}</style></defs><title>operations color</title><g id="gears_3" data-name="gears 3"><path class="cls-1" d="M12.43,19.62a6.6,6.6,0,0,0,3.33-.09.28.28,0,0,1,.32.15l.65,1.39,1.46-.69L17.54,19a.27.27,0,0,1,.09-.34,6.56,6.56,0,0,0,1.93-2,.27.27,0,0,1,.34-.11l1.42.58.61-1.49L20.51,15a.27.27,0,0,1-.16-.31,6.59,6.59,0,0,0-.09-3.33.28.28,0,0,1,.15-.32l1.39-.65L21.12,9l-1.39.65a.27.27,0,0,1-.34-.09,6.71,6.71,0,0,0-2-1.94.26.26,0,0,1-.11-.33l.58-1.42-1.49-.61-.58,1.42a.28.28,0,0,1-.31.16,6.59,6.59,0,0,0-3.33.08.27.27,0,0,1-.32-.14l-.65-1.39L9.69,6l.65,1.39a.27.27,0,0,1-.09.34,6.49,6.49,0,0,0-1.94,2A.27.27,0,0,1,8,9.9L6.56,9.32,6,10.81l1.42.58a.27.27,0,0,1,.16.31A6.6,6.6,0,0,0,7.61,15a.27.27,0,0,1-.14.32L6.08,16l.68,1.45,1.39-.65a.28.28,0,0,1,.34.1,6.45,6.45,0,0,0,2,1.93.28.28,0,0,1,.11.34l-.58,1.41,1.49.61.58-1.41A.26.26,0,0,1,12.43,19.62Zm-1.76-5a3.54,3.54,0,1,1,6.53-2.74,3.49,3.49,0,0,1,0,2.71,3.54,3.54,0,0,1-3.28,2.2,3.59,3.59,0,0,1-3.26-2.17Z"/><circle class="cls-1" cx="21.48" cy="31.03" r="4.05"/><path class="cls-1" d="M30.14,29.65a8.74,8.74,0,0,0-1.78-4.06.27.27,0,0,1,0-.35l1.44-1.56-1.69-1.55-1.43,1.55a.27.27,0,0,1-.35,0,8.79,8.79,0,0,0-3.49-1.36.26.26,0,0,1-.22-.27V20h-2.3v2.11a.27.27,0,0,1-.23.27A8.74,8.74,0,0,0,16,24.14a.27.27,0,0,1-.35,0L14.14,22.7l-1.56,1.69,1.55,1.43a.26.26,0,0,1,0,.35,8.74,8.74,0,0,0-1.36,3.48.27.27,0,0,1-.26.23H10.44v2.29h2.11a.27.27,0,0,1,.26.23,8.88,8.88,0,0,0,1.78,4.07.26.26,0,0,1,0,.35l-1.43,1.55,1.69,1.55,1.43-1.55a.27.27,0,0,1,.35,0,8.65,8.65,0,0,0,3.48,1.36.28.28,0,0,1,.23.27v2.11h2.3V40a.27.27,0,0,1,.22-.27,8.78,8.78,0,0,0,4.07-1.78.27.27,0,0,1,.35,0l1.55,1.43,1.56-1.69-1.56-1.43a.27.27,0,0,1,0-.34,8.5,8.5,0,0,0,1.36-3.49.28.28,0,0,1,.27-.23h2.11V29.88H30.41A.28.28,0,0,1,30.14,29.65Zm-8.66,6A4.59,4.59,0,1,1,26.06,31,4.59,4.59,0,0,1,21.48,35.61Z"/><path class="cls-1" d="M16.72,14.34a3,3,0,0,0-1.64-3.91,3,3,0,0,0-1.14-.22,2.89,2.89,0,0,0-1.16.23,3,3,0,0,0-1.61,3.93,3,3,0,0,0,5.55,0Z"/><path class="cls-1" d="M38,12.35a.29.29,0,0,1-.27-.23,6.5,6.5,0,0,0-1.4-3,.27.27,0,0,1,0-.35l1-1.15L36.16,6.54l-1,1.15a.28.28,0,0,1-.35,0,6.44,6.44,0,0,0-2.64-1,.27.27,0,0,1-.23-.26L31.9,5,30.29,5l0,1.53a.27.27,0,0,1-.22.27,6.56,6.56,0,0,0-3,1.4.27.27,0,0,1-.35,0l-1.15-1-1.07,1.2,1.15,1a.27.27,0,0,1,.05.35,6.54,6.54,0,0,0-1,2.63.25.25,0,0,1-.26.23l-1.53,0,0,1.61,1.54,0a.28.28,0,0,1,.27.22,6.41,6.41,0,0,0,1.4,3,.27.27,0,0,1,0,.35l-1,1.15L26.37,20l1-1.15a.25.25,0,0,1,.2-.09.23.23,0,0,1,.14,0,6.44,6.44,0,0,0,2.64,1,.27.27,0,0,1,.23.26l0,1.53,1.61,0,0-1.53a.27.27,0,0,1,.22-.27,6.56,6.56,0,0,0,3-1.4.27.27,0,0,1,.35,0l1.15,1L38,18.19l-1.15-1a.28.28,0,0,1,0-.35,6.54,6.54,0,0,0,1-2.63.26.26,0,0,1,.26-.23l1.53,0,0-1.61Zm-3.21.87h0a3.53,3.53,0,0,1-3.46,3.61h-.08a3.54,3.54,0,1,1,2.46-6.09,3.46,3.46,0,0,1,1.08,2.48Z"/><path class="cls-1" d="M31.27,10.29H31.2a3,3,0,0,0-2.1.92,3,3,0,0,0-.84,2.14,3,3,0,0,0,6-.12h0a3,3,0,0,0-.93-2.11A3,3,0,0,0,31.27,10.29Z"/><path class="cls-2" d="M32.79,29.34H30.64a9.35,9.35,0,0,0-1.72-3.91l1.46-1.58a.23.23,0,0,0,.07-.19.27.27,0,0,0-.08-.19l-2.09-1.92a.23.23,0,0,0-.19-.07.27.27,0,0,0-.19.08l-1.46,1.59a9,9,0,0,0-3.27-1.28V19.71a.27.27,0,0,0-.27-.26H20.06a.27.27,0,0,0-.27.26v2.16a9.24,9.24,0,0,0-3.9,1.71L14.3,22.12a.27.27,0,0,0-.38,0L12,24.22a.27.27,0,0,0,0,.38l1.58,1.46a9.09,9.09,0,0,0-1.28,3.28H10.17a.27.27,0,0,0-.27.27v2.83a.27.27,0,0,0,.27.27h2.15A9.35,9.35,0,0,0,14,36.62L12.57,38.2a.27.27,0,0,0,0,.38l2.08,1.92a.28.28,0,0,0,.38,0l1.46-1.59a9.3,9.3,0,0,0,3.28,1.29v2.15a.27.27,0,0,0,.27.27H22.9a.28.28,0,0,0,.27-.27V40.19a9.26,9.26,0,0,0,3.9-1.72l1.58,1.46a.27.27,0,0,0,.38,0L31,37.83a.27.27,0,0,0,.08-.19.34.34,0,0,0-.09-.19L29.36,36a9.47,9.47,0,0,0,1.28-3.28h2.15a.27.27,0,0,0,.27-.27V29.61A.27.27,0,0,0,32.79,29.34Zm-.27,2.83H30.41a.28.28,0,0,0-.27.23,8.5,8.5,0,0,1-1.36,3.49.27.27,0,0,0,0,.34l1.56,1.43-1.56,1.69-1.55-1.43a.27.27,0,0,0-.35,0,8.78,8.78,0,0,1-4.07,1.78.27.27,0,0,0-.22.27v2.11h-2.3V40a.28.28,0,0,0-.23-.27,8.65,8.65,0,0,1-3.48-1.36.27.27,0,0,0-.35,0l-1.43,1.55-1.69-1.55,1.43-1.55a.26.26,0,0,0,0-.35,8.88,8.88,0,0,1-1.78-4.07.27.27,0,0,0-.26-.23H10.44V29.88h2.11a.27.27,0,0,0,.26-.23,8.74,8.74,0,0,1,1.36-3.48.26.26,0,0,0,0-.35l-1.55-1.43,1.56-1.69,1.55,1.43a.27.27,0,0,0,.35,0,8.74,8.74,0,0,1,4.06-1.78.27.27,0,0,0,.23-.27V20h2.3v2.11a.26.26,0,0,0,.22.27,8.79,8.79,0,0,1,3.49,1.36.27.27,0,0,0,.35,0l1.43-1.55,1.69,1.55-1.44,1.56a.27.27,0,0,0,0,.35,8.74,8.74,0,0,1,1.78,4.06.28.28,0,0,0,.27.23h2.11Z"/><path class="cls-2" d="M21.48,26.44A4.59,4.59,0,1,0,26.06,31,4.6,4.6,0,0,0,21.48,26.44Zm0,8.63a4,4,0,1,1,4.05-4A4.05,4.05,0,0,1,21.48,35.07Z"/><path class="cls-2" d="M11.69,21.82a.3.3,0,0,0,.25-.17l.59-1.46a7.18,7.18,0,0,0,3.16-.08l.66,1.43a.28.28,0,0,0,.36.13l1.95-.91a.34.34,0,0,0,.14-.15.3.3,0,0,0,0-.21L18.12,19A6.89,6.89,0,0,0,19.9,17.1l1.46.6a.27.27,0,0,0,.35-.15l.82-2a.27.27,0,0,0-.15-.35l-1.46-.6a7.13,7.13,0,0,0-.08-3.15l1.43-.67a.29.29,0,0,0,.14-.15.3.3,0,0,0,0-.21l-.91-1.94a.27.27,0,0,0-.36-.13L19.7,9a7.08,7.08,0,0,0-1.87-1.79l.6-1.45a.26.26,0,0,0,0-.21.28.28,0,0,0-.15-.15l-2-.81a.23.23,0,0,0-.2,0,.28.28,0,0,0-.15.15l-.6,1.46a7.13,7.13,0,0,0-3.15.07l-.67-1.42a.26.26,0,0,0-.36-.13l-1.94.91A.26.26,0,0,0,9.09,6l.67,1.43A7.08,7.08,0,0,0,8,9.31L6.52,8.72a.26.26,0,0,0-.21,0,.29.29,0,0,0-.15.14l-.81,2a.26.26,0,0,0,.15.35L7,11.8A7,7,0,0,0,7,15l-1.43.67a.26.26,0,0,0-.13.36l.91,1.95a.29.29,0,0,0,.15.14.3.3,0,0,0,.21,0l1.42-.67a6.92,6.92,0,0,0,1.88,1.78l-.6,1.46a.26.26,0,0,0,0,.21A.29.29,0,0,0,9.6,21l2,.82Zm-1.64-1.24.58-1.41a.28.28,0,0,0-.11-.34,6.45,6.45,0,0,1-2-1.93.28.28,0,0,0-.34-.1l-1.39.65L6.08,16l1.39-.65A.27.27,0,0,0,7.61,15a6.6,6.6,0,0,1-.08-3.33.27.27,0,0,0-.16-.31L6,10.81l.61-1.49L8,9.9a.27.27,0,0,0,.33-.11,6.49,6.49,0,0,1,1.94-2,.27.27,0,0,0,.09-.34L9.69,6l1.46-.68.65,1.39a.27.27,0,0,0,.32.14,6.59,6.59,0,0,1,3.33-.08.28.28,0,0,0,.31-.16l.58-1.42,1.49.61-.58,1.42a.26.26,0,0,0,.11.33,6.71,6.71,0,0,1,2,1.94.27.27,0,0,0,.34.09L21.12,9l.68,1.46-1.39.65a.28.28,0,0,0-.15.32,6.59,6.59,0,0,1,.09,3.33.27.27,0,0,0,.16.31l1.42.58-.61,1.49-1.42-.58a.27.27,0,0,0-.34.11,6.56,6.56,0,0,1-1.93,2,.27.27,0,0,0-.09.34l.65,1.38-1.46.69-.65-1.39a.28.28,0,0,0-.32-.15,6.6,6.6,0,0,1-3.33.09.26.26,0,0,0-.31.16l-.58,1.41Z"/><path class="cls-2" d="M13.93,16.75a3.54,3.54,0,0,0,3.28-2.2,3.54,3.54,0,0,0-1.93-4.62,3.55,3.55,0,0,0-4.61,4.65,3.59,3.59,0,0,0,3.26,2.17Zm-2.76-2.38a3,3,0,0,1,1.61-3.93,2.89,2.89,0,0,1,1.16-.23,3,3,0,0,1,1.14.22,3,3,0,0,1,1.64,3.91,3,3,0,0,1-5.55,0Z"/><path class="cls-3" d="M40.08,12a.27.27,0,0,0-.27-.26h0l-1.58,0A7,7,0,0,0,36.9,8.94L38,7.76a.27.27,0,0,0,.07-.2.31.31,0,0,0-.09-.18L36.32,6a.26.26,0,0,0-.2-.07.24.24,0,0,0-.18.09l-1,1.18a6.8,6.8,0,0,0-2.42-.89l0-1.58a.26.26,0,0,0-.27-.26L30,4.47a.25.25,0,0,0-.19.09.26.26,0,0,0-.07.19l0,1.57a7.08,7.08,0,0,0-2.86,1.33l-1.18-1a.27.27,0,0,0-.38,0L23.93,8.24a.26.26,0,0,0,0,.38l1.18,1a6.85,6.85,0,0,0-.89,2.43l-1.58,0a.27.27,0,0,0-.19.08.25.25,0,0,0-.07.2l0,2.14a.26.26,0,0,0,.08.19.27.27,0,0,0,.19.08l1.58,0a7.21,7.21,0,0,0,1.33,2.86l-1.05,1.18a.27.27,0,0,0,0,.38l1.61,1.42a.31.31,0,0,0,.2.07.24.24,0,0,0,.18-.09l1.05-1.18a7.18,7.18,0,0,0,2.43.89l0,1.58a.27.27,0,0,0,.27.26h0l2.15,0a.25.25,0,0,0,.26-.27l0-1.58a7.06,7.06,0,0,0,2.86-1.32l1.19,1a.27.27,0,0,0,.38,0l1.42-1.61a.26.26,0,0,0,.07-.19.31.31,0,0,0-.09-.19l-1.19-1a7.14,7.14,0,0,0,.9-2.43l1.57,0a.27.27,0,0,0,.26-.28Zm-2,1.93a.26.26,0,0,0-.26.23,6.54,6.54,0,0,1-1,2.63.28.28,0,0,0,0,.35l1.15,1L37,19.39l-1.15-1a.27.27,0,0,0-.35,0,6.56,6.56,0,0,1-3,1.4.27.27,0,0,0-.22.27l0,1.53-1.61,0,0-1.53a.27.27,0,0,0-.23-.26,6.44,6.44,0,0,1-2.64-1,.23.23,0,0,0-.14,0,.25.25,0,0,0-.2.09l-1,1.15L25.16,19l1-1.15a.27.27,0,0,0,0-.35,6.41,6.41,0,0,1-1.4-3,.28.28,0,0,0-.27-.22l-1.54,0,0-1.61,1.53,0a.25.25,0,0,0,.26-.23,6.54,6.54,0,0,1,1-2.63.27.27,0,0,0-.05-.35l-1.15-1,1.07-1.2,1.15,1a.27.27,0,0,0,.35,0,6.56,6.56,0,0,1,3-1.4.27.27,0,0,0,.22-.27l0-1.53L31.9,5l0,1.54a.27.27,0,0,0,.23.26,6.44,6.44,0,0,1,2.64,1,.28.28,0,0,0,.35,0l1-1.15L37.37,7.6l-1,1.15a.27.27,0,0,0,0,.35,6.5,6.5,0,0,1,1.4,3,.29.29,0,0,0,.27.23l1.54,0,0,1.61Z"/><path class="cls-3" d="M31.19,9.75a3.53,3.53,0,0,0-3.46,3.61,3.53,3.53,0,0,0,3.53,3.47h.08a3.53,3.53,0,0,0,3.46-3.61,3.46,3.46,0,0,0-1.08-2.48A3.52,3.52,0,0,0,31.19,9.75Zm3.08,3.48a3,3,0,0,1-2.94,3.06,3,3,0,0,1-3.07-2.94,3,3,0,0,1,.84-2.14,3,3,0,0,1,2.1-.92h.07a3,3,0,0,1,2.07.83,3,3,0,0,1,.93,2.11Z"/></g></svg>