<?xml version="1.0" encoding="utf-8"?>
<!-- Generator: Adobe Illustrator 22.1.0, SVG Export Plug-In . SVG Version: 6.00 Build 0)  -->
<svg version="1.1" id="Layer_1" xmlns="http://www.w3.org/2000/svg" xmlns:xlink="http://www.w3.org/1999/xlink" x="0px" y="0px"
	 viewBox="0 0 45 45" style="enable-background:new 0 0 45 45;" xml:space="preserve">
<style type="text/css">
	.st0{fill:none;stroke:#585858;stroke-width:1.4;stroke-linecap:round;stroke-linejoin:round;stroke-miterlimit:10;}
	.st1{fill:#FFFFFF;}
	.st2{fill:#585858;}
	.st3{fill:#F58228;}
	.st4{fill:#59595B;}
	.st5{fill:#F58228;stroke:#F58228;stroke-width:0.5;stroke-miterlimit:10;}
	.st6{fill:#585858;stroke:#585858;stroke-width:0.5;stroke-miterlimit:10;}
	.st7{fill:#F58228;stroke:#F58228;stroke-width:0.2269;stroke-miterlimit:10;}
	.st8{fill:#585858;stroke:#FFFFFF;stroke-width:0.3256;stroke-miterlimit:10;}
	.st9{fill:#F58228;stroke:#FFFFFF;stroke-width:0.3256;stroke-miterlimit:10;}
	.st10{fill:#585858;stroke:#FFFFFF;stroke-width:0.5;stroke-miterlimit:10;}
	.st11{fill:none;stroke:#F58228;stroke-linecap:round;stroke-linejoin:round;stroke-miterlimit:22.9256;}
	.st12{fill:none;stroke:#585858;stroke-linecap:round;stroke-linejoin:round;stroke-miterlimit:22.9256;}
	.st13{fill:#585858;stroke:#FFFFFF;stroke-width:0.3454;stroke-miterlimit:10;}
	.st14{fill:#F58228;stroke:#FFFFFF;stroke-width:0.3454;stroke-miterlimit:10;}
	.st15{fill:#595A5C;}
	.st16{fill:none;stroke:#F58228;stroke-miterlimit:10;}
	.st17{fill:none;stroke:#FFFFFF;stroke-width:1.144;stroke-miterlimit:10;}
	.st18{fill:none;stroke:#FFFFFF;stroke-width:1.2222;stroke-miterlimit:10;}
	.st19{fill:none;stroke:#FFFFFF;stroke-width:1.2222;stroke-miterlimit:10;stroke-dasharray:1.3537,1.3537;}
	.st20{fill:none;stroke:#585858;stroke-width:1.144;stroke-miterlimit:10;}
	.st21{fill:none;stroke:#F58228;stroke-width:1.144;stroke-miterlimit:10;}
	.st22{fill:none;stroke:#585858;stroke-width:1.2222;stroke-miterlimit:10;}
	.st23{fill:none;stroke:#F58228;stroke-width:1.2222;stroke-miterlimit:10;}
	.st24{fill:none;stroke:#585858;stroke-width:1.2222;stroke-miterlimit:10;stroke-dasharray:1.3537,1.3537;}
</style>
<g id="gears_1_">
	<path class="st11" d="M30.9,21.4l-2.5-1.3l1.1-2.6c-0.4-0.4-0.7-0.8-1-1.2l-2.8,0.6l-0.8-2.7l2.6-1.1c0-0.5,0-1,0.2-1.6L25.4,10
		l1.3-2.5l2.6,1.1c0.4-0.4,0.8-0.7,1.2-1l-0.6-2.8l2.7-0.8l1.1,2.6c0.5,0,1,0,1.6,0.2l1.6-2.4l2.5,1.3l-1.1,2.6
		c0.4,0.4,0.7,0.8,1,1.2l2.8-0.6l0.8,2.7l-2.6,1.1c0,0.5,0,1-0.2,1.6l2.4,1.6l-1.3,2.5l-2.6-1.1c-0.4,0.4-0.8,0.7-1.2,1l0.6,2.8
		L35,21.8L34,19.2c-0.5,0-1,0-1.6-0.2L30.9,21.4L30.9,21.4z"/>
	<path class="st11" d="M33.1,10.7c1.4-0.4,2.6,0.2,3,1.6c0.4,1.4-0.2,2.6-1.6,3c-1.4,0.4-2.6-0.2-3-1.6
		C31.1,12.3,31.7,11.1,33.1,10.7L33.1,10.7z"/>
	<path class="st12" d="M15.1,40.1l-3.2-1.7l1.4-3.4c-0.5-0.5-0.9-1-1.3-1.6l-3.6,0.7l-1.1-3.5l3.4-1.4c0-0.7,0.1-1.4,0.2-2l-3.1-2
		l1.7-3.2l3.4,1.4c0.5-0.5,1-0.9,1.6-1.3l-0.7-3.6l3.5-1.1l1.4,3.4c0.7,0,1.4,0.1,2,0.2l2-3.1l3.2,1.7l-1.4,3.4
		c0.5,0.5,0.9,1,1.3,1.6l3.6-0.7l1.1,3.5L27,28.9c0,0.7-0.1,1.4-0.2,2l3.1,2l-1.7,3.2l-3.4-1.4c-0.5,0.5-1,0.9-1.6,1.3l0.7,3.6
		l-3.5,1.1l-1.4-3.4c-0.7,0-1.4-0.1-2-0.2L15.1,40.1L15.1,40.1z"/>
	<path class="st12" d="M17.7,25c2.3-0.7,4.7,0.6,5.4,2.9c0.7,2.3-0.6,4.7-2.9,5.4c-2.3,0.7-4.7-0.6-5.4-2.9
		C14.1,28.1,15.4,25.7,17.7,25L17.7,25z"/>
</g>
</svg>
