<svg id="Layer_1" data-name="Layer 1" xmlns="http://www.w3.org/2000/svg" viewBox="0 0 45 45">
  <defs>
    <style>
      .cls-1 {
        fill: #fff;
      }
    </style>
  </defs>
  <title>operations</title>
  <g>
    <path class="cls-1" d="M32.79,29.21H30.74a9.44,9.44,0,0,0-1.65-3.77l1.39-1.5a.43.43,0,0,0,.1-.29.37.37,0,0,0-.13-.27l-2.08-1.92a.4.4,0,0,0-.27-.11h0a.41.41,0,0,0-.27.13L26.42,23a9.39,9.39,0,0,0-3.13-1.23V19.71a.4.4,0,0,0-.39-.39H20.06a.39.39,0,0,0-.39.39v2.05a9.48,9.48,0,0,0-3.77,1.66L14.39,22a.42.42,0,0,0-.29-.11.41.41,0,0,0-.27.13l-1.92,2.09a.38.38,0,0,0,0,.55l1.51,1.39a9.39,9.39,0,0,0-1.23,3.13h-2a.4.4,0,0,0-.4.4v2.83a.4.4,0,0,0,.4.4h2.05a9.44,9.44,0,0,0,1.65,3.77l-1.39,1.51a.35.35,0,0,0-.1.28.4.4,0,0,0,.12.27l2.09,1.92a.44.44,0,0,0,.28.11.45.45,0,0,0,.28-.13l1.38-1.5a9.55,9.55,0,0,0,3.14,1.22v2.05a.38.38,0,0,0,.39.39H22.9a.39.39,0,0,0,.39-.39V40.29a9.44,9.44,0,0,0,3.77-1.65L28.57,40a.38.38,0,0,0,.26.11h0a.39.39,0,0,0,.27-.13l1.93-2.08a.38.38,0,0,0,.1-.29.37.37,0,0,0-.13-.27L29.52,36a9.28,9.28,0,0,0,1.22-3.13h2.05a.39.39,0,0,0,.39-.4V29.61A.39.39,0,0,0,32.79,29.21Zm-.4,2.84h-2a.39.39,0,0,0-.39.33,8.59,8.59,0,0,1-1.34,3.44.4.4,0,0,0,.06.51l1.46,1.34-1.39,1.51-1.46-1.35a.39.39,0,0,0-.51,0,8.64,8.64,0,0,1-4,1.76.39.39,0,0,0-.33.39v2H20.45V40a.39.39,0,0,0-.33-.39,8.7,8.7,0,0,1-3.43-1.34.38.38,0,0,0-.51.06l-1.35,1.46-1.5-1.39,1.34-1.46a.38.38,0,0,0,0-.51,8.62,8.62,0,0,1-1.75-4,.4.4,0,0,0-.39-.33h-2V30h2a.4.4,0,0,0,.39-.33,8.45,8.45,0,0,1,1.34-3.44.38.38,0,0,0-.06-.5l-1.46-1.35,1.38-1.5,1.46,1.34a.41.41,0,0,0,.52,0,8.6,8.6,0,0,1,4-1.76.39.39,0,0,0,.33-.39v-2H22.5v2a.39.39,0,0,0,.33.39,8.55,8.55,0,0,1,3.44,1.35.4.4,0,0,0,.51-.07l1.34-1.46,1.51,1.39-1.35,1.46a.39.39,0,0,0,0,.51,8.68,8.68,0,0,1,1.76,4,.39.39,0,0,0,.39.33h2Z"/>
    <path class="cls-1" d="M21.48,26.31A4.72,4.72,0,1,0,26.19,31,4.72,4.72,0,0,0,21.48,26.31Zm0,8.64A3.93,3.93,0,1,1,25.4,31,3.93,3.93,0,0,1,21.48,35Z"/>
    <path class="cls-1" d="M11.69,21.94a.4.4,0,0,0,.36-.24l.56-1.37a7.28,7.28,0,0,0,3-.07l.62,1.33a.4.4,0,0,0,.53.19l1.94-.91a.34.34,0,0,0,.2-.22.39.39,0,0,0,0-.3L18.28,19A7.5,7.5,0,0,0,20,17.26l1.36.55a.39.39,0,0,0,.3,0,.41.41,0,0,0,.22-.21l.81-2a.39.39,0,0,0-.21-.51l-1.37-.56a7.27,7.27,0,0,0-.07-3l1.33-.62a.43.43,0,0,0,.21-.23.39.39,0,0,0,0-.3l-.91-2a.4.4,0,0,0-.22-.2.44.44,0,0,0-.3,0l-1.34.63A7.11,7.11,0,0,0,18,7.2l.55-1.37a.39.39,0,0,0,0-.3.36.36,0,0,0-.21-.21l-2-.81a.35.35,0,0,0-.3,0,.36.36,0,0,0-.21.21l-.56,1.36a7.45,7.45,0,0,0-3,.08l-.62-1.34a.45.45,0,0,0-.23-.2.39.39,0,0,0-.3,0l-1.94.91A.39.39,0,0,0,9,6.07L9.6,7.4A7,7,0,0,0,7.93,9.16L6.56,8.6a.39.39,0,0,0-.3,0,.38.38,0,0,0-.21.22l-.82,2a.39.39,0,0,0,.22.51l1.36.56a7.45,7.45,0,0,0,.08,3l-1.34.62a.4.4,0,0,0-.2.22.39.39,0,0,0,0,.3L6.27,18a.38.38,0,0,0,.23.2.39.39,0,0,0,.3,0l1.33-.62a7.36,7.36,0,0,0,1.76,1.67l-.56,1.36a.39.39,0,0,0,0,.3.4.4,0,0,0,.22.22l2,.81A.37.37,0,0,0,11.69,21.94Zm-.94-2.73a.39.39,0,0,0-.17-.48,6.68,6.68,0,0,1-2-1.9.4.4,0,0,0-.49-.14l-1.28.6-.57-1.23,1.27-.6A.38.38,0,0,0,7.73,15a6.55,6.55,0,0,1-.08-3.26.39.39,0,0,0-.23-.46l-1.31-.53.52-1.26,1.3.53a.39.39,0,0,0,.49-.16,6.44,6.44,0,0,1,1.9-2,.38.38,0,0,0,.13-.49L9.86,6.09l1.23-.58.6,1.28a.38.38,0,0,0,.46.21,6.59,6.59,0,0,1,3.27-.08.39.39,0,0,0,.45-.23l.54-1.31,1.25.52-.53,1.3a.4.4,0,0,0,.16.49,6.36,6.36,0,0,1,2,1.9.38.38,0,0,0,.49.13l1.28-.59.57,1.23-1.27.6a.39.39,0,0,0-.22.46,6.36,6.36,0,0,1,.08,3.27.39.39,0,0,0,.24.45l1.3.54-.51,1.25-1.31-.53a.38.38,0,0,0-.48.16,6.59,6.59,0,0,1-1.9,2,.39.39,0,0,0-.14.49l.6,1.27-1.23.58-.6-1.27a.4.4,0,0,0-.47-.22,6.32,6.32,0,0,1-3.26.08.41.41,0,0,0-.46.24L11.47,21l-1.26-.51Z"/>
    <path class="cls-1" d="M13.93,16.87a3.66,3.66,0,0,0,1.4-7,3.66,3.66,0,0,0-2.78,6.78A3.65,3.65,0,0,0,13.93,16.87Zm1.12-1A2.87,2.87,0,1,1,16.6,14.3,2.85,2.85,0,0,1,15.05,15.86Z"/>
    <path class="cls-1" d="M40.21,12a.42.42,0,0,0-.41-.39l-1.47,0A7.25,7.25,0,0,0,37.07,9l1-1.11a.37.37,0,0,0,.1-.28A.37.37,0,0,0,38,7.29L36.4,5.86a.43.43,0,0,0-.29-.1.42.42,0,0,0-.27.14l-1,1.1a7.21,7.21,0,0,0-2.28-.84l0-1.47a.44.44,0,0,0-.12-.28.43.43,0,0,0-.28-.11L30,4.35a.36.36,0,0,0-.28.12.43.43,0,0,0-.11.28l0,1.47a7.34,7.34,0,0,0-2.73,1.27l-1.1-1a.4.4,0,0,0-.56,0L23.84,8.16a.38.38,0,0,0,0,.55l1.11,1A7.12,7.12,0,0,0,24.14,12l-1.47,0a.36.36,0,0,0-.28.12.39.39,0,0,0-.11.28l0,2.15a.41.41,0,0,0,.13.27.36.36,0,0,0,.28.11l1.47,0a7.25,7.25,0,0,0,1.26,2.73l-1,1.11a.38.38,0,0,0,0,.55l1.61,1.43a.39.39,0,0,0,.29.09.37.37,0,0,0,.27-.13l1-1.1a7,7,0,0,0,2.28.83l0,1.48a.4.4,0,0,0,.41.38l2.14,0a.4.4,0,0,0,.28-.12.43.43,0,0,0,.11-.28l0-1.48a7.16,7.16,0,0,0,2.73-1.26l1.1,1a.38.38,0,0,0,.29.09.37.37,0,0,0,.27-.13l1.42-1.61a.36.36,0,0,0,.1-.28.37.37,0,0,0-.13-.27l-1.11-1a7.12,7.12,0,0,0,.84-2.28l1.47,0a.39.39,0,0,0,.39-.4Zm-3.5,4.73a.4.4,0,0,0,.07.5l1.06.94-.9,1-1.06-.93a.39.39,0,0,0-.51,0,6.34,6.34,0,0,1-3,1.37.42.42,0,0,0-.33.4l0,1.41-1.36,0,0-1.41a.37.37,0,0,0-.34-.38,6.5,6.5,0,0,1-2.58-1,.42.42,0,0,0-.21-.06.38.38,0,0,0-.3.13l-.93,1.05-1-.9.93-1.05a.38.38,0,0,0,0-.51,6.48,6.48,0,0,1-1.37-3,.39.39,0,0,0-.39-.32h0l-1.4,0,0-1.36,1.41,0a.41.41,0,0,0,.38-.34,6.34,6.34,0,0,1,.95-2.59.4.4,0,0,0-.07-.5l-1.06-.94.9-1,1.06.94a.39.39,0,0,0,.51,0,6.46,6.46,0,0,1,3-1.38.39.39,0,0,0,.33-.39l0-1.41,1.36,0,0,1.41a.39.39,0,0,0,.34.38,6.5,6.5,0,0,1,2.58,1,.4.4,0,0,0,.51-.07l.93-1.06,1,.9-.93,1.06a.38.38,0,0,0,0,.51,6.48,6.48,0,0,1,1.37,3,.39.39,0,0,0,.4.32l1.41,0,0,1.36-1.41,0a.4.4,0,0,0-.38.34A6.25,6.25,0,0,1,36.71,16.76Z"/>
    <path class="cls-1" d="M31.27,9.62h-.08a3.65,3.65,0,0,0-3.59,3.73A3.67,3.67,0,0,0,31.26,17h.08a3.65,3.65,0,0,0,3.59-3.74,3.69,3.69,0,0,0-3.66-3.59Zm2,1.59a2.91,2.91,0,0,1,.88,2,2.88,2.88,0,0,1-4.87,2.13,2.88,2.88,0,0,1,1.93-4.95h.07A2.9,2.9,0,0,1,33.26,11.21Z"/>
  </g>
</svg>
