<svg id="Layer_1" data-name="Layer 1" xmlns="http://www.w3.org/2000/svg" viewBox="0 0 45 45"><defs><style>.cls-1{fill:none;}.cls-2{fill:#fff;}</style></defs><title>operations</title><g id="gears_3" data-name="gears 3"><path class="cls-1" d="M13.5,19.62a6.59,6.59,0,0,0,3.33-.09.28.28,0,0,1,.32.15l.65,1.39,1.46-.69L18.61,19a.27.27,0,0,1,.09-.34,6.71,6.71,0,0,0,1.94-2,.26.26,0,0,1,.33-.11l1.42.58L23,15.61,21.58,15a.28.28,0,0,1-.16-.31,6.59,6.59,0,0,0-.08-3.33.26.26,0,0,1,.14-.32l1.39-.65L22.19,9l-1.39.65a.27.27,0,0,1-.34-.09,6.6,6.6,0,0,0-2-1.94.27.27,0,0,1-.11-.33l.58-1.42-1.49-.61-.58,1.42a.27.27,0,0,1-.31.16,6.59,6.59,0,0,0-3.33.08.27.27,0,0,1-.32-.14l-.65-1.39L10.76,6l.65,1.39a.27.27,0,0,1-.09.34,6.35,6.35,0,0,0-1.93,2,.28.28,0,0,1-.34.11L7.63,9.32,7,10.81l1.42.58a.26.26,0,0,1,.16.31A6.49,6.49,0,0,0,8.69,15a.28.28,0,0,1-.15.32L7.15,16l.68,1.45,1.39-.65a.28.28,0,0,1,.34.1,6.45,6.45,0,0,0,2,1.93.27.27,0,0,1,.11.34l-.58,1.41,1.49.61.58-1.41A.26.26,0,0,1,13.5,19.62Zm-1.75-5a3.54,3.54,0,1,1,6.53-2.74A3.54,3.54,0,0,1,15,16.75a3.52,3.52,0,0,1-1.34-.27A3.45,3.45,0,0,1,11.75,14.58Z"/><circle class="cls-1" cx="22.55" cy="31.03" r="4.05"/><path class="cls-1" d="M31.22,29.65a8.76,8.76,0,0,0-1.79-4.06.27.27,0,0,1,0-.35l1.43-1.56-1.69-1.55-1.43,1.55a.27.27,0,0,1-.35,0,8.8,8.8,0,0,0-3.48-1.36.27.27,0,0,1-.23-.27V20H21.4v2.11a.26.26,0,0,1-.23.27,8.74,8.74,0,0,0-4.06,1.78.27.27,0,0,1-.35,0L15.21,22.7l-1.56,1.69,1.55,1.43a.28.28,0,0,1,.05.35,8.61,8.61,0,0,0-1.37,3.48.27.27,0,0,1-.26.23H11.51v2.29h2.11a.27.27,0,0,1,.26.23,8.8,8.8,0,0,0,1.79,4.07.27.27,0,0,1,0,.35l-1.43,1.55,1.69,1.55,1.43-1.55a.27.27,0,0,1,.35,0,8.65,8.65,0,0,0,3.48,1.36.27.27,0,0,1,.23.27v2.11h2.3V40a.28.28,0,0,1,.23-.27A8.74,8.74,0,0,0,28,37.91a.27.27,0,0,1,.35,0l1.55,1.43,1.56-1.69L29.9,36.23a.25.25,0,0,1,0-.34,8.79,8.79,0,0,0,1.36-3.49.27.27,0,0,1,.26-.23h2.11V29.88H31.48A.27.27,0,0,1,31.22,29.65Zm-8.67,6A4.59,4.59,0,1,1,27.14,31,4.59,4.59,0,0,1,22.55,35.61Z"/><path class="cls-1" d="M17.79,14.34A3,3,0,0,0,15,10.21a2.93,2.93,0,0,0-1.16.23,3,3,0,1,0,3.94,3.9Z"/><path class="cls-1" d="M39.09,12.35a.28.28,0,0,1-.27-.23,6.6,6.6,0,0,0-1.4-3,.27.27,0,0,1,0-.35l1-1.15L37.23,6.54l-1,1.15a.28.28,0,0,1-.35,0,6.4,6.4,0,0,0-2.63-1A.29.29,0,0,1,33,6.51L33,5,31.36,5l0,1.53a.26.26,0,0,1-.22.27,6.6,6.6,0,0,0-3,1.4.27.27,0,0,1-.35,0l-1.15-1-1.06,1.2,1.15,1a.27.27,0,0,1,0,.35,6.53,6.53,0,0,0-1,2.63.27.27,0,0,1-.26.23l-1.54,0,0,1.61,1.53,0a.27.27,0,0,1,.27.22,6.51,6.51,0,0,0,1.4,3,.27.27,0,0,1,0,.35l-1,1.15L27.44,20l1-1.15a.25.25,0,0,1,.2-.09.23.23,0,0,1,.14,0,6.49,6.49,0,0,0,2.64,1,.27.27,0,0,1,.23.26l0,1.53,1.61,0,0-1.53a.27.27,0,0,1,.22-.27,6.56,6.56,0,0,0,3-1.4.27.27,0,0,1,.35,0l1.15,1,1.07-1.2-1.15-1a.28.28,0,0,1,0-.35,6.54,6.54,0,0,0,1-2.63.27.27,0,0,1,.26-.23l1.53,0,0-1.61Zm-3.21.87h0a3.55,3.55,0,0,1-3.47,3.61h-.07a3.54,3.54,0,0,1-2.56-6,3.55,3.55,0,0,1,2.49-1.09,3.55,3.55,0,0,1,3.61,3.47Z"/><path class="cls-1" d="M32.34,10.29h-.06a3,3,0,0,0-2.94,3.06,3,3,0,0,0,3.06,2.94,3,3,0,0,0,2.94-3.06h0a3.06,3.06,0,0,0-.92-2.11A3,3,0,0,0,32.34,10.29Z"/><path class="cls-2" d="M33.86,29.34H31.71A9.46,9.46,0,0,0,30,25.43l1.46-1.58a.32.32,0,0,0,.07-.19.34.34,0,0,0-.09-.19l-2.08-1.92a.26.26,0,0,0-.2-.07.27.27,0,0,0-.19.08l-1.45,1.59a9.09,9.09,0,0,0-3.28-1.28V19.71a.27.27,0,0,0-.27-.26H21.13a.27.27,0,0,0-.27.26v2.16A9.24,9.24,0,0,0,17,23.58l-1.58-1.46a.27.27,0,0,0-.38,0l-1.93,2.08a.27.27,0,0,0,0,.38l1.58,1.46a9.09,9.09,0,0,0-1.28,3.28H11.24a.27.27,0,0,0-.27.27v2.83a.27.27,0,0,0,.27.27h2.15a9.35,9.35,0,0,0,1.71,3.91L13.64,38.2a.32.32,0,0,0-.07.19.31.31,0,0,0,.09.19l2.09,1.92a.23.23,0,0,0,.19.07.27.27,0,0,0,.19-.08l1.45-1.59a9.3,9.3,0,0,0,3.28,1.29v2.15a.27.27,0,0,0,.27.27H24a.27.27,0,0,0,.27-.27V40.19a9.26,9.26,0,0,0,3.9-1.72l1.59,1.46a.27.27,0,0,0,.38,0L32,37.83a.26.26,0,0,0,.07-.19.28.28,0,0,0-.09-.19L30.43,36a9.09,9.09,0,0,0,1.28-3.28h2.15a.27.27,0,0,0,.27-.27V29.61A.27.27,0,0,0,33.86,29.34Zm-.27,2.83H31.48a.27.27,0,0,0-.26.23,8.79,8.79,0,0,1-1.36,3.49.25.25,0,0,0,0,.34l1.55,1.43-1.56,1.69-1.55-1.43a.27.27,0,0,0-.35,0,8.74,8.74,0,0,1-4.06,1.78.28.28,0,0,0-.23.27v2.11H21.4V40a.27.27,0,0,0-.23-.27,8.65,8.65,0,0,1-3.48-1.36.27.27,0,0,0-.35,0l-1.43,1.55-1.69-1.55,1.43-1.55a.27.27,0,0,0,0-.35,8.8,8.8,0,0,1-1.79-4.07.27.27,0,0,0-.26-.23H11.51V29.88h2.11a.27.27,0,0,0,.26-.23,8.61,8.61,0,0,1,1.37-3.48.28.28,0,0,0-.05-.35l-1.55-1.43,1.56-1.69,1.55,1.43a.27.27,0,0,0,.35,0,8.74,8.74,0,0,1,4.06-1.78.26.26,0,0,0,.23-.27V20h2.3v2.11a.27.27,0,0,0,.23.27,8.8,8.8,0,0,1,3.48,1.36.27.27,0,0,0,.35,0l1.43-1.55,1.69,1.55-1.43,1.56a.27.27,0,0,0,0,.35,8.76,8.76,0,0,1,1.79,4.06.27.27,0,0,0,.26.23h2.11Z"/><path class="cls-2" d="M22.55,26.44A4.59,4.59,0,1,0,27.14,31,4.6,4.6,0,0,0,22.55,26.44Zm0,8.63a4,4,0,1,1,4.05-4A4.05,4.05,0,0,1,22.55,35.07Z"/><path class="cls-2" d="M12.76,21.82a.3.3,0,0,0,.25-.17l.59-1.46a7.17,7.17,0,0,0,3.16-.08l.67,1.43a.27.27,0,0,0,.35.13l1.95-.91a.26.26,0,0,0,.14-.15.3.3,0,0,0,0-.21L19.19,19A6.89,6.89,0,0,0,21,17.1l1.46.6a.27.27,0,0,0,.35-.15l.82-2a.27.27,0,0,0-.15-.35L22,14.61a7,7,0,0,0-.08-3.15l1.43-.67a.23.23,0,0,0,.14-.15.26.26,0,0,0,0-.21l-.91-1.94a.23.23,0,0,0-.15-.14.26.26,0,0,0-.21,0L20.78,9A7.12,7.12,0,0,0,18.9,7.24l.6-1.45a.26.26,0,0,0,0-.21.28.28,0,0,0-.15-.15l-2-.81a.26.26,0,0,0-.21,0,.28.28,0,0,0-.15.15l-.59,1.46a7.18,7.18,0,0,0-3.16.07L12.6,4.88a.26.26,0,0,0-.36-.13l-2,.91a.27.27,0,0,0-.13.35l.67,1.43A6.89,6.89,0,0,0,9.05,9.31L7.59,8.72a.26.26,0,0,0-.21,0,.27.27,0,0,0-.14.14l-.82,2a.27.27,0,0,0,.15.35L8,11.8A7.13,7.13,0,0,0,8.11,15l-1.43.67a.27.27,0,0,0-.13.36l.91,1.95a.29.29,0,0,0,.15.14.3.3,0,0,0,.21,0l1.43-.67a6.89,6.89,0,0,0,1.87,1.78l-.6,1.46a.26.26,0,0,0,0,.21.29.29,0,0,0,.15.14l2,.82Zm-1.64-1.24.58-1.41a.27.27,0,0,0-.11-.34,6.45,6.45,0,0,1-2-1.93.28.28,0,0,0-.34-.1l-1.39.65L7.15,16l1.39-.65A.28.28,0,0,0,8.69,15,6.49,6.49,0,0,1,8.6,11.7a.26.26,0,0,0-.16-.31L7,10.81l.61-1.49,1.42.58a.28.28,0,0,0,.34-.11,6.35,6.35,0,0,1,1.93-2,.27.27,0,0,0,.09-.34L10.76,6l1.46-.68.65,1.39a.27.27,0,0,0,.32.14,6.59,6.59,0,0,1,3.33-.08.27.27,0,0,0,.31-.16l.58-1.42,1.49.61-.58,1.42a.27.27,0,0,0,.11.33,6.6,6.6,0,0,1,2,1.94.27.27,0,0,0,.34.09L22.19,9l.68,1.46-1.39.65a.26.26,0,0,0-.14.32,6.59,6.59,0,0,1,.08,3.33.28.28,0,0,0,.16.31l1.42.58-.61,1.49L21,16.52a.26.26,0,0,0-.33.11,6.71,6.71,0,0,1-1.94,2,.27.27,0,0,0-.09.34l.65,1.38-1.46.69-.65-1.39a.28.28,0,0,0-.32-.15,6.59,6.59,0,0,1-3.33.09.26.26,0,0,0-.31.16l-.58,1.41Z"/><path class="cls-2" d="M15,16.75a3.55,3.55,0,1,0-3.26-2.17,3.45,3.45,0,0,0,1.92,1.9A3.52,3.52,0,0,0,15,16.75Zm-2.77-2.38a3,3,0,0,1,1.61-3.93A2.93,2.93,0,0,1,15,10.21a3,3,0,1,1-2.77,4.16Z"/><path class="cls-2" d="M41.15,12a.27.27,0,0,0-.27-.26h0l-1.58,0A7.06,7.06,0,0,0,38,8.94l1-1.18a.27.27,0,0,0,.07-.2A.31.31,0,0,0,39,7.38L37.39,6a.24.24,0,0,0-.2-.07A.26.26,0,0,0,37,6L36,7.16a6.8,6.8,0,0,0-2.42-.89l0-1.58a.28.28,0,0,0-.28-.26l-2.15,0a.25.25,0,0,0-.19.09.26.26,0,0,0-.07.19l0,1.57A7.08,7.08,0,0,0,28,7.65l-1.18-1a.27.27,0,0,0-.38,0L25,8.24a.28.28,0,0,0,0,.38l1.18,1a6.85,6.85,0,0,0-.89,2.43l-1.58,0a.27.27,0,0,0-.19.08.29.29,0,0,0-.07.2l0,2.14a.23.23,0,0,0,.09.19.27.27,0,0,0,.19.08l1.57,0a7.21,7.21,0,0,0,1.33,2.86l-1.05,1.18a.28.28,0,0,0,0,.38l1.61,1.42a.26.26,0,0,0,.19.07.28.28,0,0,0,.19-.09l1-1.18a7.26,7.26,0,0,0,2.43.89l0,1.58a.27.27,0,0,0,.27.26h0l2.14,0a.27.27,0,0,0,.27-.27l0-1.58a7.16,7.16,0,0,0,2.87-1.32l1.18,1a.27.27,0,0,0,.38,0l1.42-1.61a.26.26,0,0,0,.07-.19.31.31,0,0,0-.09-.19l-1.18-1a7.34,7.34,0,0,0,.89-2.43l1.57,0a.28.28,0,0,0,.27-.28Zm-2,1.93a.27.27,0,0,0-.26.23,6.54,6.54,0,0,1-1,2.63.28.28,0,0,0,0,.35l1.15,1L38,19.39l-1.15-1a.27.27,0,0,0-.35,0,6.56,6.56,0,0,1-3,1.4.27.27,0,0,0-.22.27l0,1.53-1.61,0,0-1.53a.27.27,0,0,0-.23-.26,6.49,6.49,0,0,1-2.64-1,.23.23,0,0,0-.14,0,.25.25,0,0,0-.2.09l-1,1.15L26.24,19l1-1.15a.27.27,0,0,0,0-.35,6.51,6.51,0,0,1-1.4-3,.27.27,0,0,0-.27-.22l-1.53,0,0-1.61,1.54,0a.27.27,0,0,0,.26-.23,6.53,6.53,0,0,1,1-2.63.27.27,0,0,0,0-.35l-1.15-1,1.06-1.2,1.15,1a.27.27,0,0,0,.35,0,6.6,6.6,0,0,1,3-1.4.26.26,0,0,0,.22-.27l0-1.53L33,5l0,1.54a.29.29,0,0,0,.24.26,6.4,6.4,0,0,1,2.63,1,.28.28,0,0,0,.35,0l1-1.15L38.44,7.6l-1,1.15a.27.27,0,0,0,0,.35,6.6,6.6,0,0,1,1.4,3,.28.28,0,0,0,.27.23l1.53,0,0,1.61Z"/><path class="cls-2" d="M32.27,9.75a3.53,3.53,0,0,0-3.47,3.61,3.55,3.55,0,0,0,3.54,3.47h.07a3.54,3.54,0,0,0-.14-7.08Zm3.07,3.48a3,3,0,0,1-2.94,3.06,3,3,0,0,1-3.06-2.94,3,3,0,0,1,2.94-3.06h.06a3,3,0,0,1,2.08.83,3.06,3.06,0,0,1,.92,2.11Z"/></g></svg>