<svg id="Layer_1" data-name="Layer 1" xmlns="http://www.w3.org/2000/svg" viewBox="0 0 45 45"><defs><style>.cls-1{fill:#fff;}</style></defs><title>infinive_site_icons</title><path class="cls-1" d="M22.76,6.21A18.45,18.45,0,0,0,4.33,24.63,18.66,18.66,0,0,0,9.68,37.7l.17.17H35.66l.17-.17a18.66,18.66,0,0,0,5.35-13.07A18.44,18.44,0,0,0,22.76,6.21ZM35.18,36.72H10.33A17.55,17.55,0,0,1,5.48,24.63a17.28,17.28,0,0,1,34.55,0A17.55,17.55,0,0,1,35.18,36.72Z"/><path class="cls-1" d="M22.76,9.66a15,15,0,0,0-15,15,14.8,14.8,0,0,0,3,9l.92-.69A13.73,13.73,0,0,1,9,25.2h1.13V24.05H9a13.76,13.76,0,0,1,3.63-8.76l1.11,1.11.82-.81-1.11-1.11a13.72,13.72,0,0,1,8.76-3.64V12h1.15V10.84a13.68,13.68,0,0,1,8.76,3.64L31,15.59l.82.81,1.11-1.11a13.76,13.76,0,0,1,3.63,8.76H35.42V25.2h1.13a13.66,13.66,0,0,1-2.74,7.72l.92.69a14.83,14.83,0,0,0,3-9A15,15,0,0,0,22.76,9.66Z"/><rect class="cls-1" x="22.18" y="33.26" width="1.15" height="1.15"/><rect class="cls-1" x="19.88" y="33.26" width="1.15" height="1.15"/><rect class="cls-1" x="24.48" y="33.26" width="1.15" height="1.15"/><rect class="cls-1" x="26.79" y="33.26" width="1.15" height="1.15"/><rect class="cls-1" x="17.57" y="33.26" width="1.15" height="1.15"/><path class="cls-1" d="M29.26,17.31l-2.45,2.46a6.33,6.33,0,0,0-9.12,8.66l.92-.69a5.13,5.13,0,0,1-1-3.11,5.19,5.19,0,0,1,5.19-5.18A5.09,5.09,0,0,1,26,20.6l-2,2a2.37,2.37,0,1,0,.81.82l2.06-2.06a5.13,5.13,0,0,1,.11,6.33l.92.69a6.32,6.32,0,0,0-.2-7.85l2.45-2.45Zm-6.5,8.47a1.15,1.15,0,1,1,1.15-1.15A1.16,1.16,0,0,1,22.76,25.78Z"/><rect class="cls-1" x="11.24" y="39.02" width="23.03" height="1.15"/></svg>