<?xml version="1.0" encoding="utf-8"?>
<!-- Generator: Adobe Illustrator 22.1.0, SVG Export Plug-In . SVG Version: 6.00 Build 0)  -->
<svg version="1.1" id="Layer_1" xmlns="http://www.w3.org/2000/svg" xmlns:xlink="http://www.w3.org/1999/xlink" x="0px" y="0px"
	 viewBox="0 0 45 45" style="enable-background:new 0 0 45 45;" xml:space="preserve">
<style type="text/css">
	.st0{fill:#FFFFFF;}
</style>
<g id="crm_1_">
	<g>
		<g>
			<path class="st0" d="M25,40.5c-0.5,0-0.9-0.2-1.3-0.5l-3.1-3c-0.2-0.2-0.2-0.5,0-0.7s0.5-0.2,0.7,0l3.1,3.1
				c0.2,0.2,0.4,0.2,0.6,0.2s0.4-0.1,0.6-0.2l1.1-1.1c0.2-0.2,0.2-0.4,0.2-0.6c0-0.2-0.1-0.4-0.2-0.6l-0.8-0.8
				c-0.2-0.2-0.2-0.5,0-0.7s0.5-0.2,0.7,0l0.8,0.8c0.3,0.3,0.5,0.8,0.5,1.3s-0.2,0.9-0.5,1.3l-1.1,1.1C25.9,40.3,25.4,40.5,25,40.5"
				/>
			<path class="st0" d="M34.3,26.6c-0.1,0-0.2,0-0.3-0.1c-0.2-0.2-0.2-0.5,0-0.7l2.9-2.9c0.1-0.1,0.2-0.3,0.2-0.5S37,22,36.9,21.9
				c-0.2-0.2-0.2-0.5,0-0.7s0.5-0.2,0.7,0c0.3,0.3,0.5,0.7,0.5,1.2s-0.2,0.9-0.5,1.2l-2.9,2.9C34.6,26.6,34.4,26.6,34.3,26.6"/>
			<path class="st0" d="M38.9,23.1c-0.4,0-0.9-0.2-1.2-0.5L26.1,11c-0.3-0.3-0.5-0.7-0.5-1c0-0.4,0.1-0.8,0.4-1.1l4-4
				c0.2-0.2,0.6-0.4,0.9-0.4c0.4,0,0.9,0.2,1.2,0.5l11.6,11.6c0.3,0.3,0.5,0.7,0.5,1c0,0.4-0.1,0.8-0.4,1.1l-4,4
				C39.6,23,39.3,23.1,38.9,23.1 M30.9,5.5c-0.1,0-0.2,0-0.2,0.1l-4,4c-0.1,0.1-0.1,0.2-0.1,0.3c0,0.2,0.1,0.3,0.2,0.5L38.4,22
				c0.1,0.1,0.3,0.2,0.5,0.2c0.1,0,0.2,0,0.2-0.1l4-4c0.1-0.1,0.1-0.2,0.1-0.3c0-0.2-0.1-0.3-0.2-0.5L31.4,5.7
				C31.3,5.6,31.1,5.5,30.9,5.5"/>
			<path class="st0" d="M9.6,25.8c-0.1,0-0.2,0-0.3-0.1l-1.9-1.9C7,23.4,6.8,23,6.8,22.5s0.1-0.9,0.5-1.3C7.5,21,7.8,21,8,21.2
				s0.2,0.5,0,0.7c-0.1,0.1-0.2,0.3-0.2,0.5s0.1,0.4,0.3,0.6l1.8,2c0.2,0.2,0.2,0.5,0,0.7C9.8,25.7,9.7,25.8,9.6,25.8"/>
			<path class="st0" d="M20.2,12.4c-0.1,0-0.2,0-0.3-0.1l-0.5-0.5c-0.2-0.2-0.4-0.3-0.6-0.3s-0.4,0.1-0.5,0.2
				c-0.2,0.2-0.5,0.2-0.7,0s-0.2-0.5,0-0.7c0.3-0.3,0.8-0.5,1.3-0.5s0.9,0.2,1.2,0.6l0.5,0.5c0.2,0.2,0.2,0.5,0,0.7
				C20.4,12.4,20.3,12.4,20.2,12.4"/>
			<path class="st0" d="M6.1,23.1c-0.4,0-0.7-0.1-0.9-0.4l-4-4c-0.5-0.5-0.5-1.5,0.1-2.1L12.9,5.1c0.3-0.3,0.8-0.5,1.2-0.5
				S14.8,4.7,15,5l4,4c0.3,0.3,0.4,0.7,0.4,1.1c0,0.4-0.2,0.8-0.5,1L7.3,22.6C7,22.9,6.5,23.1,6.1,23.1 M14.1,5.5
				c-0.2,0-0.4,0.1-0.5,0.2L2,17.3c-0.2,0.2-0.3,0.6-0.1,0.8l4,4c0.1,0.1,0.2,0.1,0.2,0.1c0.2,0,0.4-0.1,0.5-0.2l11.6-11.6
				c0.1-0.1,0.2-0.3,0.2-0.5c0-0.1,0-0.2-0.1-0.3l-4-4C14.3,5.5,14.2,5.5,14.1,5.5"/>
			<path class="st0" d="M10.6,30c-0.5,0-0.9-0.2-1.3-0.6l-1-1c-0.7-0.7-0.8-1.7-0.2-2.3l3.3-3.3c0.6-0.6,1.6-0.5,2.3,0.2l1,1
				c0.7,0.7,0.8,1.7,0.2,2.3c-0.2,0.2-0.5,0.2-0.7,0s-0.2-0.5,0-0.7s0.1-0.6-0.2-0.9l-1-1c-0.3-0.3-0.7-0.4-0.9-0.2l-3.3,3.3
				C8.6,27,8.7,27.4,9,27.7l1,1c0.3,0.3,0.7,0.4,0.9,0.2c0.2-0.2,0.5-0.2,0.7,0s0.2,0.5,0,0.7C11.3,29.9,10.9,30,10.6,30"/>
			<path class="st0" d="M13.3,32.8c-0.5,0-0.9-0.2-1.3-0.6l-1-1c-0.3-0.3-0.5-0.7-0.6-1.1c0-0.4,0.1-0.9,0.4-1.2l3.3-3.3
				c0.3-0.3,0.7-0.4,1.2-0.4c0.4,0,0.8,0.2,1.1,0.6l1,1c0.7,0.7,0.8,1.7,0.2,2.3c-0.2,0.2-0.5,0.2-0.7,0s-0.2-0.5,0-0.7
				s0.1-0.6-0.2-0.9l-1-1c-0.2-0.2-0.4-0.3-0.5-0.3s-0.3,0-0.4,0.1l-3.3,3.3c-0.1,0.1-0.1,0.3-0.1,0.4c0,0.2,0.1,0.4,0.3,0.5l1,1
				c0.3,0.3,0.7,0.4,0.9,0.2c0.2-0.2,0.5-0.2,0.7,0s0.2,0.5,0,0.7C14.1,32.7,13.7,32.8,13.3,32.8"/>
			<path class="st0" d="M16.2,35.7c-0.1,0-0.1,0-0.2,0c-0.4,0-0.8-0.2-1.1-0.6l-1-1c-0.6-0.6-0.9-1.8-0.3-2.4l3.3-3.3
				c0.3-0.3,0.8-0.4,1.2-0.3c0.4,0.1,0.8,0.3,1.1,0.6l1,1c0.7,0.7,0.8,1.7,0.2,2.3c-0.2,0.2-0.5,0.2-0.7,0s-0.2-0.5,0-0.7
				s0.1-0.6-0.2-0.9l-1-1c-0.2-0.2-0.4-0.3-0.6-0.4c-0.2,0-0.3,0-0.3,0l-3.3,3.3c-0.2,0.2-0.1,0.7,0.3,1.1l1,1
				c0.2,0.2,0.4,0.3,0.5,0.3s0.3,0,0.4-0.1c0.2-0.2,0.5-0.2,0.7,0s0.2,0.5,0,0.7C17,35.6,16.6,35.7,16.2,35.7"/>
			<path class="st0" d="M19,38.5c-0.5,0-0.9-0.2-1.3-0.6l-1-1c-0.7-0.7-0.8-1.7-0.2-2.3l3.3-3.3c0.3-0.3,0.6-0.4,1-0.4
				c0.5,0,0.9,0.2,1.3,0.6l1,1c0.7,0.7,0.8,1.7,0.2,2.3L20,38.1C19.8,38.4,19.4,38.5,19,38.5 M20.8,31.9c-0.1,0-0.2,0-0.3,0.1
				l-3.3,3.3c-0.2,0.2-0.1,0.6,0.2,0.9l1,1c0.2,0.2,0.4,0.3,0.6,0.3c0.1,0,0.2,0,0.3-0.1l3.3-3.3c0.2-0.2,0.1-0.6-0.2-0.9l-1-1
				C21.2,32,21,31.9,20.8,31.9"/>
			<path class="st0" d="M27.9,37.5c-0.5,0-0.9-0.2-1.3-0.5l-0.8-0.8c-0.2-0.2-0.2-0.5,0-0.7s0.5-0.2,0.7,0l0.8,0.8
				c0.3,0.3,0.9,0.3,1.2,0l1.1-1.1c0.3-0.3,0.3-0.9,0-1.2l-0.8-0.8c-0.2-0.2-0.2-0.5,0-0.7s0.5-0.2,0.7,0l0.8,0.8
				c0.7,0.7,0.7,1.8,0,2.5L29.2,37C28.8,37.3,28.3,37.5,27.9,37.5"/>
			<path class="st0" d="M30.9,34.5c-0.5,0-0.9-0.2-1.3-0.5l-0.8-0.8c-0.2-0.2-0.2-0.5,0-0.7s0.5-0.2,0.7,0l0.8,0.8
				c0.3,0.3,0.9,0.3,1.2,0l1.1-1.1c0.2-0.2,0.2-0.4,0.2-0.6s-0.1-0.4-0.2-0.6l-0.8-0.8c-0.2-0.2-0.2-0.5,0-0.7s0.5-0.2,0.7,0
				l0.8,0.8c0.3,0.3,0.5,0.8,0.5,1.3s-0.2,0.9-0.5,1.3L32.2,34C31.9,34.3,31.4,34.5,30.9,34.5"/>
			<path class="st0" d="M33.9,31.5c-0.5,0-0.9-0.2-1.3-0.5l-0.8-0.8c-0.2-0.2-0.2-0.5,0-0.7s0.5-0.2,0.7,0l0.8,0.8
				c0.3,0.3,0.9,0.3,1.2,0l1.1-1.1c0.3-0.3,0.3-0.9,0-1.2L24.8,17.5c-0.2-0.2-0.2-0.5,0-0.7s0.5-0.2,0.7,0l10.7,10.6
				c0.7,0.7,0.7,1.8,0,2.5L35.1,31C34.8,31.4,34.3,31.5,33.9,31.5"/>
			<path class="st0" d="M21.2,24.9c-0.3,0-0.6-0.1-0.9-0.3l-3-1.7c-1.3-0.8-1.8-2.3-1.3-3.7l2.5-6.2c0.4-1,1.2-1.6,2.2-1.8l5.6-1
				c0.3,0,0.5,0.1,0.6,0.4c0,0.3-0.1,0.5-0.4,0.6l-5.6,1c-0.7,0.1-1.3,0.6-1.5,1.2L17,19.6c-0.4,0.9,0,2,0.8,2.5l3,1.8l0,0
				c0.3,0.2,0.8,0.1,1-0.2l0.8-1.2c0.1-0.2,0.1-0.4,0.1-0.6s-0.2-0.4-0.3-0.5c0,0,0,0-0.1-0.1l-0.6-0.6c-0.3-0.3-0.5-0.7-0.5-1.2
				c0-0.4,0.2-0.9,0.5-1.2c1.8-1.9,2.1-2,2.3-2c0.6-0.2,1.2,0,1.6,0.4c0.2,0.2,0.2,0.5,0,0.7s-0.5,0.2-0.7,0s-0.4-0.2-0.6-0.2
				c-0.1,0.1-0.5,0.3-1.9,1.8c-0.1,0.1-0.2,0.3-0.2,0.5s0.1,0.4,0.2,0.5l0.6,0.5c0.4,0.2,0.6,0.6,0.7,1s0,0.9-0.2,1.3L22.7,24
				C22.3,24.6,21.8,24.9,21.2,24.9"/>
		</g>
	</g>
</g>
</svg>
