<svg id="Layer_1" data-name="Layer 1" xmlns="http://www.w3.org/2000/svg" viewBox="0 0 45 45"><defs><style>.cls-1{fill:#fff;}</style></defs><title>infinive_site_icons</title><path class="cls-1" d="M22.48,2.76,4.79,11.92v21.8l17.69,9.16,17.68-9.16V11.92ZM22,24.56V41.61l-.46-.23-1.16-.6L5.71,33.16V12.91L22,21.36ZM6.28,12.18l.5-.26L8.52,11l14-7.23,14.58,7.56,1.11.57.5.26L22.48,20.57Zm33,1.24V33.16l-12,6.23L25,40.55l-1.6.83-.46.23V21.36l16.31-8.45Z"/><path class="cls-1" d="M22.48,14.47a.23.23,0,0,0-.23.23v1.15a.23.23,0,1,0,.45,0V14.7A.22.22,0,0,0,22.48,14.47Z"/><path class="cls-1" d="M22.48,19.07a.23.23,0,0,0-.23.23v.12l.23.12.22-.12V19.3A.22.22,0,0,0,22.48,19.07Z"/><path class="cls-1" d="M22.48,16.77a.23.23,0,0,0-.23.23v1.15a.23.23,0,1,0,.45,0V17A.22.22,0,0,0,22.48,16.77Z"/><path class="cls-1" d="M22.48,7.56a.23.23,0,0,0-.23.23V8.94a.23.23,0,1,0,.45,0V7.79A.22.22,0,0,0,22.48,7.56Z"/><path class="cls-1" d="M22.48,5.26a.23.23,0,0,0-.23.23V6.64a.23.23,0,1,0,.45,0V5.49A.22.22,0,0,0,22.48,5.26Z"/><path class="cls-1" d="M22.48,12.17a.22.22,0,0,0-.23.22v1.16a.22.22,0,0,0,.23.22.22.22,0,0,0,.22-.22V12.39A.22.22,0,0,0,22.48,12.17Z"/><path class="cls-1" d="M22.48,9.86a.23.23,0,0,0-.23.23v1.15a.23.23,0,1,0,.45,0V10.09A.23.23,0,0,0,22.48,9.86Z"/><path class="cls-1" d="M11.09,30.6a.2.2,0,0,0,.11,0l1-.5a.22.22,0,0,0,.1-.31.24.24,0,0,0-.31-.1l-1,.51a.23.23,0,0,0-.1.31A.22.22,0,0,0,11.09,30.6Z"/><path class="cls-1" d="M7.2,32.62a.19.19,0,0,0,.1,0l1-.5a.24.24,0,0,0,.1-.31.23.23,0,0,0-.31-.1l-1,.51A.23.23,0,0,0,7,32.5.24.24,0,0,0,7.2,32.62Z"/><path class="cls-1" d="M20.84,25.55a.18.18,0,0,0,.1,0l.16-.09v-.51l-.37.19a.23.23,0,0,0-.1.31A.22.22,0,0,0,20.84,25.55Z"/><path class="cls-1" d="M9.15,31.61a.19.19,0,0,0,.1,0l1-.5a.23.23,0,0,0-.21-.41l-1,.51a.24.24,0,0,0-.1.31A.24.24,0,0,0,9.15,31.61Z"/><path class="cls-1" d="M13,29.59l.11,0,1-.51a.23.23,0,0,0,.1-.31.24.24,0,0,0-.31-.1l-1,.51a.23.23,0,0,0-.1.31A.22.22,0,0,0,13,29.59Z"/><path class="cls-1" d="M18.89,26.56l.1,0L20,26a.23.23,0,0,0,.09-.31.22.22,0,0,0-.3-.09l-1,.5a.24.24,0,0,0-.1.31A.24.24,0,0,0,18.89,26.56Z"/><path class="cls-1" d="M16.94,27.57l.1,0L18,27a.24.24,0,0,0,.1-.31.23.23,0,0,0-.31-.09l-1,.5a.23.23,0,0,0-.09.31A.22.22,0,0,0,16.94,27.57Z"/><path class="cls-1" d="M15,28.58l.11,0,1-.51a.23.23,0,1,0-.21-.4l-1,.5a.22.22,0,0,0-.1.31A.22.22,0,0,0,15,28.58Z"/><path class="cls-1" d="M25,26l1,.51.1,0a.22.22,0,0,0,.21-.12.23.23,0,0,0-.1-.31l-1-.5A.23.23,0,1,0,25,26Z"/><path class="cls-1" d="M26.93,27l1,.51.1,0a.25.25,0,0,0,.21-.12.24.24,0,0,0-.1-.31l-1-.5a.22.22,0,0,0-.3.09A.23.23,0,0,0,26.93,27Z"/><path class="cls-1" d="M28.88,28.05l1,.51.1,0a.22.22,0,0,0,.2-.12.23.23,0,0,0-.09-.31l-1-.5a.23.23,0,0,0-.31.09A.24.24,0,0,0,28.88,28.05Z"/><path class="cls-1" d="M24.12,25.55a.22.22,0,0,0,.2-.12.23.23,0,0,0-.1-.31l-.37-.19v.51l.16.09A.2.2,0,0,0,24.12,25.55Z"/><path class="cls-1" d="M34.73,31.08l1,.5a.19.19,0,0,0,.1,0,.24.24,0,0,0,.21-.12.23.23,0,0,0-.1-.31l-1-.51a.24.24,0,0,0-.31.1A.22.22,0,0,0,34.73,31.08Z"/><path class="cls-1" d="M36.67,32.09l1,.5a.19.19,0,0,0,.1,0A.24.24,0,0,0,38,32.5a.24.24,0,0,0-.1-.31l-1-.51a.22.22,0,0,0-.3.1A.23.23,0,0,0,36.67,32.09Z"/><path class="cls-1" d="M30.83,29.06l1,.51.11,0a.22.22,0,0,0,.2-.12.22.22,0,0,0-.1-.31l-1-.51a.24.24,0,0,0-.31.1A.23.23,0,0,0,30.83,29.06Z"/><path class="cls-1" d="M32.78,30.07l1,.5a.23.23,0,0,0,.11,0,.22.22,0,0,0,.2-.12.23.23,0,0,0-.1-.31l-1-.51a.24.24,0,0,0-.31.1A.23.23,0,0,0,32.78,30.07Z"/></svg>