<svg id="Layer_1" data-name="Layer 1" xmlns="http://www.w3.org/2000/svg" viewBox="0 0 45 45"><defs><style>.cls-1{fill:#585858;}.cls-2{fill:#f58228;}</style></defs><title>biomedical_color</title><path class="cls-1" d="M35.92,25.19,35.8,25c-.7-1.21-1.38-2.42-2.13-3.73.25-.33.62-.79.95-1.28a7.84,7.84,0,0,0,1.69-4,8.15,8.15,0,0,0-.2-2.11,2.38,2.38,0,0,0,.37-1.41,3.71,3.71,0,0,0,.05-.48,3.51,3.51,0,0,0-3.36-3.57,3.31,3.31,0,0,0-2.39,1,3.5,3.5,0,0,0-1,1.75.86.86,0,0,1-.66.29l-1.07.08a7.48,7.48,0,0,1-.6-1.08c-.19-.43-.4-.86-.63-1.27a6.85,6.85,0,0,0-3.91-3.56c-.27,0-.48-.09-.75-.09s-.43.09-.61.09c-2.56.83-3.75,2.91-4.68,5.18-.25.62-.47.8-1.17.7a9.68,9.68,0,0,0-5,.32,3.93,3.93,0,0,0-2.62,4.92,11,11,0,0,0,2.14,4.14l.55.7c-.37.51-.75,1-1.1,1.5a10,10,0,0,0-1.67,3.8,3.29,3.29,0,0,0-.72.52A3.39,3.39,0,0,0,7,31.91l.17.21.1.12s0,0,0,0a2.85,2.85,0,0,0,.38.31,3.31,3.31,0,0,0,2,.67h0a3.4,3.4,0,0,0,2.84-1.52.84.84,0,0,1,.33-.1c1-.08,2-.1,3-.2.45-.05.62.07.83.47a32.4,32.4,0,0,0,2.07,3.63,4.09,4.09,0,0,0,4.36,1.66,3.86,3.86,0,0,0,1.56-.82A9.71,9.71,0,0,0,27.6,32c.19-.52.41-.61.94-.52a10.89,10.89,0,0,0,4.18-.06,1.12,1.12,0,0,1,.63,0h0a3.34,3.34,0,0,0,1.65.46h0a3.35,3.35,0,0,0,3.39-3.32A3.55,3.55,0,0,0,35.92,25.19ZM9.27,15.36a2.28,2.28,0,0,1,1.35-2.18,7.83,7.83,0,0,1,4.46-.53c.28,0,.56.1.88.15-.22,1-.41,2-.61,3a13.7,13.7,0,0,1-.4,1.46,8.28,8.28,0,0,1-1.16,1.13,21.89,21.89,0,0,0-2.22,1.93C10.44,18.84,9.29,17.37,9.27,15.36Zm5.62,3.8V23.6L12.5,21.42ZM11.48,29.93a1.74,1.74,0,0,1-1.79,1.72,1.79,1.79,0,0,1-1.27-.54,1.83,1.83,0,0,1,0-2.63A1.74,1.74,0,0,1,9.66,28h0A1.91,1.91,0,0,1,11.48,29.93Zm1.58.3a2.85,2.85,0,0,0,0-.29,3.51,3.51,0,0,0-3.36-3.57,1.83,1.83,0,0,0-.33,0,9.72,9.72,0,0,1,2.21-3.93c1,.84,1.91,1.67,2.89,2.44a1.9,1.9,0,0,1,.78,1.37c.17,1.21.47,2.41.74,3.75ZM26.92,13.06c.25,1.07.47,2.07.73,3.18L23.82,14ZM19.93,8a2.66,2.66,0,0,1,4.29,0,10.5,10.5,0,0,1,2.24,3.77c-1.42.52-2.81,1-4.22,1.52a.75.75,0,0,1-.46-.05l-4.05-1.48A11.14,11.14,0,0,1,19.93,8Zm-2.66,5.07,3.11.95-3.82,2.22C16.8,15.14,17,14.15,17.27,13.06Zm-.72,13.49,3.82,2.21-3.1,1C17,28.63,16.8,27.64,16.55,26.55Zm7.35,8.58a2.48,2.48,0,0,1-3.65,0,10.11,10.11,0,0,1-2.52-4c1.39-.51,2.72-1,4.05-1.47a1,1,0,0,1,.64,0c1.34.47,2.66,1,4,1.47A9.77,9.77,0,0,1,23.9,35.13Zm3-5.4-3.1-1,3.84-2.22Zm.95-5.44a.87.87,0,0,1-.34.58c-1.67,1-3.37,2-5.07,2.93a.79.79,0,0,1-.67,0q-2.55-1.39-5-2.86a1,1,0,0,1-.39-.74c0-1.87,0-3.75,0-5.62a1,1,0,0,1,.37-.74c1.68-1,3.38-2,5.09-2.89a.75.75,0,0,1,.62,0c1.7,1,3.4,1.93,5.08,2.93a.85.85,0,0,1,.34.58c.08.86.1,1.72.16,3C28,22.15,28,23.22,27.87,24.29Zm7.16,6h0a1.77,1.77,0,0,1-1.26-.54,1.83,1.83,0,0,1,0-2.63A1.74,1.74,0,0,1,35,26.65h0a1.91,1.91,0,0,1,1.78,2A1.74,1.74,0,0,1,35,30.33ZM33.12,13.65a1.8,1.8,0,0,1-1.26-.53,1.85,1.85,0,0,1-.54-1.34,1.87,1.87,0,0,1,.57-1.29A1.76,1.76,0,0,1,33.1,10h0a1.89,1.89,0,0,1,1.78,1.95,1.72,1.72,0,0,1-1.78,1.72Zm-3.45-1.06a4.94,4.94,0,0,0,1,1.64v0l0,0a3.49,3.49,0,0,0,1,.73,2.66,2.66,0,0,0,1.21.25h.17a3.41,3.41,0,0,0,1.77-.5c.24,2.3-1,3.92-2.25,5.56l-3.38-2.84a.64.64,0,0,1-.19-.35c-.26-1.41-.5-2.83-.75-4.31Zm2.1,8.78L29.39,23.6V19.18ZM28.32,30c.24-1.18.53-2.31.67-3.47a2.46,2.46,0,0,1,1.08-1.8c.9-.68,1.71-1.47,2.66-2.3.6.89,1.17,1.75,1.79,2.69a3.35,3.35,0,0,0-1.84.91,3.27,3.27,0,0,0-.68.94h0a3.49,3.49,0,0,0-.38,1.48A3.35,3.35,0,0,0,32,30.1,10.11,10.11,0,0,1,28.32,30Z"/><path class="cls-2" d="M33.14,15.25a3.33,3.33,0,0,1-2.4-1,3.44,3.44,0,0,1-1-2.49,3.48,3.48,0,0,1,1.06-2.43,3.34,3.34,0,0,1,2.4-1,3.51,3.51,0,0,1,3.36,3.57,3.35,3.35,0,0,1-3.39,3.32Zm0-5.29a1.74,1.74,0,0,0-1.21.51,1.81,1.81,0,0,0,0,2.63,1.75,1.75,0,0,0,1.26.54h0a1.74,1.74,0,0,0,1.79-1.72h0a1.91,1.91,0,0,0-1.79-2Z"/><path class="cls-2" d="M9.68,33.26a3.35,3.35,0,0,1-2.4-1,3.43,3.43,0,0,1,.06-4.92,3.26,3.26,0,0,1,2.39-.95,3.51,3.51,0,0,1,3.36,3.57h0A3.35,3.35,0,0,1,9.7,33.26Zm0-5.29a1.74,1.74,0,0,0-1.21.51,1.83,1.83,0,0,0,0,2.63,1.79,1.79,0,0,0,1.27.54,1.74,1.74,0,0,0,1.79-1.72,1.91,1.91,0,0,0-1.79-2Z"/><path class="cls-2" d="M22.12,24.9a3.38,3.38,0,0,1-2.4-1A3.45,3.45,0,0,1,19.77,19a3.37,3.37,0,0,1,2.4-.95,3.51,3.51,0,0,1,3.36,3.57,3.35,3.35,0,0,1-3.39,3.32Zm0-5.28a1.77,1.77,0,0,0-1.21.5,1.83,1.83,0,0,0-.57,1.3,1.81,1.81,0,0,0,.54,1.33,1.78,1.78,0,0,0,3.06-1.18h0a1.9,1.9,0,0,0-1.79-1.95Z"/><path class="cls-2" d="M35.05,32a3.38,3.38,0,0,1-2.4-1,3.49,3.49,0,0,1-1-2.5A3.43,3.43,0,0,1,32.71,26a3.31,3.31,0,0,1,2.39-1,3.52,3.52,0,0,1,3.36,3.57h0A3.35,3.35,0,0,1,35.07,32Zm0-5.28a1.74,1.74,0,0,0-1.21.51,1.87,1.87,0,0,0-.57,1.29,1.81,1.81,0,0,0,.54,1.33,1.77,1.77,0,0,0,1.26.54h0a1.72,1.72,0,0,0,1.79-1.72,1.89,1.89,0,0,0-1.78-1.95Z"/></svg>