<svg id="Layer_1" data-name="Layer 1" xmlns="http://www.w3.org/2000/svg" viewBox="0 0 45 45">
  <defs>
    <style>
      .cls-1 {
        fill: #f48225;
      }

      .cls-2 {
        fill: #595959;
      }
    </style>
  </defs>
  <title>radar</title>
  <g>
    <g id="Logo_Bug" data-name="Logo Bug">
      <g>
        <path class="cls-1" d="M22.43,16.5a2.08,2.08,0,1,0,2.08,2.08A2.08,2.08,0,0,0,22.43,16.5Zm0,2.95a.88.88,0,0,1,0-1.75.88.88,0,1,1,0,1.75Z"/>
        <path class="cls-1" d="M22.43,23a2.08,2.08,0,1,0,2.08,2.07A2.07,2.07,0,0,0,22.43,23Zm0,2.95a.88.88,0,1,1,.88-.88A.88.88,0,0,1,22.43,26Z"/>
        <path class="cls-1" d="M25.68,19.75a2,2,0,0,0-1.49.64l-.14.13a2.25,2.25,0,0,1-3.24,0l-.13-.14a2.08,2.08,0,1,0,0,2.88l.13-.13a2.25,2.25,0,0,1,3.24,0l.14.14a2.07,2.07,0,1,0,1.49-3.52ZM19.19,22.7a.88.88,0,1,1,.87-.88A.87.87,0,0,1,19.19,22.7Zm6.49,0a.88.88,0,1,1,.87-.88A.87.87,0,0,1,25.68,22.7Z"/>
      </g>
    </g>
    <g>
      <path class="cls-2" d="M19,33.37l.2-1.1a11,11,0,0,1-6.45-5.2l-1,.54A12.09,12.09,0,0,0,19,33.37Z"/>
      <path class="cls-2" d="M33.05,27.91A12.28,12.28,0,0,0,34,17.74l-1.05.37a11.16,11.16,0,0,1-.85,9.25Z"/>
      <rect class="cls-2" x="10.29" y="19.04" width="1.11" height="1.11"/>
      <rect class="cls-2" x="12.51" y="19.04" width="1.11" height="1.11"/>
      <rect class="cls-2" x="14.73" y="19.04" width="1.11" height="1.11"/>
      <path class="cls-2" d="M39,28.35c.08-.23.17-.45.25-.67l.1-.3c.18-.56.35-1.13.48-1.7h0a17.94,17.94,0,0,0,.44-3.87,17.58,17.58,0,0,0-2.12-8.38h0l-.56-1h0A17.73,17.73,0,0,0,7.12,30.69h0L8,31.93H8a17.7,17.7,0,0,0,29.86-1.25h0c.26-.45.49-.91.71-1.38,0-.09.09-.19.13-.29S38.89,28.57,39,28.35Zm-15.93,10V34a12.16,12.16,0,0,0,10.71-7.51l-1-.43a11,11,0,0,1-9.69,6.83v-2.2H21.94v7.73A16.59,16.59,0,0,1,9,31.44l-.91-1.35h0a16.55,16.55,0,0,1-2.18-7.72h4.45a12.09,12.09,0,0,0,1.6,5.54l1-.55a11.09,11.09,0,0,1-1.45-5h4.4V21.26H5.89a16.62,16.62,0,0,1,16-16V9.64a12.15,12.15,0,0,0-10.71,7.51l1,.42a11.07,11.07,0,0,1,9.69-6.82V13H23V5.21A16.62,16.62,0,0,1,36.59,13l-3.84,2.21a12.16,12.16,0,0,0-8.44-5.5l-.17,1.1a11,11,0,0,1,7.65,5L27.93,18l.55,1,8.67-5a16.52,16.52,0,0,1,2,7.82,16.72,16.72,0,0,1-.46,3.87h0A16.63,16.63,0,0,1,23.05,38.39Z"/>
    </g>
  </g>
</svg>
