<svg id="Layer_1" data-name="Layer 1" xmlns="http://www.w3.org/2000/svg" viewBox="0 0 45 45">
  <defs>
    <style>
      .cls-1 {
        fill: #fff;
      }
    </style>
  </defs>
  <title>radar-w</title>
  <g>
    <g id="Logo_Bug" data-name="Logo Bug">
      <g>
        <path class="cls-1" d="M22.43,17.09a2.08,2.08,0,1,0,2.08,2.08A2.08,2.08,0,0,0,22.43,17.09Zm0,2.95a.88.88,0,0,1,0-1.75.88.88,0,1,1,0,1.75Z"/>
        <path class="cls-1" d="M22.43,23.59a2.08,2.08,0,1,0,2.08,2.07A2.07,2.07,0,0,0,22.43,23.59Zm0,2.95a.88.88,0,1,1,.88-.88A.88.88,0,0,1,22.43,26.54Z"/>
        <path class="cls-1" d="M25.68,20.34a2,2,0,0,0-1.49.64l-.14.13a2.25,2.25,0,0,1-3.24,0L20.68,21a2.08,2.08,0,1,0,0,2.88l.13-.13a2.25,2.25,0,0,1,3.24,0l.14.14a2.07,2.07,0,1,0,1.49-3.52Zm-6.49,2.95a.88.88,0,1,1,.87-.88A.87.87,0,0,1,19.19,23.29Zm6.49,0a.88.88,0,1,1,.87-.88A.87.87,0,0,1,25.68,23.29Z"/>
      </g>
    </g>
    <g>
      <path class="cls-1" d="M19,34l.2-1.1a11,11,0,0,1-6.45-5.2l-1,.54A12.09,12.09,0,0,0,19,34Z"/>
      <path class="cls-1" d="M33.05,28.5A12.28,12.28,0,0,0,34,18.33l-1.05.37A11.16,11.16,0,0,1,32.09,28Z"/>
      <rect class="cls-1" x="10.29" y="19.63" width="1.11" height="1.11"/>
      <rect class="cls-1" x="12.51" y="19.63" width="1.11" height="1.11"/>
      <rect class="cls-1" x="14.73" y="19.63" width="1.11" height="1.11"/>
      <path class="cls-1" d="M39,28.94c.08-.23.17-.45.25-.67l.1-.3c.18-.56.35-1.13.48-1.7h0a17.94,17.94,0,0,0,.44-3.87A17.58,17.58,0,0,0,38.11,14h0l-.56-1h0A17.73,17.73,0,0,0,7.12,31.28h0L8,32.52H8a17.7,17.7,0,0,0,29.86-1.25h0c.26-.45.49-.91.71-1.38,0-.09.09-.19.13-.29S38.89,29.16,39,28.94ZM23.05,39V34.56a12.16,12.16,0,0,0,10.71-7.51l-1-.43a11,11,0,0,1-9.69,6.83v-2.2H21.94V39A16.59,16.59,0,0,1,9,32l-.91-1.35h0A16.55,16.55,0,0,1,5.88,23h4.45a12.09,12.09,0,0,0,1.6,5.54l1-.55a11.09,11.09,0,0,1-1.45-5h4.4V21.85H5.89a16.62,16.62,0,0,1,16-16v4.43a12.15,12.15,0,0,0-10.71,7.51l1,.42a11.07,11.07,0,0,1,9.69-6.82v2.2H23V5.8a16.62,16.62,0,0,1,13.55,7.83l-3.84,2.21a12.16,12.16,0,0,0-8.44-5.5l-.17,1.1a11,11,0,0,1,7.65,5l-3.86,2.22.55,1,8.67-5a16.52,16.52,0,0,1,2,7.82,16.72,16.72,0,0,1-.46,3.87h0A16.63,16.63,0,0,1,23.05,39Z"/>
    </g>
  </g>
</svg>
