<svg id="Layer_1" data-name="Layer 1" xmlns="http://www.w3.org/2000/svg" viewBox="0 0 95 82">
  <defs>
    <style>
      .cls-1 {
        fill: #f48127;
      }

      .cls-2 {
        fill: #585858;
      }
    </style>
  </defs>
  <title>simple_radar_icon</title>
  <g>
    <g id="Logo_Bug" data-name="Logo Bug">
      <g>
        <path class="cls-1" d="M47.09,28.83a4.61,4.61,0,1,0,4.61,4.61A4.61,4.61,0,0,0,47.09,28.83Zm0,6.55A1.94,1.94,0,1,1,49,33.44,1.95,1.95,0,0,1,47.09,35.38Z"/>
        <path class="cls-1" d="M47.09,43.25a4.61,4.61,0,1,0,4.61,4.6A4.6,4.6,0,0,0,47.09,43.25Zm0,6.54A1.94,1.94,0,1,1,49,47.85,1.94,1.94,0,0,1,47.09,49.79Z"/>
        <path class="cls-1" d="M54.3,36A4.56,4.56,0,0,0,51,37.45l-.3.3a5,5,0,0,1-7.2,0l-.3-.3A4.54,4.54,0,0,0,39.89,36a4.61,4.61,0,1,0,0,9.21,4.54,4.54,0,0,0,3.3-1.41l.3-.29a5,5,0,0,1,7.2,0l.3.3A4.6,4.6,0,1,0,54.3,36ZM39.89,42.59a1.94,1.94,0,1,1,1.93-1.94A2,2,0,0,1,39.89,42.59Zm14.41,0a1.94,1.94,0,1,1,1.94-1.94A1.94,1.94,0,0,1,54.3,42.59Z"/>
      </g>
    </g>
    <g>
      <path class="cls-2" d="M39.4,66.28l.44-2.43A24.33,24.33,0,0,1,25.54,52.3l-2.16,1.19A26.84,26.84,0,0,0,39.4,66.28Z"/>
      <path class="cls-2" d="M70.66,54.16a27.07,27.07,0,0,0,2.08-22.57l-2.32.82a24.71,24.71,0,0,1-1.89,20.52Z"/>
      <rect class="cls-2" x="20.14" y="34.47" width="2.46" height="2.46"/>
      <rect class="cls-2" x="25.07" y="34.47" width="2.46" height="2.46"/>
      <rect class="cls-2" x="29.99" y="34.47" width="2.46" height="2.46"/>
      <path class="cls-2" d="M83.81,55.12c.2-.49.39-1,.56-1.48.08-.23.16-.45.23-.67a36.85,36.85,0,0,0,1.05-3.77h0a39.73,39.73,0,0,0,1-8.58A39.06,39.06,0,0,0,81.9,22l0,0L80.7,19.87l-.06,0A39.35,39.35,0,0,0,13.11,60.32h0L15,63.09h0A39.28,39.28,0,0,0,81.29,60.3l0,0c.57-1,1.08-2,1.57-3,.1-.21.19-.43.29-.64C83.4,56.13,83.61,55.63,83.81,55.12ZM48.46,77.43V67.6A27,27,0,0,0,72.24,50.94L70,50A24.53,24.53,0,0,1,48.46,65.14V60.26H46V77.43A36.84,36.84,0,0,1,17.23,62l-2-3h0a36.81,36.81,0,0,1-4.86-17.14h9.89a26.82,26.82,0,0,0,3.54,12.3l2.13-1.23a24.47,24.47,0,0,1-3.21-11.07h9.76V39.39H10.36A36.91,36.91,0,0,1,46,3.77V13.6A27,27,0,0,0,22.2,30.26l2.27.95A24.54,24.54,0,0,1,46,16.06v4.88h2.47V3.77A36.86,36.86,0,0,1,78.51,21.14L70,26.06A26.94,26.94,0,0,0,51.25,13.85l-.36,2.44a24.45,24.45,0,0,1,17,11l-8.57,4.94,1.23,2.14L79.77,23.25a36.61,36.61,0,0,1,3.33,26h0A37,37,0,0,1,48.46,77.43Z"/>
    </g>
  </g>
</svg>
