<?xml version="1.0" encoding="utf-8"?>
<!-- Generator: Adobe Illustrator 22.1.0, SVG Export Plug-In . SVG Version: 6.00 Build 0)  -->
<svg version="1.1" id="Layer_1" xmlns="http://www.w3.org/2000/svg" xmlns:xlink="http://www.w3.org/1999/xlink" x="0px" y="0px"
	 viewBox="0 0 45 45" style="enable-background:new 0 0 45 45;" xml:space="preserve">
<style type="text/css">
	.st0{fill:none;stroke:#585858;stroke-width:1.4;stroke-linecap:round;stroke-linejoin:round;stroke-miterlimit:10;}
	.st1{fill:#FFFFFF;}
	.st2{fill:#585858;}
	.st3{fill:#F58228;}
	.st4{fill:#59595B;}
	.st5{fill:#F58228;stroke:#F58228;stroke-width:0.5;stroke-miterlimit:10;}
	.st6{fill:#585858;stroke:#585858;stroke-width:0.5;stroke-miterlimit:10;}
	.st7{fill:#F58228;stroke:#F58228;stroke-width:0.2269;stroke-miterlimit:10;}
	.st8{fill:#585858;stroke:#FFFFFF;stroke-width:0.3256;stroke-miterlimit:10;}
	.st9{fill:#F58228;stroke:#FFFFFF;stroke-width:0.3256;stroke-miterlimit:10;}
	.st10{fill:#585858;stroke:#FFFFFF;stroke-width:0.5;stroke-miterlimit:10;}
	.st11{fill:none;stroke:#F58228;stroke-linecap:round;stroke-linejoin:round;stroke-miterlimit:22.9256;}
	.st12{fill:none;stroke:#585858;stroke-linecap:round;stroke-linejoin:round;stroke-miterlimit:22.9256;}
	.st13{fill:#585858;stroke:#FFFFFF;stroke-width:0.3454;stroke-miterlimit:10;}
	.st14{fill:#F58228;stroke:#FFFFFF;stroke-width:0.3454;stroke-miterlimit:10;}
	.st15{fill:#595A5C;}
	.st16{fill:none;stroke:#F58228;stroke-miterlimit:10;}
	.st17{fill:none;stroke:#FFFFFF;stroke-width:1.144;stroke-miterlimit:10;}
	.st18{fill:none;stroke:#FFFFFF;stroke-width:1.2222;stroke-miterlimit:10;}
	.st19{fill:none;stroke:#FFFFFF;stroke-width:1.2222;stroke-miterlimit:10;stroke-dasharray:1.3537,1.3537;}
	.st20{fill:none;stroke:#585858;stroke-width:1.144;stroke-miterlimit:10;}
	.st21{fill:none;stroke:#F58228;stroke-width:1.144;stroke-miterlimit:10;}
	.st22{fill:none;stroke:#585858;stroke-width:1.2222;stroke-miterlimit:10;}
	.st23{fill:none;stroke:#F58228;stroke-width:1.2222;stroke-miterlimit:10;}
	.st24{fill:none;stroke:#585858;stroke-width:1.2222;stroke-miterlimit:10;stroke-dasharray:1.3537,1.3537;}
</style>
<g>
	<g>
		<path class="st3" d="M10.5,34.5c-1.6,0-3,1.3-3,3c0,1.6,1.3,3,3,3c1.6,0,3-1.3,3-3C13.5,35.8,12.2,34.5,10.5,34.5z M10.5,39
			C9.7,39,9,38.3,9,37.4c0-0.9,0.7-1.5,1.5-1.5c0.9,0,1.5,0.7,1.5,1.5C12.1,38.3,11.4,39,10.5,39z"/>
	</g>
	<g>
		<path class="st3" d="M26.3,35.3c-0.5-0.5-1.3-0.9-2.1-0.9c-1.6,0-3,1.3-3,3c0,1.6,1.3,3,3,3c1.6,0,3-1.3,3-3
			C27.2,36.6,26.8,35.9,26.3,35.3z M24.2,39c-0.9,0-1.5-0.7-1.5-1.5c0-0.9,0.7-1.5,1.5-1.5c0.9,0,1.5,0.7,1.5,1.5
			C25.8,38.3,25.1,39,24.2,39z"/>
	</g>
	<path class="st2" d="M40.9,6.7c-0.5,0-1,0.3-1.2,0.7l-5.5,0.3c-0.3,0-0.6,0.2-0.7,0.6l-0.7,2.1L3.8,11.7c-0.2,0-0.5,0.1-0.6,0.3
		C3,12.2,3,12.4,3,12.6l2.2,11.6c0.1,0.4,0.4,0.7,0.8,0.7H28L25.6,32L7.8,32c-0.5,0-0.8,0.4-0.8,0.8c0,0.5,0.4,0.8,0.8,0.8l18.5,0
		c0.4,0,0.7-0.2,0.8-0.6l7.8-23.8l5-0.3c0.3,0.3,0.7,0.5,1.1,0.5c0.8,0,1.5-0.6,1.5-1.4C42.3,7.3,41.7,6.7,40.9,6.7z M4.8,13.3
		L9.9,13l0.6,4.1l-4.6,0c0,0,0,0,0,0c-0.1,0-0.2,0-0.3,0.1L4.8,13.3z M26.5,17.2l0.9-5l4.7-0.2l-1.7,5.2L26.5,17.2z M25.5,17.2
		l-6.4,0l0.1-4.6l7.2-0.3L25.5,17.2z M18.1,17.2l-6.6,0L10.9,13l7.2-0.3L18.1,17.2z M5.9,18.2l4.7,0l0.7,5.1l-4.6,0l-1-5.1
		C5.8,18.2,5.8,18.2,5.9,18.2z M11.6,18.2l6.4,0l-0.1,5.1l-5.6,0L11.6,18.2z M19.1,18.2l6.2,0l-1,5l-5.4,0L19.1,18.2z M26.3,18.2
		l3.8,0l-1.6,5l-3.1,0L26.3,18.2z"/>
</g>
</svg>
