<?xml version="1.0" encoding="utf-8"?>
<!-- Generator: Adobe Illustrator 22.1.0, SVG Export Plug-In . SVG Version: 6.00 Build 0)  -->
<svg version="1.1" id="Layer_1" xmlns="http://www.w3.org/2000/svg" xmlns:xlink="http://www.w3.org/1999/xlink" x="0px" y="0px"
	 viewBox="0 0 45 45" style="enable-background:new 0 0 45 45;" xml:space="preserve">
<style type="text/css">
	.st0{fill:#FFFFFF;}
</style>
<g>
	<g>
		<path class="st0" d="M10.5,34.5c-1.6,0-3,1.3-3,3c0,1.6,1.3,3,3,3c1.6,0,3-1.3,3-3S12.2,34.5,10.5,34.5z M10.5,39
			C9.7,39,9,38.3,9,37.4c0-0.9,0.7-1.5,1.5-1.5c0.9,0,1.5,0.7,1.5,1.5C12.1,38.3,11.4,39,10.5,39z"/>
	</g>
	<g>
		<path class="st0" d="M26.3,35.3c-0.5-0.5-1.3-0.9-2.1-0.9c-1.6,0-3,1.3-3,3c0,1.6,1.3,3,3,3c1.6,0,3-1.3,3-3
			C27.2,36.6,26.8,35.9,26.3,35.3z M24.2,39c-0.9,0-1.5-0.7-1.5-1.5c0-0.9,0.7-1.5,1.5-1.5c0.9,0,1.5,0.7,1.5,1.5
			C25.8,38.3,25.1,39,24.2,39z"/>
	</g>
	<path class="st0" d="M40.9,6.7c-0.5,0-1,0.3-1.2,0.7l-5.5,0.3c-0.3,0-0.6,0.2-0.7,0.6l-0.7,2.1l-29,1.3c-0.2,0-0.5,0.1-0.6,0.3
		C3,12.2,3,12.4,3,12.6l2.2,11.6c0.1,0.4,0.4,0.7,0.8,0.7h22L25.6,32H7.8C7.3,32,7,32.4,7,32.8c0,0.5,0.4,0.8,0.8,0.8h18.5
		c0.4,0,0.7-0.2,0.8-0.6l7.8-23.8l5-0.3c0.3,0.3,0.7,0.5,1.1,0.5c0.8,0,1.5-0.6,1.5-1.4C42.3,7.3,41.7,6.7,40.9,6.7z M4.8,13.3
		L9.9,13l0.6,4.1H5.9l0,0c-0.1,0-0.2,0-0.3,0.1L4.8,13.3z M26.5,17.2l0.9-5l4.7-0.2l-1.7,5.2H26.5z M25.5,17.2h-6.4l0.1-4.6l7.2-0.3
		L25.5,17.2z M18.1,17.2h-6.6L10.9,13l7.2-0.3L18.1,17.2z M5.9,18.2h4.7l0.7,5.1H6.7l-1-5.1C5.8,18.2,5.8,18.2,5.9,18.2z M11.6,18.2
		H18l-0.1,5.1h-5.6L11.6,18.2z M19.1,18.2h6.2l-1,5h-5.4L19.1,18.2z M26.3,18.2h3.8l-1.6,5h-3.1L26.3,18.2z"/>
</g>
</svg>
