<svg id="Layer_1" data-name="Layer 1" xmlns="http://www.w3.org/2000/svg" viewBox="0 0 45 45">
  <defs>
    <style>
      .cls-1 {
        fill: #fff;
      }
    </style>
  </defs>
  <title>roi-w</title>
  <g>
    <path class="cls-1" d="M7.24,24.21A2.2,2.2,0,1,1,9.43,22,2.2,2.2,0,0,1,7.24,24.21Zm0-3.29A1.1,1.1,0,1,0,8.33,22,1.1,1.1,0,0,0,7.24,20.92Z"/>
    <path class="cls-1" d="M38,24.21A2.2,2.2,0,1,1,40.17,22,2.19,2.19,0,0,1,38,24.21Zm0-3.29a1.1,1.1,0,1,0,1.1,1.1A1.1,1.1,0,0,0,38,20.92Z"/>
    <path class="cls-1" d="M35.23,13.79h-3.3v-1.1h2.75V9.94h1.1v3.3A.55.55,0,0,1,35.23,13.79Z"/>
    <path class="cls-1" d="M10.53,34.09H9.43V30.8a.55.55,0,0,1,.55-.55h3.29v1.1H10.53Z"/>
    <path class="cls-1" d="M22.6,32.45a10.09,10.09,0,0,1-1.46-.12.54.54,0,0,1-.45-.39l-.62-2.11-1.76,1.35a.55.55,0,0,1-.59.05,10.52,10.52,0,0,1-2.37-1.73.55.55,0,0,1-.13-.57L16,26.85l-2.2.06a.54.54,0,0,1-.51-.31,10.14,10.14,0,0,1-.91-2.79.55.55,0,0,1,.23-.55L14.39,22l-1.82-1.25a.53.53,0,0,1-.23-.54,10.14,10.14,0,0,1,.91-2.79.54.54,0,0,1,.51-.31l2.2.06-.74-2.08a.56.56,0,0,1,.13-.58,10.79,10.79,0,0,1,2.37-1.72.55.55,0,0,1,.59,0l1.76,1.35.62-2.12a.54.54,0,0,1,.45-.38,9,9,0,0,1,2.93,0,.55.55,0,0,1,.45.38l.62,2.12,1.75-1.35a.57.57,0,0,1,.6,0,10.79,10.79,0,0,1,2.37,1.72.56.56,0,0,1,.13.58l-.74,2.08,2.2-.06a.53.53,0,0,1,.51.31,10.49,10.49,0,0,1,.91,2.79.56.56,0,0,1-.23.54L30.82,22l1.82,1.24a.59.59,0,0,1,.23.55A10.49,10.49,0,0,1,32,26.6a.53.53,0,0,1-.51.31l-2.2-.06L30,28.93a.55.55,0,0,1-.13.57,10.52,10.52,0,0,1-2.37,1.73.57.57,0,0,1-.6-.05l-1.75-1.35-.62,2.11a.55.55,0,0,1-.45.39A10.11,10.11,0,0,1,22.6,32.45Zm-1-1.16a7.79,7.79,0,0,0,1.93,0l.75-2.54a.53.53,0,0,1,.35-.36.55.55,0,0,1,.51.08l2.1,1.62A9.43,9.43,0,0,0,28.84,29L28,26.46a.54.54,0,0,1,.53-.73l2.64.07a8.52,8.52,0,0,0,.6-1.83l-2.18-1.5a.54.54,0,0,1,0-.9l2.18-1.5a8.52,8.52,0,0,0-.6-1.83l-2.64.07a.56.56,0,0,1-.46-.23.55.55,0,0,1-.07-.5l.89-2.5A10,10,0,0,0,27.28,14l-2.1,1.61a.55.55,0,0,1-.51.09.54.54,0,0,1-.35-.37l-.75-2.53a7.79,7.79,0,0,0-1.93,0l-.75,2.53a.54.54,0,0,1-.86.28L17.93,14a9.53,9.53,0,0,0-1.56,1.13l.89,2.5a.55.55,0,0,1-.07.5.56.56,0,0,1-.46.23l-2.65-.07a9.09,9.09,0,0,0-.59,1.83l2.18,1.5a.54.54,0,0,1,0,.9L13.49,24a9.09,9.09,0,0,0,.59,1.83l2.65-.07a.54.54,0,0,1,.53.73L16.37,29a9,9,0,0,0,1.56,1.14L20,28.47a.54.54,0,0,1,.51-.08.53.53,0,0,1,.35.36Z"/>
    <rect class="cls-1" x="7.79" y="26.96" width="1.1" height="1.1"/>
    <rect class="cls-1" x="36.32" y="15.98" width="1.1" height="1.1"/>
    <path class="cls-1" d="M22.6,37.93A15.93,15.93,0,0,1,9.54,31.12l.9-.63a14.82,14.82,0,0,0,26.91-6.95l1.09.11A15.87,15.87,0,0,1,22.6,37.93Z"/>
    <path class="cls-1" d="M7.87,20.43l-1.09-.11a15.92,15.92,0,0,1,28.89-7.4l-.9.63a14.82,14.82,0,0,0-26.9,6.88Z"/>
    <g>
      <path class="cls-1" d="M22.6,25.86a2.19,2.19,0,0,1-2.19-2.19h1.1a1.1,1.1,0,0,0,2.19,0c0-.36-.78-.91-1.32-1.15-.33-.15-2-.94-2-2.15a2.2,2.2,0,0,1,4.39,0H23.7a1.1,1.1,0,1,0-2.19,0c0,.36.78.91,1.32,1.15.33.15,2,.94,2,2.15A2.2,2.2,0,0,1,22.6,25.86Z"/>
      <rect class="cls-1" x="22.06" y="17.08" width="1.1" height="1.65"/>
      <rect class="cls-1" x="22.06" y="25.31" width="1.1" height="1.65"/>
      <rect class="cls-1" x="25.9" y="21.47" width="1.1" height="1.1"/>
      <rect class="cls-1" x="18.21" y="21.47" width="1.1" height="1.1"/>
    </g>
  </g>
</svg>
