<svg id="Layer_1" data-name="Layer 1" xmlns="http://www.w3.org/2000/svg" viewBox="0 0 45 45">
  <defs>
    <style>
      .cls-1 {
        fill: #f47722;
      }

      .cls-2 {
        fill: #585858;
      }
    </style>
  </defs>
  <title>roi</title>
  <g>
    <path class="cls-1" d="M7.24,24.15A2.2,2.2,0,1,1,9.43,22,2.21,2.21,0,0,1,7.24,24.15Zm0-3.29A1.1,1.1,0,1,0,8.33,22,1.09,1.09,0,0,0,7.24,20.86Z"/>
    <path class="cls-2" d="M38,24.15a2.2,2.2,0,1,1,2.2-2.2A2.2,2.2,0,0,1,38,24.15Zm0-3.29A1.1,1.1,0,1,0,39.07,22,1.1,1.1,0,0,0,38,20.86Z"/>
    <path class="cls-1" d="M35.23,13.72h-3.3v-1.1h2.75V9.88h1.1v3.29A.55.55,0,0,1,35.23,13.72Z"/>
    <path class="cls-2" d="M10.53,34H9.43v-3.3a.55.55,0,0,1,.55-.54h3.29v1.09H10.53Z"/>
    <path class="cls-2" d="M22.6,32.38a11.58,11.58,0,0,1-1.46-.11.55.55,0,0,1-.45-.39l-.62-2.11-1.76,1.35a.53.53,0,0,1-.59,0,10.18,10.18,0,0,1-2.37-1.72.56.56,0,0,1-.13-.58L16,26.78l-2.2.06a.53.53,0,0,1-.51-.3,10.36,10.36,0,0,1-.91-2.79.54.54,0,0,1,.23-.55L14.39,22l-1.82-1.24a.54.54,0,0,1-.23-.55,10.14,10.14,0,0,1,.91-2.79.58.58,0,0,1,.51-.31l2.2.06-.74-2.07a.56.56,0,0,1,.13-.58,10.52,10.52,0,0,1,2.37-1.73.55.55,0,0,1,.59,0l1.76,1.35L20.69,12a.54.54,0,0,1,.45-.39,9,9,0,0,1,2.93,0,.55.55,0,0,1,.45.39l.62,2.11,1.75-1.35a.57.57,0,0,1,.6,0,10.52,10.52,0,0,1,2.37,1.73.56.56,0,0,1,.13.58l-.74,2.07,2.2-.06a.57.57,0,0,1,.51.31,10.49,10.49,0,0,1,.91,2.79.58.58,0,0,1-.23.55L30.82,22l1.82,1.25a.57.57,0,0,1,.23.55A10.73,10.73,0,0,1,32,26.54a.52.52,0,0,1-.51.3l-2.2-.06L30,28.86a.56.56,0,0,1-.13.58,10.18,10.18,0,0,1-2.37,1.72.55.55,0,0,1-.6,0l-1.75-1.35-.62,2.11a.56.56,0,0,1-.45.39A11.6,11.6,0,0,1,22.6,32.38Zm-1-1.16a7.79,7.79,0,0,0,1.93,0l.75-2.53a.56.56,0,0,1,.35-.37.58.58,0,0,1,.51.09L27.28,30a10.74,10.74,0,0,0,1.56-1.14L28,26.4a.58.58,0,0,1,.07-.51.56.56,0,0,1,.46-.23l2.64.08a8.61,8.61,0,0,0,.6-1.84l-2.18-1.49A.57.57,0,0,1,29.3,22a.54.54,0,0,1,.24-.45L31.72,20a8.61,8.61,0,0,0-.6-1.84l-2.64.07a.54.54,0,0,1-.53-.73L28.84,15a9.43,9.43,0,0,0-1.56-1.14l-2.1,1.62a.58.58,0,0,1-.51.09.56.56,0,0,1-.35-.37l-.75-2.54a7.79,7.79,0,0,0-1.93,0l-.75,2.54a.56.56,0,0,1-.35.37A.57.57,0,0,1,20,15.5l-2.1-1.62A9,9,0,0,0,16.37,15l.89,2.49a.54.54,0,0,1-.53.73l-2.65-.07A9.18,9.18,0,0,0,13.49,20l2.18,1.49a.54.54,0,0,1,.24.45.57.57,0,0,1-.24.46L13.49,23.9a9.18,9.18,0,0,0,.59,1.84l2.65-.08a.56.56,0,0,1,.46.23.58.58,0,0,1,.07.51l-.89,2.49A10.22,10.22,0,0,0,17.93,30L20,28.41a.57.57,0,0,1,.51-.09.56.56,0,0,1,.35.37Z"/>
    <rect class="cls-2" x="7.79" y="26.89" width="1.1" height="1.1"/>
    <rect class="cls-2" x="36.32" y="15.92" width="1.1" height="1.1"/>
    <path class="cls-2" d="M22.6,37.87A15.94,15.94,0,0,1,9.54,31.05l.9-.63a14.82,14.82,0,0,0,26.91-7l1.09.11A15.87,15.87,0,0,1,22.6,37.87Z"/>
    <path class="cls-1" d="M7.87,20.37l-1.09-.12a15.92,15.92,0,0,1,28.89-7.39l-.9.63a14.82,14.82,0,0,0-26.9,6.88Z"/>
    <g>
      <path class="cls-1" d="M22.6,25.8a2.2,2.2,0,0,1-2.19-2.2h1.1a1.1,1.1,0,1,0,2.19,0c0-.36-.78-.9-1.32-1.15-.33-.14-2-.94-2-2.14a2.2,2.2,0,1,1,4.39,0H23.7a1.1,1.1,0,1,0-2.19,0c0,.35.78.9,1.32,1.14.33.15,2,.95,2,2.15A2.21,2.21,0,0,1,22.6,25.8Z"/>
      <rect class="cls-1" x="22.06" y="17.01" width="1.1" height="1.65"/>
      <rect class="cls-1" x="22.06" y="25.25" width="1.1" height="1.65"/>
      <rect class="cls-1" x="25.9" y="21.4" width="1.1" height="1.1"/>
      <rect class="cls-1" x="18.21" y="21.4" width="1.1" height="1.1"/>
    </g>
  </g>
</svg>
