<svg id="Layer_1" data-name="Layer 1" xmlns="http://www.w3.org/2000/svg" viewBox="0 0 45 45"><defs><style>.cls-1{fill:none;stroke:#fff;stroke-miterlimit:10;}</style></defs><title>sales</title><g id="cost_money" data-name="cost money"><polyline class="cls-1" points="12.02 27.22 12.02 32.63 39.03 32.63 39.03 15.65 12.02 15.65 12.02 24.91"/><path class="cls-1" d="M18.19,29.54a2.16,2.16,0,0,0-2.31-2.32V21.05a2,2,0,0,0,2.31-2.32H33.63a2.16,2.16,0,0,0,2.31,2.32v6.17a2.31,2.31,0,0,0-2.31,2.32Z"/><line class="cls-1" x1="18.96" y1="24.14" x2="20.51" y2="24.14"/><line class="cls-1" x1="31.31" y1="24.14" x2="32.85" y2="24.14"/><path class="cls-1" d="M29,24.13A3.09,3.09,0,1,1,25.91,21,3.09,3.09,0,0,1,29,24.13Z"/><line class="cls-1" x1="13.56" y1="27.22" x2="7.39" y2="27.22"/><line class="cls-1" x1="12.02" y1="17.96" x2="8.16" y2="17.96"/><line class="cls-1" x1="6.62" y1="17.96" x2="5.07" y2="17.96"/><line class="cls-1" x1="9.7" y1="22.59" x2="2.76" y2="22.59"/><line class="cls-1" x1="30.54" y1="10.25" x2="24.37" y2="10.25"/><line class="cls-1" x1="28.22" y1="37.26" x2="17.42" y2="37.26"/><line class="cls-1" x1="22.82" y1="10.25" x2="21.28" y2="10.25"/><line class="cls-1" x1="19.73" y1="10.25" x2="18.19" y2="10.25"/><line class="cls-1" x1="16.65" y1="10.25" x2="15.1" y2="10.25"/></g></svg>