<svg id="Layer_1" data-name="Layer 1" xmlns="http://www.w3.org/2000/svg" viewBox="0 0 45 45"><defs><style>.cls-1,.cls-2{fill:none;stroke-miterlimit:10;}.cls-1{stroke:#585858;}.cls-2{stroke:#f58228;}</style></defs><title>sales color</title><g id="cost_money" data-name="cost money"><polyline class="cls-1" points="12.35 27.22 12.35 32.63 39.36 32.63 39.36 15.65 12.35 15.65 12.35 24.91"/><path class="cls-1" d="M18.52,29.54a2.16,2.16,0,0,0-2.31-2.32V21.05a2,2,0,0,0,2.31-2.32H34a2.16,2.16,0,0,0,2.31,2.32v6.17A2.32,2.32,0,0,0,34,29.54Z"/><line class="cls-1" x1="19.3" y1="24.14" x2="20.84" y2="24.14"/><line class="cls-1" x1="31.64" y1="24.14" x2="33.19" y2="24.14"/><path class="cls-1" d="M29.33,24.13A3.09,3.09,0,1,1,26.24,21,3.09,3.09,0,0,1,29.33,24.13Z"/><line class="cls-2" x1="13.89" y1="27.22" x2="7.72" y2="27.22"/><line class="cls-2" x1="12.35" y1="17.96" x2="8.49" y2="17.96"/><line class="cls-2" x1="6.95" y1="17.96" x2="5.41" y2="17.96"/><line class="cls-2" x1="10.04" y1="22.59" x2="3.09" y2="22.59"/><line class="cls-2" x1="30.87" y1="10.25" x2="24.7" y2="10.25"/><line class="cls-2" x1="28.56" y1="37.26" x2="17.75" y2="37.26"/><line class="cls-2" x1="23.15" y1="10.25" x2="21.61" y2="10.25"/><line class="cls-2" x1="20.07" y1="10.25" x2="18.52" y2="10.25"/><line class="cls-2" x1="16.98" y1="10.25" x2="15.44" y2="10.25"/></g></svg>