<svg id="Layer_1" data-name="Layer 1" xmlns="http://www.w3.org/2000/svg" viewBox="0 0 45 45"><defs><style>.cls-1{fill:#fff;}</style></defs><title>infinive_site_icons</title><path class="cls-1" d="M22.31,38.72a3,3,0,1,1,3-3A3,3,0,0,1,22.31,38.72Zm0-4.84a1.82,1.82,0,1,0,1.81,1.81A1.82,1.82,0,0,0,22.31,33.88Z"/><path class="cls-1" d="M22.31,13.34a3,3,0,1,1,3-3A3,3,0,0,1,22.31,13.34Zm0-4.83a1.81,1.81,0,1,0,1.81,1.81A1.81,1.81,0,0,0,22.31,8.51Z"/><path class="cls-1" d="M22.31,30.26a3,3,0,1,1,3-3A3,3,0,0,1,22.31,30.26Zm0-4.84a1.82,1.82,0,1,0,1.81,1.82A1.82,1.82,0,0,0,22.31,25.42Z"/><path class="cls-1" d="M13.85,30.26a3,3,0,1,1,3-3A3,3,0,0,1,13.85,30.26Zm0-4.84a1.82,1.82,0,1,0,1.82,1.82A1.82,1.82,0,0,0,13.85,25.42Z"/><path class="cls-1" d="M30.77,30.26a3,3,0,1,1,3-3A3,3,0,0,1,30.77,30.26Zm0-4.84a1.82,1.82,0,1,0,1.81,1.82A1.82,1.82,0,0,0,30.77,25.42Z"/><path class="cls-1" d="M11.44,21.8a.6.6,0,0,1-.43-.18.59.59,0,0,1,0-.85l4.83-4.83a.6.6,0,0,1,.86,0,.61.61,0,0,1,0,.85l-4.84,4.83A.58.58,0,0,1,11.44,21.8Z"/><path class="cls-1" d="M16.27,21.8a.61.61,0,0,1-.43-.18L11,16.79a.6.6,0,1,1,.85-.85l4.84,4.83a.61.61,0,0,1-.43,1Z"/><path class="cls-1" d="M19.89,21.8a.61.61,0,0,1-.42-1l4.83-4.83a.6.6,0,0,1,.86,0,.61.61,0,0,1,0,.85l-4.84,4.83A.6.6,0,0,1,19.89,21.8Z"/><path class="cls-1" d="M24.73,21.8a.6.6,0,0,1-.43-.18l-4.83-4.83a.6.6,0,1,1,.85-.85l4.84,4.83a.61.61,0,0,1-.43,1Z"/><path class="cls-1" d="M28.35,21.8a.58.58,0,0,1-.42-.18.59.59,0,0,1,0-.85l4.83-4.83a.6.6,0,1,1,.85.85l-4.83,4.83A.6.6,0,0,1,28.35,21.8Z"/><path class="cls-1" d="M33.19,21.8a.6.6,0,0,1-.43-.18l-4.83-4.83a.6.6,0,1,1,.85-.85l4.83,4.83a.61.61,0,0,1-.42,1Z"/><path class="cls-1" d="M9.62,27.84H7.81A1.81,1.81,0,0,1,6,26V11.53A1.81,1.81,0,0,1,7.81,9.72h8.46v1.21H7.81a.6.6,0,0,0-.6.6V26a.6.6,0,0,0,.6.6H9.62Z"/><polygon class="cls-1" points="14.28 13.16 13.43 12.31 15.42 10.32 13.43 8.33 14.28 7.48 17.13 10.32 14.28 13.16"/><polygon class="cls-1" points="30.34 13.16 27.5 10.32 30.34 7.48 31.2 8.33 29.21 10.32 31.2 12.31 30.34 13.16"/><path class="cls-1" d="M36.81,36.3H26.54V35.09H36.81a.6.6,0,0,0,.6-.6v-23a.6.6,0,0,0-.6-.6H28.35V9.72h8.46a1.81,1.81,0,0,1,1.81,1.81v23A1.81,1.81,0,0,1,36.81,36.3Z"/></svg>