<svg xmlns="http://www.w3.org/2000/svg" viewBox="0 0 37.01 36.24"><defs><style>.cls-1{fill:#585858;}.cls-2{fill:#f58228;}.cls-3{fill:#595a5c;}.cls-4{fill:#fff;}</style></defs><title>Asset 1</title><g id="Layer_2" data-name="Layer 2"><g id="Layer_1-2" data-name="Layer 1"><path class="cls-1" d="M18.51,36.24a.84.84,0,0,1-.41-.11l-10-6.27.82-1.31,8.85,5.53V22L6.94,15.27v9.41H5.4V13.88a.77.77,0,0,1,1.18-.65l12.34,7.71a.78.78,0,0,1,.36.65V35.47a.78.78,0,0,1-.4.68.81.81,0,0,1-.37.09"/><path class="cls-1" d="M18.51,36.24a.85.85,0,0,1-.38-.09.79.79,0,0,1-.39-.68V21.59a.76.76,0,0,1,.36-.65l12.34-7.71a.75.75,0,0,1,.78,0,.77.77,0,0,1,.4.67v10.8H30.07V15.27L19.28,22V34.08l8.84-5.53.82,1.31-10,6.27a.87.87,0,0,1-.41.11"/><path class="cls-1" d="M18.51,22.36a.84.84,0,0,1-.41-.11L5.76,14.53a.77.77,0,0,1,0-1.3L15.79,7l.81,1.31-9,5.61,10.89,6.8,10.88-6.8-9-5.61L21.23,7l10,6.27a.76.76,0,0,1,0,1.3L18.92,22.25a.87.87,0,0,1-.41.11"/><rect class="cls-2" x="-0.01" y="25.83" width="16.21" height="1.54" transform="translate(-10.6 6.02) rotate(-25.33)"/><path class="cls-2" d="M5.87,33.1.47,30.78A.76.76,0,0,1,0,29.86l1.54-5.4,1.49.43L1.7,29.63l4.77,2.05Z"/><rect class="cls-2" x="28.15" y="18.5" width="1.54" height="16.21" transform="translate(-7.5 41.35) rotate(-64.65)"/><path class="cls-2" d="M31.15,33.1l-.61-1.42,4.78-2.05L34,24.89l1.48-.43L37,29.86a.78.78,0,0,1-.44.92Z"/><rect class="cls-2" x="17.74" y="0.77" width="1.54" height="16.96"/><path class="cls-2" d="M22.64,5.22,18.51,1.78,14.37,5.22,13.39,4,18,.18a.77.77,0,0,1,1,0L23.63,4Z"/><path class="cls-3" d="M18.51,30.07a9.25,9.25,0,1,1,9.25-9.25,9.26,9.26,0,0,1-9.25,9.25m0-17a7.71,7.71,0,1,0,7.71,7.71,7.72,7.72,0,0,0-7.71-7.71"/><path class="cls-4" d="M18.51,13.11a7.71,7.71,0,1,0,7.71,7.71,7.72,7.72,0,0,0-7.71-7.71"/><path class="cls-2" d="M18.55,15.09a2.31,2.31,0,1,0,2.3,2.31,2.31,2.31,0,0,0-2.3-2.31m0,3.28a1,1,0,1,1,1-1,1,1,0,0,1-1,1"/><path class="cls-2" d="M18.55,22.31a2.31,2.31,0,1,0,2.3,2.31,2.31,2.31,0,0,0-2.3-2.31m0,3.28a1,1,0,1,1,1-1,1,1,0,0,1-1,1"/><path class="cls-2" d="M22.16,18.7a2.28,2.28,0,0,0-1.66.71l-.15.15a2.52,2.52,0,0,1-3.61,0l-.15-.15a2.25,2.25,0,0,0-1.65-.71,2.31,2.31,0,1,0,0,4.61,2.24,2.24,0,0,0,1.65-.7l.15-.15a2.52,2.52,0,0,1,3.61,0l.15.15a2.27,2.27,0,0,0,1.66.7,2.31,2.31,0,0,0,0-4.61M14.94,22a1,1,0,1,1,1-1,1,1,0,0,1-1,1m7.22,0a1,1,0,1,1,1-1,1,1,0,0,1-1,1"/></g></g></svg>