<svg id="Layer_1" data-name="Layer 1" xmlns="http://www.w3.org/2000/svg" viewBox="0 0 45 45">
  <defs>
    <style>
      .cls-1 {
        fill: #fff;
      }
    </style>
  </defs>
  <title>transportation-wh</title>
  <g>
    <path class="cls-1" d="M9.89,15.36c-.08,0-1.94.78-2.68,1.15a.53.53,0,0,1-.71-.23.53.53,0,0,1,.23-.71c.74-.37,2.43-1.05,2.77-1.19a.45.45,0,0,1,.2,0,.53.53,0,0,1,.19,1Z"/>
    <path class="cls-1" d="M19.07,28.58a.77.77,0,0,1-.45.45c-2.57,1.06-9.42,3.9-10.3,4.34a.84.84,0,0,1-1.17-1,.83.83,0,0,1,.42-.48C8.7,31.3,17.89,27.52,18,27.48a.84.84,0,0,1,1.1.46A.83.83,0,0,1,19.07,28.58Z"/>
  </g>
  <path class="cls-1" d="M41.47,12.08l-.21-.28A5.08,5.08,0,0,0,38.16,10l-.77-.15L37,9.76H35.7l-.36.06c-.27,0-.56.09-.82.16l-.41.13a18.08,18.08,0,0,0-2.15.72c-1.34.57-2.7,1.18-4,1.77l-1.6.72-.42.18A6.25,6.25,0,0,0,25,14,1.35,1.35,0,0,1,23.8,14L23.63,14l-5.16-1.59-.42-.12c-1-.3-2-.61-3-.84a4.64,4.64,0,0,0-3.32.32,1.69,1.69,0,0,1-.27.13,3.89,3.89,0,0,0-.69.4,1,1,0,0,0-.33.73.87.87,0,0,0,.31.66,25.23,25.23,0,0,0,2.09,1.43c.89.55,1.77,1.08,2.71,1.64l1.16.7.18.11-1.18.53-2.44,1.09c-.26.12-.53.24-.79.34-.54.23-1.09.47-1.62.74a.92.92,0,0,1-1.1-.1l-1.14-.84L6.6,17.76A2.42,2.42,0,0,0,3.51,18c-.07.09-.13.19-.2.3s-.05.1-.07.14v.92l.63,1.43C4.4,22,5,23.19,5.52,24.39c.07.17.13.33.2.49a4.12,4.12,0,0,0,.86,1.44,3.08,3.08,0,0,0,1.89.82,15.2,15.2,0,0,0,5.91-.85A55.76,55.76,0,0,0,20.47,24l1.12-.47.18-.08-.18,1c-.1.59-.2,1.17-.31,1.76s-.28,1.47-.43,2.21l-.42,2.18c-.16.84-.33,1.7-.47,2.54l0,.1a1.59,1.59,0,0,0,.19,1.47,2.38,2.38,0,0,0,.34.27.71.71,0,0,1,.14.1h.47l.13-.07a3.68,3.68,0,0,1,.35-.15,4.8,4.8,0,0,0,2.7-2.13c.51-.86.94-1.79,1.36-2.68l.05-.1c.57-1.22,1.13-2.45,1.69-3.68l1.21-2.64c.29-.63.58-1.25.88-1.87l.86-1.83a1.11,1.11,0,0,1,.58-.67c.88-.38,1.6-.71,2.26-1.06l.66-.34c1.86-1,3.79-2,5.65-3A5.22,5.22,0,0,0,41.54,13v-.84ZM13.78,14.26l-.68-.41-.41-.26L11.75,13l.63-.27a3.77,3.77,0,0,1,2.72-.15c1.21.33,2.44.71,3.7,1.09l1.23.37.41.13,1.07.33,1.62.52-1.42.65-1.19.54-.23.1c-.49.22-1,.43-1.47.62a.75.75,0,0,1-.26,0,.93.93,0,0,1-.46-.12Zm26.43-1.37-.73.48c-.58.38-1.06.7-1.6,1-1.37.76-2.72,1.48-4,2.13-.69.35-1.41.69-2.11,1l-1.21.57-.86.41-.06.1c-.46,1-.93,2-1.38,3-.16.34-.31.68-.46,1s-.19.4-.28.6l-.28.63L26.64,25l-.52,1.14-.38.81c-.53,1.14-1.07,2.3-1.59,3.44l-.1.2A7.16,7.16,0,0,1,22.7,32.8a4.23,4.23,0,0,1-.67.49l-.23.15L21,34l2.38-12.6-1.23.53c-.6.24-1.19.5-1.78.75l-.44.18c-1.52.64-3.1,1.3-4.66,1.88a29.72,29.72,0,0,1-4.35,1.14,4.89,4.89,0,0,1-3-.15A1.62,1.62,0,0,1,7.12,25c-.44-1-.87-1.93-1.29-2.89l-.16-.35-.27-.61c-.08-.2-.17-.39-.26-.59l-.08-.18c-.17-.39-.34-.77-.52-1.16a.56.56,0,0,1,0-.52.59.59,0,0,1,.5-.28,1.54,1.54,0,0,1,1.18.42l.11.08,1.13.85c.59.45,1.22.93,1.84,1.36a1.83,1.83,0,0,0,1.92.19c1.13-.52,2.29-1,3.42-1.53l6.65-3c.57-.27,1.14-.53,1.72-.78l3-1.32,2.22-1,.68-.3,1.47-.67.74-.33,1.21-.55.46-.21a8.32,8.32,0,0,1,4.41-.77,4.59,4.59,0,0,1,3.1,1.42l.31.3Z"/>
</svg>
