<?xml version="1.0" encoding="utf-8"?>
<!-- Generator: Adobe Illustrator 22.1.0, SVG Export Plug-In . SVG Version: 6.00 Build 0)  -->
<svg version="1.1" id="Layer_1" xmlns="http://www.w3.org/2000/svg" xmlns:xlink="http://www.w3.org/1999/xlink" x="0px" y="0px"
	 viewBox="0 0 45 45" style="enable-background:new 0 0 45 45;" xml:space="preserve">
<style type="text/css">
	.st0{fill:none;stroke:#585858;stroke-width:1.4;stroke-linecap:round;stroke-linejoin:round;stroke-miterlimit:10;}
	.st1{fill:#FFFFFF;}
	.st2{fill:#585858;}
	.st3{fill:#F58228;}
	.st4{fill:#59595B;}
	.st5{fill:#F58228;stroke:#F58228;stroke-width:0.5;stroke-miterlimit:10;}
	.st6{fill:#585858;stroke:#585858;stroke-width:0.5;stroke-miterlimit:10;}
	.st7{fill:#F58228;stroke:#F58228;stroke-width:0.2269;stroke-miterlimit:10;}
	.st8{fill:#585858;stroke:#FFFFFF;stroke-width:0.3256;stroke-miterlimit:10;}
	.st9{fill:#F58228;stroke:#FFFFFF;stroke-width:0.3256;stroke-miterlimit:10;}
	.st10{fill:#585858;stroke:#FFFFFF;stroke-width:0.5;stroke-miterlimit:10;}
	.st11{fill:none;stroke:#F58228;stroke-linecap:round;stroke-linejoin:round;stroke-miterlimit:22.9256;}
	.st12{fill:none;stroke:#585858;stroke-linecap:round;stroke-linejoin:round;stroke-miterlimit:22.9256;}
	.st13{fill:#585858;stroke:#FFFFFF;stroke-width:0.3454;stroke-miterlimit:10;}
	.st14{fill:#F58228;stroke:#FFFFFF;stroke-width:0.3454;stroke-miterlimit:10;}
	.st15{fill:#595A5C;}
	.st16{fill:none;stroke:#F58228;stroke-miterlimit:10;}
	.st17{fill:none;stroke:#FFFFFF;stroke-width:1.144;stroke-miterlimit:10;}
	.st18{fill:none;stroke:#FFFFFF;stroke-width:1.2222;stroke-miterlimit:10;}
	.st19{fill:none;stroke:#FFFFFF;stroke-width:1.2222;stroke-miterlimit:10;stroke-dasharray:1.3537,1.3537;}
	.st20{fill:none;stroke:#585858;stroke-width:1.144;stroke-miterlimit:10;}
	.st21{fill:none;stroke:#F58228;stroke-width:1.144;stroke-miterlimit:10;}
	.st22{fill:none;stroke:#585858;stroke-width:1.2222;stroke-miterlimit:10;}
	.st23{fill:none;stroke:#F58228;stroke-width:1.2222;stroke-miterlimit:10;}
	.st24{fill:none;stroke:#585858;stroke-width:1.2222;stroke-miterlimit:10;stroke-dasharray:1.3537,1.3537;}
</style>
<g>
	<g id="ogzVgR.tif">
		<g>
			<path class="st2" d="M15,7.3c4,0,7.9,0,11.9,0c0.9,0,1.1,0.2,1.1,1.1c0,5.8,0,11.6,0,17.4c0,0.1,0,0.1,0,0.2c0,1-0.2,1.2-1.2,1.2
				c-4.4,0-8.8,0-13.2,0c-3.5,0-7,0-10.5,0C2.2,27.2,2,27,2,26.1c0-5.9,0-11.9,0-17.8C2,7.5,2.2,7.3,3,7.3C7,7.3,11,7.3,15,7.3z
				 M26.5,25.6c0-5.6,0-11.2,0-16.8c-7.7,0-15.3,0-22.9,0c0,5.6,0,11.2,0,16.8C11.2,25.6,18.8,25.6,26.5,25.6z"/>
			<path class="st2" d="M38,33.3c0-0.5,0-1,0-1.5c0.8,0,1.5,0,2.3,0c0-0.9,0-1.7,0-2.5c0-1.2,0.2-2.4-0.1-3.5
				c-0.2-1.1-0.8-2.2-1.2-3.3c-0.7-1.9-1.5-3.8-2.2-5.7c-0.1-0.3-0.2-0.4-0.5-0.4c-2.1,0-4.2,0-6.2,0c-0.2,0-0.3,0-0.5,0
				c0-0.5,0-1,0-1.5c0.2,0,0.3,0,0.5,0c2.3,0,4.6,0,6.9,0c0.6,0,0.8,0.1,1,0.7c1.2,3.1,2.4,6.3,3.6,9.4c0.1,0.3,0.2,0.6,0.2,1
				c0,2.1,0,4.2,0,6.2c0,0.8-0.2,1-1,1C39.9,33.3,38.9,33.3,38,33.3z"/>
			<path class="st3" d="M16.5,33.3c0,2.6-2,4.6-4.6,4.6c-2.5,0-4.6-2.1-4.6-4.6c0-2.5,2.1-4.6,4.6-4.6
				C14.5,28.7,16.5,30.8,16.5,33.3z M8.9,33.3c0,1.7,1.4,3.1,3,3.1c1.7,0,3.1-1.4,3.1-3.1c0-1.7-1.4-3.1-3.1-3.1
				C10.3,30.3,8.9,31.6,8.9,33.3z"/>
			<path class="st3" d="M31.9,37.9c-2.6,0-4.6-2-4.6-4.6c0-2.5,2.1-4.6,4.6-4.6c2.5,0,4.6,2.1,4.6,4.6
				C36.5,35.8,34.4,37.9,31.9,37.9z M34.9,33.3c0-1.7-1.3-3.1-3-3.1c-1.7,0-3.1,1.3-3.1,3c0,1.7,1.4,3.1,3.1,3.1
				C33.5,36.4,34.9,35,34.9,33.3z"/>
			<path class="st2" d="M25.7,31.8c0,0.5,0,1,0,1.5c-2.5,0-5.1,0-7.6,0c0-0.5,0-1,0-1.5C20.6,31.8,23.1,31.8,25.7,31.8z"/>
			<path class="st2" d="M2,28.7c0.5,0,1,0,1.5,0c0,1,0,2,0,3c0.8,0,1.5,0,2.3,0c0,0.5,0,1,0,1.5c-1.1,0-2.1,0-3.1,0
				C2.3,33.3,2,33,2,32.6C2,31.4,2,30.1,2,28.7z"/>
		</g>
	</g>
	<path class="st3" d="M38.4,24.6h-6.9c-0.4,0-0.7-0.3-0.7-0.7L30,18.1l1.5-0.2l0.6,5.2h6.2V24.6z"/>
</g>
</svg>
