<svg id="Layer_1" data-name="Layer 1" xmlns="http://www.w3.org/2000/svg" viewBox="0 0 45 45">
  <defs>
    <style>
      .cls-1 {
        fill: #585858;
      }

      .cls-2 {
        fill: #f47722;
      }
    </style>
  </defs>
  <title>workflow</title>
  <g>
    <path class="cls-1" d="M29.91,24.37h-14v-6h14Zm-13-1h12v-4h-12Z"/>
    <path class="cls-1" d="M14.88,20.87h-2a1.52,1.52,0,0,1-1.51-1.51V12.85h1v6.51a.5.5,0,0,0,.5.5h2Z"/>
    <path class="cls-1" d="M13.52,15.21l-1.65-1.65-1.64,1.65-.71-.71,2-2a.5.5,0,0,1,.71,0l2,2Z"/>
    <path class="cls-1" d="M32.91,20.87h-2v-1h2a.5.5,0,0,0,.51-.5V12.85h1v6.51A1.52,1.52,0,0,1,32.91,20.87Z"/>
    <polygon class="cls-1" points="35.57 15.21 33.92 13.56 32.27 15.21 31.56 14.5 33.92 12.14 36.27 14.5 35.57 15.21"/>
    <rect class="cls-2" x="22.39" y="12.85" width="1" height="4.51"/>
    <polygon class="cls-2" points="24.55 15.21 22.9 13.56 21.25 15.21 20.54 14.5 22.9 12.14 25.25 14.5 24.55 15.21"/>
    <path class="cls-1" d="M12.38,29.88h-1V23.37a1.51,1.51,0,0,1,1.51-1.5h2v1h-2a.5.5,0,0,0-.5.5Z"/>
    <path class="cls-1" d="M11.87,30.38a.49.49,0,0,1-.35-.14l-2-2,.71-.7,1.64,1.65,1.65-1.65.71.7-2,2A.5.5,0,0,1,11.87,30.38Z"/>
    <path class="cls-1" d="M34.42,29.88h-1V23.37a.51.51,0,0,0-.51-.5h-2v-1h2a1.51,1.51,0,0,1,1.51,1.5Z"/>
    <polygon class="cls-1" points="33.92 30.59 31.56 28.23 32.27 27.53 33.92 29.18 35.57 27.53 36.27 28.23 33.92 30.59"/>
    <rect class="cls-2" x="22.39" y="25.38" width="1" height="4.51"/>
    <polygon class="cls-2" points="22.9 30.59 20.54 28.23 21.25 27.53 22.9 29.18 24.55 27.53 25.25 28.23 22.9 30.59"/>
    <path class="cls-2" d="M11.87,11.35a3,3,0,1,1,3-3A3,3,0,0,1,11.87,11.35Zm0-5a2,2,0,1,0,2,2A2,2,0,0,0,11.87,6.34Z"/>
    <path class="cls-1" d="M22.9,11.35a3,3,0,1,1,3-3A3,3,0,0,1,22.9,11.35Zm0-5a2,2,0,1,0,2,2A2,2,0,0,0,22.9,6.34Z"/>
    <path class="cls-2" d="M33.92,11.35a3,3,0,1,1,3-3A3,3,0,0,1,33.92,11.35Zm0-5a2,2,0,1,0,2,2A2,2,0,0,0,33.92,6.34Z"/>
    <path class="cls-2" d="M11.87,37.4a3,3,0,1,1,3-3A3,3,0,0,1,11.87,37.4Zm0-5a2,2,0,1,0,2,2A2,2,0,0,0,11.87,32.39Z"/>
    <path class="cls-1" d="M22.9,37.4a3,3,0,1,1,3-3A3,3,0,0,1,22.9,37.4Zm0-5a2,2,0,1,0,2,2A2,2,0,0,0,22.9,32.39Z"/>
    <path class="cls-2" d="M33.92,37.4a3,3,0,1,1,3-3A3,3,0,0,1,33.92,37.4Zm0-5a2,2,0,1,0,2,2A2,2,0,0,0,33.92,32.39Z"/>
    <rect class="cls-2" x="22.39" y="20.87" width="1" height="1"/>
    <rect class="cls-2" x="20.39" y="20.87" width="1" height="1"/>
    <rect class="cls-2" x="24.4" y="20.87" width="1" height="1"/>
  </g>
</svg>
