<svg id="Layer_1" data-name="Layer 1" xmlns="http://www.w3.org/2000/svg" viewBox="0 0 45 45">
  <defs>
    <style>
      .cls-1 {
        fill: #fff;
      }
    </style>
  </defs>
  <title>workflow-w</title>
  <g>
    <path class="cls-1" d="M29.91,25.69h-14v-6h14Zm-13-1h12v-4h-12Z"/>
    <path class="cls-1" d="M14.88,22.18h-2a1.51,1.51,0,0,1-1.51-1.5V14.17h1v6.51a.5.5,0,0,0,.5.5h2Z"/>
    <path class="cls-1" d="M13.52,16.53l-1.65-1.65-1.64,1.65-.71-.71,2-2a.5.5,0,0,1,.71,0l2,2Z"/>
    <path class="cls-1" d="M32.91,22.18h-2v-1h2a.5.5,0,0,0,.51-.5V14.17h1v6.51A1.51,1.51,0,0,1,32.91,22.18Z"/>
    <polygon class="cls-1" points="35.57 16.53 33.92 14.88 32.27 16.53 31.56 15.82 33.92 13.46 36.27 15.82 35.57 16.53"/>
    <rect class="cls-1" x="22.39" y="14.17" width="1" height="4.51"/>
    <polygon class="cls-1" points="24.55 16.53 22.9 14.88 21.25 16.53 20.54 15.82 22.9 13.46 25.25 15.82 24.55 16.53"/>
    <path class="cls-1" d="M12.38,31.2h-1V24.69a1.51,1.51,0,0,1,1.51-1.5h2v1h-2a.5.5,0,0,0-.5.5Z"/>
    <path class="cls-1" d="M11.87,31.7a.54.54,0,0,1-.35-.14l-2-2,.71-.71,1.64,1.65,1.65-1.65.71.71-2,2A.54.54,0,0,1,11.87,31.7Z"/>
    <path class="cls-1" d="M34.42,31.2h-1V24.69a.5.5,0,0,0-.51-.5h-2v-1h2a1.51,1.51,0,0,1,1.51,1.5Z"/>
    <polygon class="cls-1" points="33.92 31.91 31.56 29.55 32.27 28.84 33.92 30.49 35.57 28.84 36.27 29.55 33.92 31.91"/>
    <rect class="cls-1" x="22.39" y="26.69" width="1" height="4.51"/>
    <polygon class="cls-1" points="22.9 31.91 20.54 29.55 21.25 28.84 22.9 30.49 24.55 28.84 25.25 29.55 22.9 31.91"/>
    <path class="cls-1" d="M11.87,12.67a3,3,0,1,1,3-3A3,3,0,0,1,11.87,12.67Zm0-5a2,2,0,1,0,2,2A2,2,0,0,0,11.87,7.66Z"/>
    <path class="cls-1" d="M22.9,12.67a3,3,0,1,1,3-3A3,3,0,0,1,22.9,12.67Zm0-5a2,2,0,1,0,2,2A2,2,0,0,0,22.9,7.66Z"/>
    <path class="cls-1" d="M33.92,12.67a3,3,0,1,1,3-3A3,3,0,0,1,33.92,12.67Zm0-5a2,2,0,1,0,2,2A2,2,0,0,0,33.92,7.66Z"/>
    <path class="cls-1" d="M11.87,38.72a3,3,0,1,1,3-3A3,3,0,0,1,11.87,38.72Zm0-5a2,2,0,1,0,2,2A2,2,0,0,0,11.87,33.71Z"/>
    <path class="cls-1" d="M22.9,38.72a3,3,0,1,1,3-3A3,3,0,0,1,22.9,38.72Zm0-5a2,2,0,1,0,2,2A2,2,0,0,0,22.9,33.71Z"/>
    <path class="cls-1" d="M33.92,38.72a3,3,0,1,1,3-3A3,3,0,0,1,33.92,38.72Zm0-5a2,2,0,1,0,2,2A2,2,0,0,0,33.92,33.71Z"/>
    <rect class="cls-1" x="22.39" y="22.18" width="1" height="1"/>
    <rect class="cls-1" x="20.39" y="22.18" width="1" height="1"/>
    <rect class="cls-1" x="24.4" y="22.18" width="1" height="1"/>
  </g>
</svg>
